<svg xmlns="http://www.w3.org/2000/svg" viewBox="0 0 1124.53 1311.59"><defs><style>.cls-1,.cls-3,.cls-4,.cls-5{isolation:isolate;font-size:236.47px;font-family:HiraMaruProN-W4-83pv-RKSJ-H, Hiragino Maru Gothic ProN;}.cls-1{fill:#ebebec;}.cls-2{letter-spacing:-0.5em;}.cls-12,.cls-13,.cls-22,.cls-3,.cls-5{fill:none;}.cls-3{stroke:#e4e4e5;stroke-width:37px;}.cls-12,.cls-19,.cls-22,.cls-3,.cls-5{stroke-linecap:round;stroke-linejoin:round;}.cls-10,.cls-19,.cls-4{fill:#b76da1;}.cls-19,.cls-5{stroke:#b76da1;}.cls-5{stroke-width:5px;}.cls-6{fill:#cd98be;}.cls-7{fill:#a18877;}.cls-8{opacity:0.42;}.cls-9{fill:#c9caca;}.cls-11{fill:#90c9c0;}.cls-12,.cls-13{stroke:#e6db72;stroke-width:11px;}.cls-13{stroke-miterlimit:10;}.cls-14{fill:#e6db72;}.cls-15{fill:#6697c9;}.cls-16{fill:#eeb033;}.cls-17{fill:#eee;}.cls-18{fill:#6d438f;}.cls-20{fill:#ce6298;}.cls-21{fill:#df94b8;}.cls-22{stroke:#6d438f;stroke-width:14px;}.cls-23{fill:#decd6f;}</style></defs><title>资源 20</title><g id="图层_2" data-name="图层 2"><g id="图层_1-2" data-name="图层 1"><text class="cls-1" transform="translate(40.73 250.69) rotate(-0.71)">予約済<tspan class="cls-2" x="709.4" y="0">．．．</tspan></text><text class="cls-3" transform="translate(40.73 250.69) rotate(-0.71)">予約済<tspan class="cls-2" x="709.4" y="0">．．．</tspan></text><text class="cls-4" transform="translate(40.73 250.69) rotate(-0.71)">予約済<tspan class="cls-2" x="709.4" y="0">．．．</tspan></text><text class="cls-5" transform="translate(40.73 250.69) rotate(-0.71)">予約済<tspan class="cls-2" x="709.4" y="0">．．．</tspan></text><path class="cls-6" d="M133,1197.09c5.83,8.33,13.73,21,23.67,24.33,8.54,2.81,20.76-.65,29.84-.22l88.55,4.22C396.9,1231,519,1236.77,641,1237.31c8.11,0,114.39,3.79,114.39-8.65C635.74,951.12,602.76,973.18,453.77,968.53c-54.71-1.73-115.58,7.57-168.66,21.08-35.47,9-70.6,22.82-98.5,47.14-23.68,20.65-43.79,46.93-56.11,75.9-6.16,14.49-10.27,29.84-11,45.52-.86,17.3,2.92,23.68,13,37.84A3.33,3.33,0,0,0,133,1197.09Z"/><rect class="cls-7" y="1202.82" width="1014.91" height="108.77"/><g class="cls-8"><path class="cls-9" d="M102.71,1222.5c32.55,48.22,197.86,26.81,226,34.17,11.35.1,27,1.29,38.17,7.24,48.22,41.84,71.35,13.3,117.63,5.3,159.58,17.08,109.74-76.23,74.82-91.47-60.44-20.76-124.34-11.24-187-15.35C324.35,1162.28,92.22,1162.49,102.71,1222.5Z"/></g><ellipse class="cls-10" cx="430.63" cy="992.53" rx="160.01" ry="64.98"/><path class="cls-11" d="M565.46,1012.54l-42.82,62.38c-8.54,12.43-24.54,16.87-35.78,9.95l-51.79-47.14"/><path class="cls-11" d="M309,1010.81l40.76,63.68c8.11,12.65,24,17.62,35.47,11l49.95-47.78"/><path class="cls-12" d="M270.62,999.13a678.09,678.09,0,0,0-42.27,225"/><path class="cls-12" d="M584.92,996.64a720.63,720.63,0,0,1,24.22,239.48"/><path class="cls-6" d="M121.09,1099.46c-74.38,157.31,146.5,145,239.38,146.72,39.68,31,70.81,52.22,106.71,5.51,39,28,85.41-6.16,78.6-47.57,13.52,21.73,31.46-4.11,30.17-23,6.37-92.22-77.2-152.88-157.64-132.33-29.62,5.18-51.14,31.46-79,38-26.49,4.87-46.82-18.81-73.09-27.89C211.91,1036.54,152.66,1041.83,121.09,1099.46Z"/><path class="cls-10" d="M121.09,1099.46a201.88,201.88,0,0,0-8.32,20.54,133.44,133.44,0,0,0-5.41,21.52,84.11,84.11,0,0,0-.76,22.06,64,64,0,0,0,5.84,21.3,67.66,67.66,0,0,0,12.87,17.83,91.8,91.8,0,0,0,17.62,13.3,135.13,135.13,0,0,0,20,9.41A208.45,208.45,0,0,0,184,1232a331.9,331.9,0,0,0,43.57,7.67c14.7,1.73,29.41,2.7,44.22,3.25s29.52.75,44.33.86,29.62-.11,44.43,0a2.34,2.34,0,0,1,1.3.43h0c8.33,6.38,16.65,12.65,25.3,18.17s17.84,10.38,27.57,12.43a37.42,37.42,0,0,0,28-4.76c8.55-5,15.47-12.65,21.74-20.65a3.27,3.27,0,0,1,4.54-.65h0c7.57,5.3,16.43,8.87,25.51,9.3a44,44,0,0,0,26-6.81,46.3,46.3,0,0,0,21.41-46.82,3.78,3.78,0,0,1,3.13-4.32,3.94,3.94,0,0,1,3.79,1.62v.11a21.22,21.22,0,0,0,3.57,4.43,7.91,7.91,0,0,0,4,2.06,7.09,7.09,0,0,0,4.21-1,15.32,15.32,0,0,0,4.11-3.56,33.51,33.51,0,0,0,5.73-10.6,32.52,32.52,0,0,0,1.73-12h0v-.54a138.27,138.27,0,0,0-1.08-29.19,121.56,121.56,0,0,0-41.73-75,124,124,0,0,0-52-26.16,125.82,125.82,0,0,0-58.49.32h-.11A71.82,71.82,0,0,0,399.5,1057a188.09,188.09,0,0,0-18.06,10.16c-5.95,3.68-11.78,7.46-17.95,10.92a96.75,96.75,0,0,1-19.35,8.65l-2.59.65a22.45,22.45,0,0,1-2.6.65,29.91,29.91,0,0,1-5.41.43,39.41,39.41,0,0,1-10.7-1.19,73.94,73.94,0,0,1-19.57-8.1c-12.22-6.82-23.57-15.14-36.65-19.9a171.43,171.43,0,0,0-40.11-11.35c-13.73-2-27.9-2-41.52,1.19a91.79,91.79,0,0,0-37.41,18A114,114,0,0,0,121.09,1099.46Zm0,0c6.71-12.22,15.46-23.46,26.28-32.22a91.48,91.48,0,0,1,37.4-18.16,117.62,117.62,0,0,1,41.74-1.62,169.56,169.56,0,0,1,40.43,10.92,112.79,112.79,0,0,1,19,9c6.06,3.46,12,7.14,18.17,10.38s12.43,6.16,19.13,7.57a45.07,45.07,0,0,0,10.06.86,24.57,24.57,0,0,0,5-.54,20.76,20.76,0,0,0,2.49-.65l2.49-.75a93.88,93.88,0,0,0,18.59-8.65c5.95-3.46,11.79-7.35,17.63-11.14a178.29,178.29,0,0,1,18.27-10.7,78.65,78.65,0,0,1,20.22-7h-.11a129.89,129.89,0,0,1,115.79,25,126.62,126.62,0,0,1,36.55,49.19c8,19,10.92,40,9.62,60.55v-.54a40,40,0,0,1-2.06,14.81,41,41,0,0,1-7,13.19,21.49,21.49,0,0,1-6.17,5.3,14.42,14.42,0,0,1-8.86,1.94,15,15,0,0,1-8-3.89,28.33,28.33,0,0,1-5-6.06l6.92-2.59a52.51,52.51,0,0,1-4.32,30.92,54.09,54.09,0,0,1-20.76,23.25,51.4,51.4,0,0,1-30.27,7.57,49.94,49.94,0,0,1-15.36-3.46,60.88,60.88,0,0,1-13.73-7.46l4.65-.65a115,115,0,0,1-10.81,12.11A62.45,62.45,0,0,1,446,1275.8a44.66,44.66,0,0,1-15.79,5.63,44.14,44.14,0,0,1-8.43.43c-1.41-.11-2.81-.22-4.22-.43s-2.81-.44-4.11-.76a68.77,68.77,0,0,1-15.35-5.62,126.59,126.59,0,0,1-13.84-8.11c-8.86-6-17.08-12.44-25.3-18.92l1.41.54c-14.81-.43-29.63-.54-44.44-.76s-29.62-.76-44.43-1.62-29.63-2.16-44.33-4.11a336,336,0,0,1-43.68-8.54c-14.27-4-28.44-9-41.2-16.65a89.84,89.84,0,0,1-17.62-13.62,63.58,63.58,0,0,1-18.49-39.57,85,85,0,0,1,.87-22.17,133.34,133.34,0,0,1,5.51-21.51C115,1113,118,1106.17,121.09,1099.46Z"/><path class="cls-6" d="M681.9,787.54c-2.16-8.32-4.32-16.65-6.7-24.87A1264.47,1264.47,0,0,0,627.3,623c-10.7-26.17-25-48.66-38.38-72.77-12.11-21.73-28.33-43.14-48.65-54.38-25.63-14.17-60.12-14.06-87.36-14.06-19.79,0-38.82,2.81-57.85,5.73-19.13,1.84-38.38,3.79-57.51,8.65-26.39,6.71-59.9,15-81.31,35-17,15.79-27.35,40.55-33.84,64.66-7.14,26.59-15.46,51.89-19.46,79.9A1282.28,1282.28,0,0,0,190.61,822.9c-.21,8.54-.32,17.19-.32,25.73-.11,26.59-.43,50.7,8.11,75.9,8.11,23.67,24.11,43,42.16,56.87,70.17,53.52,151.15,65.62,230.29,55.79s139.8-39.47,194.73-108.55c14.16-17.84,25-40.44,27-65.42C694.77,836.63,688.5,813.27,681.9,787.54Z"/><path class="cls-10" d="M587.41,509.24a53.87,53.87,0,0,0,90.17,22.17c17.62-17.84,35.46-36,47-58.39,16.32-31.24,17.3-69.73-9.41-94.92-14.27-13.52-32.54-24.44-52-23.68-66.39,2.49-91.58,99.68-76.23,153.64A5.15,5.15,0,0,1,587.41,509.24Z"/><path class="cls-10" d="M276.67,506.33a53.84,53.84,0,0,1-91,18.59c-16.87-18.49-33.95-37.41-44.76-60.22-15-31.79-14.6-70.39,13.08-94.5,14.81-13,33.52-23.13,53-21.62,66.27,5.08,87.68,103.15,70.17,156.45A5.87,5.87,0,0,0,276.67,506.33Z"/><path class="cls-13" d="M146.28,414.42c5.84,6.92,8.76,17.09,6.27,26.49a27.47,27.47,0,0,1-34.05,19.57A28.27,28.27,0,0,1,99,425.89a27.47,27.47,0,0,1,34.05-19.57"/><path class="cls-6" d="M232.89,465.89a272,272,0,0,1-16.33-62.6,29.37,29.37,0,0,0,.43,2.92c-.43-2.81-.75-5.73-1-8.54-6.7,1.83-13.41,3.67-20.11,5.4a144.43,144.43,0,0,1,12.33,23.25c-.33-.87-.76-1.73-1.09-2.6,2.82,6.81,5.3,13.73,7.57,20.76s4.54,13.95,5.52,21.19a27.11,27.11,0,0,0-.44-2.92,35.65,35.65,0,0,1,.11,9.63,28.94,28.94,0,0,1,.43-2.92,27.69,27.69,0,0,1-1.51,5.94c.33-.86.76-1.73,1.08-2.59-.11.22-.21.54-.32.76h18.7a99.06,99.06,0,0,0-11.89-13.3,105.17,105.17,0,0,0-14.06-10.81,89.29,89.29,0,0,0-29.94-12.22,83.54,83.54,0,0,0-18.71-1.73c-4.54.11-9.41,3.24-10.38,7.89a13.39,13.39,0,0,0,4,13.19,23.26,23.26,0,0,0,6.6,4.11c4.43,2.16,9.08,4.11,13.73,5.95a112.22,112.22,0,0,0,12,4.1,92,92,0,0,1,12,3.68c-.86-.32-1.73-.76-2.59-1.08a22.17,22.17,0,0,1,5,2.7c-.76-.54-1.41-1.08-2.16-1.73,1.62,1.19,2.92,2.81,4.43,4.11a41.3,41.3,0,0,0,7.14,5c3.78,2.17,7.78,3.79,11.56,6a11.13,11.13,0,0,0,8.33,1.08,11,11,0,0,0,6.49-5c2.7-5.08,1.4-11.89-3.9-14.81s-11.24-5.08-16.11-8.87c.76.54,1.41,1.08,2.17,1.73-1.19-1-2.27-2.16-3.36-3.24a30.09,30.09,0,0,0-5.94-4.33,57.92,57.92,0,0,0-12.44-4.75c-3.56-1-7.24-1.84-10.7-3.14s-7.13-2.59-10.59-4.11c.86.33,1.73.76,2.59,1.08-1.84-.75-3.68-1.62-5.51-2.48a22.5,22.5,0,0,1-5-2.71c.76.54,1.41,1.08,2.17,1.73a5.07,5.07,0,0,1-1.09-1.08c.54.76,1.09,1.41,1.73,2.16l-.32-.64c.32.86.76,1.73,1.08,2.59a1.36,1.36,0,0,1-.11-.65,29.37,29.37,0,0,0,.43,2.92v-.32a24.78,24.78,0,0,1-.43,2.92.4.4,0,0,1,.11-.33c-3.46,2.6-6.92,5.3-10.38,7.89a78.42,78.42,0,0,1,11.14.54,24.18,24.18,0,0,1-2.92-.43A81.84,81.84,0,0,1,192,462.54c-.87-.33-1.73-.76-2.6-1.08a89.5,89.5,0,0,1,19.14,11.13c-.76-.54-1.41-1.08-2.16-1.73a85.91,85.91,0,0,1,15,14.92c-.54-.75-1.09-1.4-1.73-2.16.21.22.32.43.54.65a11.15,11.15,0,0,0,3.89,3.89,10.77,10.77,0,0,0,5.4,1.52c3.46,0,7.79-1.95,9.3-5.41a42.59,42.59,0,0,0,2.27-5.84,41.55,41.55,0,0,0,1.08-6.27,36,36,0,0,0,0-8.43A107.23,107.23,0,0,0,238,444.48a270.88,270.88,0,0,0-13.08-35.14,130.88,130.88,0,0,0-9.74-17.4c-2.59-3.9-7.46-6.49-12.21-5a12.75,12.75,0,0,0-4.76,2.81c-1.84,1.63-3.46,5.19-3.14,7.68a283.51,283.51,0,0,0,12.11,58.38c1.73,5.3,3.57,10.49,5.63,15.68,1.08,2.7,2.37,5,5,6.49a10.71,10.71,0,0,0,8.32,1.08,11.15,11.15,0,0,0,6.49-5c.54-2.27,1.41-5.52.33-8.22Z"/><path class="cls-14" d="M402.09,576.39c18.81,39.68,64.12,27.35,83.36-5.73,27,58.7,67.47,85.63,107.58,30.27-47.14,55.9,18.38,84.55,63.79,91.79-49,58.6-23.36,67.36,0,92.87C514.21,924,883,894.79,749.37,743.86c40.22-30.27,16.32-96.12-35-93.63,47.35-52.55-1.73-126.39-64.33-112.87,43.68-112.12-201.32-104.77-245.65-75.9"/><path class="cls-14" d="M473.67,577.79a43.21,43.21,0,0,1-35.79,24.33c-20.11,1.4-35.79-14.6-47.25-34.38-5.51,8.65-12.22,18-20.87,18.59-12,.76-19.78-15.13-25-28.86-3.14,12.43-7.89,26.92-18,29.73-4,1.19-8.11.11-12-1.3-19.57-7.46-18.27-17.08-31-6.49-5.62,4.65-10.92,25.09-17.73,32.55-10.6,11.57-23.14,20.86-37.73,26.59,17.84,12.22,35.35,31.47,30.92,52.55-2.71,12.54-12.54,22.16-21.95,30.92-12.76,11.89-26.81,24.33-44.11,26.06,15.78,1.94,31.46,8.43,42.38,20.11S252.13,796.84,248,812.3c-4.43,17-19.57,29.52-36.11,35.57-43.35,15.79-100.12,15.89-118.17-34.7-10.27-28.87,1-64.12,26.27-81.53-17.51-14-24.11-40-15.46-60.65s31.79-34.17,54.06-31.57c-19.57-21.52-22.71-56.33-7.35-81s48-37.3,76-29.3c-9.29-12.76-7.35-31.25,1.3-44.44,38.6-59.14,142-44.65,199.48-37.51,16.87,2.05,34.71,4.64,47.68,15.78"/><path class="cls-15" d="M399.71,390.75a214.79,214.79,0,0,1,4.65-29.84c1-4.44,2.27-9,4.87-12.76a6.48,6.48,0,0,1,3-2.6,5.57,5.57,0,0,1,5.09,1.3c2.59,2.16,3.67,5.84,4.32,9.19,2.16,10.16,3.14,20.76.76,30.81a5.18,5.18,0,0,1-1.08,2.49,4.27,4.27,0,0,1-2.71,1.08,92.06,92.06,0,0,1-18.92.33"/><path class="cls-15" d="M410.63,384.26c-56.11.22-111.9,23-152.77,62.6-6.59,6.38-13,13.52-14.92,22.6-2.7,12.21,3.79,25.08,13.41,32.86S278,513.68,290,516.38c86.93,19.35,177.1-3.35,262.3-29.62,13.19-4.11,28-9.63,33.41-22.71,4.54-10.81.75-23.78-6.6-32.76s-17.73-14.7-28.11-19.57c-49.3-23.14-86.6-32.33-140.34-27.46"/><path class="cls-16" d="M678.44,771.22c-12,11.67-18.92,29-17.73,45.73,1.19,16.32,9.08,31.68,22.71,41.08,12.86,8.87,29.84,9.3,43.78,2.81a37.36,37.36,0,0,0,16.55-15.13c4.21-7.35,6-16.87,3.24-25.09a23.55,23.55,0,0,0-8.33-11.56,22.24,22.24,0,0,0-10.7-3.68,20.31,20.31,0,0,0-19,8.87,14.73,14.73,0,0,0-2,5.08c-1,4.11,1.29,9,5.62,9.94,4.11,1,9-1.18,10-5.62A8.56,8.56,0,0,1,723,822c-.33.65-.54,1.3-.87,2a5.58,5.58,0,0,1,1-1.73c.65-1-1.4,1.62-.64.75l.64-.65c.55-.54,1.52-.86-.64.55.21-.11.43-.33.64-.44a9,9,0,0,1,1.73-.86c-.64.32-1.29.54-1.94.86a22.55,22.55,0,0,1,3.57-1c-.76.11-1.41.22-2.17.32a24,24,0,0,1,3.79,0c-.76-.1-1.41-.21-2.16-.32a21.05,21.05,0,0,1,3.67,1c-.65-.32-1.3-.54-1.94-.86a7.56,7.56,0,0,1,1.83,1c.65.43,1.52,1.41-.43-.43.22.22.54.43.76.65a4.82,4.82,0,0,0,.75.75c.76.87-1.29-1.73-.32-.32a19.35,19.35,0,0,1,1.41,2.49c-.33-.65-.54-1.3-.87-2a18.37,18.37,0,0,1,1.3,4.76c-.11-.76-.22-1.41-.33-2.16a25.83,25.83,0,0,1,0,5.83c.11-.75.22-1.4.33-2.16a28.71,28.71,0,0,1-1.84,6.6c.32-.65.54-1.3.87-2a24.58,24.58,0,0,1-2.92,5.19c-1.19,1.62,1-1.19.1-.22-.32.33-.64.76-1,1.09-.54.64-1.19,1.18-1.84,1.83l-1.94,1.63c2.16-1.73.75-.55.21-.22a7.42,7.42,0,0,1-1.19.76,25.84,25.84,0,0,1-4.86,2.48c.65-.32,1.3-.54,1.94-.86a36.26,36.26,0,0,1-9.51,2.59l2.16-.32a37.69,37.69,0,0,1-9.84,0l2.17.32a37,37,0,0,1-8.87-2.38c.65.33,1.3.54,2,.87a34.11,34.11,0,0,1-6.71-3.79c-.21-.1-.43-.32-.65-.43-1.18-.86,1.3,1,.55.43-.55-.43-1-.86-1.52-1.29a34.21,34.21,0,0,1-2.81-2.71,29.41,29.41,0,0,1-2.38-2.81c1.73,2.06.22.33-.11-.21s-.75-1.09-1.08-1.63a55,55,0,0,1-3.67-7c.32.65.54,1.29.86,1.94a53.46,53.46,0,0,1-3.35-12.32c.11.75.22,1.4.32,2.16a51.32,51.32,0,0,1,0-12.87c-.1.76-.21,1.41-.32,2.17A54.58,54.58,0,0,1,680.39,796c-.33.65-.54,1.3-.87,1.95a53.58,53.58,0,0,1,4.76-8.87,21.55,21.55,0,0,1,1.41-1.94c.75-1.08,0,0-.33.43a6.91,6.91,0,0,1,.87-1,39.5,39.5,0,0,1,3.56-3.79c3-2.92,3.25-8.54,0-11.46a8.13,8.13,0,0,0-11.35-.1Z"/><path class="cls-16" d="M107.47,760.19c-12,11.67-18.92,29-17.73,45.73,1.19,16.33,9.08,31.68,22.7,41.09,12.87,8.86,29.84,9.29,43.79,2.81a37.36,37.36,0,0,0,16.54-15.14c4.22-7.35,6.06-16.87,3.25-25.08A23.64,23.64,0,0,0,167.69,798a22.24,22.24,0,0,0-10.7-3.68,20.33,20.33,0,0,0-19,8.87,15,15,0,0,0-2.06,5.08c-1,4.11,1.3,9,5.63,10,4.11,1,9-1.19,9.94-5.63A10.26,10.26,0,0,1,152,811c-.32.65-.54,1.3-.86,2a5.58,5.58,0,0,1,1-1.73c.65-1-1.4,1.62-.65.76l.65-.65c.54-.54,1.52-.87-.65.54.22-.11.44-.33.65-.44a9,9,0,0,1,1.73-.86c-.65.32-1.3.54-1.94.86a22.43,22.43,0,0,1,3.56-1l-2.16.33a21.81,21.81,0,0,1,3.79,0l-2.17-.33a20.93,20.93,0,0,1,3.68,1c-.65-.32-1.3-.54-2-.86a7.79,7.79,0,0,1,1.84,1c.65.44,1.51,1.41-.43-.43.21.22.54.43.76.65a4.85,4.85,0,0,0,.75.76c.76.86-1.3-1.73-.32-.33a18.18,18.18,0,0,1,1.4,2.49c-.32-.65-.54-1.3-.86-1.95a18.48,18.48,0,0,1,1.3,4.76c-.11-.76-.22-1.41-.33-2.16a25.92,25.92,0,0,1,0,5.84c.11-.76.22-1.41.33-2.17a29.08,29.08,0,0,1-1.84,6.6c.32-.65.54-1.3.86-2a24.15,24.15,0,0,1-2.92,5.19c-1.19,1.62,1-1.19.11-.21-.32.32-.65.75-1,1.08-.54.65-1.19,1.19-1.84,1.84l-1.95,1.62c2.17-1.73.76-.54.22-.22a7.89,7.89,0,0,1-1.19.76,25.26,25.26,0,0,1-4.86,2.48c.64-.32,1.29-.54,1.94-.86a36.37,36.37,0,0,1-9.51,2.59c.75-.1,1.4-.21,2.16-.32a37.69,37.69,0,0,1-9.84,0c.76.11,1.41.22,2.16.32a37.51,37.51,0,0,1-8.86-2.37c.65.32,1.3.54,1.94.86a34.5,34.5,0,0,1-6.7-3.78c-.22-.11-.43-.33-.65-.44-1.19-.86,1.3,1,.54.44-.54-.44-1-.87-1.51-1.3a34.16,34.16,0,0,1-2.81-2.7,29.31,29.31,0,0,1-2.38-2.82c1.73,2.06.22.33-.11-.21s-.76-1.08-1.08-1.62a55.17,55.17,0,0,1-3.68-7c.33.65.54,1.3.87,1.94a53.33,53.33,0,0,1-3.35-12.32c.11.76.21,1.4.32,2.16a51.24,51.24,0,0,1,0-12.86c-.11.75-.21,1.4-.32,2.16A54.5,54.5,0,0,1,109.42,785c-.33.64-.54,1.29-.87,1.94a53.88,53.88,0,0,1,4.76-8.86,21.5,21.5,0,0,1,1.4-1.95c.76-1.08,0,0-.32.43a7.49,7.49,0,0,1,.86-1,39.62,39.62,0,0,1,3.57-3.79c3-2.91,3.25-8.54,0-11.46a7.93,7.93,0,0,0-11.35-.1Z"/><ellipse class="cls-17" cx="322.81" cy="725.64" rx="95.15" ry="77.31" transform="translate(-409.37 1033.32) rotate(-88.81)"/><ellipse class="cls-18" cx="322.31" cy="752.42" rx="47.46" ry="48.98" transform="translate(-436.63 1059.05) rotate(-88.81)"/><ellipse class="cls-17" cx="295.32" cy="751.87" rx="17.84" ry="14.49" transform="translate(-462.51 1031.53) rotate(-88.81)"/><path class="cls-19" d="M344.46,739.43c1.19,0,2.38,0,3.57.11l45.2,1c11.24.22,19.46-11,16.11-22.16-15.79-52.77-47.25-88.88-84.34-89.74s-70.06,34-88,86.06c-3.79,11,4,22.6,15.13,22.81Z"/><ellipse class="cls-17" cx="524.33" cy="726.62" rx="95.15" ry="77.31" transform="translate(-213 1235.77) rotate(-88.81)"/><ellipse class="cls-18" cx="523.73" cy="753.4" rx="47.46" ry="48.98" transform="translate(-240.37 1261.39) rotate(-88.81)"/><ellipse class="cls-17" cx="496.84" cy="752.85" rx="17.84" ry="14.49" transform="translate(-266.15 1233.97) rotate(-88.81)"/><path class="cls-19" d="M546,740.4c1.19,0,2.38,0,3.56.11l45.2,1c11.24.22,19.46-11,16.11-22.16-15.79-52.76-47.25-88.87-84.33-89.74s-70.06,34.06-88,86.06c-3.79,11,4,22.6,15.13,22.82Z"/><path class="cls-20" d="M447.29,927.66l-38.82-.11c-17.3,0-32.11-12.43-32.87-27.46l-5.4-108.33c-.76-15,12.86-27.36,30.16-27.25l38.82.11c17.3,0,32.11,12.43,32.86,27.46l5.41,108.34C478.21,915.44,464.69,927.66,447.29,927.66Z"/><ellipse class="cls-21" cx="396.2" cy="799.43" rx="6.38" ry="15.46" transform="translate(-403.78 404.33) rotate(-37.35)"/><ellipse class="cls-21" cx="445.7" cy="799.98" rx="14.7" ry="6.7" transform="translate(-467.83 736.06) rotate(-56.87)"/><path class="cls-22" d="M386.85,977.07c32.65-69.41,86.82-26.38,124,7.35"/><path class="cls-10" d="M463.07,1253.31a61.18,61.18,0,0,0,7-11.56,50.15,50.15,0,0,0,3.67-12.33,44.42,44.42,0,0,0,.33-12.54,41.57,41.57,0,0,0-1.19-6.16,63.61,63.61,0,0,0-2-6.06c-2.92-8-7.46-15.89-11.57-24.11a213.36,213.36,0,0,1-10.92-25.41,231.17,231.17,0,0,1,16.87,21.95c5.08,7.57,10.38,15.35,13.84,24.54a47.06,47.06,0,0,1,3.14,14.49,40.39,40.39,0,0,1-1.95,14.81,43.36,43.36,0,0,1-6.7,13,58.26,58.26,0,0,1-4.87,5.3A34.73,34.73,0,0,1,463.07,1253.31Z"/><path class="cls-10" d="M517.24,1134.82c6.7,3.13,12.32,8.43,16.76,14.38a65.83,65.83,0,0,1,9.94,20.11,72.11,72.11,0,0,1,3,22A69.79,69.79,0,0,1,543.4,1213c-1.19-7.25-2-14.28-3.24-21.2a182.29,182.29,0,0,0-4.54-20.11,110.37,110.37,0,0,0-7.46-18.92A112.42,112.42,0,0,0,517.24,1134.82Z"/><path class="cls-23" d="M682.66,646.55c5.94-1,11.78-1.73,17.62-2.48s11.57-1.62,17.3-2.6c11.46-1.83,22.71-4,33.84-6.59l4.22-1,4.21-1,4.22-1.08c1.41-.32,2.7-.76,4.11-1.08l8.33-2.27c2.81-.87,5.73-1.62,8.75-2.38a53.5,53.5,0,0,1,9.41-1.41,33.78,33.78,0,0,1,9.84.76,23.71,23.71,0,0,1,8.86,4,19.51,19.51,0,0,1,3.46,3.25,16.51,16.51,0,0,1,2.38,4c-4.65-4-10.16-5.09-15.46-4.87s-10.27,1.95-15.46,4.11l-8,3.35c-1.41.54-2.81,1.19-4.22,1.73l-4.21,1.62a165.14,165.14,0,0,1-17.41,5.08,161,161,0,0,1-36,4.11,142.77,142.77,0,0,1-18.06-1.19A156.64,156.64,0,0,1,682.66,646.55Z"/><path class="cls-23" d="M701.58,674.34a32.87,32.87,0,0,1,6.81-7.13c.32-.22.65-.55,1-.76l1.08-.76c.65-.43,1.41-1,2.17-1.4a35.66,35.66,0,0,1,4.54-2.38,43.53,43.53,0,0,1,9.84-3.25,44.14,44.14,0,0,1,5.19-.75,20.57,20.57,0,0,1,2.59-.22h2.7c.87,0,1.73.11,2.71.11s1.73.11,2.7.22a44.76,44.76,0,0,1,5.3,1,42.7,42.7,0,0,1,10.16,3.78c3.14,1.62,5.62,3.25,7.89,4a15.87,15.87,0,0,0,3.25.87c1.19.21,2.48.21,3.89.32,2.7,0,6-.11,9.3-.11h9.62l4.76.11a17.82,17.82,0,0,1,6.59.87,11.12,11.12,0,0,1,4,2.27,18.34,18.34,0,0,1,2.49,2.81c1.19,1.84,1.73,3.13,2.49,4.54A298.75,298.75,0,0,1,828.4,713.8,293.46,293.46,0,0,1,804,683.86c-1-1.3-2-2.82-2.6-3.46a1.58,1.58,0,0,0-.75-.65c-.22-.11-.11,0-.22,0s-1.3,0-2.92.11l-4.76.32c-3.13.22-6.38.32-9.51.54s-6.27.32-9.84.32a35.77,35.77,0,0,1-5.73-.54,23,23,0,0,1-5.95-1.73,69.29,69.29,0,0,1-9-5.08A44.84,44.84,0,0,0,737,668a46,46,0,0,0-8.65-.65,49.26,49.26,0,0,0-8.86.87A48.71,48.71,0,0,0,701.58,674.34Z"/><path class="cls-23" d="M716.82,718.45a31,31,0,0,1,17.41-4.32,45.53,45.53,0,0,1,9.3,1.4,56.22,56.22,0,0,1,8.86,3.46c1.41.76,2.82,1.52,4.11,2.38s2.6,1.84,3.9,2.81a50,50,0,0,1,6.81,6.6,66.43,66.43,0,0,1,10,15.68,81.59,81.59,0,0,1,3.46,8.54c1,2.92,1.84,5.84,2.49,8.65,1.4,5.62,2.59,11.13,3.89,16.54,2.7,10.59,5.73,21,15.25,28.22-5.84-1-11.36-4.54-15.47-9.3a58.31,58.31,0,0,1-9.4-15.68c-2.38-5.51-4.22-11-6.06-16.32-1-2.71-1.73-5.19-2.7-7.68s-2.05-5-3.14-7.35a82.13,82.13,0,0,0-7.89-13.41,56.29,56.29,0,0,0-10.59-10.92,68.81,68.81,0,0,0-6.49-4.22,43,43,0,0,0-7.24-3A39.93,39.93,0,0,0,716.82,718.45Z"/><path class="cls-23" d="M183.15,465.35c-3.78,12.43-8.54,24.33-11.57,36.22s-4.54,23.68-2.27,34.7,8.22,21.52,14.6,32.66a175.12,175.12,0,0,1,8.86,17.4c2.49,6.06,4.44,12.65,4.65,19.14-5.83-11.68-13.94-20.76-21.94-30.92a134.45,134.45,0,0,1-11.25-16.22c-.86-1.51-1.62-2.92-2.38-4.54l-1.08-2.38c-.32-.76-.65-1.62-1-2.38l-1-2.48a23.18,23.18,0,0,1-.76-2.6l-.76-2.59-.54-2.6a60.25,60.25,0,0,1-.32-21.08,84.75,84.75,0,0,1,5.73-19.57,112.94,112.94,0,0,1,9.4-17.41A137.13,137.13,0,0,1,183.15,465.35Z"/><path class="cls-23" d="M54.71,639.2a50.38,50.38,0,0,1,28.87-15.57,24.42,24.42,0,0,1,8.86,0,22.48,22.48,0,0,1,8.11,3.9A124.6,124.6,0,0,1,113,638.66a130,130,0,0,0,11.68,10.49,30.55,30.55,0,0,0,3.14,2.16l.43.22c.11.11.21.11.32.21a3.89,3.89,0,0,0,.65.33,5.69,5.69,0,0,0,1.41.43,22.13,22.13,0,0,0,6.7.54,52.72,52.72,0,0,0,14.6-3,67.06,67.06,0,0,0,6.92-2.91,29.62,29.62,0,0,0,5.73-3.68l-1.84,4.32a20.69,20.69,0,0,0-5.84-11.89,49.2,49.2,0,0,0-11.79-9.08c-2.27-1.3-4.64-2.6-7.13-3.78s-5-2.6-7.57-4a66.39,66.39,0,0,1-14.81-11c-1.08-1.19-2.16-2.38-3.14-3.68s-1.94-2.59-2.81-3.89-1.62-2.7-2.38-4.11-1.4-2.81-1.94-4.22a68.23,68.23,0,0,1-4.54-17.51c-1.41-11.79-.65-23.14,1.08-34.38.11-.33.43-.65.75-.54a.5.5,0,0,1,.54.54c2.06,11.13,3.57,22.27,6.71,32.54s7.67,19.57,14.81,25.95,17.08,10.7,27,17.41a60.73,60.73,0,0,1,13.84,12.54,46.38,46.38,0,0,1,5.08,8.43A31.23,31.23,0,0,1,173,647v.32a4.59,4.59,0,0,1-1.84,4A38.44,38.44,0,0,1,163,656a62.54,62.54,0,0,1-8.21,2.92,65.87,65.87,0,0,1-17.3,2.6,25.76,25.76,0,0,1-9.3-1.52,22.75,22.75,0,0,1-2.38-1.08c-.43-.22-.76-.43-1.19-.65a2.32,2.32,0,0,1-.54-.32l-.43-.33c-1.19-.86-2.27-1.73-3.46-2.7A133.07,133.07,0,0,1,108.55,643c-1.84-2.06-3.57-4-5.41-6a64.7,64.7,0,0,0-5.62-5.41,17.92,17.92,0,0,0-6.16-3.56,19.67,19.67,0,0,0-7.24-.54,48.28,48.28,0,0,0-28.44,12.54.67.67,0,0,1-.86,0A.56.56,0,0,1,54.71,639.2Z"/><path class="cls-23" d="M70.17,665c.65,2.06,1.19,4,1.84,6s1.29,4,1.94,6c1.41,3.89,2.92,7.78,4.54,11.46s3.36,7.46,5.3,11,3.89,7.14,5.95,10.6a107.33,107.33,0,0,0,7,9.84l1.83,2.38c.54.75,1.19,1.73,1.52,2.16s.43.54.11.32a1.76,1.76,0,0,0-.65-.1c-.22,0-.22.1-.11.1a6.06,6.06,0,0,0,1.84-.1c1.08-.11,2-.33,3.13-.54a59.9,59.9,0,0,1,6.38-.65,59.67,59.67,0,0,1,13.19.21.72.72,0,0,1,.65.76.55.55,0,0,1-.22.43,58.09,58.09,0,0,1-10.92,7.35c-1.83,1.09-3.78,2-5.62,2.92L105,736.4a20.21,20.21,0,0,1-4.21,1.3A11.92,11.92,0,0,1,94,736.62a14.27,14.27,0,0,1-4.54-3.89,23.2,23.2,0,0,1-1.94-3c-.54-1-1.08-2-1.52-2.92-1.94-3.89-3.56-8-5.4-11.89s-3.25-8-4.65-12-2.49-8.21-3.57-12.43S70.6,682.13,70,677.91s-1-8.43-1.19-12.65a.63.63,0,0,1,.65-.65.62.62,0,0,1,.76.43Z"/><path class="cls-23" d="M108.12,756.94c-3.79,2.06-7.57,3.9-11,6.17a47.22,47.22,0,0,0-9,7,13.61,13.61,0,0,0-2.6,4.22,15.84,15.84,0,0,1-2,3.78c-.87,1.09-1.84,3.14-3.46,5.3a13,13,0,0,1-3.25,3.14,5.73,5.73,0,0,1-4.54,1,.78.78,0,0,1-.54-1.08h0v-.11a5.21,5.21,0,0,0,.11-3.13,21.84,21.84,0,0,1-.54-2.6,13.41,13.41,0,0,1-.32-3v-1.83a13.35,13.35,0,0,1,.32-2.06,12.26,12.26,0,0,1,1.51-3.89A10.18,10.18,0,0,1,74,768.08a9.63,9.63,0,0,1,1.41-1.51l1.51-1.3c.54-.43,1.08-.76,1.62-1.19,1.09-.76,2.17-1.41,3.25-2.06a41.26,41.26,0,0,1,13.08-5,68.31,68.31,0,0,1,13.08-1.3.7.7,0,0,1,.65.65A.71.71,0,0,1,108.12,756.94Z"/><path class="cls-23" d="M791.1,1083.68c.76,1.4,1.41,2.81,2.16,4.21s1.52,2.71,2.38,4a73.88,73.88,0,0,0,5.62,7.46,53.17,53.17,0,0,0,6.6,6.49,45.84,45.84,0,0,0,3.57,2.92c.65.43,1.29.87,1.84,1.3l1.94,1.3a48.42,48.42,0,0,0,8.11,4.21c1.41.65,2.81,1.19,4.22,1.73l1.08.43,1,.33c.65.22,1.3.43,2.06.65a19.69,19.69,0,0,0,4.21.86,18.07,18.07,0,0,0,4.22.11,9.16,9.16,0,0,0,7.24-3.89c.11-.11.22-.22.44-.11s.1.11.1.22a8.17,8.17,0,0,1-2.27,4.65,12.84,12.84,0,0,1-4.65,2.81,17.41,17.41,0,0,1-5.19.86,21.18,21.18,0,0,1-5.19-.43,22.3,22.3,0,0,1-2.59-.65c-.43-.11-.87-.32-1.3-.43l-1.19-.43-2.27-1-2.16-1.19a68.94,68.94,0,0,1-8.22-5.51,64,64,0,0,1-22.16-31.14c0-.11,0-.32.21-.32a.64.64,0,0,0,.22.54Z"/><path class="cls-23" d="M179.37,853.17q-5.69,5.51-11.35,11c-1.84,1.83-3.68,3.67-5.52,5.62s-3.67,3.78-5.51,5.62-3.57,3.89-5.3,5.84-3.57,3.78-5.51,5.62-3.9,3.46-6.06,5.08a67.49,67.49,0,0,1-6.49,4.65c-.1.11-.32,0-.43-.11v-.21a40.73,40.73,0,0,1,4.22-6.92,68,68,0,0,1,4.86-6.27,45.29,45.29,0,0,1,5.63-5.62c2.05-1.73,4.1-3.46,6.05-5.19s4-3.46,6-5.19,4.11-3.36,6.17-5c4.21-3.24,8.43-6.48,12.76-9.4.1-.11.32-.11.32.1C179.48,853,179.48,853.06,179.37,853.17Z"/><path class="cls-23" d="M92.55,1181.2l-11.35,11c-1.84,1.84-3.68,3.67-5.52,5.62s-3.67,3.78-5.51,5.62-3.57,3.89-5.3,5.84-3.57,3.78-5.51,5.62-3.9,3.46-6.06,5.08a67.35,67.35,0,0,1-6.48,4.65c-.11.11-.33,0-.44-.1v-.22a40.73,40.73,0,0,1,4.22-6.92,68,68,0,0,1,4.86-6.27,45.29,45.29,0,0,1,5.63-5.62c2-1.73,4.11-3.46,6-5.19s4-3.46,6.06-5.19,4.1-3.35,6.16-5c4.22-3.24,8.43-6.48,12.76-9.4.1-.11.32-.11.32.11C92.66,1181,92.66,1181.09,92.55,1181.2Z"/><path class="cls-23" d="M685.15,944a40.28,40.28,0,0,0-1.73,13.4l.21,3.36.54,3.24.76,3.24,1,3.14c.43,1,.87,2,1.3,3l1.51,2.91c.54,1,1.08,1.84,1.62,2.82s1.09,1.83,1.63,2.81,1.19,1.84,1.73,2.81,1.19,1.84,1.83,2.7,1.3,1.84,2,2.7,1.41,1.84,2,2.82h0c.11.1,0,.32-.1.43s-.22.11-.22,0a18.69,18.69,0,0,1-3.35-1.41c-1.08-.65-2.06-1.29-3.14-1.94s-1.83-1.52-2.81-2.38-1.62-1.84-2.48-2.71-1.41-2.05-2.06-3-1.08-2.16-1.62-3.35l-1.19-3.46c-.32-1.19-.65-2.38-1-3.46l-.76-3.57-.43-3.57-.11-3.57.22-3.56a36.29,36.29,0,0,1,4-13.52c.1-.11.21-.22.32-.11C685.15,943.77,685.25,943.88,685.15,944Z"/><path class="cls-23" d="M100.55,1254.4a40.28,40.28,0,0,0-1.73,13.4l.22,3.35.54,3.25.75,3.24,1,3.14c.43,1,.86,2,1.29,3l1.52,2.92c.54,1,1.08,1.84,1.62,2.81s1.08,1.84,1.62,2.81,1.19,1.84,1.73,2.82,1.19,1.83,1.84,2.7,1.3,1.84,1.95,2.7,1.4,1.84,2.05,2.81h0c.11.11,0,.33-.11.44s-.21.1-.21,0a18.78,18.78,0,0,1-3.36-1.41c-1.08-.65-2-1.3-3.13-2s-1.84-1.51-2.81-2.37-1.62-1.84-2.49-2.71-1.41-2-2-3-1.09-2.17-1.63-3.36L98,1285.53c-.33-1.19-.65-2.38-1-3.46l-.75-3.56-.44-3.57-.11-3.57.22-3.57a36.3,36.3,0,0,1,4-13.51c.11-.11.22-.22.33-.11C100.55,1254.07,100.55,1254.29,100.55,1254.4Z"/><path class="cls-23" d="M850.57,1219.26a40.28,40.28,0,0,0-1.73,13.4l.21,3.36.54,3.24.76,3.24,1,3.14c.44,1,.87,2,1.3,3l1.51,2.92c.54,1,1.09,1.84,1.63,2.82s1.08,1.83,1.62,2.81,1.19,1.83,1.73,2.81,1.19,1.84,1.84,2.7,1.29,1.84,1.94,2.7,1.41,1.84,2.06,2.81h0c.1.11,0,.33-.11.44s-.22.11-.22,0a18.69,18.69,0,0,1-3.35-1.41c-1.08-.65-2-1.3-3.14-1.94s-1.83-1.52-2.81-2.38-1.62-1.84-2.48-2.71-1.41-2-2.06-3-1.08-2.17-1.62-3.35L848,1250.4c-.32-1.19-.65-2.38-1-3.46l-.76-3.57-.43-3.57-.11-3.57.22-3.57a36.3,36.3,0,0,1,4-13.51c.11-.11.21-.22.32-.11C850.57,1218.93,850.57,1219.15,850.57,1219.26Z"/><path class="cls-23" d="M698.88,874.79a48.47,48.47,0,0,0,2,10.49l.87,2.49,1,2.48,1.08,2.38L705,895l1.3,2.27,1.51,2.16c.54.65,1,1.41,1.51,2.06a14.6,14.6,0,0,1,1.41,2.16c1.73,2.92,3.57,5.84,5.41,9.3.1.11,0,.32-.11.43h-.22a22.12,22.12,0,0,1-9.41-6.49c-.64-.75-1.18-1.51-1.73-2.27a28.23,28.23,0,0,1-1.4-2.48l-1.08-2.6c-.33-.86-.65-1.73-1-2.7l-.86-2.7-.76-2.71-.54-2.7-.43-2.81a42,42,0,0,1,.11-11c0-.11.11-.22.32-.22C698.77,874.58,698.88,874.68,698.88,874.79Z"/><path class="cls-23" d="M765,831.65A34.18,34.18,0,0,0,778.34,846a44.27,44.27,0,0,0,8.87,4.22,47.61,47.61,0,0,0,9.41,2.27,58.6,58.6,0,0,0,9.73.32l9.73-.65c3.24-.21,6.59-.54,9.94-.86s6.71-.65,10.17-.76c.1,0,.32.11.32.22a.38.38,0,0,1-.11.22,61,61,0,0,1-9.51,4,76.82,76.82,0,0,1-10.06,2.59,48.2,48.2,0,0,1-10.48.65,69.87,69.87,0,0,1-10.49-1.41,47.1,47.1,0,0,1-10.06-3.13,42.78,42.78,0,0,1-9.08-5.3c-5.51-4.21-10.16-9.84-12.22-16.43,0-.11,0-.33.22-.33A.2.2,0,0,1,765,831.65Z"/><path class="cls-23" d="M925.82,768.19c.54,9.4,1,18.92,1.51,28.33l.65,14.16.32,7.13a55.06,55.06,0,0,1-.11,7.36,24,24,0,0,1-1.83,7.56,22.88,22.88,0,0,1-4.22,6.71c-3.57,3.89-8.11,6.38-12.54,8.32-8.87,3.9-17.84,6.06-25,12.33a.32.32,0,0,1-.43,0,.21.21,0,0,1,0-.33c2.49-4.21,6.49-7.46,10.49-10s8.43-4.65,12.54-6.81,8-4.33,11-7.25a18.8,18.8,0,0,0,3.78-5,18.53,18.53,0,0,0,1.84-6c.65-4.33.43-9.19.65-13.84l.22-14.17c.21-9.51.43-18.92.64-28.43,0-.11.11-.22.33-.22C925.6,768,925.82,768.08,925.82,768.19Z"/><path class="cls-23" d="M765.15,931.66c1.62,7.79,3.25,15.57,6.06,22.82S778.13,968.42,784,973a30.12,30.12,0,0,0,9.83,5,72.85,72.85,0,0,0,10.92,2.38,22.45,22.45,0,0,1,2.81.43l2.92.32,2.92.22c1,.11,2,.11,2.92.22,3.89.21,7.9.43,11.9.86.1,0,.21.11.21.32a.24.24,0,0,1-.21.22,87.92,87.92,0,0,1-11.79,2.38,65.43,65.43,0,0,1-12.22.43A39.83,39.83,0,0,1,792,983a38.2,38.2,0,0,1-18.6-16.44,54.12,54.12,0,0,1-4.76-11.24,126.94,126.94,0,0,1-4.11-23.57c0-.11.11-.32.22-.32S765.15,931.45,765.15,931.66Z"/><path class="cls-23" d="M919.87,915.66c-4.22,2-8.43,3.89-12.54,6s-8.22,4.21-12.22,6.48c-2.05,1.09-4,2.28-6,3.46s-3.89,2.49-5.83,3.68a118.88,118.88,0,0,1-12.44,6.16l.76-1.4a9.35,9.35,0,0,0,0,2.48,9.2,9.2,0,0,0,.76,2.71.21.21,0,0,1-.11.32h-.22a6.29,6.29,0,0,1-2.16-2.27,7.55,7.55,0,0,1-1.3-3,1,1,0,0,1,.33-1.08l.43-.32a56.85,56.85,0,0,1,11.35-8.33c1.08-.54,2.06-1.08,3.14-1.62l3.24-1.4,6.38-2.81c4.32-1.84,8.65-3.57,13.08-5.19s8.87-3,13.3-4.22c.11,0,.32,0,.32.22C920.09,915.44,920,915.55,919.87,915.66Z"/><path class="cls-16" d="M888.3,1067.24c1.84,6.17,3.46,12.33,5.19,18.49L896,1095l2.37,9.3a81.68,81.68,0,0,0,2.71,9.08c1,2.92,1.94,5.84,3,8.65,2.17,5.62,5.09,10.7,10.6,14.27.11.11.22.22.11.43s-.11.11-.22.11a16.88,16.88,0,0,1-9.19-4.32,28.28,28.28,0,0,1-6.16-8.22,37.92,37.92,0,0,1-3.24-9.51c-.65-3.25-1.19-6.49-1.73-9.63l-1.73-9.4-1.63-9.52c-1-6.38-2-12.65-3-19,0-.11.1-.32.21-.32S888.19,1067.13,888.3,1067.24Z"/><path class="cls-23" d="M707.42,1088.33a58.15,58.15,0,0,1,9.62,15.13c1.19,2.81,2.27,5.62,3.24,8.33s2.06,5.51,3.36,8a30.53,30.53,0,0,0,4.64,6.81,29.65,29.65,0,0,0,6.06,4.86,20.33,20.33,0,0,0,3.46,1.73,21.4,21.4,0,0,0,3.78,1,13.25,13.25,0,0,0,8-1.3h0a.21.21,0,0,1,.33.11v.32a11.54,11.54,0,0,1-8.33,4.76,15,15,0,0,1-5-.22,24.17,24.17,0,0,1-4.76-1.51,19.69,19.69,0,0,1-7.67-6.27,39.42,39.42,0,0,1-4.44-8.43c-2.27-5.73-3.46-11.57-5.19-17.19a67.61,67.61,0,0,0-7.46-15.79.21.21,0,0,1,.11-.32C707.09,1088.22,707.31,1088.22,707.42,1088.33Z"/><path class="cls-23" d="M901.06,1190.28c5.84-4.32,11.78-8.32,17.94-12.11,3-1.94,6.17-3.78,9.3-5.51s6.27-3.57,9.73-5.08a33.73,33.73,0,0,1,11.25-3.14,18.88,18.88,0,0,1,6.05.65,19.43,19.43,0,0,1,5.52,2.49,34.08,34.08,0,0,1,8.32,7.89,46.75,46.75,0,0,1,5.62,9.51.21.21,0,0,1-.1.33h-.33c-2.81-2.38-5.3-5-8-7.25a46,46,0,0,0-8.22-5.84l-1.08-.54a4.68,4.68,0,0,0-1.08-.43c-.32-.11-.76-.32-1.08-.43s-.76-.22-1.08-.33a18.67,18.67,0,0,0-2.27-.54,17.58,17.58,0,0,0-2.27-.21,23.49,23.49,0,0,0-9.62,1.73c-3.25,1.19-6.49,2.81-9.74,4.32s-6.48,3-9.62,4.65c-6.38,3.14-12.65,6.7-18.92,10.16a.2.2,0,0,1-.32-.1C901,1190.5,901,1190.28,901.06,1190.28Z"/><path class="cls-23" d="M827.75,1178.39a87.27,87.27,0,0,0-14.81,3.46l-3.57,1.19-3.46,1.4-3.46,1.52-3.35,1.62c-1.08.65-2.16,1.19-3.24,1.84l-3.14,2c-1,.65-2.05,1.41-3.13,2s-2.06,1.3-3.14,2-2.05,1.3-3.13,2-2.06,1.29-3.25,1.94l-3.24,2c-1.08.65-2.16,1.3-3.35,1.94h0a.21.21,0,0,1-.33-.1v-.22a34.94,34.94,0,0,1,2.17-3.35,33,33,0,0,1,2.48-3,37.25,37.25,0,0,1,2.81-2.81c1-.86,1.95-1.73,3-2.59l3.24-2.28c1.09-.64,2.27-1.29,3.46-1.94l3.57-1.62c1.19-.44,2.38-1,3.68-1.52l3.67-1.4,3.68-1.19,3.78-1,3.79-.87a74.39,74.39,0,0,1,15.35-1.3c.11,0,.22.11.22.33C828,1178.17,827.86,1178.28,827.75,1178.39Z"/><path class="cls-23" d="M778.13,1225.74a87.38,87.38,0,0,0-14.82,3.46l-3.56,1.19-3.46,1.41-3.46,1.51-3.35,1.62c-1.09.65-2.17,1.19-3.25,1.84l-3.13,2.06c-1,.65-2.06,1.4-3.14,2.05s-2.05,1.3-3.13,1.95-2.06,1.29-3.14,1.94-2.05,1.3-3.24,2l-3.25,1.94c-1.08.65-2.16,1.3-3.35,1.95h0a.2.2,0,0,1-.32-.11v-.21a35,35,0,0,1,2.16-3.36,33,33,0,0,1,2.49-3,31.05,31.05,0,0,1,2.81-2.81c1-.87,1.94-1.73,3-2.6l3.25-2.27c1.08-.65,2.27-1.3,3.46-2l3.57-1.62c1.18-.43,2.37-1,3.67-1.51l3.68-1.41,3.67-1.19,3.79-1,3.78-.86a73,73,0,0,1,15.35-1.3c.11,0,.22.11.22.32C778.34,1225.64,778.23,1225.74,778.13,1225.74Z"/><path class="cls-23" d="M624.92,1243.58a39.22,39.22,0,0,0,7.25,7.36l2.05,1.51,2.16,1.4,2.17,1.3,2.27,1.08,2.27,1,2.38.75a21.7,21.7,0,0,1,2.37.76c.76.22,1.52.54,2.27.76,3.14,1.19,6.28,2.16,9.74,3.56a.6.6,0,0,1,.21.44.11.11,0,0,1-.11.11,19.6,19.6,0,0,1-11.13,1.08c-.87-.22-1.84-.44-2.71-.65s-1.73-.65-2.59-1.08l-2.49-1.41c-.75-.54-1.62-1-2.38-1.51l-2.27-1.62-2.16-1.73-2.05-1.84-1.84-1.95a36.65,36.65,0,0,1-5.84-9,.21.21,0,0,1,.11-.33C624.71,1243.48,624.82,1243.58,624.92,1243.58Z"/><path class="cls-23" d="M849.48,636.28A123.75,123.75,0,0,0,859,647.85c1.62,1.84,3.35,3.57,5.19,5.3s3.57,3.35,5.4,5,3.9,3,5.84,4.44,3.9,2.81,5.73,4.1c3.9,2.6,7.79,4.65,12.87,4.65h0a.34.34,0,0,1,.32.33c0,.11,0,.21-.1.21a11.63,11.63,0,0,1-7.9,1.84,21.5,21.5,0,0,1-7.89-2.38,27.43,27.43,0,0,1-6.49-4.65c-1.83-1.73-3.67-3.67-5.4-5.51a92.94,92.94,0,0,1-9.73-11.78,87.67,87.67,0,0,1-7.79-13,.2.2,0,0,1,.11-.32C849.27,636.07,849.48,636.18,849.48,636.28Z"/></g></g></svg>