<svg xmlns="http://www.w3.org/2000/svg" viewBox="0 0 1374.77 1374.77"><defs><style>.cls-1{fill:#cd98be;}.cls-2{fill:#e6db72;}.cls-3{fill:#b4b4b5;}.cls-4,.cls-8{fill:#90c9c0;}.cls-5{fill:#88c6bf;}.cls-13,.cls-6{fill:none;}.cls-6{stroke:#74b3b0;}.cls-19,.cls-6{stroke-linecap:round;stroke-linejoin:round;}.cls-7{fill:#74b3b0;}.cls-8{stroke:#88c6bf;}.cls-10,.cls-13,.cls-20,.cls-8{stroke-miterlimit:10;}.cls-9{fill:#5f80a5;}.cls-10{fill:#f6f6f6;stroke:#b9baba;}.cls-11,.cls-20{fill:#b76da1;}.cls-12{fill:#6d438f;}.cls-13{stroke:#e6db72;stroke-width:6px;}.cls-14{fill:#6697c9;}.cls-15{fill:#eeb033;}.cls-16{fill:#eee;}.cls-17{fill:#ce6298;}.cls-18{fill:#df94b8;}.cls-19{fill:#eeeeef;stroke:#eeeeef;stroke-width:31px;}.cls-20{stroke:#b76da1;stroke-width:2px;}</style></defs><title>资源 24</title><g id="图层_2" data-name="图层 2"><g id="图层_1-2" data-name="图层 1"><path class="cls-1" d="M169.75,900.31a39.21,39.21,0,0,0,4.69,20.54c59.39,109.4,320.07,15,337.7-7.26,42.09-38.07-19-144.46-59.05-197.37C439.92,698.91,414.57,692.44,393,701,178.24,786.1,179.57,685.52,169.75,900.31Z"/><path class="cls-2" d="M209.27,763.55a202.46,202.46,0,0,0-3.13,53.81,222.1,222.1,0,0,0,11.17,53.14c3.24,9.49,6.81,18.87,10.38,28.36,1,2.68,3.8,4.91,6.92,3.9,2.68-.89,5-3.9,3.91-6.92-6.25-16.41-12.62-32.93-16.75-50-1-4.36-1.89-8.71-2.56-13.06-.12-.9-.34-1.79-.45-2.68-.11-.56-.11-1-.22-1.57,0-.11-.23-1.89-.12-.67-.33-2.23-.55-4.57-.78-6.81a203,203,0,0,1-.78-26c.23-4.91.56-9.93,1.12-14.84.11-1.23.33-2.46.44-3.69-.11,1.23.12-.56.12-.67.11-.67.22-1.45.33-2.12.34-2.46.78-4.91,1.23-7.37.56-2.9-.78-6.14-3.91-6.92-2.9-.33-6.36,1.12-6.92,4.13Z"/><path class="cls-2" d="M393.47,701a237.35,237.35,0,0,1,31.82,55,244.29,244.29,0,0,1,16.63,61.63,257,257,0,0,1,2.13,35.94c-.12,3.58,5.47,3.58,5.58,0a246.3,246.3,0,0,0-7.71-65.08,251.23,251.23,0,0,0-24.11-60.62,253.77,253.77,0,0,0-20.43-30.81c-.89-1.23-3-1-3.91,0-1.22,1.11-.89,2.68,0,3.9Z"/><path class="cls-1" d="M222.33,1189.67c3.46,1.9,6.92,3.69,10.5,5.25,12.72,5.81,27.46-2.46,29.58-16.3,12.5-82.72,43.32-196.93,21.1-186.55C198.67,981,224.45,1108.51,212.06,1167A20.89,20.89,0,0,0,222.33,1189.67Z"/><path class="cls-1" d="M343.57,1027.13c-109.63,117.78-120.9,125.59-54.81,170.14a23.37,23.37,0,0,0,34.27-9.49c30.25-63.3,78.48-115.66,121.91-171.14a26,26,0,0,0,2.45-3.69c25.79-50.68-33.82-68.54-68.21-44.54a22.82,22.82,0,0,0-6,6.25c-9.83,15.29-10.72,35.61-28.14,51.13A14.74,14.74,0,0,0,343.57,1027.13Z"/><ellipse class="cls-3" cx="200.34" cy="1363.83" rx="79.6" ry="10.94"/><path class="cls-4" d="M249.13,1155.18c.44,14.29,1,28.58,1.45,42.87.11,3.35.22,6.81,1.56,9.6,1.45,3.24,4,5.13,6.47,6.81,84.74,59.61,177.17,113,272.51,104.49,31.49-2.79,61.07-22.33,76.14-58,8-19,9.16-43.76-1-61.29-25.79-45-100.14-16.08-140.22-13.95-33.16,1.78-67.77-8.6-99.58-16.42-11.28-2.79-18.31-8.7-28.25-13.17-6.36-2.79-21.77,8.71-29.13,10.94-19.65,6-46.45,8.26-61-12.06"/><path class="cls-5" d="M246.33,1155.18c.34,9.71.67,19.53,1,29.25.22,4.91.33,9.82.56,14.84.22,4,.56,8.27,3,11.73s5.81,5.47,9.16,7.81c3.57,2.57,7.25,5,10.94,7.59,7.48,5.14,15,10.16,22.55,15.19,29.8,19.42,60.62,37.51,93.22,51.91,31,13.62,63.63,24,97.34,27.68a225.3,225.3,0,0,0,49.12.45,92.3,92.3,0,0,0,37.29-12.5c25.12-15.19,43.21-43.1,45.77-72.46,1.34-14.73-1.34-30.47-10-42.64A50.13,50.13,0,0,0,580,1175.5c-10.94-3.47-22.66-4-34-3.47-12.39.56-24.67,2.46-36.84,4.58-11.05,1.9-22.22,4.13-33.38,5.58-15.29,1.9-30.81,1-46-1.34-18.31-2.79-36.17-7.48-54-12-4.35-1.12-8.82-2-13.06-3.46a66.06,66.06,0,0,1-10.16-4.8c-3.46-1.9-6.92-3.91-10.49-5.7-2.68-1.34-4.91-2.12-8-1.67-5.8.89-11.27,4.13-16.3,6.92-2.45,1.34-4.91,2.68-7.37,3.79a61.63,61.63,0,0,1-7.81,2.35c-12.06,2.9-25.57,4-37.29-.89a34.4,34.4,0,0,1-14.51-11.61,2.89,2.89,0,0,0-3.8-1,2.75,2.75,0,0,0-1,3.8,41.15,41.15,0,0,0,15.52,13.17,48.62,48.62,0,0,0,18.53,4.47A78.43,78.43,0,0,0,299,1172.7c5.58-1.11,11.16-2.45,16.3-5s10.38-5.92,15.85-7.93a17.92,17.92,0,0,1,3.46-1,3.14,3.14,0,0,1,1-.11h.9c.78.11-.34-.11.33.11,3.24,1,6.37,3.13,9.27,4.69,3.24,1.79,6.47,3.68,9.93,5.25a66.39,66.39,0,0,0,11.95,4c8.71,2.23,17.42,4.46,26.24,6.58,17.63,4.36,35.5,8,53.69,9.27a174.18,174.18,0,0,0,38.07-2.24c23.11-3.68,46.22-9.26,69.78-8.7,10.49.22,21.32,1.9,30.81,6.81a43.33,43.33,0,0,1,21,24.89c9.82,28.58-2.91,61.18-23.23,81.83A85.77,85.77,0,0,1,552,1311.92c-13.51,4.8-27.8,5.47-42,5.47-32.82-.11-65.19-7.37-96-18.65-32.48-11.83-63.29-28.13-92.88-46.1-15.18-9.27-30-19-44.65-28.92-3.69-2.45-7.26-5-10.94-7.48-3.13-2.23-6.93-4.24-9.38-7.14-2.68-3.13-2.57-7.48-2.68-11.39-.11-4.8-.34-9.49-.45-14.29q-.5-13.89-1-27.8c-.23-4-5.81-4-5.7-.44Z"/><path class="cls-6" d="M240.19,1159.64c8,26.35,13.29,54.93,8.49,82.39"/><path class="cls-7" d="M305.17,1255c13.62,7.48,26.57,16.64,40.08,24.9,12.72,7.92,25.67,15.4,39.18,21.1,21.1,8.82,43.2,12.84,65.42,15,5.69.55,54.7,8.15,51.47-8.26-.67-3.35-4-4.69-6.81-5.25-20.55-4.13-41.31-3.24-62-4.8s-41.2-8-60.62-17-37.74-20.1-55.93-31.93c-10.05-6.48-32-26-44.1-18.53-7.93,5,19,17.75,21.43,18.86C297.35,1250.85,301.26,1252.86,305.17,1255Z"/><path class="cls-7" d="M598.78,1263.13c-12.17,16.86-25,31.82-45.44,30.14-5.14-.44-9.71-.44-10.38-7.81-.9-8.71,4.46-10.27,9.82-11.39a14.48,14.48,0,0,1,3.13-.22c27.24-1,27.24-1,34.27-32.6.56-2.57,1-5.36,3.57-4.8a8.8,8.8,0,0,1,5.25,3.46C603.91,1247.5,601.34,1255.32,598.78,1263.13Z"/><path class="cls-7" d="M593.31,1187.89c-1.79,8.59-4.8,16.52-13.07,15.29-6.69-.89-13.5-4.24-13-15.4.56-10.27,6.7-15,13.51-14.63C587.05,1173.38,592.86,1178.06,593.31,1187.89Z"/><path class="cls-7" d="M462.69,1189.67c13.28,22.78,9.15,62.19-6.59,76.14-3,2.68-6.47,7.15-10.83,2.35-2.68-2.91-1.78-6.48.45-8.71,16.19-16,17-38,15.52-60.84C461.13,1196.71,461.91,1194.59,462.69,1189.67Z"/><path class="cls-7" d="M417.81,1195.48c.56,20.21-8.71,32.37-18.75,43.76-3.24,3.69-7.82,3.57-11.06-.44-3.79-4.69-.67-8.94,2.24-11.06,13.39-9.71,18.42-24.89,19.31-43.09.11-2.9.78-6,3.68-5.47,1.34.34,3.24,2.57,3.58,4.35C417.48,1187.89,417.59,1192.46,417.81,1195.48Z"/><path class="cls-7" d="M435.56,1191.91a8.38,8.38,0,0,1,5.92,9.15c-2.68,17.75-7.37,34.61-19.54,46.11-2.57,2.45-6.25,5.91-9.6,1.23-3.57-5-.11-8.6,2.57-11.17C426.85,1225.62,430.76,1208.43,435.56,1191.91Z"/><path class="cls-7" d="M246.89,1237c0,19.31,78.82,77.48,87,28.8-27.58-15-52.14-48.23-88.64-55.71C245.78,1218.92,246.78,1227.85,246.89,1237Z"/><path class="cls-5" d="M170.09,923.19c-29.25,125.37,79.15,110.86,128.27,108.63a19.28,19.28,0,0,0,8.93-2.57c12.17-7.26,30.59-27.24,30.48-21-.12,8.82,7,16.08,15.63,17.86,50.23,10.28,113.42,13.07,134.74-7.81a15.41,15.41,0,0,0,2.35-3c37.28-58.73,85.18-147.26-8-163-21.88-3.23-39.19.23-62.85,6-.67.23-1.45.45-2.12.67-90,33.72-192.8,18.53-240,52.81A20,20,0,0,0,170.09,923.19Z"/><path class="cls-2" d="M472.29,874.52c7.93,6.7,16,13.28,23.89,20,7,5.92,14,12.51,22.22,16.64a37,37,0,0,0,15.74,4.35,5.58,5.58,0,1,0,0-11.16,5,5,0,0,1-1.34-.12,2.53,2.53,0,0,1-.9-.11s1,.23.34,0c-1-.22-2.12-.44-3.13-.67a28.11,28.11,0,0,1-2.79-.89c-.44-.11-1.22-.56-.33-.11a12.62,12.62,0,0,1-1.68-.78,49.7,49.7,0,0,1-5.24-3L516.72,897a8.58,8.58,0,0,0-1.11-.78,2.05,2.05,0,0,1-.56-.45c-.67-.56,1,.78-.11-.11-7.48-5.92-14.63-12.17-21.89-18.2-4.35-3.57-8.7-7.26-13.06-10.83-2.23-1.9-5.69-2.34-7.92,0-1.68,2.12-2.12,6,.22,7.93Z"/><path class="cls-2" d="M213.85,907.12c-5.36,9.49-10.61,19-16,28.47-2.45,4.35-4.8,8.7-7.25,12.95-1.12,1.89-2.24,3.68-3.46,5.47-.56.78-1.12,1.67-1.68,2.45-.33.56,0,.34.11-.11,0,.11-.33.34-.44.45A6.23,6.23,0,0,1,184,958a24.74,24.74,0,0,1-2.46,2.45c-.44.34-.78.67-1.22,1-.12.11-.67.55-.12.11s-.22.11-.33.22a30.92,30.92,0,0,1-2.68,1.56,3.75,3.75,0,0,1-.67.34c.45,0,1-.34.11,0-.56.22-1.11.33-1.67.56a5.62,5.62,0,0,0,3,10.83c9.27-2.57,15.63-10.16,20.43-18,5.58-8.93,10.38-18.31,15.52-27.46,3.13-5.58,6.25-11.28,9.49-16.86,1.45-2.57.67-6.25-2-7.59a5.39,5.39,0,0,0-7.59,1.9Z"/><path class="cls-8" d="M224.68,1039.3C178.9,963.16,45.16,1037.85,58,1115.66c8.37,56.82,56.15,82.39,65.2,141.11.11.56.11,1.23.22,1.78,5,109,115.88,157.08,128.61,26.69a13.69,13.69,0,0,0,.11-2.12C249.91,1186.77,239.64,1040.08,224.68,1039.3Z"/><path class="cls-7" d="M166.18,1325.76c43,86,130.84-85-3.8-22C159.37,1308.35,159.81,1313.82,166.18,1325.76Z"/><path class="cls-7" d="M101.54,1099.81a61.67,61.67,0,0,0,32.71-2.91,60.25,60.25,0,0,0,24.67-17.53,61.3,61.3,0,0,0,8.93-14.28c1.12-2.68.9-6.14-2-7.6-2.45-1.22-6.36-.89-7.59,2a63.3,63.3,0,0,1-6.58,11.28c.78-1.12-.34.33-.45.56a10.14,10.14,0,0,1-1,1.11c-.78.9-1.56,1.79-2.34,2.57a45.16,45.16,0,0,1-4.91,4.35,2.05,2.05,0,0,0-.56.45c.89-.67.33-.22.11-.11l-1.23.89c-1,.67-1.89,1.34-2.9,1.9a65.38,65.38,0,0,1-6.14,3.24h0a1.6,1.6,0,0,1-.67.22c-.56.23-1.23.45-1.79.67-1.11.45-2.34.78-3.46,1.12a53.15,53.15,0,0,1-7.36,1.56c.11,0,.89-.11.33,0s-.78.11-1.23.11a11.67,11.67,0,0,1-1.9.11c-1.34.12-2.79.12-4.13.12s-2.79-.12-4.13-.23c-.67-.11-1.22-.11-1.89-.22,1.11.11.33,0,0,0s-1-.11-1.46-.22c-2.9-.56-6.14.78-6.92,3.9-.67,2.79.78,6.37,3.91,6.93Z"/><path class="cls-7" d="M120.74,1137.54a89.3,89.3,0,0,0,57.38-29.7,83,83,0,0,0,10.83-15.4c1.45-2.57.67-6.25-2-7.59s-6.14-.79-7.59,2c-1.23,2.23-2.57,4.35-3.91,6.47-.67,1-1.45,2-2.23,3a2.59,2.59,0,0,1-.56.67l.11-.11-1.33,1.68a79.3,79.3,0,0,1-10.61,10.6c-.45.45-1,.78-1.45,1.23-.22.22-1,.78,0,0-.22.22-.45.34-.67.56-1,.78-2,1.45-3,2.23q-3.18,2.17-6.36,4-3.34,1.85-6.7,3.35c-.22.11-.56.22-.78.34,0,0-1.34.55-.45.22s-.44.22-.44.22c-.23.11-.56.23-.78.34-1.12.44-2.35.89-3.58,1.34a72.87,72.87,0,0,1-8,2.23c-1.46.33-2.91.56-4.36.89-.67.11-1.34.23-2.12.34s1-.11.22,0a6.7,6.7,0,0,0-1.45.22c-2.9.34-5.69,2.35-5.58,5.58,0,2.46,2.35,5.58,5.47,5.25Z"/><path class="cls-7" d="M143.29,1172A100.92,100.92,0,0,0,178,1155.85c5.25-3.91,10.16-8.15,13.85-13.62,3.46-5.25,5.24-11.5,6.47-17.64,1.34-6.7,2.12-13.51,4.69-19.87,1.12-2.68-1.23-6.25-3.91-6.92-3.24-.79-5.69,1-6.92,3.9-2.23,5.36-3.13,11.17-4.13,16.86-.56,2.9-1,5.69-1.79,8.49-.33,1.22-.78,2.56-1.22,3.79a9.63,9.63,0,0,0-.45,1.12c-.22.78.33-.78,0,0a22.62,22.62,0,0,1-1.12,2.34c-.67,1.12-1.34,2.23-2.12,3.35-.22.22-.78,1.12-.11.11-.22.23-.34.45-.56.67a21.74,21.74,0,0,1-1.56,1.68,37.6,37.6,0,0,1-3,2.9c-.55.45-1,.89-1.56,1.34a3,3,0,0,1-.67.56c-.22.11-.33.33-.56.44.45-.33.56-.44.23-.11a86.74,86.74,0,0,1-15.07,9.27c-1.57.78-3.13,1.45-4.69,2.12-.23.11-1.23.56-.23.11-.44.22-.89.34-1.34.56-.78.33-1.56.56-2.23.89a77.77,77.77,0,0,1-9.82,3,5.7,5.7,0,0,0-3.91,6.92,6,6,0,0,0,7,3.91Z"/><path class="cls-9" d="M365,973.43,340.78,962a7.6,7.6,0,0,1-3.68-10.27L743.57,87.36a7.62,7.62,0,0,1,10.27-3.69l24.23,11.39a7.62,7.62,0,0,1,3.68,10.27L375.39,969.75A7.93,7.93,0,0,1,365,973.43Z"/><path class="cls-10" d="M901.32,640.53,276.59,395.59a20.93,20.93,0,0,1-11.84-27.13L403.86,13.79A20.91,20.91,0,0,1,431,2l624.73,244.93A20.92,20.92,0,0,1,1067.54,274L928.44,628.69A21.06,21.06,0,0,1,901.32,640.53Z"/><path class="cls-1" d="M182.92,801.17c-.55,4,2.79,7.37,5.92,9.94,23.22,18.87,49.79,33.38,73,52.25a102.86,102.86,0,0,0,23.22,14.17c8.71,3.91,17.75,6.37,26.35,10.61,2.79,1.34,10.05,3.57,11.72,6.14,9.71,14.51,1.79,28.24,17.19,38.85,19.65,16.19,41.42,10.94,63,13.17,36.5,27.24,79.93-6.47,48.11-43.76,20.55.45,35.28-27.24,23.45-44,66.2-28.58-11.05-139.78-105.95-35.51-15.63,21.55-39.74,12.28-58.72,1.12-11.39-6.7-22.21-14.51-33.49-21.43-13.17-8.15-28.47-12.73-42.87-18.54-14-5.58-28.24-11.16-43.31-11.38"/><path class="cls-11" d="M182.92,801.17a8.79,8.79,0,0,0,2.13,6.14,31.36,31.36,0,0,0,4.91,4.58q5.19,4.18,10.71,8c7.26,5.25,14.63,10.16,22.11,15.18s15,9.83,22.33,15c3.68,2.57,7.36,5.14,10.94,7.82s7,5.58,10.6,8.15A105.31,105.31,0,0,0,290,878.65c4.14,1.67,8.38,3,12.62,4.69,2.12.78,4.24,1.67,6.25,2.57,1,.44,2,.89,3.13,1.45a26.29,26.29,0,0,0,3,1.23,44,44,0,0,1,6.25,2.79,7.56,7.56,0,0,1,2.91,2.45c.55,1,1.22,2,1.78,3a43.15,43.15,0,0,1,4.13,13.06c.34,2.23.67,4.46,1.12,6.59a25.86,25.86,0,0,0,.78,3.12,8.58,8.58,0,0,0,.56,1.56,5.41,5.41,0,0,0,.56,1.46,21.59,21.59,0,0,0,8.15,9.48h0a50.19,50.19,0,0,0,13.84,7.93,62.08,62.08,0,0,0,15.63,3.46c10.72,1.12,21.77.23,32.82,1.34H404l.33.22c6.92,5,15,8.71,23.45,9.38s17.19-1.34,23.66-6.58a19.76,19.76,0,0,0,2.35-2c.78-.67,1.34-1.57,2.12-2.35a23.39,23.39,0,0,0,3.13-5.36,24.78,24.78,0,0,0,2-12,32,32,0,0,0-3.46-12,60,60,0,0,0-7-10.6l-2.23-2.68,3.57.11a21.88,21.88,0,0,0,13.06-4.13,30.78,30.78,0,0,0,12.84-24.23,22,22,0,0,0-3.91-13.17l-1.11-1.68,1.89-.78c7.93-3.35,15.08-8.7,19.43-16.07a33,33,0,0,0,3.35-24.56,40.06,40.06,0,0,0-2-6.14,46.13,46.13,0,0,0-2.9-5.7,47,47,0,0,0-8.15-9.93,49.64,49.64,0,0,0-22.67-12.06,61.41,61.41,0,0,0-25.9-.45,87.69,87.69,0,0,0-24.56,8.82A118,118,0,0,0,400,797.71c-1.79,1.23-3.69,2.46-5.36,3.8l-2.68,2-2.57,2.12A185.1,185.1,0,0,0,370.14,824l.11-.11a36.24,36.24,0,0,1-9.15,8.82,28.65,28.65,0,0,1-12,4.35,36.83,36.83,0,0,1-12.61-.67,73.47,73.47,0,0,1-12-3.8,140.44,140.44,0,0,1-21.65-11.94c-6.93-4.47-13.74-9.16-20.55-13.62-3.46-2.23-6.81-4.47-10.38-6.48s-7.26-3.68-11.05-5.35c-7.48-3.24-15.3-6-22.89-9s-15.18-6.25-23-8.82A84.82,84.82,0,0,0,191,772.71a88.67,88.67,0,0,1,24.23,4.13c7.92,2.34,15.52,5.58,23.11,8.48s15.4,5.58,23.11,8.71c3.79,1.56,7.59,3.35,11.16,5.25s7.14,4.13,10.61,6.36c6.92,4.35,13.73,9,20.65,13.4a143.66,143.66,0,0,0,21.54,11.61A61.07,61.07,0,0,0,337,834.22a39.21,39.21,0,0,0,11.95.56,25.67,25.67,0,0,0,10.94-4.13,33.33,33.33,0,0,0,8.49-8.27v-.11h0a190,190,0,0,1,19.31-18.64,137.29,137.29,0,0,1,22.21-15.18,92.71,92.71,0,0,1,25.46-9.27,65.47,65.47,0,0,1,27.13.45,53.85,53.85,0,0,1,24,12.72A49.78,49.78,0,0,1,495.18,803a40.22,40.22,0,0,1,3.12,6.14,34.43,34.43,0,0,1,2.12,6.59,32.54,32.54,0,0,1,.67,3.35c.11,1.11.34,2.34.34,3.46a36.29,36.29,0,0,1-1.79,13.73,32.62,32.62,0,0,1-2.9,6.36,40.66,40.66,0,0,1-9,10.49,48.9,48.9,0,0,1-11.84,7l.67-2.46A25.17,25.17,0,0,1,481,872.73a34.31,34.31,0,0,1-14.29,26.8,25.62,25.62,0,0,1-15,4.69l1.23-2.68a55.05,55.05,0,0,1,7.48,11.27A35.17,35.17,0,0,1,464.25,926,29.84,29.84,0,0,1,462,939.6a32.22,32.22,0,0,1-3.57,6,23.88,23.88,0,0,1-2.35,2.57c-.89.78-1.67,1.68-2.57,2.35a36.55,36.55,0,0,1-25.9,7.14,50.4,50.4,0,0,1-24.89-10.05l.67.34c-10.72-1.12-21.77-.34-32.82-1.45a62.89,62.89,0,0,1-16.3-3.69,52.62,52.62,0,0,1-14.51-8.48l.11.11-2.79-2.12c-.79-.89-1.68-1.56-2.46-2.57a19.7,19.7,0,0,1-2.12-2.9,10.84,10.84,0,0,1-.89-1.56l-.67-1.57c-.23-.56-.45-1.11-.67-1.67s-.34-1.12-.56-1.68c-.23-1.11-.56-2.23-.78-3.35-.45-2.23-.78-4.46-1.12-6.69A39.06,39.06,0,0,0,324,898c-.55-.89-1.11-1.89-1.67-2.79a7.4,7.4,0,0,0-2.23-1.78,46.93,46.93,0,0,0-5.92-2.68c-1-.45-2.12-.78-3.13-1.34s-2-1-3-1.45c-2-.9-4-1.79-6.14-2.57-4.13-1.56-8.37-3.13-12.5-4.8a105.55,105.55,0,0,1-23.56-13.06c-3.68-2.68-7-5.59-10.6-8.26s-7.15-5.36-10.72-7.93c-7.26-5.25-14.74-10.16-22.11-15.18s-14.73-10-22-15.41c-3.57-2.68-7.14-5.47-10.6-8.26a23.46,23.46,0,0,1-4.8-4.69C183.59,805.64,182.59,803.41,182.92,801.17Z"/><path class="cls-4" d="M337.77,763.55l-20,44.88a2.8,2.8,0,0,1-.44.78c-5.92,7.15-17.53,8-26.24,1.9L247.34,780.3a2.5,2.5,0,0,1-1-1.12c-1.22-2.46-.33-4.69,1.46-6.81a19.7,19.7,0,0,1,9.6-6.25c25.78-8.37,55.15-15.07,79.93-4.13a3.09,3.09,0,0,0,3.57-.78c18.31-22.22,43.88-41.76,71.67-48.79a3.06,3.06,0,0,1,3.8,3.57L406,764.33c-2.24,10.38-11.39,17.64-20.66,16.41a1.65,1.65,0,0,1-.67-.22l-46.88-17"/><path class="cls-12" d="M578.57,197.1a5,5,0,0,1-2.9,6.36c-1,.45-2.24.9-4.25,1.79-13.95,5.36-25.56,9-45.88,13.84a5.07,5.07,0,0,0-3,7.82c.67.89,1.23,1.89,2.23,3.23a5.37,5.37,0,0,0,2.46,2l15.4,5.92a190.32,190.32,0,0,0,19.32,6.59,4.92,4.92,0,0,1,3.46,3l7,16.75a5.11,5.11,0,0,1-1.9,6.14c-.78.44-1.67,1.11-3,2-20.43,14.17-35.5,22.66-55.26,30.7a5.12,5.12,0,0,1-6.7-3,87.59,87.59,0,0,0-8.71-18.08,5.13,5.13,0,0,1,2.9-7.59,115.57,115.57,0,0,0,17.75-6.48,5.08,5.08,0,0,0-.33-9.38l-16.86-6.47a5.16,5.16,0,0,0-6.59,2.9L474.3,306c-4.24,11.16-9.27,15.85-17.42,16.52-6.47.67-16.52-2-36.39-9.6-1.56-.56-4-1.57-7.59-3a5.07,5.07,0,0,1-3-5.8,95.65,95.65,0,0,0,2.35-19.54,5.12,5.12,0,0,1,7.37-4.46c6.92,3.46,12.39,5.8,20.09,8.82,5.36,2,6.59,1.67,8.26-2.57l16.3-42.42a5.15,5.15,0,0,0-2.9-6.59l-35.61-13.62c-9.94-3.8-16.86-6.25-23-8a5.07,5.07,0,0,1-3.24-6.7l7-18.42a5.08,5.08,0,0,1,6.92-2.79c5.47,2.57,12.39,5.47,22.88,9.49l25,9.6a5.12,5.12,0,0,0,5.92-7.81c-3.35-4.47-6.59-8.6-10.39-13.18a5.1,5.1,0,0,1,2.24-8l3.9-1.34a5.06,5.06,0,0,0,.12-9.49h0c-10.39-4-15.86-5.92-20.88-7.48a5.07,5.07,0,0,1-3.24-6.7l6.92-18.2a5.12,5.12,0,0,1,6.93-2.79c5.47,2.57,11.38,5,21,8.71l79.49,30.36c8,3,11.83,4.36,16,5.47a5.23,5.23,0,0,1,3.58,3.24Zm-84.51-8c1.12,1.45,2.46,3,4,5a4.73,4.73,0,0,0,4.69,1.79c2.34-.33,4.35-.67,6.47-1.12A5.09,5.09,0,0,0,510,185l-10.27-3.91A5,5,0,0,0,494.06,189.06Z"/><path class="cls-12" d="M605.81,312.64c-9.71,23.78-15.29,34.84-25.23,49.13a3,3,0,0,1-4.69.33l-12.06-12.73a3,3,0,0,1-.22-3.9c8.6-11.5,15.63-24.45,22.89-42.31a3.1,3.1,0,0,1,4.24-1.57l13.73,7.26A2.9,2.9,0,0,1,605.81,312.64ZM594,271.9a3.09,3.09,0,0,1,4.24-1.9c2.12,1,4.46,2,8.26,3.46a38.39,38.39,0,0,0,3.79,1.34,3.81,3.81,0,0,0,2.46-.22c3.13-1.79,3.91-2.24,6.14-3.58a3.07,3.07,0,0,0,1.34-3.35c-3.68-14.17-5.47-18.86-11.61-32.93a2.89,2.89,0,0,1,.78-3.46l16.41-13.95a3.08,3.08,0,0,1,4.8,1.22h0a3,3,0,0,0,4.69,1.34,143.91,143.91,0,0,0,16.64-16,3,3,0,0,1,4.35-.34l15.41,13.62a3.11,3.11,0,0,1,0,4.58c-.79.67-1.79,1.68-3.35,3a311.35,311.35,0,0,1-25.68,20.43,3,3,0,0,0-1.12,3.46c.23.55.34,1.11.56,1.67a3.06,3.06,0,0,0,4.69,1.45c10.83-8,19.31-14.62,24.11-19.09a3.16,3.16,0,0,1,4.36.22l13.17,15.52a3,3,0,0,1-.67,4.47c-1.67,1.11-3.79,2.57-7.48,5.24C671,264.75,655,275,643.77,281.61a3,3,0,0,0,.55,5.47c2.24.67,4,1.23,6,1.9a3,3,0,0,0,3.91-2.79V279.6a3,3,0,0,1,3-3l13.62-.12a2.62,2.62,0,0,0,1.57-.44c18.08-11.28,36.06-29,46.33-45.55a3,3,0,0,1,4-1l20.87,11.61a3.09,3.09,0,0,1,.9,4.58c-1.12,1.34-2.68,3.35-6.26,7.93,0,.11-.11.11-.11.22a28.11,28.11,0,0,1-3,3.8,3.08,3.08,0,0,0,1.23,4.8l33.93,12.95c5.59,2.12,8.94,3.23,11.95,4.13a3,3,0,0,1,1.79,4.24c-2.24,4.47-4,8.93-13.18,32.49C762,339.66,748,371.14,740.33,385.66c-11.16,21.32-19.2,30.58-28.58,32.93-6.58,1.56-16.52-.34-31.48-6.14-3.57-1.34-6.36-2.46-11.38-4.69a3,3,0,0,1-1.68-3.57,102.21,102.21,0,0,0,3.24-24.34,3.06,3.06,0,0,1,4.46-2.57,192,192,0,0,0,18.54,8.82c8.15,3.13,11,1.68,17.41-8.71,7.7-12.5,19.2-38.85,34-77.25a3.06,3.06,0,0,0-1.79-3.91l-30.81-11.72a3,3,0,0,0-3.12.56,134.62,134.62,0,0,1-23,16.86,3.07,3.07,0,0,1-4.47-1.79c-.55-1.9-1.11-3.57-1.78-5.36a3,3,0,0,0-5.81,1c-.22,6.92-.67,14.84-1.45,24.11a3.12,3.12,0,0,1-3,2.79l-15.74.11a3.13,3.13,0,0,1-3-3.68,5.68,5.68,0,0,0,.22-1.34,3.1,3.1,0,0,0-2.12-3.46c-2-.56-3.79-1.12-5.13-1.45a3,3,0,0,0-3.69,1.78L619.76,368c-3.34,8.7-4.8,13-6,17.75a3,3,0,0,1-4,2.12l-21.21-8.15a3,3,0,0,1-1.57-4.24c2.24-4.25,4-8.38,7.37-17.2l19.54-51a2.91,2.91,0,0,0-1.9-3.91l-12.06-4c-5.69-1.79-8-2.46-9.71-2.9a3.1,3.1,0,0,1-2.23-3.8ZM660.74,331a414.26,414.26,0,0,1-11.17,47.45,3,3,0,0,1-3.57,2.12l-16.86-3.91a3.2,3.2,0,0,1-2.23-3.9c5.58-17.31,9.71-31.37,13.28-45.55a3,3,0,0,1,3.46-2.24l14.63,2.57A3.06,3.06,0,0,1,660.74,331Zm20.54,25.23c2.12-23.44,2.23-32.82,1-46.66a3.13,3.13,0,0,1,2.9-3.35l22.33-.56a3.24,3.24,0,0,1,3.13,2.79,275.46,275.46,0,0,1,.67,47.67,2.94,2.94,0,0,1-2.91,2.79l-23.89.56A3,3,0,0,1,681.28,356.18Z"/><path class="cls-12" d="M881.44,418.59c-1.78,4.69-3.12,8.48-4.46,13.06a3,3,0,0,1-4.13,1.9c-4.58-2.12-10.38-4.58-13.85-5.92l-41-15.74a3,3,0,0,0-3.9,1.79L811,421.83a3.06,3.06,0,0,1-3.91,1.78l-22.88-8.7a3,3,0,0,1-1.57-4.25,155.57,155.57,0,0,0,6.59-15l22.44-58.49a136.45,136.45,0,0,0,5-14.85,3.07,3.07,0,0,1,4.25-1.9c3.68,1.79,7.92,3.46,13.73,5.69L889.15,347c5.91,2.23,10.49,3.91,14.85,5.13a3,3,0,0,1,1.78,4.25A131.27,131.27,0,0,0,900.42,369ZM832.1,309.18c-7.93-3-15.07-5.47-23.33-7.92a3,3,0,0,1-1.9-4l8.71-22.66a3,3,0,0,1,4.13-1.68c6.81,3.24,13.51,6.14,22.21,9.49L960.6,327.83c8.37,3.23,15.63,5.69,23.33,7.92a3.13,3.13,0,0,1,2,4l-8.71,22.67a3.08,3.08,0,0,1-4.13,1.67c-.11,0-.11-.11-.22-.11a16,16,0,0,0-21.66,8.71L913.6,471.06c-8.49,22.1-16.41,24-48.57,11.61-5-1.9-8.59-3.46-15.29-6.25A3,3,0,0,1,848,473a91.36,91.36,0,0,0,3-23.67,3,3,0,0,1,4.35-2.79c8.15,4,15.18,7.14,21.1,9.49,7,2.68,8.93,2.12,10.94-2.9l40-104.39a3.05,3.05,0,0,0-1.79-3.9Zm-4.58,77.26,27.24,10.38a3.06,3.06,0,0,0,3.91-1.79l9.15-23.89a3,3,0,0,0-1.78-3.9L838.8,356.85a3.08,3.08,0,0,0-3.91,1.79l-9.15,23.89A3.06,3.06,0,0,0,827.52,386.44Z"/><path class="cls-1" d="M445.39,571c-2.13-5.81-4.25-11.61-6.48-17.42A899.27,899.27,0,0,0,395,456.88c-9.49-18-21.21-33.16-32.49-49.45-10.16-14.74-23.22-28.92-38.52-35.62-19.31-8.37-44-5.91-63.52-4.13-14.18,1.34-27.57,4.69-41.08,8-13.62,2.68-27.24,5.36-40.52,10.16-18.43,6.59-41.87,15-55.82,30.7-11.06,12.5-16.86,30.92-19.76,48.56-3.24,19.54-7.48,38.18-8.49,58.5a888,888,0,0,0,1.34,106.17c.45,6.14.89,12.28,1.45,18.53,1.79,19,3.13,36.28,11.05,53.81,7.37,16.41,20.21,29.14,34,37.73,53.93,33.5,112.76,36.51,168.69,24.12s97.46-37.74,132.07-91c8.93-13.73,15.07-30.7,14.85-48.67C458,605.25,451.86,589,445.39,571Z"/><path class="cls-11" d="M358.64,378.29a38.69,38.69,0,0,0,66.09,9.6c11.39-14,22.89-28.25,29.7-45,9.49-23.45,7.59-51.13-13.29-67.32-11.16-8.71-25-15.29-38.85-13.4-47.44,6.37-58.72,77.7-44,115.21A1.52,1.52,0,0,0,358.64,378.29Z"/><path class="cls-11" d="M135.92,397.6a38.76,38.76,0,0,1-63.85,19.65c-13.4-12.06-26.91-24.45-36.17-40C23,355.51,20.6,327.94,38.8,308.74c9.71-10.27,22.33-18.87,36.39-19.2,47.78-1,69.89,67.87,61,107.17C136,396.93,136,397.27,135.92,397.6Z"/><path class="cls-13" d="M36.34,340.78c4.58,4.57,7.48,11.61,6.37,18.53A19.92,19.92,0,0,1,19.6,375.72,20.39,20.39,0,0,1,3.3,352.28a19.91,19.91,0,0,1,23.11-16.41"/><path class="cls-1" d="M92.27,354.4c-.22-.67-.55-1.23-.78-1.9.23.56.11.33,0-.11s-.33-.78-.44-1.23c-.56-1.23-1-2.57-1.46-3.8-1-2.79-1.89-5.47-2.67-8.37a124.29,124.29,0,0,1-3.58-16.86c-3.35,1.45-6.81,2.91-10.16,4.36a49.27,49.27,0,0,1,5.25,8.26c.78,1.45,1.45,2.9,2.12,4.46a6.59,6.59,0,0,1,.56,1.34c-.22-.55-.22-.44,0,0,.33.9.67,1.68,1,2.57a83.56,83.56,0,0,1,3.24,9.38,14.9,14.9,0,0,1,.56,2.45c.11.56.11,1,0,.23,0,.44.11.78.11,1.23v1.22c0,.12-.22,1.46,0,.67s-.11.56-.22.67a5.72,5.72,0,0,1-.45,1.34c3.13-.78,6.25-1.67,9.38-2.45a41.1,41.1,0,0,0-37.51-12.51c-2.57.45-3.91,3.13-4.13,5.36-.45,5.36,5.47,7.15,9.49,8.26a61,61,0,0,0,10.94,2.13c.45,0,.89.11,1.34.11s.67.11.11,0a15.26,15.26,0,0,1,2.46.56s1.34.44.78.22.44.33.56.33c-.67-.33-.34-.22.11.12a16.06,16.06,0,0,0,1.67,1.22c2.79,1.9,6.37,2.57,9.49,3.8,2.68,1,6.25-1.12,6.92-3.91.78-3.24-1-5.69-3.9-6.92l-3.69-1.34a15.13,15.13,0,0,1-2-.78c1,.45-.33-.22-.67-.45-.89-.44.34.34-.11-.11a9.13,9.13,0,0,0-1.12-.89,16.86,16.86,0,0,0-1.89-1.23,22.46,22.46,0,0,0-5.25-1.68c-1.79-.33-3.57-.44-5.36-.67-.45,0-.67-.11-.11,0-.34-.11-.67-.11-1-.22-.78-.11-1.56-.33-2.23-.44-1.45-.34-2.9-.67-4.24-1.12-.67-.22-1.34-.34-2-.56-.45-.11-.78-.33-1.23-.45s-.33-.11.11,0c1.45.45,2.24,1.68,2.35,3.58-1.34,1.78-2.68,3.57-4.13,5.36.33-.12.67-.12,1-.23.67-.11-1.11.11,0,0a13,13,0,0,1,2.12-.11,27.31,27.31,0,0,1,4.24.11c.34,0,.67.11,1,.11h0c.67.12,1.34.23,2.12.34,1.34.33,2.68.67,4,1.12.56.22,1.56.33,2,.78-.22-.23-.89-.34-.22-.12.33.23.78.34,1.11.56a21.35,21.35,0,0,1,3.46,2c.56.34,1.12.78,1.79,1.23s-.78-.67,0,0c.22.22.56.45.78.67a43.52,43.52,0,0,1,3.24,3.13,5.61,5.61,0,0,0,9.38-2.46c2.79-7.48-.34-15.52-3-22.55s-5.8-13.84-10.38-19.87c-1.68-2.23-4.13-3.46-6.92-2.23s-3.57,3.79-3.24,6.58a130,130,0,0,0,10.16,34.83c1.23,2.68,5.25,3.46,7.59,2s2.9-4.24,1.56-7.14Z"/><path class="cls-2" d="M230.48,439.13c16.19,27.13,47.78,15.18,59.28-9.82,23.33,40.19,54.15,56.71,79,14.17-29.92,43.32,19,59.28,52,61.29-31,45.33-12.05,49.79,6.37,66.43-92.55,109,169.47,62.52,63.41-36.28,26.68-24.45,5.13-69.89-31.48-64.64,30.25-40.86-9.94-90.32-53.81-76.36,23.55-83.29-151.38-61.18-181.08-37.4"/><path class="cls-2" d="M282,435.22a31.12,31.12,0,0,1-24,19.87c-14.28,2.35-26.57-8-36.17-21.43-3.35,6.59-7.48,13.73-13.62,14.74-8.48,1.34-15.18-9.49-19.87-19-1.45,9.15-3.79,19.76-10.71,22.55-2.8,1.12-5.81.67-8.71-.11-14.52-4-14.29-10.94-22.67-2.57-3.68,3.68-6,18.75-10.49,24.56-6.81,8.93-15.07,16.52-25.23,21.66,13.62,7.48,27.46,20.09,25.79,35.5-1,9.15-7.48,16.74-13.62,23.67-8.26,9.37-17.53,19.2-29.81,21.65,11.5.34,23.11,3.91,31.71,11.5s13.84,19.43,11.94,30.7c-2,12.51-11.94,22.55-23.33,27.91-29.92,14.29-70.56,18.31-87-16.74-9.37-20-3.68-46,13.18-60.18-13.51-8.82-20-27-15.3-42.31s20.43-26.68,36.51-26.34c-15.52-14.07-20.1-38.74-10.83-57.5s31.82-29.92,52.36-26.12c-7.48-8.49-7.48-21.88-2.12-31.93,23.55-45,98.57-41.75,140.21-40.64,12.17.34,25.12.9,35.28,7.93"/><path class="cls-14" d="M216.08,306.39a156.21,156.21,0,0,1,1.23-21.65c.45-3.24,1-6.59,2.57-9.49a4.56,4.56,0,0,1,2-2.13,3.72,3.72,0,0,1,3.68.56c2,1.45,3,3.91,3.8,6.25,2.23,7.15,3.68,14.63,2.67,22a4.2,4.2,0,0,1-.55,1.78,3.9,3.9,0,0,1-1.9,1,62.42,62.42,0,0,1-13.51,1.67"/><path class="cls-14" d="M223.45,301c-40.19,4-78.48,24.23-105,55.27-4.25,5-8.38,10.6-9.16,17.19-1.11,8.93,4.47,17.75,11.84,22.66s16.3,6.7,25,7.7c63.53,7.82,126.49-14.51,185.66-39.29,9.15-3.8,19.31-8.82,22.33-18.54,2.45-8-1.12-17.08-7-23S333.3,313.76,325.49,311c-36.62-13.17-63.86-17.19-102-9.94"/><path class="cls-15" d="M442.37,559.36a43.23,43.23,0,0,0-9.6,35.39c2,10.83,9,21.44,19,26.57S474,626,483.23,619.87a28.63,28.63,0,0,0,10.94-13.17,21.8,21.8,0,0,0-.56-17.53,15,15,0,0,0-14.84-8.26,16.2,16.2,0,0,0-8.82,3.57,12.83,12.83,0,0,0-4.13,8.49c-.34,2.9,2.79,5.69,5.58,5.58,3.35-.11,5.13-2.46,5.58-5.58-.22,1.78,0,.44.11,0,.22-.78-.67,1.23,0,0,.11-.11.22-.34.34-.45,0,.11-.9,1-.34.45.11-.11.34-.23.45-.45.44-.56-.34.22-.45.34a5.88,5.88,0,0,0,1-.67c1.22-.67-.9.22,0,0,.33-.12.78-.23,1.11-.34.11,0,.45,0,.56-.11-.33.11-1.45.11-.45.11H481c.89,0-.56,0-.56-.11a4,4,0,0,0,1.23.22c.11,0,.44.23.56.23-.34,0-1.23-.56-.34-.12l1,.67c.55.34-.79-.89-.45-.33l.33.33s.56.45.56.56c0-.22-.56-.89-.22-.22.33.45.56,1,.89,1.45.34.67-.33-1-.11-.33a1.56,1.56,0,0,1,.22.67c.12.44.23,1,.34,1.45.22,1.45,0-.78,0,.22a12.26,12.26,0,0,1,0,2c0,.22-.11,1.67,0,.89s-.11.78-.22,1a9.16,9.16,0,0,1-.45,1.56c-.11.22-.11.56-.22.78-.23.45,0,1,0,0a8.59,8.59,0,0,1-1.46,2.57c-.11.11-1,1.56-.55.78s0,0-.12.22-.44.45-.67.67c-.67.79-1.45,1.46-2.12,2.13s.78-.56-.22.11a6.4,6.4,0,0,1-1.45.89c-.89.56-1.79,1-2.68,1.45l-.67.34c.11-.12,1.23-.45.33-.12-.44.12-.89.34-1.45.45a25.39,25.39,0,0,1-2.9.78c-.22,0-.45.11-.78.11-.89.23.33,0,.33,0a7.33,7.33,0,0,1-1.67.12,11.84,11.84,0,0,1-2.79,0c-.56,0-1-.12-1.45-.12-1.12-.11.33,0,.33,0l-.89-.11a20.46,20.46,0,0,1-2.9-.78c-.45-.11-.78-.33-1.23-.45-1-.33.22,0,.22.12-.11-.12-1-.45-1.11-.56a18.78,18.78,0,0,1-2.57-1.45,10.14,10.14,0,0,0-1.34-.9c-.56-.33.33.23.33.23-.11-.23-.78-.67-.89-.78-.78-.67-1.45-1.34-2.23-2.13a12.29,12.29,0,0,1-1.12-1.22c-.22-.23-.33-.45-.56-.67-.44-.56-.44-.45,0,0a8.6,8.6,0,0,1-1.78-2.68,24.48,24.48,0,0,1-1.57-2.91,5.07,5.07,0,0,1-.33-.78c-.45-.89,0,0,.11.23a6.61,6.61,0,0,1-.56-1.57c-.33-1-.67-2.12-1-3.12s-.34-2.57-.78-3.69c.33.9.11.78,0,.23s-.12-.78-.12-1.23-.11-1.23-.11-1.79a27.58,27.58,0,0,1,.23-4.35,1.44,1.44,0,0,1,.11-.67c-.45,1.23,0,0,.11-.34a12.1,12.1,0,0,1,.45-2,39.55,39.55,0,0,1,1.11-3.9,10.49,10.49,0,0,1,.78-1.9c-.11.22-.44,1,0,.11.12-.33.34-.67.45-1a22.92,22.92,0,0,1,2-3.58c.33-.55.78-1.11,1.12-1.67.11-.22.67-.78,0,0,.33-.34.55-.67.89-1,1.9-2.23,2.34-5.69,0-7.92-2.23-1.45-6-2-8,.44Z"/><path class="cls-15" d="M32.88,590.74a43.2,43.2,0,0,0-9.6,35.38c2,10.83,9,21.44,19,26.57s22.22,4.69,31.48-1.45a28.63,28.63,0,0,0,10.94-13.17,21.76,21.76,0,0,0-.56-17.53,15,15,0,0,0-14.84-8.26,16.2,16.2,0,0,0-8.82,3.57,12.83,12.83,0,0,0-4.13,8.49c-.34,2.9,2.79,5.69,5.58,5.58,3.35-.11,5.13-2.46,5.58-5.58-.22,1.78,0,.44.11,0,.23-.78-.67,1.23,0,0,.11-.11.23-.34.34-.45,0,.11-.9,1-.34.45.11-.11.34-.22.45-.45.44-.56-.34.23-.45.34a5.35,5.35,0,0,0,1-.67c1.22-.67-.9.22,0,0l1.11-.34c.11,0,.45,0,.56-.11-.33.11-1.45.11-.45.11h1.68c.89,0-.56,0-.56-.11a4.09,4.09,0,0,0,1.23.22c.11,0,.45.23.56.23-.34,0-1.23-.56-.34-.12l1,.67c.56.34-.78-.89-.45-.33l.34.33s.55.45.55.56c0-.22-.55-.89-.22-.22.34.45.56,1,.89,1.45.34.67-.33-1-.11-.33a1.56,1.56,0,0,1,.22.67c.12.44.23,1,.34,1.45.22,1.45,0-.78,0,.22a12.26,12.26,0,0,1,0,2c0,.22-.11,1.67,0,.89s-.11.78-.22,1a9.16,9.16,0,0,1-.45,1.56c-.11.22-.11.56-.22.78-.23.45,0,1,0,0a8.56,8.56,0,0,1-1.45,2.57c-.12.11-1,1.56-.56.78s0,0-.11.22l-.67.67c-.67.79-1.46,1.46-2.13,2.13s.79-.56-.22.11a6.4,6.4,0,0,1-1.45.89A29.34,29.34,0,0,1,64.81,643l-.67.34c.11-.11,1.23-.45.34-.11-.45.11-.9.33-1.46.44a25.39,25.39,0,0,1-2.9.78c-.22,0-.44.11-.78.11-.89.23.34,0,.34,0a7.47,7.47,0,0,1-1.68.12,11.84,11.84,0,0,1-2.79,0c-.56,0-1-.12-1.45-.12-1.12-.11.33,0,.33,0l-.89-.11a20.83,20.83,0,0,1-2.9-.78c-.45-.11-.78-.33-1.23-.44-1-.34.22,0,.22.11-.11-.11-1-.45-1.11-.56a18.78,18.78,0,0,1-2.57-1.45,9.52,9.52,0,0,0-1.34-.9c-.56-.33.33.23.33.23-.11-.23-.78-.67-.89-.78-.78-.67-1.45-1.34-2.23-2.12-.34-.45-.78-.79-1.12-1.23-.22-.23-.33-.45-.56-.67-.44-.56-.44-.45,0,0A8.6,8.6,0,0,1,38,633.16a25.14,25.14,0,0,1-1.57-2.9,5.73,5.73,0,0,1-.33-.79c-.45-.89,0,0,.11.23a6.61,6.61,0,0,1-.56-1.57c-.33-1-.67-2.12-1-3.12s-.34-2.57-.78-3.69c.33.9.11.79,0,.23s-.11-.78-.11-1.23-.12-1.23-.12-1.79a27.58,27.58,0,0,1,.23-4.35,1.44,1.44,0,0,1,.11-.67c-.45,1.23,0,0,.11-.34a12.1,12.1,0,0,1,.45-2,40.34,40.34,0,0,1,1.11-3.9,10.49,10.49,0,0,1,.78-1.9c-.11.22-.44,1,0,.11.12-.33.34-.67.45-1a22.92,22.92,0,0,1,2-3.58c.34-.55.78-1.11,1.12-1.67.11-.22.67-.78,0,0,.33-.34.56-.67.89-1,1.9-2.23,2.34-5.69,0-7.92-2.23-1.45-6-2-8,.45Z"/><ellipse class="cls-16" cx="192.09" cy="550.2" rx="55.6" ry="68.44" transform="translate(-40.77 15.98) rotate(-4.31)"/><ellipse class="cls-12" cx="191.42" cy="541.71" rx="35.28" ry="34.16" transform="translate(-40.14 15.9) rotate(-4.31)"/><ellipse class="cls-16" cx="172.11" cy="543.16" rx="10.38" ry="12.84" transform="translate(-40.3 14.46) rotate(-4.31)"/><path class="cls-11" d="M202.46,524.87c.67,0,1.34-.11,2-.11L242,522c-9.82-25.12-31.37-42-55-40.19s-42.42,21.65-48.45,48Z"/><ellipse class="cls-16" cx="315" cy="529.66" rx="55.6" ry="68.43" transform="translate(-106.33 79.94) rotate(-12.39)"/><ellipse class="cls-12" cx="312.77" cy="519.27" rx="35.28" ry="34.16" transform="translate(-104.15 79.22) rotate(-12.39)"/><ellipse class="cls-16" cx="293.78" cy="523.4" rx="10.38" ry="12.84" transform="translate(-105.48 75.24) rotate(-12.39)"/><path class="cls-11" d="M321.69,503.32c.67-.11,1.34-.33,1.9-.44l36.73-8c-13.29-23.56-37-37.18-60.18-32s-39,27.35-41.19,54.25Z"/><path class="cls-17" d="M295.68,688l-30.37,2.79c-13.51,1.23-26-7.25-27.8-19l-12.39-84.17c-1.67-11.72,7.93-22.33,21.55-23.56L277,561.26c13.51-1.23,26,7.26,27.8,19l12.39,84.18C318.9,676,309.19,686.63,295.68,688Z"/><ellipse class="cls-18" cx="246.62" cy="592.15" rx="5.02" ry="12.06" transform="translate(-336.89 325.73) rotate(-42.85)"/><ellipse class="cls-18" cx="284.25" cy="588.2" rx="11.5" ry="5.25" transform="translate(-368.69 567.21) rotate(-62.37)"/><path class="cls-12" d="M307.4,715.44c6.25,0,12-2.8,16.86-6.37a84.8,84.8,0,0,0,27.91-34.16,94.16,94.16,0,0,0,5.58-16.3c1-4.24-1.34-9.27-5.81-10.27-4.24-1-9.26,1.23-10.27,5.81a75.58,75.58,0,0,1-4.13,13c.34-.67.56-1.34.9-2a76.3,76.3,0,0,1-5.59,10.82c-1,1.57-2,3.24-3.12,4.69-.34.45-.67,1-1,1.46.23-.34.56-.67.78-1-.22.22-.33.45-.55.67-.67.78-1.34,1.56-1.9,2.34a74.42,74.42,0,0,1-8.37,8.38c-.79.67-1.57,1.23-2.35,1.9,2-1.68.67-.45.11-.12s-.89.67-1.22.9a27.56,27.56,0,0,1-5.81,3.35c.67-.34,1.34-.56,2-.9a17.78,17.78,0,0,1-4,1.12l2.23-.34a10,10,0,0,1-1.89.12c-4.36,0-8.6,3.9-8.38,8.37a8.08,8.08,0,0,0,8,8.6Z"/><path class="cls-1" d="M564.5,631.59C507.57,555.46,394.81,621.88,449,670c-95.9,54.92-8.6,112.75-11.72,63.07,25.11,18.76,31.48,17.08,29.25,48.9,19.87,10.16,38.4,23.33,34.49,48.23C585.6,841.7,612.4,760,558,704.83,552.33,682.06,577.45,659.73,564.5,631.59Z"/><path class="cls-11" d="M564.5,631.59a88.36,88.36,0,0,0-27.12-24.22,82.67,82.67,0,0,0-11.06-5.14,79.77,79.77,0,0,0-47.89-2.45,72.37,72.37,0,0,0-22.1,9.71c-6.7,4.47-12.73,10.16-16.64,17.19A33,33,0,0,0,435.78,638a30.53,30.53,0,0,0,.67,11.83,33,33,0,0,0,5.14,10.72,50,50,0,0,0,8,8.82,1,1,0,0,1,.11,1.34l-.22.22h0c-9.83,5.81-19.21,12.28-27.36,20.32a70,70,0,0,0-10.49,13.17,44,44,0,0,0-5.92,15.52A29.27,29.27,0,0,0,407.54,736a26.37,26.37,0,0,0,10.27,12.28,16.32,16.32,0,0,0,7.37,2.34,8.51,8.51,0,0,0,6.7-2.46,11.31,11.31,0,0,0,2.12-3,14.62,14.62,0,0,0,1.23-3.68,28.22,28.22,0,0,0,.44-8.15,1.51,1.51,0,0,1,2.46-1.34h0c4.13,3,8.37,6,12.61,8.93s8.6,6,12.17,10.27c.45.45.78,1.12,1.23,1.67s.78,1.12,1.12,1.79l.89,1.9a20.1,20.1,0,0,1,.67,1.9,13.59,13.59,0,0,1,.56,2l.44,2,.23,1,.11,1,.22,2a105.82,105.82,0,0,1-.22,15.74l-.89-1.56a134.72,134.72,0,0,1,14,8.15,59.48,59.48,0,0,1,12.39,10.72A36.14,36.14,0,0,1,501.54,814a41.25,41.25,0,0,1,.78,16.52l-1.23-1.67a112.08,112.08,0,0,0,23.67.78,76.64,76.64,0,0,0,23-5.13,62.12,62.12,0,0,0,19.76-12.73,59.54,59.54,0,0,0,13.28-19.43,65.53,65.53,0,0,0,4.8-23.11,73.18,73.18,0,0,0-3.23-23.55,93.09,93.09,0,0,0-9.72-21.77,109,109,0,0,0-14.73-18.87v-.11c-1.57-6.14-.78-12.61.78-18.64s3.91-11.95,5.8-17.86A68.56,68.56,0,0,0,568.19,650,41.59,41.59,0,0,0,564.5,631.59Zm0,0a39.76,39.76,0,0,1,3.8,18.31c-.11,6.26-1.68,12.51-3.57,18.42s-4.13,11.84-5.7,17.87-2.34,12.39-.78,18.53v-.11a111,111,0,0,1,15,18.86,92.09,92.09,0,0,1,10.16,21.77A78.44,78.44,0,0,1,586.94,769a66.14,66.14,0,0,1-4.57,23.67,61,61,0,0,1-13.4,20.2,62.52,62.52,0,0,1-20.21,13.4A81.72,81.72,0,0,1,525.1,832a110.36,110.36,0,0,1-24.23-.56,1.39,1.39,0,0,1-1.23-1.57h0a35.32,35.32,0,0,0-.78-15.29,32.86,32.86,0,0,0-7.48-13.29,64.77,64.77,0,0,0-11.83-10.15,152.54,152.54,0,0,0-13.73-7.93,1.75,1.75,0,0,1-.9-1.45h0a115,115,0,0,0,.11-15.3c-.44-5-1.67-9.82-4.69-13.5s-7.25-6.7-11.38-9.72-8.49-6-12.62-9l2.57-1.34a34.13,34.13,0,0,1-.56,8.93,22.82,22.82,0,0,1-1.45,4.47,13.7,13.7,0,0,1-2.79,3.9,12.73,12.73,0,0,1-4.24,2.57,14.25,14.25,0,0,1-4.8.67,18.68,18.68,0,0,1-8.82-2.79,28,28,0,0,1-11.39-13.73,33,33,0,0,1-1.79-17.64,45.5,45.5,0,0,1,6.48-16.41,76.17,76.17,0,0,1,11.05-13.51c8.37-8,18-14.51,28-20.21l-.11,1.46a54.5,54.5,0,0,1-8.26-9.27A38.69,38.69,0,0,1,435,650a29.24,29.24,0,0,1-.56-12.39A35.39,35.39,0,0,1,438.69,626a53,53,0,0,1,17.19-17.3,72.2,72.2,0,0,1,22.44-9.49,80.4,80.4,0,0,1,48.11,2.68,83.35,83.35,0,0,1,11.06,5.25A88.24,88.24,0,0,1,547.65,614a104,104,0,0,1,9,8.26C559.48,625.23,562.05,628.36,564.5,631.59Z"/><path class="cls-11" d="M448.4,671.67c1.23-1.67,2.68-3.23,4-4.91,1.56-1.45,3-3,4.58-4.35.78-.67,1.67-1.34,2.45-2,.45-.34.78-.67,1.23-1l1.34-.89,2.68-1.79,2.79-1.56a37.17,37.17,0,0,1,12.28-3.79,31.11,31.11,0,0,1,6.47-.12,28.19,28.19,0,0,1,3.13.56,7.46,7.46,0,0,1,1.56.45c.56.11,1,.33,1.57.44a28.27,28.27,0,0,1-3.13.12,30.12,30.12,0,0,0-3.13.22,26.36,26.36,0,0,0-3,.45,6.61,6.61,0,0,1-1.45.22l-1.45.33a57.39,57.39,0,0,0-11.28,4.25l-2.68,1.34-2.68,1.56-1.34.78-1.34.89c-.89.56-1.67,1.12-2.56,1.68-1.68,1.11-3.35,2.34-5.14,3.57C451.86,669.22,450.19,670.44,448.4,671.67Z"/><path class="cls-11" d="M416.47,696a40.93,40.93,0,0,1,13.4-10.94,62,62,0,0,1,16.41-5.69,74.64,74.64,0,0,1,8.59-1.23c2.91-.23,5.81-.45,8.6-.45a45.81,45.81,0,0,1,8.71.78,22.14,22.14,0,0,1,8,3.13c-5.47-1.9-11.06-1.79-16.64-1.23-2.79.34-5.58.56-8.37.89s-5.58.79-8.26,1.34-5.47,1.23-8.15,2c-1.34.34-2.68.78-4,1.23s-2.57.89-3.91,1.56A68.82,68.82,0,0,0,416.47,696Z"/><path class="cls-11" d="M416.36,862.69a34.6,34.6,0,0,1,12.39,6.14A52.09,52.09,0,0,1,434,873.4c.78.78,1.56,1.68,2.34,2.57l2.24,2.68a61.71,61.71,0,0,1,7,12.06,56,56,0,0,1,4.13,13.17c-2.12-4.13-4.24-8.15-6.48-12.06a107,107,0,0,0-7.36-11.16l-2-2.68-2.12-2.57c-.79-.78-1.46-1.67-2.24-2.45l-2.34-2.35A76.82,76.82,0,0,0,416.36,862.69Z"/><path class="cls-11" d="M457.55,839.24a6.1,6.1,0,0,1,4.25-.33,9.09,9.09,0,0,1,3.79,2.23,29.29,29.29,0,0,1,4.69,6.92c.34.56.56,1.12.89,1.68l1,1.67c.67,1.23,1.23,2.34,1.9,3.57a57.37,57.37,0,0,1,3,7.59,45,45,0,0,1-5.25-6.14c-.78-1.11-1.56-2.12-2.34-3.23-.34-.56-.78-1.12-1.12-1.79s-.67-1.23-1-1.79a48.6,48.6,0,0,0-3.69-6.81,8.12,8.12,0,0,0-2.56-2.56A11.12,11.12,0,0,0,457.55,839.24Z"/><path class="cls-19" d="M365.12,1117.22c0,8.15,1.45,8.6,14.06,8.6a121.18,121.18,0,0,0,19.76-1.68,2,2,0,0,1,.79-.11,2.35,2.35,0,0,1,2.45,2.23v.45a2.57,2.57,0,0,1-2.34,2.68,130.8,130.8,0,0,1-21.77,1.56c-15.63,0-18.31-2.34-18.31-14.29v-32.93c0-1.68,1.23-2.35,2.79-2.35,1.79,0,2.79.67,2.79,2.35v17.08c10.05-1.45,21.77-5.14,30.14-10a3.11,3.11,0,0,1,1.57-.44,2.85,2.85,0,0,1,2.34,1.34,3,3,0,0,1,.45,1.56,2.69,2.69,0,0,1-1.34,2.23c-9.27,5.25-21.44,8.93-33.27,10.5v11.27Zm46-34.27a7.26,7.26,0,1,1-7.25-7A7.14,7.14,0,0,1,411.11,1083Zm-11.61,0a4.36,4.36,0,0,0,8.71,0,4.36,4.36,0,0,0-8.71,0Z"/><path class="cls-19" d="M417.59,1095a2.31,2.31,0,0,1,2.12,1.34,84.68,84.68,0,0,1,5.36,13.07,2.79,2.79,0,0,1,.11.89,2.13,2.13,0,0,1-1.79,2.12,3.27,3.27,0,0,1-1,.22,2.26,2.26,0,0,1-2.23-1.56,85.76,85.76,0,0,0-5.14-12.84,1.35,1.35,0,0,1-.22-.89,2.35,2.35,0,0,1,1.67-2.12A2,2,0,0,1,417.59,1095Zm37.84,1.12v.45c-.78,8.37-3.57,16.86-8,22.66a37.62,37.62,0,0,1-21.65,13.4,1.7,1.7,0,0,1-.67.11,2.42,2.42,0,0,1-2.35-1.68,2.79,2.79,0,0,1-.11-.89,2.23,2.23,0,0,1,1.79-2.12c7.25-1.67,14.62-5.92,18.86-11.83,3.91-5.25,6.14-12.84,6.93-20.43a2.19,2.19,0,0,1,2.34-1.9h.34C454.65,1094,455.43,1094.78,455.43,1096.12Zm-24.33-3.68a2.57,2.57,0,0,1,2.23,1.34,60.77,60.77,0,0,1,5,12.84,1.42,1.42,0,0,1,.11.67,2.2,2.2,0,0,1-1.78,2.12,3.52,3.52,0,0,1-1.12.11,2.23,2.23,0,0,1-2.23-1.45,83.91,83.91,0,0,0-4.8-12.51,1.46,1.46,0,0,1-.23-.89,2.23,2.23,0,0,1,1.68-2A4,4,0,0,1,431.1,1092.44Z"/><path class="cls-19" d="M481.22,1083.28a2.63,2.63,0,0,1,2.79,2.79v.23a99.88,99.88,0,0,1-2.9,19.31c-2.46,10.05-6.59,17.75-11.16,23.22a3.31,3.31,0,0,1-2.46,1.23,2.61,2.61,0,0,1-1.9-.78,2.85,2.85,0,0,1-.89-2.12,4.12,4.12,0,0,1,.78-2.24c4.35-5.13,7.93-11.94,10.27-21a87,87,0,0,0,2.57-18,2.59,2.59,0,0,1,2.9-2.68Zm22,0c1.9,0,2.79.9,2.79,2.68a96.1,96.1,0,0,0,3.13,18,53.47,53.47,0,0,0,10.49,20.76,3.13,3.13,0,0,1,.79,2.12,2.83,2.83,0,0,1-1.12,2.35,2.79,2.79,0,0,1-1.79.67,3.29,3.29,0,0,1-2.34-1.12c-4.69-5.58-8.71-13.06-11.5-23a105.73,105.73,0,0,1-3.35-19.42V1086a2.55,2.55,0,0,1,2.57-2.68Zm20.21,1.12a7.32,7.32,0,1,1-7.37-7A7.17,7.17,0,0,1,523.42,1084.4Zm-11.61,0a4.31,4.31,0,0,0,4.24,4.24,4.41,4.41,0,0,0,4.36-4.24,4.25,4.25,0,0,0-4.36-4.13A4.29,4.29,0,0,0,511.81,1084.4Z"/><path class="cls-19" d="M530,1109.29a2.35,2.35,0,0,1-2.46-2.67c0-1.68.89-2.8,2.57-2.8H578.9a2.53,2.53,0,0,1,2.57,2.8c0,1.67-.89,2.67-2.45,2.67Z"/><path class="cls-20" d="M365.12,1117.22c0,8.15,1.45,8.6,14.06,8.6a121.18,121.18,0,0,0,19.76-1.68,2,2,0,0,1,.79-.11,2.35,2.35,0,0,1,2.45,2.23v.45a2.57,2.57,0,0,1-2.34,2.68,130.8,130.8,0,0,1-21.77,1.56c-15.63,0-18.31-2.34-18.31-14.29v-32.93c0-1.68,1.23-2.35,2.79-2.35,1.79,0,2.79.67,2.79,2.35v17.08c10.05-1.45,21.77-5.14,30.14-10a3.11,3.11,0,0,1,1.57-.44,2.85,2.85,0,0,1,2.34,1.34,3,3,0,0,1,.45,1.56,2.69,2.69,0,0,1-1.34,2.23c-9.27,5.25-21.44,8.93-33.27,10.5v11.27Zm46-34.27a7.26,7.26,0,1,1-7.25-7A7.14,7.14,0,0,1,411.11,1083Zm-11.61,0a4.36,4.36,0,0,0,8.71,0,4.36,4.36,0,0,0-8.71,0Z"/><path class="cls-20" d="M417.59,1095a2.31,2.31,0,0,1,2.12,1.34,84.68,84.68,0,0,1,5.36,13.07,2.79,2.79,0,0,1,.11.89,2.13,2.13,0,0,1-1.79,2.12,3.27,3.27,0,0,1-1,.22,2.26,2.26,0,0,1-2.23-1.56,85.76,85.76,0,0,0-5.14-12.84,1.35,1.35,0,0,1-.22-.89,2.35,2.35,0,0,1,1.67-2.12A2,2,0,0,1,417.59,1095Zm37.84,1.12v.45c-.78,8.37-3.57,16.86-8,22.66a37.62,37.62,0,0,1-21.65,13.4,1.7,1.7,0,0,1-.67.11,2.42,2.42,0,0,1-2.35-1.68,2.79,2.79,0,0,1-.11-.89,2.23,2.23,0,0,1,1.79-2.12c7.25-1.67,14.62-5.92,18.86-11.83,3.91-5.25,6.14-12.84,6.93-20.43a2.19,2.19,0,0,1,2.34-1.9h.34C454.65,1094,455.43,1094.78,455.43,1096.12Zm-24.33-3.68a2.57,2.57,0,0,1,2.23,1.34,60.77,60.77,0,0,1,5,12.84,1.42,1.42,0,0,1,.11.67,2.2,2.2,0,0,1-1.78,2.12,3.52,3.52,0,0,1-1.12.11,2.23,2.23,0,0,1-2.23-1.45,83.91,83.91,0,0,0-4.8-12.51,1.46,1.46,0,0,1-.23-.89,2.23,2.23,0,0,1,1.68-2A4,4,0,0,1,431.1,1092.44Z"/><path class="cls-20" d="M481.22,1083.28a2.63,2.63,0,0,1,2.79,2.79v.23a99.88,99.88,0,0,1-2.9,19.31c-2.46,10.05-6.59,17.75-11.16,23.22a3.31,3.31,0,0,1-2.46,1.23,2.61,2.61,0,0,1-1.9-.78,2.85,2.85,0,0,1-.89-2.12,4.12,4.12,0,0,1,.78-2.24c4.35-5.13,7.93-11.94,10.27-21a87,87,0,0,0,2.57-18,2.59,2.59,0,0,1,2.9-2.68Zm22,0c1.9,0,2.79.9,2.79,2.68a96.1,96.1,0,0,0,3.13,18,53.47,53.47,0,0,0,10.49,20.76,3.13,3.13,0,0,1,.79,2.12,2.83,2.83,0,0,1-1.12,2.35,2.79,2.79,0,0,1-1.79.67,3.29,3.29,0,0,1-2.34-1.12c-4.69-5.58-8.71-13.06-11.5-23a105.73,105.73,0,0,1-3.35-19.42V1086a2.55,2.55,0,0,1,2.57-2.68Zm20.21,1.12a7.32,7.32,0,1,1-7.37-7A7.17,7.17,0,0,1,523.42,1084.4Zm-11.61,0a4.31,4.31,0,0,0,4.24,4.24,4.41,4.41,0,0,0,4.36-4.24,4.25,4.25,0,0,0-4.36-4.13A4.29,4.29,0,0,0,511.81,1084.4Z"/><path class="cls-20" d="M530,1109.29a2.35,2.35,0,0,1-2.46-2.67c0-1.68.89-2.8,2.57-2.8H578.9a2.53,2.53,0,0,1,2.57,2.8c0,1.67-.89,2.67-2.45,2.67Z"/></g></g></svg>