<svg xmlns="http://www.w3.org/2000/svg" viewBox="0 0 1200 1200"><defs><style>.cls-1{fill:#b8a0c7;}.cls-2,.cls-23{fill:#b76da1;}.cls-3{fill:#d7af80;}.cls-4{fill:#f6f8f8;}.cls-5{fill:#c39c61;}.cls-6{fill:#9b4e87;}.cls-7{fill:#eee;}.cls-8{fill:#fff;}.cls-9{fill:#ae8fbd;}.cls-10{fill:#ad8046;}.cls-11{fill:#f6d6e4;}.cls-12{fill:#cd98be;}.cls-13{fill:#8a73a8;}.cls-14,.cls-20,.cls-22,.cls-24{fill:none;}.cls-14{stroke:#8a73a8;stroke-linecap:round;stroke-linejoin:round;stroke-width:5px;}.cls-15{fill:#d85891;}.cls-16,.cls-20,.cls-21,.cls-22,.cls-23,.cls-24{isolation:isolate;font-size:236.47px;font-family:HiraMaruProN-W4-83pv-RKSJ-H, Hiragino Maru Gothic ProN;letter-spacing:-0.02em;}.cls-16{fill:#f1f1f1;}.cls-17{letter-spacing:-0.04em;}.cls-18{letter-spacing:-0.03em;}.cls-19{letter-spacing:0em;}.cls-20{stroke:#e9eaea;stroke-width:55px;}.cls-20,.cls-22,.cls-24{stroke-miterlimit:10;}.cls-21{fill:#dca059;}.cls-22{stroke:#e69b49;}.cls-22,.cls-24{stroke-width:4px;}.cls-24{stroke:#b76da1;}</style></defs><title>资源 13</title><g id="图层_2" data-name="图层 2"><g id="图层_1-2" data-name="图层 1"><path class="cls-1" d="M949.71,590.78a222.3,222.3,0,0,0-34.5,29.2,323.18,323.18,0,0,0-39.7,50.3c-66.4,102.4-168.9,146.3-145.8,191.4s75.5,7.1,210.8-44.8c51.7-19.8,87.9-49.8,111.7-81.8a206.4,206.4,0,0,0,22.2-37.4c18.8-41.4,19.5-81.2,8.4-102.9-16.5-32-72.3-45.3-133.1-4"/><path class="cls-2" d="M1074.31,697.78c18.8-41.4,19.5-81.2,8.4-102.9-16.4-32.1-72.2-45.4-133-4.1"/><polygon class="cls-2" points="807.01 752.48 848.11 853.68 890.71 835.98 835.61 723.78 807.01 752.48"/><path class="cls-2" d="M865.41,685.38s-15.5,19-17.9,21.9L937,818.38s32.2-13.2,34-14.1Z"/><path class="cls-2" d="M911.91,623.48s-20.5,23.6-27.5,33.7l124.5,121.7s34-27.9,39.2-38.6Z"/><path class="cls-2" d="M800.21,1169c1,6.7,3.3,14,7.3,19.3,3.7,5,10.7,10.7,15.9,10.5s12.2-6.8,14.3-12.2c5.9-15.4,7.3-32.1,12.8-47.6,0-.1,0-.1.1-.2-17.4,12.9-35,18.7-55.8,20.4,2.7,1.2,4.6,4.2,5.4,9.8"/><path class="cls-2" d="M486.11,1194.08a30.24,30.24,0,0,0,2.1,6.2c3.6,9.3,9.7,15.5,20.4,15.5s16.5-6.9,18.1-15.8c1.5-8.1,4.8-12.4,9.7-14.4-20.2.1-39.1-4.4-59.8-5.4,5.1,2.2,8.4,6.4,9.5,13.9"/><path class="cls-3" d="M835.31,694.48c10.1-7.6,15.2-19.7,18.5-31.4,7.4-26.7,4-52.4,5.6-79.4,1.2-18.9-4.5-33.2-14.1-50.2-18.9-33.2-49.3-56.2-87.2-64.6-38.6-8.6-77.2-17.1-116.1-24-61-10.9-122.2-14.1-183.7-2.5a44.2,44.2,0,0,1-13.1.3c-69.2-8.1-138.6-9.3-208.2-5.6-35.1,1.9-69,8.6-99.7,26.4-85.2,49.5-113.5,168.3-60.4,252.1,2.9,4.6,7,10.8,5.9,15-6.2,23.1-.4,48.3-14.7,70.2-5,7.6-4.9,19.2-4.9,29,.4,67.2,1.3,134.4,2.2,201.6.3,20.8.5,41.6,1.4,62.4,1.5,33.7,18.2,51.6,51.9,56.7,5.2.8,10.5,1.2,15.7,1.6q98,7.05,196,13.8c19-3.7,42,7.6,61.4,5.6v-.2c.3,0,.6.1.9.1,1.5-.2,3-.5,4.5-.8a35.4,35.4,0,0,1-4.5.8c25.1,2.3,48.7,5.1,72.4,6.5,4.4.3,8.2.9,11.3,2.3,20.7,1,39.6,5.5,59.8,5.4,3.6-1.4,8.1-1.6,13.5-.8h.3c2-.2,4.1-.5,6.2-.9-2.1.4-4.1.7-6.2.9,12.5,1.7,25.2,2.5,37.8,3,40.7,1.9,81.6,10.5,121.8-3.9v-2.3c21.2-.3,37-.5,52.7-16.4l4.6-.1c1.3-.4,2.7-.8,4.1-1.1a69.92,69.92,0,0,0,12.6-3.7c.8-.3,1.5-.5,2.2-.8-.8,0-1.6.1-2.4.1.8,0,1.6-.1,2.4-.1,3.6-1.2,6.6-1.5,8.9-.5,20.8-1.7,38.4-7.5,55.8-20.4,4.7-13.2,10.4-23.3,10.8-37.9.4-18.2.9-36.3,1.2-54.3,1.1-61.6,1.1-122.9-3.2-184.7-3-42.6-10.1-73.1-45.1-99.3-18.4-13.8-19.3-38.7-2.7-54.8,6.8-6.2,16.4-7.6,23.8-13.1"/><path class="cls-2" d="M709.71,1181.68v2.3a4.87,4.87,0,0,0,1.1-.4c2.4-.9,8.3,4.1,10.6,7.5,5.1,7.9,10.6,14.2,21.1,11.6,9.8-2.5,13.2-10.2,12.6-19-.7-10.3,3.5-15.8,11.7-18.6l-4.5.1c-15.5,15.9-31.4,16.2-52.6,16.5"/><path class="cls-4" d="M701.31,834.28c-2.6-32.8-20.7-51.5-53.3-59.7-3-.8-6.3-1-8.9-2.4-3.1-1.8-7.6-4.4-7.9-7-.3-2.8,3-6.8,5.8-9.1,15.6-13.2,32.4-25.2,47.1-39.3,27.4-26.2,40.9-58.8,41.2-96.7.2-33.6-14.3-61.8-31.5-89.5-28.6-46.1-72.1-69.7-124.7-74.7-72-6.8-141.9,3.1-207.7,35.6-7.8,3.9-19.7,2.9-28.7.5-14.3-3.9-27.7-10.8-41.4-16.5-8.1-3.4-12.8-2.2-12.1,7.9.8,10.6-5.6,13.6-15,12.6-3.9-.4-7.7-1.7-11.5-2.7-47.4-11.7-90.9-8.8-124.8,31.8-2.2,2.6-7.5,2.6-11.4,3.9.1-4.3-1.4-9.6.5-12.6,12.7-19.7,30.9-33.3,53.2-40.5,25-8.1,50.5-8.1,75.9-3.6a25.76,25.76,0,0,1-5.6-10.1,5.7,5.7,0,0,1-1.3-.1c-57.4-6.2-105.2,10.7-139.4,58.9-34.7,48.9-35.2,101.8-20,156.7,2,7,6.2,13.5,9.4,20.2,8.1,17.1,7.1,36.4,4.1,54.6-1.4,8.8-3.8,17.1-4.1,25.9-.3,9.6,2.1,19.4-.5,28.9-2,7.7-8.2,13.4-9.6,21.1-1.6,8.7.8,19.8.9,28.6l1.2,76.5q1.35,76.5,2.7,152.9c.5,30.2,15.7,46.4,46.4,48.7,79.3,5.8,158.6,11.1,237.9,17.3,79.7,6.2,159.4,13.6,239.1,19.5,23.5,1.7,47.6,2.4,70.9-.4,22.7-2.7,31.1-17.3,30.5-39.6-2-67.6-3.2-135.2-4.8-202.8-.7-31.7-.2-63.4-2.6-94.8"/><path class="cls-2" d="M330.51,1165.88h0c9,.6,14.6,3.5,18.3,11.8,3.5,7.8,7.8,15.9,13.9,21.9,3.9,3.9,12.1,6.4,17.3,5.2,4.2-1,7.9-8.1,9.7-13.3,1.9-5.5,1.5-11.8,2.2-20.1-19.4,2.1-42.4-9.3-61.4-5.5"/><path class="cls-5" d="M130.51,892.48c-3.4,7.9-5.9,13.7-8.4,19.4-1.1-.1-2.2-.1-3.3-.2-.4-6.5-.9-13.1-1.4-21,4.8.7,8.3,1.1,13.1,1.8"/><path class="cls-5" d="M102.21,590.08c1.5-7.7,4.2-15.1,4.9-22.8.3-3.4-2.6-7.2-4.1-10.8-3.5,2.6-9.1,4.6-10.2,8-8.4,24.3-14.9,49.3-10.6,75.1,2.3,13.9,8.5,27.1,12.1,40.8,1.3,5.1.4,10.9.4,16.3l15.3-29.1c-12.4-26-12.8-51.5-7.8-77.5"/><path class="cls-5" d="M683.31,836.78c0,.1,0,.1-.1.2s-.2.1-.3.1.1-.2.1-.3h.3"/><path class="cls-5" d="M693.31,856.68c1.3,7.5,3.6,14.9,3.7,22.4.9,74.4,1.5,148.8,2.2,223.2.1,5.6.2,11.3-.1,16.9-1.3,26.4-14.2,39.6-41,40.9-16.7.8-33.4.9-50.1.2-4.5-.2-8.7-4.6-13.1-7,4.6-3.1,9-8.5,13.8-8.9,16.6-1.3,33.4-.6,50-1.3,17.2-.7,21.1-3.4,22.6-20.5,1.6-18.9,1.2-38,1-57.1-.7-63.7-1.8-127.3-2.7-191-.1-8.4-.4-17.1,13.7-17.8"/><path class="cls-5" d="M548.81,457.48c58.1,4.8,108.8,28.9,144.2,80,3.8,5.4,5.3,12.8,6.2,19.5.4,3.3-3.1,7.1-4.8,10.6-3.8-2-9.5-3.1-11.1-6.2-24.9-48.5-67.5-72.3-119.2-82.9-10.6-2.2-21.8-.8-32.7-2.2-4.3-.5-8.2-4-12.3-6.2,3.5-3.7,6.3-8.7,10.6-10.7,4.5-2,10.4-1.2,19.1-1.9"/><path class="cls-5" d="M255.11,467.68c-8.9-1.1-18.5-.8-26.5-.6a189.81,189.81,0,0,0-40.4,4.8,158.12,158.12,0,0,0-69.9,36c-4,3.6-6.3,8.9-7.9,13.9-.8,2.4,1.8,5.8,2.9,8.8,3.6-1,8.7-1,10.5-3.1a118.76,118.76,0,0,1,22.1-20.4c8-5.6,15.3-7.2,24.2-11,14.3-6.1,29.4-10.2,45.1-9.2,12.2.8,26.4,2.5,37.9,6.2,2.9.9,5.8,1.9,8.7,2.8,4.3,1.4,9.2,2.8,13.3.8,3.9-1.8,5.9-6.3,5.7-10.5-.4-6.3-5.2-11.6-11-14.4-4.2-2.2-9.3-3.4-14.7-4.1"/><path class="cls-5" d="M413.11,1146.88c-44-3.4-83-6.6-121.9-9.5-23.6-1.8-47.3-3.2-70.9-4.8-3.5-.2-7.5.2-10.4-1.3-3.7-1.9-6.6-5.5-9.8-8.3,3.7-3.1,7.2-8.6,11.1-8.9,10.4-.6,21,.9,31.5,1.8q83.4,6.6,166.9,13.5c5.9.5,15.8-1.4,14.2,8.3-.7,4.5-8.9,7.8-10.7,9.2"/><path class="cls-5" d="M713.31,634.88c-7.8,46.1-29.3,80.2-67.5,103.2-3.3,2-9.1-.3-13.8-.5,1.7-4,2.3-9.5,5.4-11.7,31.2-22.3,52.1-50.6,58.1-89.1.6-3.9,7.2-6.9,11-10.3,2.6,3.2,5.2,6.4,6.8,8.4"/><path class="cls-5" d="M167.31,1133.78c-16.8-3-34.4-3.9-50.2-9.6-10.1-3.6-18-13.9-25.8-22.2-1.6-1.7.8-9.8,3.6-11.8,2.3-1.6,10.3.2,11.9,2.7,8.9,14.9,23.9,16.6,38.6,18.6,10.9,1.5,22,1.1,32.8,3,4.4.8,8.2,5.4,12.2,8.2-3.7,3-7,6.8-11.2,8.8-3.3,1.6-7.8.8-11.7,1.1a7.38,7.38,0,0,0-.2,1.2"/><path class="cls-5" d="M343.71,526.58c-18.9-8.2-37.3-15.9-55.4-24.4-1.8-.9-2.9-8.7-1.4-9.8,3.3-2.6,8.9-4.9,12.4-3.9,9.1,2.8,17.8,7.2,26.4,11.5,12.1,6.1,23.6,7.7,36.1.5,6.3-3.6,13.8-5.4,21-7.1,2.8-.6,6.2,1.4,9.4,2.2-1.1,3.5-1.1,9-3.3,10.1-14.3,7.4-29.2,13.7-45.2,20.9"/><path class="cls-5" d="M636.71,781.48c18.8,4.2,33.3,10.6,42.1,25.4,1.4,2.4.7,8.8-1.2,9.9-3,1.7-8.5,2-11.6.4-11.3-6-22.2-12.9-32.9-19.9-2.4-1.6-5.4-6.3-4.6-7.7,2-3.5,5.9-6,8.2-8.1"/><path class="cls-5" d="M574.81,1161.48c-12.5-1.2-21.3-1.4-29.8-3-3.2-.6-5.8-4.2-8.6-6.4,2.4-2.8,4.8-8,7.4-8.1a295.54,295.54,0,0,1,37.6,1.5c1.8.2,5,7.1,4.3,7.8-3.9,3.7-8.7,6.6-10.9,8.2"/><path class="cls-5" d="M88.61,977.88c-.1-5.6-1-11.4.1-16.8.7-3.4,4.4-6.2,6.7-9.3,2.9,2.6,8.1,5,8.4,7.9a139.78,139.78,0,0,1,.6,31c-.4,3.7-6.3,6.7-9.7,10.1-2-3.7-4.8-7.3-5.9-11.2-1-3.6-.3-7.7-.4-11.6l.2-.1Z"/><path class="cls-5" d="M715.31,603.68c-2.4,3.5-4.9,11.4-9.1,12.3-8.8,2-9.3-6.5-10.6-12.9s-4.3-12.6-4.1-18.9c.2-4.1,4.8-8.1,7.5-12.1,3.3,2.4,8.1,4.2,9.5,7.4,3,6.7,4.1,14.1,6.8,24.2"/><path class="cls-5" d="M451.21,1153.58c-7.2-5.1-12.5-8.8-17.8-12.5,5.2-2.7,10.1-7.1,15.6-7.8,6.1-.8,16-2.4,15.4,8.1-.3,3.8-7.4,7.1-13.2,12.2"/><path class="cls-5" d="M85.41,1023c5-5.9,8.6-10.2,12.3-14.5,2.5,3.7,7.5,7.8,6.9,11-.9,5.4-5.2,10.2-8.1,15.2-3.1-3.1-6.1-6.3-11.1-11.7"/><path class="cls-5" d="M108.81,1049.88c-6.2,5.2-9.9,8.4-13.7,11.5-2.2-3.1-6.8-6.8-6.2-9.1,1.2-4.4,5.4-8.1,8.4-12.1,3,2.6,6,5.1,11.5,9.7"/><path class="cls-5" d="M434.51,481.38c-5.6,4.3-8.7,7.8-12.6,9-1.3.4-6.9-5.6-6.3-7.4,1-3.3,4.8-6.8,8.2-7.9,2-.5,5.5,3.1,10.7,6.3"/><path class="cls-5" d="M403.21,502.28c-3.4-4.9-7.4-8.4-6.8-10.3,1.1-3.3,5.1-5.7,7.9-8.5,2.4,2.4,6.9,5.1,6.6,7.1-.4,3.4-4,6.4-7.7,11.7"/><path class="cls-5" d="M682.91,837.08c5.8-1.4,12.9-4.8,13.5,5.1.1,2.3-5.5,7.1-8.3,7-9.3-.4-6.1-7-4.8-12.3Z"/><path class="cls-5" d="M683.31,836.78c-5.2-.7-11.8-.9-8.1-8.8,1.4-3,5.2-5.2,8.4-6.9.8-.5,5,2.5,4.8,3a112.38,112.38,0,0,1-5.5,13l.4-.3"/><path class="cls-6" d="M396.81,628.38l117.7,114.8s46.2,60.7,66,19.5a31.23,31.23,0,0,0,1.8-4.8l30.9-103.4c.5-1.6.8-3.3,1.2-4.9,15.9-61-9.8-89-41.5-88.7l-140,31.5c-32.2.2-58.8,13.9-36.1,36"/><path class="cls-5" d="M248.51,613.88l-83.2,94.9s-31.7,49.2-49.3,18.8a23.68,23.68,0,0,1-1.7-3.6l-29.9-77.5c-.5-1.2-.8-2.5-1.2-3.7-15.9-45.9,2.1-68.8,26.4-70.5l109.1,16c24.6-1.6,45.8,7.3,29.8,25.6"/><path class="cls-5" d="M436.51,643.58l79.3,77.3s31.1,40.9,44.4,13.1a16.07,16.07,0,0,0,1.2-3.3l20.8-69.7c.3-1.1.5-2.2.8-3.3,10.7-41.1-6.6-60-28-59.8l-94.3,21.2c-21.6.4-39.5,9.6-24.2,24.5"/><path class="cls-5" d="M222.21,619.48l-56.1,63.9s-21.4,33.2-33.2,12.7a25.57,25.57,0,0,1-1.1-2.4l-20.1-52.2c-.3-.8-.5-1.7-.8-2.5-10.7-30.9,1.4-46.4,17.8-47.5l73.5,10.8c16.5-1.2,30.8,4.8,20,17.2"/><path class="cls-6" d="M574,781.38c.1-.9.8,22,.9,21.1,14.2-126.5-76.9-233.9-203.6-239.9s-241.4,68.1-255.6,194.6c-.5,4.9-.9,9.7-1.1,14.5-22.4,27.4-36.9,59.1-40.8,93.3-12.7,112.7,95.6,233.4,241.1,240.2s273.8-79,286.5-191.7c4.4-39-6.3-99.9-27.4-132.1"/><path class="cls-5" d="M492.81,704.48c5.4-48.5-22.1-89.3-61.6-91.1-36.3-1.7-70.1,30.2-79.4,73.1-2-.2-4-.4-6-.5a84,84,0,0,0-14.2.6c.7-43.8-25.6-79.1-62.2-80.8-39.5-1.8-75.9,36-81.3,84.5-5,44.7,18,82.8,52.5,90a138.76,138.76,0,0,0-3.3,18.4c-4.4,38.9,13.7,63,42.9,71.6,40.5,12,90.9,14,128.9-19.8,11.3-10,17.1-27.1,18.8-42.8a139.49,139.49,0,0,0,.8-20.3c32.4-8.1,59.5-41.7,64.1-82.9"/><path class="cls-5" d="M334.81,588.38c-.8,6.8-12.2,11.9-25.4,11.3s-23.4-6.7-22.7-13.5,12.2-11.9,25.4-11.3,23.4,6.6,22.7,13.5"/><path class="cls-5" d="M425.51,592.58c-.8,6.8-12.2,11.9-25.4,11.3s-23.4-6.7-22.7-13.5,12.2-11.9,25.4-11.3,23.5,6.7,22.7,13.5"/><path class="cls-5" d="M335.31,753c3.5,11.6,12.4,20.4,22.8,21s21.8-7.9,25.5-20.3"/><path class="cls-5" d="M215.91,720.08c-3.2,4.9-6.2,10-9.1,15.2-18.6,34.5-52.6,23.5-62.3,1.5-6.2-14.1,1.2-36.9,8.2-50.2,14.7-28.2,39.7-44.1,64.8-52.7a207.66,207.66,0,0,1,38.4-9c9.1-1.3,22.3-3.5,30.5,1.2,4.8,2.8,6.8,8.1,5.7,14.9-2.9,17.8-31.2,30.1-42.2,39.7a193.4,193.4,0,0,0-34,39.4"/><path class="cls-5" d="M466.81,733.68c7.3,13.7,11.4,31.3,25.1,37,14.1,5.9,33-.3,43.6-15.5,9.3-13.3,7-36.6,3.1-50.5a86.52,86.52,0,0,0-37.1-49.8c-17.1-11-34.8-16.5-54.5-22.3-13.2-4-30.4-9.9-40.5,5.1-4.9,7.2-5,16.6-3.3,24.6,2.2,10.2,7.5,16.4,14.8,21.7,3.9,2.8,8,5.3,12,8.1,14,9.9,26,23.3,35.4,39.2a13.77,13.77,0,0,1,1.4,2.4"/><path class="cls-5" d="M252.61,786.08a338.69,338.69,0,0,0-1.8,49.3c-3.5,1.4-7.1-1.9-7.8-5.7s.5-8,1.7-11.9"/><path class="cls-5" d="M251.61,786.78a98.38,98.38,0,0,0-14.1,51.9"/><path class="cls-5" d="M479.41,849.08c-8.6-1.2-14.8-4.3-17.9-15.8-4.9-17.9-11.9-35-23-50.1-21.4-29.3-54.9-46.3-91.5-49.4-73.6-6.1-127.5,24.3-154.6,110.1a114,114,0,0,0-18.4-7.5c-19.4-6.3-47.5-3.4-44.8,31.6,1.3,17,10.5,26.1,30.9,33.3-1.9,5.1-3.6,10.2-5.3,15.7-14.8,49.9,18.9,95.8,61.3,120.9,51.4,30.4,111.9,37.8,166.9,13.1,30.7-13.8,58.1-32.7,67.2-65,5.4-19.3,10.8-40.3,2.9-58.8,33.1,8,71.1-9.3,72.5-44.5.7-18.4-19.7-31.8-37.5-32.8-3.1-.3-6-.4-8.7-.8"/><path class="cls-5" d="M316.31,951.58c-1.1,9.8-15.1,17.1-31.2,16.4s-28.3-9.3-27.2-19.1,15.1-17.1,31.2-16.4,28.3,9.3,27.2,19.1"/><path class="cls-5" d="M379,924.58c-2.6,23.3-14.4,41.8-26.4,41.2s-19.5-19.9-16.9-43.2,14.4-41.8,26.4-41.2,19.6,19.8,16.9,43.2"/><path class="cls-5" d="M254.21,915c-2.6,23.3-14.4,41.8-26.4,41.2s-19.5-19.9-16.9-43.2,14.4-41.8,26.4-41.2,19.5,19.9,16.9,43.2"/><path class="cls-5" d="M460.81,771.78c-13.6-24-57.9-62-87.2-66.1-9-1.3-18.4-1.4-27.1,1.7-5,1.8-5.8-.7-10.7,4.1a41.86,41.86,0,0,0-13.8-12.1c-7.9-3.9-17.3-4.6-26.5-4.2-30,1.3-82.3,34.7-101.1,57.1-19.3,23-33.2,50.9-32.7,79.5.1,3,.3,6.2,1.8,8.8,1.9,3.2,5.5,5,9,6.6,32.6,14.3,87.6,30.7,123.6,22.3,5.5-1.3,8.3-8.4,5.4-13.2-4.3-7.1-8.9-14.1-8.3-22.4.4-5.8,3.3-13.2,8-16.2,8.1-5.1,16.2-4.8,22.2,2.5a7.33,7.33,0,0,0,4.6,2.7c1.8-.1-2.9-.1-1.4-1.4,7.6-6.7,15.6-6.2,22.5-.4,4,3.4,5.1,11,4.3,16.8-1.2,8.2-7.4,14.7-13.2,21.3-4,4.5-2.8,11.8,2.4,13.6,33.8,11.8,83.2,6,118.6-5.1,3.8-1.2,7.8-2.7,10.4-5.6,2.1-2.4,3-5.5,3.8-8.5,6.8-28.3-.7-57.2-14.6-81.8"/><path class="cls-5" d="M255.91,1001.28c5.8,4.7,12.1,9.1,19.2,12a46.82,46.82,0,0,0,23.2,3.7"/><path class="cls-5" d="M258,985.78c-.9,16.4-8.7,33-18.9,40.2"/><path class="cls-5" d="M375,685.68c-1,9.3-13.7,16.2-28.3,15.6s-25.6-8.8-24.6-18,13.7-16.2,28.3-15.5,25.7,8.7,24.6,17.9"/><path class="cls-5" d="M305.41,646c-1.7,15.3-13.2,27.2-25.6,26.6s-21.1-13.4-19.4-28.7,13.2-27.2,25.6-26.6,21.1,13.4,19.4,28.7"/><path class="cls-5" d="M431.11,651.88c-1.7,15.3-13.2,27.2-25.6,26.6s-21.1-13.4-19.4-28.7,13.2-27.2,25.6-26.6,21.1,13.4,19.4,28.7"/><path class="cls-2" d="M380.71,613l117.7,114.8s46.2,60.7,66,19.5a31.23,31.23,0,0,0,1.8-4.8l30.9-103.4c.5-1.6.8-3.3,1.2-4.9,15.9-61-9.8-89-41.5-88.7l-140,31.5c-32.2.2-58.8,13.9-36.1,36"/><path class="cls-2" d="M232.41,598.48l-83.2,94.9s-31.7,49.2-49.3,18.8a23.68,23.68,0,0,1-1.7-3.6l-29.9-77.5c-.5-1.2-.8-2.5-1.2-3.7-15.9-45.9,2.2-68.8,26.4-70.5l109.1,16c24.6-1.6,45.8,7.3,29.8,25.6"/><path class="cls-1" d="M420.41,628.18l79.3,77.3s31.1,40.9,44.5,13.1a16.07,16.07,0,0,0,1.2-3.3l20.8-69.7c.3-1.1.5-2.2.8-3.3,10.7-41.1-6.6-60-27.9-59.8l-94.3,21.2c-21.8.4-39.7,9.6-24.4,24.5"/><path class="cls-1" d="M206.11,604.08,150,668s-21.4,33.2-33.2,12.7a25.57,25.57,0,0,1-1.1-2.4l-20.1-52.2c-.3-.8-.5-1.7-.8-2.5-10.7-30.9,1.4-46.4,17.8-47.5l73.5,10.8c16.5-1.2,30.8,4.8,20,17.2"/><path class="cls-1" d="M557.91,766c.1-.9.8,22,.9,21.1,14.2-126.5-76.9-233.9-203.6-239.9s-241.4,68.1-255.6,194.6c-.5,4.9-.9,9.7-1.1,14.5-22.4,27.4-36.9,59.1-40.8,93.3-12.7,112.7,95.6,233.4,241.1,240.2s273.8-79,286.5-191.7c4.4-39-6.3-99.9-27.4-132.1"/><path class="cls-7" d="M476.71,689.08c5.4-48.5-22.1-89.3-61.6-91.1-36.3-1.7-70.1,30.2-79.4,73.1-2-.2-4-.4-6-.5a84,84,0,0,0-14.2.6c.7-43.8-25.6-79.1-62.2-80.8-39.5-1.8-75.9,36-81.3,84.5-5,44.7,18,82.8,52.5,90a138.76,138.76,0,0,0-3.3,18.4c-4.4,38.9,13.7,63,42.9,71.6,40.5,12,90.9,14,128.9-19.8,11.3-10,17.1-27.1,18.8-42.8a139.49,139.49,0,0,0,.8-20.3c32.4-8.2,59.5-41.7,64.1-82.9"/><path class="cls-8" d="M318.61,572.88c-.8,6.8-12.2,11.9-25.4,11.3s-23.4-6.7-22.7-13.5,12.2-11.9,25.4-11.3c13.4.6,23.5,6.7,22.7,13.5"/><path class="cls-8" d="M409.41,577.18c-.8,6.8-12.2,11.9-25.4,11.3s-23.4-6.7-22.7-13.5,12.2-11.9,25.4-11.3,23.5,6.6,22.7,13.5"/><path class="cls-9" d="M199.81,704.68c-3.2,4.9-6.2,10-9.1,15.2-18.6,34.5-52.6,23.5-62.3,1.5-6.2-14.1,1.2-36.9,8.2-50.2,14.7-28.2,39.7-44.1,64.8-52.7a207.66,207.66,0,0,1,38.4-9c9.1-1.3,22.3-3.5,30.5,1.2,4.8,2.8,6.8,8.1,5.7,14.9-2.9,17.8-31.2,30.1-42.2,39.7a193.4,193.4,0,0,0-34,39.4"/><path class="cls-9" d="M450.71,718.28c7.3,13.7,11.4,31.3,25.1,37,14.1,5.9,33-.3,43.6-15.5,9.3-13.3,7-36.6,3.1-50.5a86.52,86.52,0,0,0-37.1-49.8c-17.1-11-34.8-16.5-54.5-22.3-13.2-4-30.4-9.9-40.5,5.1-4.9,7.2-5,16.6-3.3,24.6,2.2,10.2,7.5,16.4,14.8,21.7,3.9,2.8,8,5.3,12,8.1,14,9.9,26,23.3,35.4,39.2a13.77,13.77,0,0,1,1.4,2.4"/><path class="cls-10" d="M226,770.58a338.18,338.18,0,0,0-1.8,49.3c2.5-3.3,5.1-6.7,7.6-10-.9.3-.9.3.1.1a4.11,4.11,0,0,1,2.2,0c.4.2.9.3,1.3.5,1.1.9,1.3,1.1.8.5-.9-.8,1.1,1.7.2.1.5,1.3.6,1.5.4.7s-.1-.5.1.7c-.3-.4,0-1.7,0-2.1,0-1.2-.4,1.7.1-.2.4-1.7.9-3.4,1.4-5.1,1.6-5.2-1.9-11.6-7.3-12.8a10.62,10.62,0,0,0-12.8,7.3c-2.2,7.1-3.4,14.4-.2,21.3,3.3,7.1,11.5,11.5,19.2,9.1,4.3-1.3,7.8-5.4,7.6-10a338.18,338.18,0,0,1,1.8-49.3c.6-5.4-5.2-10.6-10.4-10.4-6,.2-9.6,4.5-10.3,10.3"/><path class="cls-10" d="M226.51,766.08a108.49,108.49,0,0,0-15.5,57.1c.1,5.4,4.7,10.7,10.4,10.4s10.5-4.6,10.4-10.4a101.77,101.77,0,0,1,.7-13.5c-.3,2.5.1-.5.1-.8.2-1.2.4-2.4.7-3.6a62.28,62.28,0,0,1,1.5-6.2,101.28,101.28,0,0,1,4.1-12.1c-.9,2.2.6-1.3.8-1.7.4-.8.8-1.6,1.2-2.5,1.1-2.2,2.3-4.3,3.5-6.4,2.8-4.7,1.2-11.6-3.7-14.2a10.77,10.77,0,0,0-14.2,3.9"/><path class="cls-11" d="M463.31,833.68c-8.6-1.2-14.8-4.3-17.9-15.8-4.9-17.9-11.9-35-23-50.1-21.4-29.3-54.9-46.3-91.5-49.4-73.6-6.1-127.5,24.3-154.6,110.1a114,114,0,0,0-18.4-7.5c-19.4-6.3-47.5-3.4-44.8,31.6,1.3,17,10.5,26.1,30.9,33.3-1.9,5.1-3.6,10.2-5.3,15.7-14.8,49.9,18.9,95.8,61.3,120.9,51.4,30.4,111.9,37.8,166.9,13.1,30.7-13.8,58.1-32.7,67.2-65,5.4-19.3,10.8-40.3,2.9-58.8,33.1,8,71.1-9.3,72.5-44.5.7-18.4-19.7-31.8-37.5-32.8-3.1-.3-6-.4-8.7-.8"/><path class="cls-12" d="M300.21,936.18c-1.1,9.8-15.1,17.1-31.2,16.4s-28.3-9.3-27.2-19.1,15.1-17.1,31.2-16.4,28.3,9.2,27.2,19.1"/><path class="cls-13" d="M362.91,909.08c-2.6,23.3-14.4,41.8-26.4,41.2s-19.5-19.9-16.9-43.2,14.4-41.8,26.4-41.2,19.6,19.9,16.9,43.2"/><path class="cls-13" d="M238.11,899.58c-2.6,23.3-14.4,41.8-26.4,41.2s-19.5-19.9-16.9-43.2,14.4-41.8,26.4-41.2,19.5,19.9,16.9,43.2"/><path class="cls-13" d="M358.91,670.28c-1,9.3-13.7,16.2-28.3,15.6s-25.6-8.8-24.6-18,13.7-16.2,28.3-15.5,25.7,8.6,24.6,17.9"/><path class="cls-13" d="M289.31,630.58c-1.7,15.3-13.2,27.2-25.6,26.6s-21.1-13.4-19.4-28.7,13.2-27.2,25.6-26.6,21.1,13.4,19.4,28.7"/><path class="cls-13" d="M415,636.48c-1.7,15.3-13.2,27.2-25.6,26.6s-21.1-13.4-19.4-28.7,13.2-27.2,25.6-26.6,21.1,13.4,19.4,28.7"/><path class="cls-12" d="M323.31,979c1.4,14.2-2.2,26.2-20.5,23.8a9.7,9.7,0,0,0-1.7-.1c-18.3.2-33.8-4.6-25.8-14.9a12.42,12.42,0,0,1,2.9-2.7c6-3.8,18-9,27.2-14.8A11.7,11.7,0,0,1,323.31,979Z"/><path class="cls-2" d="M478.81,1054.38l5,46.9a5,5,0,0,0,7.7,3.6l38.4-26.1a5,5,0,0,0-.7-8.6l-43.4-20.7A4.84,4.84,0,0,0,478.81,1054.38Z"/><path class="cls-14" d="M487.71,1060.58a62.81,62.81,0,0,1,15.3,19.9"/><path class="cls-15" d="M478.71,1058.68l13.2-6.6a5.08,5.08,0,0,0,2.2-6.6h0a4.49,4.49,0,0,0-6.1-2.4l-13.2,6.6a5.08,5.08,0,0,0-2.2,6.6h0A4.49,4.49,0,0,0,478.71,1058.68Z"/><path class="cls-2" d="M442.61,781.48c-12.4-20.6-54-57-82.3-65.1-8.6-2.5-17.8-4.2-26.4-3.3-4.8.5-19.6.6-25,3.2-4.9-3.7-19.5-6.9-24.2-8.4-8.3-2.7-17.6-3-26.5-2.4-29.1,1.9-75.5,29-90.7,46.7-15.6,18.1-25.2,39.8-20.6,61.5,2,9.5,14.8,12.6,22.6,15.1a96,96,0,0,0,29.4,5c9,0,12.5-5.1,18.6-11.1,3.2-3.1,8.3-2.1,11,1.4,3.3,4.3,3.1,8.5,9.4,11.1,8,3.3,12.8.5,16.7-5.5a67.59,67.59,0,0,1,5.5-7.4c3.1-3.7,9.6-2.8,11.8,1.7,5.4,10.8,13.2,21.6,22.2,6.6,2.4-4,4.3-7.9,6.9-11.5,2,4.1,3.3,8.3,5.1,12.8,6.6,16.6,15.9,7.7,22.8-1.8,2.9-3.9,9.3-3.5,11.9.8,1.6,2.8,3,5.6,4.3,8.5,2.7,6.2,6.3,10.9,14.1,11.9,7,.9,9.9-3.6,11-9s9-6.7,12.5-1.9c5.8,8.1,8.3,13.9,18.5,14.2,13.7.5,36.5,6.1,48.5-2.3,2.1-1.5,3.1-3.7,4-5.9C461.51,825.88,455.31,802.58,442.61,781.48Z"/><path class="cls-2" d="M103.11,994.78,65,1020.38a5,5,0,0,0,.1,8.3l38.2,24.9a5,5,0,0,0,7.7-4.2l-.1-50.5A5,5,0,0,0,103.11,994.78Z"/><path class="cls-14" d="M101.91,1005.68a67.28,67.28,0,0,1-10.8,23.5"/><path class="cls-15" d="M99.91,996.28l11.1,9.6a4.47,4.47,0,0,0,6.5-.8h0a5,5,0,0,0-.5-6.9l-11.1-9.6a4.47,4.47,0,0,0-6.5.8h0A5.19,5.19,0,0,0,99.91,996.28Z"/><text class="cls-16" transform="translate(50.24 262.23) rotate(0.1)">❷<tspan class="cls-17" x="232.45" y="0">ぱ</tspan><tspan class="cls-18" x="459.22" y="0">ん</tspan><tspan class="cls-19" x="689.31" y="0">席</tspan></text><text class="cls-20" transform="translate(50.24 262.23) rotate(0.1)">❷<tspan class="cls-17" x="232.45" y="0">ぱ</tspan><tspan class="cls-18" x="459.22" y="0">ん</tspan><tspan class="cls-19" x="689.31" y="0">席</tspan></text><text class="cls-21" transform="translate(50.24 262.23) rotate(0.1)">❷<tspan class="cls-17" x="232.45" y="0">ぱ</tspan><tspan class="cls-18" x="459.22" y="0">ん</tspan><tspan class="cls-19" x="689.31" y="0">席</tspan></text><text class="cls-22" transform="translate(50.24 262.23) rotate(0.1)">❷<tspan class="cls-17" x="232.45" y="0">ぱ</tspan><tspan class="cls-18" x="459.22" y="0">ん</tspan><tspan class="cls-19" x="689.31" y="0">席</tspan></text><text class="cls-23" transform="translate(50.24 262.23) rotate(0.1)">❷<tspan class="cls-17" x="232.45" y="0">ぱ</tspan><tspan class="cls-18" x="459.22" y="0">ん</tspan><tspan class="cls-19" x="689.31" y="0">席</tspan></text><text class="cls-24" transform="translate(50.24 262.23) rotate(0.1)">❷<tspan class="cls-17" x="232.45" y="0">ぱ</tspan><tspan class="cls-18" x="459.22" y="0">ん</tspan><tspan class="cls-19" x="689.31" y="0">席</tspan></text></g></g></svg>