<svg xmlns="http://www.w3.org/2000/svg" viewBox="0 0 1349.79 1349.79"><defs><style>.cls-1{fill:#b8a0c7;}.cls-2,.cls-23{fill:#b76da1;}.cls-3{fill:#d7af80;}.cls-4{fill:#f6f8f8;}.cls-5{fill:#c39c61;}.cls-6{fill:#9b4e87;}.cls-7{fill:#eee;}.cls-8{fill:#fff;}.cls-9{fill:#ae8fbd;}.cls-10{fill:#ad8046;}.cls-11{fill:#f6d6e4;}.cls-12{fill:#cd98be;}.cls-13{fill:#8a73a8;}.cls-14,.cls-20,.cls-22,.cls-24{fill:none;}.cls-14{stroke:#8a73a8;stroke-linecap:round;stroke-linejoin:round;stroke-width:5px;}.cls-15{fill:#d85891;}.cls-16,.cls-20,.cls-21,.cls-22,.cls-23,.cls-24{isolation:isolate;font-size:262.22px;font-family:HiraMaruProN-W4-83pv-RKSJ-H, Hiragino Maru Gothic ProN;letter-spacing:-0.02em;}.cls-16{fill:#f1f1f1;}.cls-17{letter-spacing:-0.04em;}.cls-18{letter-spacing:-0.03em;}.cls-19{letter-spacing:0em;}.cls-20{stroke:#e9eaea;stroke-width:55px;}.cls-20,.cls-22,.cls-24{stroke-miterlimit:10;}.cls-21{fill:#dca059;}.cls-22{stroke:#e69b49;}.cls-22,.cls-24{stroke-width:4px;}.cls-24{stroke:#b76da1;}</style></defs><title>资源 16</title><g id="图层_2" data-name="图层 2"><g id="图层_1-2" data-name="图层 1"><path class="cls-1" d="M1030.05,656.73a246.29,246.29,0,0,0-38.26,32.38,358.19,358.19,0,0,0-44,55.77C874.14,858.44,760.48,907.12,786.09,957.13s83.72,7.87,233.76-49.68c57.33-22,97.47-55.22,123.86-90.71a229,229,0,0,0,24.62-41.47c20.84-45.91,21.62-90,9.31-114.11-18.3-35.48-80.17-50.23-147.59-4.43"/><path class="cls-2" d="M1168.22,775.38c20.84-45.91,21.62-90,9.31-114.11-18.19-35.59-80.06-50.34-147.48-4.54"/><polygon class="cls-2" points="871.81 836.04 917.38 948.25 964.62 928.63 903.52 804.21 871.81 836.04"/><path class="cls-2" d="M936.57,761.63s-17.19,21.07-19.85,24.28L1016,909.11s35.71-14.64,37.71-15.63Z"/><path class="cls-2" d="M988.13,693s-22.73,26.17-30.49,37.37l138.05,134.95s37.71-30.94,43.47-42.8Z"/><path class="cls-2" d="M864.27,1297.89c1.11,7.43,3.66,15.52,8.09,21.4,4.11,5.55,11.87,11.87,17.63,11.64s13.53-7.54,15.86-13.52c6.54-17.08,8.1-35.6,14.2-52.79,0-.11,0-.11.11-.22-19.3,14.31-38.82,20.74-61.88,22.62,3,1.33,5.1,4.66,6,10.87"/><path class="cls-2" d="M516,1325.72c.34,2.33,1.45,4.55,2.33,6.88,4,10.31,10.76,17.19,22.62,17.19s18.3-7.66,20.08-17.53c1.66-9,5.32-13.75,10.75-16-22.4.11-43.36-4.88-66.31-6,5.66,2.44,9.31,7.1,10.53,15.41"/><path class="cls-3" d="M903.19,771.72c11.2-8.43,16.86-21.85,20.51-34.82,8.21-29.61,4.44-58.11,6.21-88,1.34-21-5-36.81-15.63-55.66-21-36.82-54.67-62.32-96.7-71.64-42.8-9.53-85.6-19-128.74-26.61-67.64-12.09-135.51-15.64-203.7-2.77a48.76,48.76,0,0,1-14.53.33c-76.73-9-153.69-10.31-230.87-6.21-38.92,2.11-76.51,9.54-110.56,29.28-94.47,54.89-125.86,186.62-67,279.55,3.21,5.1,7.76,12,6.54,16.63-6.88,25.62-.45,53.56-16.3,77.85C46.9,898,47,910.89,47,921.75c.45,74.52,1.45,149,2.44,223.56.34,23.06.56,46.13,1.56,69.19,1.66,37.37,20.18,57.22,57.55,62.87,5.76.89,11.64,1.34,17.41,1.78q108.61,7.81,217.34,15.3c21.07-4.1,46.57,8.43,68.09,6.21v-.22c.33,0,.66.11,1,.11,1.67-.22,3.33-.55,5-.89a37.57,37.57,0,0,1-5,.89c27.84,2.55,54,5.66,80.29,7.21,4.88.33,9.09,1,12.53,2.55,22.95,1.11,43.91,6.1,66.31,6,4-1.55,9-1.78,15-.89h.33c2.22-.22,4.55-.55,6.88-1-2.33.45-4.55.78-6.88,1,13.86,1.89,27.95,2.77,41.92,3.33,45.13,2.1,90.48,11.64,135.06-4.33v-2.55c23.51-.33,41-.55,58.44-18.18l5.1-.11c1.44-.45,3-.89,4.55-1.22a77.35,77.35,0,0,0,14-4.11c.89-.33,1.66-.55,2.44-.88-.89,0-1.77.11-2.66.11.89,0,1.77-.11,2.66-.11,4-1.34,7.32-1.67,9.87-.56,23.06-1.88,42.58-8.32,61.88-22.62,5.21-14.64,11.53-25.84,12-42,.44-20.18,1-40.25,1.33-60.21,1.22-68.31,1.22-136.28-3.55-204.81-3.32-47.24-11.2-81.06-50-110.12-20.4-15.3-21.4-42.91-3-60.76,7.54-6.88,18.18-8.43,26.39-14.53"/><path class="cls-2" d="M763.91,1312v2.55a5.26,5.26,0,0,0,1.22-.44c2.66-1,9.21,4.55,11.76,8.32,5.65,8.76,11.75,15.74,23.4,12.86,10.86-2.77,14.63-11.31,14-21.07-.78-11.42,3.88-17.52,13-20.63l-5,.12c-17.19,17.63-34.82,18-58.33,18.29"/><path class="cls-4" d="M754.6,926.74c-2.88-36.37-23-57.1-59.11-66.2-3.32-.89-7-1.11-9.86-2.66-3.44-2-8.43-4.88-8.76-7.76-.34-3.11,3.32-7.54,6.43-10.09,17.3-14.64,35.92-27.95,52.23-43.58,30.38-29.05,45.35-65.2,45.68-107.23.22-37.26-15.86-68.53-34.93-99.25-31.71-51.12-79.95-77.29-138.28-82.83-79.84-7.54-157.35,3.44-230.31,39.47-8.65,4.33-21.85,3.22-31.83.56-15.86-4.33-30.72-12-45.91-18.3-9-3.77-14.19-2.44-13.41,8.76.88,11.76-6.21,15.08-16.64,14-4.32-.44-8.54-1.88-12.75-3-52.56-13-100.8-9.76-138.39,35.26-2.44,2.89-8.32,2.89-12.64,4.33.11-4.77-1.55-10.65.55-14,14.09-21.85,34.27-36.93,59-44.91,27.72-9,56-9,84.16-4a28.52,28.52,0,0,1-6.21-11.2,6.36,6.36,0,0,1-1.44-.11c-63.65-6.87-116.66,11.87-154.58,65.32-38.48,54.22-39,112.88-22.18,173.76,2.22,7.76,6.88,15,10.43,22.4,9,19,7.87,40.36,4.54,60.55-1.55,9.75-4.21,19-4.54,28.72-.34,10.64,2.32,21.51-.56,32-2.22,8.54-9.09,14.86-10.64,23.4-1.78,9.65.88,22,1,31.71q.67,42.42,1.33,84.83,1.5,84.84,3,169.55c.55,33.49,17.41,51.46,51.45,54,87.94,6.43,175.87,12.31,263.81,19.18,88.37,6.88,176.75,15.08,265.13,21.62,26.06,1.89,52.79,2.67,78.62-.44,25.17-3,34.49-19.18,33.82-43.91-2.21-75-3.54-149.92-5.32-224.88-.77-35.16-.22-70.31-2.88-105.13"/><path class="cls-2" d="M343.42,1294.45h0c10,.67,16.19,3.88,20.29,13.09,3.88,8.65,8.65,17.63,15.42,24.28,4.32,4.33,13.41,7.1,19.18,5.77,4.66-1.11,8.76-9,10.76-14.75,2.1-6.1,1.66-13.09,2.44-22.29-21.52,2.33-47-10.31-68.09-6.1"/><path class="cls-5" d="M121.64,991.28c-3.77,8.76-6.54,15.19-9.31,21.51-1.22-.11-2.44-.11-3.66-.22-.45-7.21-1-14.53-1.55-23.29,5.32.78,9.2,1.22,14.52,2"/><path class="cls-5" d="M90.26,656c1.66-8.54,4.66-16.74,5.43-25.28.34-3.77-2.88-8-4.54-12-3.88,2.89-10.09,5.1-11.31,8.87-9.32,27-16.53,54.67-11.76,83.28,2.55,15.41,9.43,30,13.42,45.24,1.44,5.66.44,12.09.44,18.08l17-32.27C85.16,713.06,84.72,684.78,90.26,656"/><path class="cls-5" d="M734.64,929.52c0,.11,0,.11-.11.22s-.22.11-.34.11.12-.22.12-.33h.33"/><path class="cls-5" d="M745.73,951.58c1.44,8.32,4,16.52,4.1,24.84,1,82.5,1.66,165,2.44,247.51.11,6.21.22,12.53-.11,18.74-1.44,29.27-15.75,43.91-45.47,45.35-18.51.89-37,1-55.55.22-5-.22-9.65-5.1-14.53-7.76,5.1-3.44,10-9.43,15.3-9.87,18.41-1.44,37-.67,55.45-1.44,19.07-.78,23.4-3.77,25.06-22.73,1.77-21,1.33-42.14,1.11-63.32-.78-70.64-2-141.16-3-211.8-.12-9.31-.45-19,15.19-19.74"/><path class="cls-5" d="M585.49,508.91c64.43,5.32,120.65,32.05,159.9,88.71,4.22,6,5.88,14.2,6.88,21.63.44,3.66-3.44,7.87-5.32,11.75-4.22-2.22-10.54-3.44-12.31-6.87C707,570.34,659.79,544,602.46,532.2c-11.76-2.44-24.18-.89-36.26-2.44-4.77-.55-9.1-4.44-13.64-6.88,3.88-4.1,7-9.64,11.75-11.86,5-2.22,11.53-1.33,21.18-2.11"/><path class="cls-5" d="M259.81,520.22c-9.87-1.22-20.51-.88-29.39-.66a210.07,210.07,0,0,0-44.79,5.32,175.28,175.28,0,0,0-77.52,39.92c-4.43,4-7,9.87-8.76,15.41-.88,2.66,2,6.44,3.22,9.76,4-1.11,9.65-1.11,11.64-3.44a132.1,132.1,0,0,1,24.51-22.62c8.87-6.21,17-8,26.83-12.19,15.86-6.77,32.61-11.32,50-10.21,13.52.89,29.27,2.78,42,6.88,3.22,1,6.43,2.11,9.65,3.1,4.77,1.56,10.2,3.11,14.75.89,4.32-2,6.54-7,6.32-11.64-.44-7-5.77-12.87-12.2-16-4.66-2.44-10.31-3.77-16.3-4.55"/><path class="cls-5" d="M435,1273.38c-48.8-3.77-92-7.32-135.18-10.53-26.17-2-52.45-3.55-78.62-5.32-3.88-.23-8.32.22-11.53-1.45-4.1-2.1-7.32-6.09-10.87-9.2,4.1-3.44,8-9.54,12.31-9.87,11.53-.66,23.29,1,34.93,2q92.49,7.32,185.07,15c6.55.55,17.53-1.56,15.75,9.2-.78,5-9.87,8.65-11.86,10.2"/><path class="cls-5" d="M767.91,705.63c-8.65,51.12-32.5,88.93-74.86,114.44-3.65,2.22-10.09-.34-15.3-.56,1.89-4.43,2.55-10.53,6-13,34.6-24.73,57.77-56.11,64.43-98.8.66-4.33,8-7.65,12.19-11.43,2.89,3.55,5.77,7.1,7.55,9.32"/><path class="cls-5" d="M162.45,1258.86c-18.63-3.33-38.15-4.33-55.67-10.65-11.2-4-20-15.41-28.61-24.62-1.77-1.88.89-10.86,4-13.08,2.55-1.78,11.42.22,13.19,3,9.87,16.53,26.5,18.41,42.8,20.63,12.09,1.66,24.4,1.22,36.38,3.32,4.88.89,9.09,6,13.53,9.1-4.11,3.32-7.77,7.54-12.42,9.76-3.66,1.77-8.65.88-13,1.22a8,8,0,0,0-.22,1.33"/><path class="cls-5" d="M358.06,585.54c-21-9.1-41.36-17.63-61.43-27.06-2-1-3.22-9.65-1.56-10.87,3.66-2.88,9.87-5.43,13.75-4.32,10.09,3.1,19.74,8,29.28,12.75,13.42,6.76,26.17,8.54,40,.55,7-4,15.3-6,23.29-7.87,3.1-.66,6.87,1.55,10.42,2.44-1.22,3.88-1.22,10-3.66,11.2-15.86,8.21-32.38,15.19-50.12,23.18"/><path class="cls-5" d="M683,868.19c20.85,4.66,36.93,11.76,46.69,28.17,1.55,2.66.77,9.76-1.33,11-3.33,1.88-9.43,2.21-12.87.44-12.53-6.65-24.61-14.3-36.48-22.07-2.66-1.77-6-7-5.1-8.53,2.22-3.89,6.54-6.66,9.09-9"/><path class="cls-5" d="M614.32,1289.57c-13.86-1.33-23.62-1.55-33-3.32-3.55-.67-6.43-4.66-9.54-7.1,2.66-3.11,5.32-8.87,8.21-9a326.59,326.59,0,0,1,41.69,1.66c2,.22,5.55,7.87,4.77,8.65-4.32,4.1-9.65,7.32-12.09,9.09"/><path class="cls-5" d="M75.18,1086c-.11-6.21-1.11-12.64.11-18.63.78-3.77,4.88-6.87,7.43-10.31,3.22,2.88,9,5.54,9.31,8.76a154.38,154.38,0,0,1,.67,34.37c-.44,4.11-7,7.43-10.76,11.2-2.21-4.1-5.32-8.09-6.54-12.42-1.11-4-.33-8.53-.44-12.86l.22-.11Z"/><path class="cls-5" d="M770.12,671c-2.66,3.88-5.43,12.64-10.09,13.64-9.76,2.22-10.31-7.21-11.75-14.3s-4.77-14-4.55-21c.22-4.55,5.32-9,8.32-13.42,3.66,2.66,9,4.66,10.53,8.21,3.33,7.43,4.55,15.63,7.54,26.83"/><path class="cls-5" d="M477.26,1280.81c-8-5.65-13.86-9.76-19.73-13.86,5.76-3,11.2-7.87,17.29-8.65,6.77-.89,17.75-2.66,17.08,9-.33,4.22-8.2,7.88-14.64,13.53"/><path class="cls-5" d="M71.63,1136c5.55-6.54,9.54-11.31,13.64-16.08,2.77,4.1,8.32,8.65,7.65,12.2-1,6-5.76,11.31-9,16.86-3.44-3.44-6.76-7-12.31-13"/><path class="cls-5" d="M97.58,1165.82c-6.88,5.77-11,9.31-15.19,12.75-2.44-3.44-7.54-7.54-6.88-10.09,1.33-4.88,6-9,9.32-13.42,3.32,2.89,6.65,5.66,12.75,10.76"/><path class="cls-5" d="M458.75,535.41c-6.21,4.77-9.65,8.65-14,10-1.44.45-7.65-6.21-7-8.2,1.11-3.66,5.32-7.54,9.09-8.76,2.22-.56,6.1,3.44,11.87,7"/><path class="cls-5" d="M424,558.59c-3.77-5.43-8.21-9.31-7.54-11.42,1.22-3.66,5.65-6.32,8.76-9.43,2.66,2.66,7.65,5.66,7.32,7.88-.45,3.77-4.44,7.09-8.54,13"/><path class="cls-5" d="M734.19,929.85c6.44-1.55,14.31-5.33,15,5.65.12,2.55-6.09,7.88-9.2,7.77-10.31-.45-6.76-7.77-5.32-13.64Z"/><path class="cls-5" d="M734.64,929.52c-5.77-.78-13.09-1-9-9.76,1.55-3.33,5.76-5.77,9.31-7.65.89-.56,5.55,2.77,5.32,3.32a123.94,123.94,0,0,1-6.1,14.42l.45-.33"/><path class="cls-6" d="M416.94,698.42l130.52,127.3s51.23,67.31,73.18,21.63a34,34,0,0,0,2-5.33L656.9,727.36c.56-1.77.89-3.66,1.34-5.43,17.63-67.64-10.87-98.69-46-98.36L457,658.5c-35.7.22-65.2,15.42-40,39.92"/><path class="cls-5" d="M252.49,682.34,160.23,787.58s-35.15,54.55-54.67,20.84a26.42,26.42,0,0,1-1.88-4L70.52,718.49c-.55-1.33-.88-2.77-1.33-4.1-17.63-50.9,2.33-76.29,29.28-78.18l121,17.75c27.28-1.78,50.78,8.09,33,28.38"/><path class="cls-5" d="M461,715.28,548.9,801s34.49,45.36,49.23,14.53a17.4,17.4,0,0,0,1.33-3.66l23.07-77.29c.33-1.22.55-2.44.89-3.66,11.86-45.57-7.32-66.53-31-66.31L487.8,688.11c-23.95.44-43.8,10.64-26.84,27.17"/><path class="cls-5" d="M223.33,688.55l-62.21,70.86s-23.73,36.82-36.82,14.08c-.44-.88-.88-1.77-1.22-2.66L100.79,713c-.33-.89-.55-1.89-.88-2.77-11.87-34.27,1.55-51.46,19.74-52.68l81.5,12c18.3-1.33,34.15,5.32,22.18,19.07"/><path class="cls-6" d="M613.44,868.08c.11-1,.88,24.4,1,23.4,15.75-140.27-85.27-259.37-225.77-266S121,701,105.23,841.25c-.55,5.43-1,10.75-1.22,16.08-24.84,30.38-40.92,65.53-45.24,103.46-14.09,125,106,258.81,267.35,266.35s303.62-87.6,317.7-212.57c4.88-43.25-7-110.78-30.38-146.49"/><path class="cls-5" d="M523.39,782.81c6-53.78-24.5-99-68.3-101-40.26-1.89-77.74,33.49-88,81.06-2.22-.22-4.44-.44-6.65-.56a92.79,92.79,0,0,0-15.75.67c.78-48.57-28.39-87.71-69-89.6-43.8-2-84.17,39.92-90.16,93.7-5.54,49.57,20,91.82,58.22,99.8a155.2,155.2,0,0,0-3.66,20.41c-4.88,43.13,15.19,69.86,47.57,79.39,44.91,13.31,100.8,15.53,142.94-21.95,12.53-11.09,19-30.05,20.85-47.46a154.54,154.54,0,0,0,.88-22.51c35.93-9,66-46.25,71.08-91.93"/><path class="cls-5" d="M348.19,654.07c-.89,7.54-13.53,13.19-28.17,12.53s-25.94-7.43-25.17-15,13.53-13.2,28.17-12.53,26,7.31,25.17,15"/><path class="cls-5" d="M448.77,658.72c-.89,7.54-13.53,13.2-28.17,12.53s-26-7.43-25.17-15,13.53-13.19,28.16-12.53,26.06,7.43,25.18,15"/><path class="cls-5" d="M348.74,836.59c3.88,12.86,13.75,22.62,25.29,23.29s24.17-8.76,28.27-22.51"/><path class="cls-5" d="M216.34,800.11c-3.55,5.43-6.87,11.09-10.09,16.85-20.62,38.26-58.33,26.06-69.08,1.67-6.88-15.64,1.33-40.92,9.09-55.67,16.3-31.27,44-48.9,71.86-58.44a230.3,230.3,0,0,1,42.58-10c10.09-1.44,24.73-3.88,33.82,1.33,5.32,3.11,7.54,9,6.32,16.52-3.22,19.74-34.6,33.38-46.8,44a214.47,214.47,0,0,0-37.7,43.69"/><path class="cls-5" d="M494.56,815.19c8.1,15.19,12.64,34.71,27.84,41C538,862.76,559,855.88,570.74,839c10.32-14.75,7.77-40.59,3.44-56A95.88,95.88,0,0,0,533,727.81c-19-12.2-38.59-18.3-60.43-24.73-14.64-4.44-33.71-11-44.91,5.65-5.44,8-5.55,18.41-3.66,27.28,2.44,11.31,8.31,18.19,16.41,24.07,4.32,3.1,8.87,5.87,13.31,9,15.52,11,28.83,25.84,39.25,43.47a15,15,0,0,1,1.55,2.66"/><path class="cls-5" d="M257,873.29A375.84,375.84,0,0,0,255,928c-3.88,1.55-7.87-2.1-8.65-6.32s.56-8.87,1.89-13.19"/><path class="cls-5" d="M255.93,874.07a109.16,109.16,0,0,0-15.64,57.55"/><path class="cls-5" d="M508.53,943.15c-9.53-1.33-16.41-4.76-19.84-17.52-5.44-19.85-13.2-38.81-25.51-55.55-23.73-32.49-60.88-51.34-101.46-54.78-81.62-6.77-141.39,27-171.44,122.09a126.08,126.08,0,0,0-20.4-8.32c-21.51-7-52.67-3.77-49.68,35,1.44,18.85,11.64,28.94,34.27,36.93-2.11,5.65-4,11.31-5.88,17.41-16.41,55.33,21,106.23,68,134.06,57,33.71,124.09,41.92,185.08,14.53,34-15.3,64.42-36.26,74.52-72.08,6-21.4,12-44.69,3.21-65.2,36.71,8.87,78.84-10.31,80.4-49.35.77-20.4-21.85-35.26-41.59-36.37-3.44-.33-6.65-.44-9.65-.89"/><path class="cls-5" d="M327.67,1056.82c-1.22,10.86-16.74,19-34.59,18.18s-31.38-10.31-30.16-21.18,16.74-19,34.59-18.18,31.38,10.31,30.16,21.18"/><path class="cls-5" d="M397.2,1026.88c-2.88,25.83-16,46.35-29.27,45.68s-21.63-22.06-18.74-47.9,16-46.35,29.27-45.69,21.74,22,18.74,47.91"/><path class="cls-5" d="M258.81,1016.23c-2.88,25.84-16,46.35-29.27,45.69s-21.63-22.07-18.74-47.91,16-46.35,29.27-45.68,21.63,22.06,18.74,47.9"/><path class="cls-5" d="M487.91,857.44c-15.08-26.62-64.21-68.75-96.7-73.3-10-1.44-20.4-1.55-30,1.88-5.54,2-6.43-.77-11.86,4.55A46.44,46.44,0,0,0,334,777.15c-8.76-4.32-19.19-5.1-29.39-4.65-33.27,1.44-91.26,38.47-112.11,63.31-21.4,25.51-36.81,56.45-36.26,88.16.11,3.33.33,6.88,2,9.76,2.1,3.55,6.09,5.54,10,7.32,36.15,15.86,97.13,34,137.06,24.73,6.09-1.45,9.2-9.32,6-14.64-4.77-7.87-9.87-15.64-9.2-24.84.44-6.43,3.66-14.64,8.87-18,9-5.66,18-5.33,24.62,2.77a8.12,8.12,0,0,0,5.1,3c2-.11-3.22-.11-1.55-1.55,8.42-7.43,17.3-6.88,24.95-.44,4.43,3.77,5.65,12.19,4.76,18.63-1.33,9.09-8.2,16.3-14.63,23.62-4.44,5-3.11,13.08,2.66,15.08,37.48,13.08,92.26,6.65,131.51-5.66,4.22-1.33,8.65-3,11.54-6.21,2.32-2.66,3.32-6.1,4.21-9.42,7.54-31.39-.78-63.43-16.19-90.71"/><path class="cls-5" d="M260.7,1111.93c6.43,5.21,13.42,10.09,21.29,13.3a51.83,51.83,0,0,0,25.72,4.11"/><path class="cls-5" d="M263,1094.74c-1,18.19-9.65,36.59-21,44.58"/><path class="cls-5" d="M392.77,762c-1.11,10.31-15.2,18-31.39,17.3s-28.38-9.76-27.27-20,15.19-18,31.38-17.19S394,751.76,392.77,762"/><path class="cls-5" d="M315.59,717.94c-1.89,17-14.64,30.16-28.39,29.5s-23.4-14.86-21.51-31.83,14.63-30.16,28.39-29.5,23.39,14.86,21.51,31.83"/><path class="cls-5" d="M455,724.48c-1.89,17-14.64,30.16-28.39,29.5s-23.4-14.86-21.51-31.83,14.63-30.16,28.38-29.49,23.4,14.85,21.52,31.82"/><path class="cls-2" d="M399.09,681.34,529.6,808.65s51.23,67.31,73.19,21.62a35.31,35.31,0,0,0,2-5.32l34.26-114.66c.56-1.78.89-3.66,1.33-5.44,17.63-67.64-10.87-98.69-46-98.36L439.12,641.43c-35.71.22-65.2,15.41-40,39.91"/><path class="cls-2" d="M234.64,665.27,142.38,770.5s-35.15,54.56-54.67,20.85a26.12,26.12,0,0,1-1.89-4L52.67,701.42c-.56-1.33-.89-2.78-1.33-4.11-17.63-50.9,2.44-76.29,29.27-78.17l121,17.74c27.28-1.78,50.79,8.09,33,28.39"/><path class="cls-1" d="M443.11,698.2l87.94,85.72s34.48,45.35,49.34,14.52a17,17,0,0,0,1.33-3.66l23.07-77.29c.33-1.21.55-2.43.88-3.65,11.87-45.58-7.31-66.54-30.93-66.32L470.17,671c-24.18.45-44,10.65-27.06,27.17"/><path class="cls-1" d="M205.47,671.48l-62.2,70.85s-23.73,36.82-36.82,14.09c-.44-.89-.89-1.78-1.22-2.66L82.94,695.87c-.33-.89-.55-1.88-.89-2.77-11.86-34.27,1.56-51.45,19.74-52.67l81.51,12c18.29-1.33,34.15,5.33,22.17,19.08"/><path class="cls-1" d="M595.58,851c.11-1,.89,24.39,1,23.39,15.75-140.27-85.27-259.37-225.77-266S103.12,683.9,87.38,824.17c-.56,5.43-1,10.76-1.22,16.08-24.84,30.38-40.92,65.54-45.25,103.46-14.08,125,106,258.81,267.36,266.36S611.88,1122.46,626,997.49c4.88-43.25-7-110.78-30.39-146.48"/><path class="cls-7" d="M505.54,765.73c6-53.78-24.51-99-68.31-101-40.25-1.88-77.73,33.49-88,81.06-2.22-.22-4.44-.44-6.66-.55a93.77,93.77,0,0,0-15.74.66c.77-48.57-28.39-87.71-69-89.6-43.8-2-84.16,39.92-90.15,93.71-5.54,49.56,20,91.81,58.22,99.8a151.55,151.55,0,0,0-3.66,20.4c-4.88,43.14,15.19,69.86,47.57,79.4,44.91,13.3,100.8,15.52,142.94-22,12.53-11.09,19-30,20.84-47.46a154.51,154.51,0,0,0,.89-22.51c35.93-9.09,66-46.24,71.08-91.93"/><path class="cls-8" d="M330.23,636.88c-.89,7.54-13.53,13.19-28.17,12.53s-25.95-7.43-25.17-15,13.53-13.2,28.16-12.53c14.86.66,26.06,7.43,25.18,15"/><path class="cls-8" d="M430.91,641.65c-.88,7.54-13.53,13.19-28.16,12.53s-25.95-7.43-25.18-15,13.53-13.2,28.17-12.53,26.06,7.32,25.17,15"/><path class="cls-9" d="M198.49,783c-3.55,5.43-6.88,11.09-10.09,16.86-20.63,38.25-58.33,26.05-69.09,1.66-6.87-15.64,1.33-40.92,9.1-55.67,16.3-31.27,44-48.9,71.85-58.44a230.49,230.49,0,0,1,42.58-10c10.1-1.44,24.73-3.88,33.83,1.33,5.32,3.11,7.54,9,6.32,16.53-3.22,19.74-34.6,33.37-46.8,44A214.74,214.74,0,0,0,198.49,783"/><path class="cls-9" d="M476.71,798.11c8.09,15.19,12.64,34.71,27.83,41,15.64,6.54,36.6-.33,48.35-17.19,10.31-14.75,7.76-40.58,3.44-56a96,96,0,0,0-41.14-55.22c-19-12.2-38.59-18.3-60.44-24.73-14.63-4.43-33.71-11-44.91,5.66-5.43,8-5.54,18.41-3.66,27.28,2.44,11.31,8.32,18.18,16.42,24.06,4.32,3.1,8.87,5.88,13.3,9,15.53,11,28.83,25.84,39.26,43.47a15.37,15.37,0,0,1,1.55,2.66"/><path class="cls-10" d="M227.54,856.11a375.08,375.08,0,0,0-2,54.66c2.77-3.65,5.65-7.42,8.42-11.08-1,.33-1,.33.11.11a4.59,4.59,0,0,1,2.44,0c.45.22,1,.33,1.45.55,1.22,1,1.44,1.22.88.56-1-.89,1.22,1.88.22.11.56,1.44.67,1.66.45.77s-.11-.55.11.78c-.33-.44,0-1.89,0-2.33,0-1.33-.44,1.89.11-.22.44-1.89,1-3.77,1.55-5.66,1.78-5.76-2.1-12.86-8.09-14.19a11.78,11.78,0,0,0-14.2,8.09c-2.44,7.88-3.77,16-.22,23.62,3.66,7.88,12.75,12.76,21.29,10.09,4.77-1.44,8.65-6,8.43-11.08a373.77,373.77,0,0,1,2-54.67c.66-6-5.77-11.76-11.54-11.54-6.65.23-10.64,5-11.42,11.43"/><path class="cls-10" d="M228.1,851.12a120.24,120.24,0,0,0-17.19,63.31c.11,6,5.21,11.87,11.53,11.54s11.64-5.1,11.53-11.54a112.07,112.07,0,0,1,.78-15c-.33,2.78.11-.55.11-.88.22-1.33.44-2.66.78-4a67.44,67.44,0,0,1,1.66-6.87,111.48,111.48,0,0,1,4.55-13.42c-1,2.44.66-1.44.88-1.88.45-.89.89-1.78,1.33-2.78,1.22-2.43,2.55-4.76,3.89-7.09,3.1-5.21,1.33-12.87-4.11-15.75a11.93,11.93,0,0,0-15.74,4.33"/><path class="cls-11" d="M490.68,926.08c-9.53-1.33-16.41-4.77-19.85-17.52-5.43-19.85-13.19-38.81-25.5-55.56-23.73-32.49-60.88-51.34-101.47-54.78-81.61-6.76-141.38,26.95-171.43,122.09A127.37,127.37,0,0,0,152,912c-21.52-7-52.68-3.77-49.68,35C103.79,965.89,114,976,136.61,984c-2.1,5.66-4,11.31-5.87,17.41-16.42,55.34,20.95,106.23,68,134.07,57,33.71,124.09,41.91,185.07,14.52,34.05-15.3,64.43-36.26,74.52-72.07,6-21.41,12-44.69,3.22-65.21,36.7,8.87,78.84-10.31,80.39-49.34.78-20.41-21.84-35.27-41.58-36.38-3.44-.33-6.65-.44-9.65-.88"/><path class="cls-12" d="M309.82,1039.74c-1.22,10.87-16.74,19-34.6,18.18s-31.38-10.31-30.16-21.18,16.75-19,34.6-18.18,31.38,10.2,30.16,21.18"/><path class="cls-13" d="M379.35,1009.69c-2.88,25.84-16,46.35-29.28,45.68s-21.62-22.06-18.74-47.9,16-46.35,29.28-45.69,21.73,22.07,18.74,47.91"/><path class="cls-13" d="M241,999.15c-2.88,25.84-16,46.36-29.28,45.69s-21.62-22.07-18.74-47.9,16-46.36,29.28-45.69,21.62,22.07,18.74,47.9"/><path class="cls-13" d="M374.91,744.88c-1.11,10.32-15.19,18-31.38,17.3s-28.39-9.75-27.28-20,15.19-18,31.38-17.18,28.5,9.53,27.28,19.84"/><path class="cls-13" d="M297.73,700.86c-1.88,17-14.63,30.16-28.38,29.5S246,715.5,247.83,698.53s14.64-30.16,28.39-29.49,23.4,14.86,21.51,31.82"/><path class="cls-13" d="M437.12,707.4c-1.88,17-14.64,30.17-28.39,29.5S385.34,722,387.22,705.08s14.64-30.17,28.39-29.5,23.4,14.86,21.51,31.82"/><path class="cls-12" d="M335.44,1087.2c1.55,15.75-2.44,29-22.74,26.39a10.79,10.79,0,0,0-1.88-.11c-20.29.22-37.48-5.1-28.61-16.52a13.93,13.93,0,0,1,3.22-3c6.65-4.21,20-10,30.16-16.41A13,13,0,0,1,335.44,1087.2Z"/><path class="cls-2" d="M507.87,1170.81l5.54,52a5.51,5.51,0,0,0,8.54,4l42.58-28.94a5.5,5.5,0,0,0-.77-9.54l-48.13-22.95A5.36,5.36,0,0,0,507.87,1170.81Z"/><path class="cls-14" d="M517.74,1177.69a69.61,69.61,0,0,1,17,22.06"/><path class="cls-15" d="M507.76,1175.58l14.64-7.32a5.64,5.64,0,0,0,2.44-7.32h0a5,5,0,0,0-6.77-2.66l-14.64,7.32a5.64,5.64,0,0,0-2.44,7.32h0A5,5,0,0,0,507.76,1175.58Z"/><path class="cls-2" d="M467.73,868.19C454,845.35,407.85,805,376.47,796c-9.54-2.77-19.74-4.65-29.28-3.66-5.32.56-21.73.67-27.72,3.55-5.43-4.1-21.62-7.65-26.84-9.31-9.2-3-19.51-3.33-29.38-2.66C231,786,179.53,816.08,162.67,835.7c-17.3,20.07-27.94,44.14-22.84,68.2,2.22,10.53,16.41,14,25.06,16.74a106.35,106.35,0,0,0,32.6,5.55c10,0,13.86-5.66,20.63-12.31,3.54-3.44,9.2-2.33,12.19,1.55,3.66,4.77,3.44,9.43,10.43,12.31,8.87,3.66,14.19.56,18.52-6.1a75.41,75.41,0,0,1,6.09-8.2c3.44-4.11,10.65-3.11,13.09,1.88,6,12,14.64,23.95,24.62,7.32,2.66-4.44,4.77-8.76,7.65-12.75,2.22,4.54,3.66,9.2,5.65,14.19,7.32,18.41,17.64,8.54,25.29-2,3.21-4.33,10.31-3.89,13.19.88a105.51,105.51,0,0,1,4.77,9.43c3,6.87,7,12.09,15.64,13.19,7.76,1,11-4,12.19-10s10-7.43,13.87-2.1c6.43,9,9.2,15.41,20.51,15.74,15.19.56,40.47,6.77,53.78-2.55,2.33-1.66,3.44-4.1,4.44-6.54C488.69,917.43,481.81,891.59,467.73,868.19Z"/><path class="cls-2" d="M91.26,1104.72,49,1133.11a5.54,5.54,0,0,0,.11,9.2l42.36,27.61a5.54,5.54,0,0,0,8.54-4.65l-.11-56A5.6,5.6,0,0,0,91.26,1104.72Z"/><path class="cls-14" d="M89.93,1116.81a74.67,74.67,0,0,1-12,26.06"/><path class="cls-15" d="M87.71,1106.38,100,1117a5,5,0,0,0,7.21-.89h0a5.53,5.53,0,0,0-.56-7.65l-12.31-10.64a4.94,4.94,0,0,0-7.2.88h0A5.74,5.74,0,0,0,87.71,1106.38Z"/><text class="cls-16" transform="translate(32.64 292.42) rotate(0.1)">❷<tspan class="cls-17" x="257.76" y="0">ぱ</tspan><tspan class="cls-18" x="509.23" y="0">ん</tspan><tspan class="cls-19" x="764.37" y="0">席</tspan></text><text class="cls-20" transform="translate(32.64 292.42) rotate(0.1)">❷<tspan class="cls-17" x="257.76" y="0">ぱ</tspan><tspan class="cls-18" x="509.23" y="0">ん</tspan><tspan class="cls-19" x="764.37" y="0">席</tspan></text><text class="cls-21" transform="translate(32.64 292.42) rotate(0.1)">❷<tspan class="cls-17" x="257.76" y="0">ぱ</tspan><tspan class="cls-18" x="509.23" y="0">ん</tspan><tspan class="cls-19" x="764.37" y="0">席</tspan></text><text class="cls-22" transform="translate(32.64 292.42) rotate(0.1)">❷<tspan class="cls-17" x="257.76" y="0">ぱ</tspan><tspan class="cls-18" x="509.23" y="0">ん</tspan><tspan class="cls-19" x="764.37" y="0">席</tspan></text><text class="cls-23" transform="translate(32.64 292.42) rotate(0.1)">❷<tspan class="cls-17" x="257.76" y="0">ぱ</tspan><tspan class="cls-18" x="509.23" y="0">ん</tspan><tspan class="cls-19" x="764.37" y="0">席</tspan></text><text class="cls-24" transform="translate(32.64 292.42) rotate(0.1)">❷<tspan class="cls-17" x="257.76" y="0">ぱ</tspan><tspan class="cls-18" x="509.23" y="0">ん</tspan><tspan class="cls-19" x="764.37" y="0">席</tspan></text></g></g></svg>