<svg xmlns="http://www.w3.org/2000/svg" viewBox="0 0 1181.02 1370.44"><defs><style>.cls-1,.cls-7{font-size:189.32px;fill:#b76da1;stroke-miterlimit:10;font-family:HiraMaruProN-W4-83pv-RKSJ-H, Hiragino Maru Gothic ProN;}.cls-1{stroke:#e8eae9;stroke-width:57px;}.cls-2{letter-spacing:-0.08em;}.cls-3{letter-spacing:-0.05em;}.cls-4{letter-spacing:-0.04em;}.cls-5{letter-spacing:-0.08em;}.cls-6{letter-spacing:-0.05em;}.cls-7{stroke:#b76da1;stroke-width:3px;}.cls-8{fill:#dedede;}.cls-9{fill:#bb95b1;}.cls-10{fill:#9d6891;}.cls-11{fill:#d7cf7e;}.cls-12{fill:#b8a0c7;}.cls-13{fill:#6a89b2;}.cls-14{fill:#fff;}.cls-15{fill:#d46664;}.cls-16{fill:#88c6bf;}.cls-17{fill:#ad6187;}.cls-18{fill:#eba94e;}.cls-19{fill:#60427e;}.cls-20{fill:#efeeed;}.cls-21{fill:#c691ac;}.cls-22{fill:none;stroke:#d7cf7e;stroke-miterlimit:10;stroke-width:22px;}.cls-23{fill:#d4a951;}.cls-24{fill:#a46c98;}.cls-25{fill:#a985a0;}</style></defs><title>资源 28</title><g id="图层_2" data-name="图层 2"><g id="图层_1-2" data-name="图层 1"><text class="cls-1" transform="translate(53.02 219.63)"><tspan class="cls-2">❸</tspan><tspan class="cls-3" x="173.8" y="0">ド</tspan><tspan class="cls-4" x="354.22" y="0">ー</tspan><tspan class="cls-5" x="536.35" y="0">ナ</tspan><tspan class="cls-6" x="709.96" y="0">ツ</tspan><tspan x="890.19" y="0">席</tspan></text><text class="cls-7" transform="translate(53.02 219.63)"><tspan class="cls-2">❸</tspan><tspan class="cls-3" x="173.8" y="0">ド</tspan><tspan class="cls-4" x="354.22" y="0">ー</tspan><tspan class="cls-5" x="536.35" y="0">ナ</tspan><tspan class="cls-6" x="709.96" y="0">ツ</tspan><tspan x="890.19" y="0">席</tspan></text></g><g id="图层_3" data-name="图层 3"><path class="cls-8" d="M627.16,1369.41c-50,4.29-96.36-4.9-139.23-27.51-20.48-10.8-38.55-26.12-58-39-4-2.66-9.34-4.89-14-4.8-22.05.46-36-16.24-31.14-37.45a20.3,20.3,0,0,0-1.78-12.53c-12.59-25.33-25.44-50.54-38.75-75.5-1.9-3.55-6.46-7.22-10.3-7.89-12.34-2.16-21.33-8-25.2-20-4-12.25-1-23.4,9.16-31.52,4.74-3.78,5.18-7.26,3.94-12.73-24.95-110.42-42.4-228-32.45-341.83a802,802,0,0,1,24.27-137.8c4.8-17.88,38.93-84.29,25.35-99.12-9.56-10.43-12.21-23.61-6.29-35.13,5.8-11.27,17.8-17.41,31.24-14.84,5.42,1,8.25.19,11.12-4.66,18-30.4,40-57.51,67-80.47,2.65-2.25,4.05-7.86,3.56-11.58-1.75-13.55,2.38-24.74,12.92-31.44,10.77-6.85,22.74-5.58,34.75,2.44,3,2,8.66,2.87,11.95,1.5,55.19-22.88,112.32-28.1,171-19.38,7.52,1.11,12.72.93,17.58-6.63,6.54-10.17,19.92-13.15,31.38-9.35a28,28,0,0,1,19.43,26.5c.11,5.63,1.35,8.88,6.82,11.38,62.72,28.7,106.8,76.84,136.38,137.62,22.31,45.86,31.53,93.1,46.33,140.59,46.86,150.37,36.33,295.76,2.14,447.15-12,53.14-27.83,104.76-55.07,152.29-46.32,80.82-114.7,129.64-207.85,141.34C657.77,1371.11,641.63,1369.41,627.16,1369.41Z"/><path class="cls-9" d="M356,536c4.29,1.57,4.95,2,5.59,2,3.53-.14,7.09-.21,10.59-.65,43.59-5.47,86.51-2,127.84,12.69,20.55,7.3,39.36,19.41,59.79,27.16,26.5,10.06,41.48,30.31,51.88,54.55,7.65,17.82,14.8,36.29,18.78,55.18,24.21,115.19,23.11,230.78,2.7,346.36-4.1,23.27-6.57,57.16-27.77,71.48-18.3,12.37-40.27,18.43-62.24,20.68-35.15,3.6-70.93,3.14-102.58-13.32-27.89-14.51-51.93-35.14-77.18-53.6-8-5.84-32.32-26.07-38.42-14.44-4.57,8.71,9.83,46.43,12.34,56.45,11.86,47.32,28.77,92.64,55.1,134.08,2.95,4.64,5.41,7.38,11.75,5.37,12.32-3.9,23.26-.35,31.64,9.34s10,21.21,4.45,32.74c-2.79,5.76-1.88,9.41,2.92,12.51,20.16,13,39.28,28.35,60.84,38.39,54.25,25.23,112,28.67,170.63,21,51.53-6.76,97.61-26.11,136.18-61.59,14.35-13.19,29.19-26.47,29-48.38-.11-17.34.32-34.76-1.22-52-3.38-38.1-.66-74.83,17-109.74,7.64-15.1,13.59-31.17,19.15-47.2,11.11-32,10.88-62.74-9.91-92-15.07-21.23-18.27-46.21-12.52-71.31,5.13-22.37,13.13-44.07,19-66.29,11.11-42.19,14.28-85-8.38-123.95-17.29-29.74-22.73-58.83-11.74-91.16a38.8,38.8,0,0,0,1-4.12c8.53-39.37,1.38-74.77-24.14-106.88-16.81-21.15-31.23-44.64-33.42-72.34-1-12.62-6.78-18.8-16-24.84-45.62-29.87-96.12-42.43-150.09-42.74-105.74-.61-186.13,44-240.08,135.27A18.18,18.18,0,0,0,387,487.9c6.09,18.69-1.4,34.82-20.07,41.73C363.76,530.78,361,533,356,536Z"/><path d="M857.77,1239.51c1.67-3.2,2.1-4.13,2.62-5,2.57-4.24,5.26-8.41,7.74-12.7,19.13-33,32.68-68.31,42.93-104.94,18.42-65.86,26.64-133.23,29.77-201.37,4.49-97.66,1.61-194.8-19.57-290.71C908.72,568,889.88,513.69,858.35,464.4c-13-20.27-27.6-39.2-46.6-54.75.61,5.35,1.32,10.73,3.77,15.13,9.46,17,18.33,34.42,29.55,50.17,18.83,26.45,29.2,55.1,26.63,87.51a245.09,245.09,0,0,1-8,46c-5.53,20-2.14,37.37,8.47,54.71,19.54,32,27.43,67.29,21.81,104-4.25,27.8-12,55.23-20.16,82.22-10.05,33.23-11,64.28,9.9,94.31,14.64,21,18.85,45.43,12.37,70.18-6,22.84-13.11,45.63-22.42,67.29-11.45,26.65-21.87,53.1-20.36,82.68C854.54,1187.87,856.13,1211.87,857.77,1239.51Z"/><path d="M346.51,891.91c42.59-1.48,61.68-16.87,66.2-59.26,2-19-4.18-36.43-15.54-51.75-22.52-30.36-75.44-33.25-99.44-4.29-17.29,20.87-25.48,45.21-14.2,72.14C295.67,877.74,318.79,890.79,346.51,891.91Z"/><path d="M427.62,1269.33c0-8.38-7.3-15.62-15.52-15.34-7.87.28-14.29,7.22-14.24,15.42,0,8.46,6.15,14.35,14.84,14.32C421.1,1283.7,427.58,1277.44,427.62,1269.33Z"/><path d="M358.4,515.14a14.82,14.82,0,0,0,14.87-14.67A14.52,14.52,0,0,0,359,485.3a15,15,0,0,0-15.59,15.1A15.22,15.22,0,0,0,358.4,515.14Z"/><path d="M950.34,703.5c12.12-6.81,15.16-19.4,9.77-35.65-2.53-7.64-6.45-12.92-16.62-10.64C945.82,672.92,948,688,950.34,703.5Z"/><path d="M714.07,344.09c.28,1.46.57,2.92.85,4.38l24.56,7.17,2.53-3.18c-4-3.87-7.53-9.55-12.33-11.06C725.2,340,719.33,343,714.07,344.09Z"/><path d="M458,368.76l3.63,2.57,21.48-13.27c-.37-1.4-.74-2.79-1.12-4.18-5.38.63-11.62-.18-15.88,2.35C462.25,358.5,460.6,364.44,458,368.76Z"/><path d="M335.55,1150.31l-8.22-25.74C317.74,1136.44,320.43,1145.14,335.55,1150.31Z"/><path class="cls-10" d="M857.77,1239.51c-1.64-27.64-3.23-51.64-4.45-75.66-1.51-29.58,8.91-56,20.36-82.68,9.31-21.66,16.44-44.45,22.42-67.29,6.48-24.75,2.27-49.17-12.37-70.18-20.94-30-20-61.08-9.9-94.31C882,822.4,889.74,795,894,767.17c5.62-36.74-2.27-72.07-21.81-104-10.61-17.34-14-34.75-8.47-54.71a245.09,245.09,0,0,0,8-46c2.57-32.41-7.8-61.06-26.63-87.51-11.22-15.75-20.09-33.22-29.55-50.17-2.45-4.4-3.16-9.78-3.77-15.13,19,15.55,33.63,34.48,46.6,54.75,31.53,49.29,50.37,103.61,62.91,160.38,21.18,95.91,24.06,193.05,19.57,290.71-3.13,68.14-11.35,135.51-29.77,201.37-10.25,36.63-23.8,71.94-42.93,104.94-2.48,4.29-5.17,8.46-7.74,12.7C859.87,1235.38,859.44,1236.31,857.77,1239.51Z"/><path class="cls-11" d="M427.62,1269.33c0,8.11-6.52,14.37-14.92,14.4-8.69,0-14.8-5.86-14.84-14.32-.05-8.2,6.37-15.14,14.24-15.42C420.32,1253.71,427.65,1261,427.62,1269.33Z"/><path class="cls-12" d="M358.4,515.14a15.22,15.22,0,0,1-15-14.74A15,15,0,0,1,359,485.3a14.52,14.52,0,0,1,14.26,15.17A14.82,14.82,0,0,1,358.4,515.14Z"/><path class="cls-11" d="M950.34,703.5c-2.3-15.53-4.52-30.58-6.85-46.29,10.17-2.28,14.09,3,16.62,10.64C965.5,684.1,962.46,696.69,950.34,703.5Z"/><path class="cls-13" d="M714.07,344.09c5.26-1.07,11.13-4.1,15.61-2.69,4.8,1.51,8.28,7.19,12.33,11.06l-2.53,3.18-24.56-7.17C714.64,347,714.35,345.55,714.07,344.09Z"/><path class="cls-13" d="M458,368.76c2.62-4.32,4.27-10.26,8.11-12.53,4.26-2.53,10.5-1.72,15.88-2.35.38,1.39.75,2.78,1.12,4.18l-21.48,13.27Z"/><path class="cls-14" d="M335.55,1150.31c-15.12-5.17-17.81-13.87-8.22-25.74Z"/><path class="cls-10" d="M773.77,728A31,31,0,0,1,743,696.8c.24-16.49,14-30.11,30.68-30.26a30.74,30.74,0,0,1,.11,61.47Zm.12-45.48a14.86,14.86,0,0,0-15.27,14.25A15.19,15.19,0,0,0,774.11,712c8.07-.19,14.8-7,14.67-14.93A14.73,14.73,0,0,0,773.89,682.53Z"/><path class="cls-11" d="M794.82,1138.93c-16.89-.15-30.6-13.91-30.38-30.49A31,31,0,0,1,796,1077.73c16.58.3,30.13,14.52,29.73,31.2A30.46,30.46,0,0,1,794.82,1138.93Zm.64-45.38a14.88,14.88,0,0,0-15.27,14.26,15.05,15.05,0,0,0,14.08,15.49,14.89,14.89,0,1,0,1.19-29.75Z"/><path class="cls-15" d="M635.48,421.3c-16.43-.11-30.5-14.12-30.65-30.55-.17-16.8,14.25-30.81,31.52-30.61,16.55.18,30,14.1,29.92,30.95C666.2,407.61,652.14,421.4,635.48,421.3Zm15.09-30.9c-.11-7.92-7-14.88-14.83-14.92a15,15,0,0,0-14.82,15.78c.31,8.45,6.48,14.14,15.18,14A14.52,14.52,0,0,0,650.57,390.4Z"/><path class="cls-10" d="M855.3,803.18c.1,16.4-13.67,30.41-30.19,30.7S793.74,819.67,793.88,803s14-30.6,30.3-30.65A30.91,30.91,0,0,1,855.3,803.18Zm-15.66.49a15,15,0,1,0-30-.61,15,15,0,0,0,14.69,15A15.2,15.2,0,0,0,839.64,803.67Z"/><path d="M660.83,870.19c.19-17.37,13.83-30.36,31.46-29.94a30,30,0,0,1,29.5,30.94c-.31,17.11-13.4,30-30.46,30C674,901.23,660.64,887.66,660.83,870.19Zm45.4.3a15,15,0,1,0-30,.92,15,15,0,0,0,30-.92Z"/><path class="cls-13" d="M721.86,1215.81c.14,16.49-13.57,30.4-30.25,30.7-16.32.28-31-13.94-31-30,0-17,13.18-30.93,29.75-31.34A31.14,31.14,0,0,1,721.86,1215.81Zm-30.63-15a15.34,15.34,0,0,0-15,14.8c-.21,8.33,7.07,15.42,15.56,15.16a14.89,14.89,0,0,0,14.37-15.19C706,1207.56,699.12,1200.79,691.23,1200.85Z"/><path d="M754.93,1006.75c-.26,16.8-14,30.46-30.66,30.37-17.18-.09-31.22-14.4-30.74-31.34s14-29.81,31.17-29.62C741.41,976.33,755.18,990.27,754.93,1006.75Zm-16-.54a14.66,14.66,0,0,0-14.84-14.58,15.29,15.29,0,0,0-15,15.77c.39,7.78,7.63,14.27,15.63,14A14.57,14.57,0,0,0,739,1006.21Z"/><path class="cls-10" d="M595.52,1270.31a30.52,30.52,0,0,1,31.38,30.58c0,16.68-13.25,30-30.41,30.56-16.23.52-30.5-13.43-30.79-30.09S579.06,1270.59,595.52,1270.31Zm15.72,30.54a15.35,15.35,0,0,0-14.74-15c-7.76-.17-15,6.78-15.29,14.57a15.22,15.22,0,0,0,15.34,15.46A15,15,0,0,0,611.24,1300.85Z"/><path class="cls-16" d="M461,469.94c17-.08,30.62,13,30.86,29.79a30.73,30.73,0,1,1-61.46.35C430.36,483.56,444.1,470,461,469.94Zm15.22,30.61a15.12,15.12,0,0,0-14.43-15.19c-8.44-.29-15.05,5.68-15.45,14a14.9,14.9,0,0,0,14.77,15.84A15.34,15.34,0,0,0,476.26,500.55Z"/><path class="cls-10" d="M528.69,1246.8a30.52,30.52,0,1,1-30.2-30.39C515.57,1216.54,528.61,1229.67,528.69,1246.8Zm-15.62-.28a14.93,14.93,0,0,0-14.89-14.67c-8.7,0-15.08,6.82-14.74,15.74a14.83,14.83,0,0,0,29.63-1.07Z"/><path d="M334.18,707.55c6.33.35,13.12-.59,18.82,1.48,4.31,1.57,9.32,6.63,10,10.81.46,2.74-5.93,9.24-9.7,9.61a181.63,181.63,0,0,1-36.86-.13c-3.49-.37-9.33-7.05-8.83-9.92.72-4.18,5.58-9.19,9.83-10.81,4.92-1.86,11.08-.43,16.71-.43Z"/><path d="M481.77,1011.37c2.71-1.73,5.23-3.88,8.15-5.12,10.71-4.58,21.47-9.11,32.42-13,2.7-1,6.21.32,9.35.58-1.45,2.52-2.31,6.42-4.45,7.34-11.94,5.15-24.11,9.78-36.38,14.07-2.41.84-5.61-.58-8.44-1C482.2,1013.28,482,1012.33,481.77,1011.37Z"/><path d="M623.64,920.83c-3.65,2.34-6.64,4.9-7.14,4.48-3.5-2.91-6.47-6.45-9.61-9.79,1.6-1.49,4.21-4.52,4.66-4.23C615.38,913.78,618.81,916.87,623.64,920.83Z"/><path d="M564.17,976.68c-3.67,2.33-6.6,4.74-7,4.37a48.12,48.12,0,0,1-7.81-9.1c-.34-.5,2.11-2.86,3.28-4.36Z"/><path d="M552.18,983.07c-3.34,2.24-6.25,4.79-6.71,4.41a34.59,34.59,0,0,1-6.9-8.06c-.24-.38,3.85-4.41,4.31-4.13C545.83,977.14,548.34,979.71,552.18,983.07Z"/><path class="cls-11" d="M773.89,682.53a14.73,14.73,0,0,1,14.89,14.57c.13,7.9-6.6,14.74-14.67,14.93a15.19,15.19,0,0,1-15.49-15.25A14.86,14.86,0,0,1,773.89,682.53Z"/><path class="cls-17" d="M795.46,1093.55a14.89,14.89,0,1,1-15.27,14.26A14.88,14.88,0,0,1,795.46,1093.55Z"/><path class="cls-14" d="M650.57,390.4a14.52,14.52,0,0,1-14.47,14.85c-8.7.15-14.87-5.54-15.18-14a15,15,0,0,1,14.82-15.78C643.53,375.52,650.46,382.48,650.57,390.4Z"/><path class="cls-11" d="M839.64,803.67A15.2,15.2,0,0,1,824.3,818a15,15,0,1,1,1.11-29.9A15.28,15.28,0,0,1,839.64,803.67Z"/><path class="cls-14" d="M706.23,870.49a15,15,0,0,1-30,.92,15,15,0,1,1,30-.92Z"/><path class="cls-18" d="M691.23,1200.85c7.89-.06,14.74,6.71,14.95,14.77a14.89,14.89,0,0,1-14.37,15.19c-8.49.26-15.77-6.83-15.56-15.16A15.34,15.34,0,0,1,691.23,1200.85Z"/><path class="cls-19" d="M563.76,503.63a15.32,15.32,0,0,1-14.84-14.85c-.07-7.83,6.82-15,14.6-15.11,8.37-.16,15.66,7.13,15.39,15.39A15.39,15.39,0,0,1,563.76,503.63Z"/><path class="cls-14" d="M739,1006.21a14.57,14.57,0,0,1-14.19,15.21c-8,.25-15.24-6.24-15.63-14a15.29,15.29,0,0,1,15-15.77A14.66,14.66,0,0,1,739,1006.21Z"/><path class="cls-17" d="M611.24,1300.85a15,15,0,0,1-14.69,15,15.22,15.22,0,0,1-15.34-15.46c.24-7.79,7.53-14.74,15.29-14.57A15.35,15.35,0,0,1,611.24,1300.85Z"/><path class="cls-14" d="M656.81,599c-7.79-.54-14.35-8-13.86-15.79a15,15,0,0,1,16.66-13.88c8.21.8,13.65,7.56,13,16.16A14.69,14.69,0,0,1,656.81,599Z"/><path class="cls-15" d="M476.26,500.55a15.34,15.34,0,0,1-15.11,14.61,14.9,14.9,0,0,1-14.77-15.84c.4-8.28,7-14.25,15.45-14A15.12,15.12,0,0,1,476.26,500.55Z"/><path class="cls-10" d="M774.19,496.31a14.57,14.57,0,0,1,14.48,15,15,15,0,1,1-30-.95C759.05,502.18,765.75,496.14,774.19,496.31Z"/><path class="cls-15" d="M513.07,1246.52a14.83,14.83,0,0,1-29.63,1.07c-.34-8.92,6-15.74,14.74-15.74A14.93,14.93,0,0,1,513.07,1246.52Z"/><path class="cls-10" d="M212.58,926.83q3.58-12.68,7.39-25.28A1362.41,1362.41,0,0,1,271.43,760c11.36-26.53,25.89-49.15,39.74-73.46C323.66,664.61,340.05,643,359.93,632c25.15-14,58.23-13.19,84.33-12.73,18.92.33,37.08,3.61,55.23,6.91,18.31,2.27,36.63,4.56,54.77,9.89,25,7.36,56.8,16.51,76.51,37.31,15.6,16.44,24.64,41.93,29.86,66.56,5.79,27.3,12.75,53.21,15.49,81.89A1358.12,1358.12,0,0,1,682,972.14q-.21,13.15-.67,26.31c-1,27.11-1.58,51.68-10.81,77.26-8.68,24-24.8,43.44-42.68,57.17-69.42,53.29-147.53,64-222.94,52.51S272.52,1142.48,222.58,1071c-12.86-18.42-22.31-41.74-23.25-67.25C198.32,976.58,205.22,953,212.58,926.83Z"/><path class="cls-9" d="M197.79,917.07q3.59-12.69,7.39-25.28a1361.58,1361.58,0,0,1,51.46-141.56c11.36-26.53,25.89-49.15,39.74-73.46,12.49-21.92,28.88-43.52,48.76-54.55,25.15-13.94,58.23-13.18,84.32-12.73,18.93.33,37.09,3.62,55.24,6.92,18.31,2.27,36.63,4.56,54.77,9.89,25,7.36,56.8,16.5,76.51,37.3,15.6,16.45,24.64,41.94,29.86,66.56,5.79,27.31,12.75,53.22,15.49,81.9a1358,1358,0,0,1,5.9,150.32q-.21,13.14-.67,26.31c-.95,27.11-1.58,51.68-10.81,77.25-8.68,24-24.8,43.45-42.68,57.18-69.42,53.29-147.53,64-222.94,52.51s-132.4-42.91-182.34-114.43c-12.86-18.42-22.31-41.75-23.25-67.25C183.53,966.82,190.43,943.2,197.79,917.07Z"/><ellipse class="cls-20" cx="348" cy="842.64" rx="92.58" ry="139.31" transform="translate(-50.71 22.78) rotate(-3.49)"/><ellipse class="cls-19" cx="346.53" cy="883.99" rx="58.05" ry="70.31" transform="translate(-203.09 109.76) rotate(-13.97)"/><ellipse class="cls-20" cx="343.82" cy="870.33" rx="17.37" ry="26.14" transform="translate(-52.41 22.58) rotate(-3.49)"/><path class="cls-10" d="M325.8,866.6c-2.33-.24-4.65-.56-7-.7-14.84-.92-28.32-2.76-39.7-1.79-20.9,1.78-15.68,1-26.33,2.71-8.36,1.31-17.06,2.55-25.27-2.7A19,19,0,0,1,219,850.67c2.94,8,12.28,5.8,16,2.39,5.29-4.89,6.49-14.44,8.93-23.11,19.41-68.87,50.85-131.58,100.57-129.84,50.8,1.77,98.09,70.43,118.75,167.27-.31-1.4-13.09-.71-14.09-.64q-10.64.82-21.28,1.57c-14.2,1-28.41,1.73-42.66,2C365.71,870.69,345.65,868.6,325.8,866.6Z"/><path class="cls-20" d="M405,1112.7l21.34.37c1.08.06,1.86-2,1.73-4.61l.28-17.25c-.13-2.59-1.12-4.76-2.2-4.81l-24.54-1.22c-1.08,0-1.86,2-1.73,4.62l2.93,18.09C402.92,1110.48,403.9,1112.65,405,1112.7Z"/><path class="cls-17" d="M401.11,1098.6l29,1.05c8.85.32,15.63-6.5,15.08-15.16l-6.14-97c-.55-8.66-8.23-16-17.08-16.32l-29-1.06c-8.85-.32-15.64,6.51-15.09,15.17l6.15,97C384.58,1090.94,392.27,1098.28,401.11,1098.6Z"/><ellipse class="cls-21" cx="424.38" cy="998.81" rx="10.65" ry="4.39" transform="translate(-660.78 1010.81) rotate(-67.61)"/><ellipse class="cls-21" cx="394.9" cy="997.74" rx="4.08" ry="11.45" transform="translate(-390.98 267.1) rotate(-25.49)"/><ellipse class="cls-20" cx="501.45" cy="845.07" rx="140.74" ry="113.33" transform="translate(-346.55 1341.56) rotate(-89.66)"/><ellipse class="cls-19" cx="501.72" cy="887.11" rx="71.92" ry="70.18" transform="translate(-122.52 81.49) rotate(-8.28)"/><ellipse class="cls-20" cx="505.51" cy="873.68" rx="26.41" ry="21.27" transform="translate(-371.11 1374.06) rotate(-89.66)"/><path class="cls-10" d="M527.59,872.45c2.84.09,5.68.1,8.51.28,18.1,1.16,34.57,1.21,48.39,3.81,25.38,4.76,19,3.27,32,6.47,10.13,2.51,20.68,5,30.86.84a17.39,17.39,0,0,0,10.82-12.41c-3.86,7.72-15.16,4.13-19.51.16-6.26-5.7-7.37-15.53-10-24.65-21.11-72.42-57.09-140.31-117.68-145.59-61.9-5.4-122,57.38-150.65,152.43.43-1.37,16,1.13,17.17,1.35q12.91,2.34,25.85,4.6c17.24,3,34.52,5.77,51.85,8.07C478.86,871,503.35,871.67,527.59,872.45Z"/><path class="cls-10" d="M324.31,655.69c-14.94,35-61.86,41.47-86.2,12.54-14.86-17.66-29.94-35.68-38.87-56.93-12.49-29.7-10.08-64.73,17-85.33,14.56-11.06,32.54-19.45,50.69-17.16,61.85,7.79,76.89,98.16,57.8,145.78C324.62,655,324.47,655.33,324.31,655.69Z"/><path class="cls-10" d="M614.89,679.08c9.52,36.74,55,49.73,83.4,24.53,17.36-15.38,35-31.09,47-50.85,16.83-27.64,19.71-62.63-4-86.83-12.74-13-29.27-23.81-47.56-24.1-62.37-1-90.85,86.3-79.13,136.1C614.7,678.32,614.79,678.7,614.89,679.08Z"/><path class="cls-22" d="M744.62,606.62c-6,5.75-9.71,14.8-8.16,23.51a26.09,26.09,0,1,0,21.19-29.81"/><path class="cls-9" d="M699.53,640.31c7.08-15.56,12.53-31.55,14.9-48.52l.9-6.65a18.88,18.88,0,0,0-2.16-9.63A12.4,12.4,0,0,0,710,570a18.84,18.84,0,0,0-7-6.44L697,561l-6.64-.9a27.83,27.83,0,0,0-17.68,7.33,105.52,105.52,0,0,0-11.09,16.2,181.75,181.75,0,0,0-7.9,17.9,97.17,97.17,0,0,0-4.39,12.84,57.11,57.11,0,0,0-1.71,12.74,53.8,53.8,0,0,0,1.11,9.63,17.19,17.19,0,0,0,.92,3.32,25.06,25.06,0,0,0,17.46,17.46c8.32,2.29,18.37.06,24.33-6.43A45.41,45.41,0,0,1,697,646L692,649.86a47.77,47.77,0,0,1,10.26-6l-6,2.53a48.89,48.89,0,0,1,12.21-3.32l-6.65.9a45.79,45.79,0,0,1,11.87,0l-6.65-.89c.64.09,1.27.19,1.9.3L691.47,626l0,.29-.89-6.65,0,.27.89-6.64-.1.26,2.52-6-.16.24,3.91-5.06a2.59,2.59,0,0,1-.45.43l5.06-3.91a7.45,7.45,0,0,1-.87.49l6-2.52a60.57,60.57,0,0,1-7.79,2.32,77,77,0,0,1-8.07,1.66l6.65-.89c-4.9.6-9.88.86-14.68,2a20,20,0,0,0-2,.57A58.46,58.46,0,0,0,674,606c-2.27,1.15-4.23,3.07-6.2,4.64-.5.39-1,.8-1.48,1.2l5.06-3.91a15.66,15.66,0,0,1-3.17,1.72l6-2.53c-2.59,1.07-5.3,1.8-7.91,2.79a24.09,24.09,0,0,0-17.91,20.78,19,19,0,0,0,.45,10l2.52,6a25,25,0,0,0,9,9l6,2.52a25.18,25.18,0,0,0,13.29,0c2.36-.89,4.79-1.56,7.13-2.47a68.83,68.83,0,0,0,8.78-3.8c2.79-1.57,5.15-3.88,7.67-5.86l-5.06,3.91a8.69,8.69,0,0,1,1.75-1l-6,2.52a26.47,26.47,0,0,1,5.82-1.49l-6.64.9c4.52-.61,9.07-.89,13.55-1.75,2.33-.44,4.64-1,6.93-1.53a69.1,69.1,0,0,0,6.8-2c5.5-2,8.35-3.39,12.64-7.46a26.41,26.41,0,0,0,6.69-11.53c1.54-5.65.85-8.17,0-13.85a25,25,0,0,0-17.46-17.47c-5.94-1.05-12.06-1.93-18.11-1.44A75.3,75.3,0,0,0,686.19,597a74.22,74.22,0,0,0-16.33,7.49A70.24,70.24,0,0,0,656,615.78l41.79,11a16.64,16.64,0,0,1-1-3.74l.89,6.64a22.82,22.82,0,0,1,.08-5.6l-.89,6.64c1-6.67,3.8-13.2,6.4-19.39l-2.52,6a85.57,85.57,0,0,1,10.58-18.88l-3.9,5.06.54-.7L666.22,578.5a154.38,154.38,0,0,1-10.52,38.3l2.52-6q-.91,2.13-1.87,4.24a18.67,18.67,0,0,0-3,9.3,25.69,25.69,0,0,0,11.93,24.91l6,2.52a25.22,25.22,0,0,0,13.3,0l6-2.52a25.36,25.36,0,0,0,9-9Z"/><path class="cls-11" d="M492.89,708.39a39.91,39.91,0,0,1-34.07,20.3c-18.46.34-32-14.89-41.54-33.36-5.54,7.58-12.09,15.76-20.08,15.86-11,.12-17.39-14.62-21.47-27.33-3.56,11.14-8.64,23.95-17.91,26.09-3.7.86-7.45-.26-10.94-1.78-26.46-11.57-22.73-28.39-31.54,5.51-6.73,25.87-72.17,61.85-82.41,21.75,11.23,10.09,21.1,23.06,25.43,37.8,10.88,36.95-19.16,87.89-51.61,79.23,9.07,3.57,15.7,13.15,20.65,23.31,36.52,74.82-72.79,100.05-94.55,27.62-8-26.65,4.18-57.93,28.24-72.52-15.32-13.5-20.07-37.34-11.1-55.61s30.9-29.43,51.17-26c-16.85-20.44-18-52-2.63-73.66,11.17-15.74,30.33-25.21,49.55-25.92,15.32-.56,18,7.92,22.35-8.76,3.39-13,6.48-25.88,18.55-33s24.08-15.46,36.84-21.63c11.5-5.55,23.93-7.9,35.45-12.85,26.4-11.35,59.12-13.54,85.41-1.2,4.52,2.13,9.45,5.6,9.29,10.57,17-12.75,43-11.83,59,2.1a67,67,0,0,1,53.15,3.59A65.74,65.74,0,0,1,600.89,630c-4.27-16.89,41.15-12.69,46.88-11.36,23.45,5.43,38.94,20.82,53.13,40,6.27,8.49,12.28,17.43,15.22,27.6,2.75,9.54,1.86,19.45-1.63,28.67,28.89,6.66,49.22,10.58,65.65,37.75,10.92,18.07,19.33,38.89,17,60s-18.11,41.86-39.07,43.81c89.95,30.72,65.62,174.5-9,208.47-41.26,18.78-87.14,3.79-124.89-16.06-54.21-28.5-69-119.07-33.75-168A89.46,89.46,0,0,1,613,859.19c5.62-3.8,21.81-5.93,23.68-13.59,1.41-5.76-13.57-22.4-15.9-29.45-5.36-16.18-6.15-44.2,1.61-59.1-2.11,4.06-5.33,5.87-9.61,7.07-13.65,3.83-28.8,5.59-41.49-.64S550.25,740.62,557,728c-7.86,13.88-26,20.81-41,15.59S490.39,724.15,492.89,708.39Z"/><path class="cls-13" d="M506.25,541a201.09,201.09,0,0,0-1.72-28.4c-.56-4.28-1.31-8.65-3.49-12.34a6.25,6.25,0,0,0-2.65-2.71,5.2,5.2,0,0,0-4.91.76c-2.68,1.85-4,5.14-5,8.26-3,9.3-4.83,19.18-3.52,28.84a4.65,4.65,0,0,0,.81,2.38A4.58,4.58,0,0,0,488.3,539a83.79,83.79,0,0,0,17.95,2"/><path class="cls-13" d="M496.43,534c53.28,5,104.19,31.15,139.47,71.72,5.66,6.51,11.13,13.83,12.19,22.47,1.44,11.7-5.89,23.22-15.66,29.71s-21.59,8.83-33.14,10.29C515,678.85,431.42,649.93,352.89,618c-12.18-5-25.69-11.43-29.68-24.14-3.31-10.51,1.41-22.38,9.2-30.18s18.2-12.25,28.5-15.95c48.69-17.47,84.88-22.87,135.52-13.69"/><path class="cls-23" d="M743.11,914.92c1.16,1.35,2.29,2.72,3.39,4.13l-2.35-3a101.2,101.2,0,0,1,13,22.32l-1.51-3.58a104.42,104.42,0,0,1,7.15,26.19l-.54-4a98.4,98.4,0,0,1,.09,25.66l.53-4a96.07,96.07,0,0,1-6.71,24.5l1.51-3.59a95.69,95.69,0,0,1-12.21,21l2.35-3a88.08,88.08,0,0,1-15.38,15.49l3-2.35a77.5,77.5,0,0,1-17.19,10.1l3.58-1.51a70,70,0,0,1-17.74,4.8l4-.53a76.11,76.11,0,0,1-19.66,0l4,.54a75.94,75.94,0,0,1-19.24-5.21l3.58,1.52a70.54,70.54,0,0,1-15.34-8.9l3,2.34a63,63,0,0,1-11.13-11.06l2.34,3a55.61,55.61,0,0,1-7.2-12.22L650,1017a53.63,53.63,0,0,1-3.61-13.16l.53,4a47.66,47.66,0,0,1-.08-12.4l-.54,4a38.93,38.93,0,0,1,2.58-9.67l-1.51,3.58a33.79,33.79,0,0,1,4.13-7.13l-2.34,3a27.43,27.43,0,0,1,4.8-4.89l-3,2.34a25.12,25.12,0,0,1,5.17-3l-3.58,1.51a28.75,28.75,0,0,1,7.12-1.92l-4,.54a31.42,31.42,0,0,1,8.22,0l-4-.54a30.65,30.65,0,0,1,7.28,2l-3.58-1.51a25.53,25.53,0,0,1,5.63,3.27l-3-2.35a21.39,21.39,0,0,1,3.59,3.59l-2.34-3a19.2,19.2,0,0,1,2.31,3.94l-1.51-3.59a18.66,18.66,0,0,1,1.27,4.58l-.53-4,.06.54a11.35,11.35,0,0,0,1.3,5.78,11.23,11.23,0,0,0,3.1,4.83,15.23,15.23,0,0,0,10.6,4.39c3.88-.17,7.91-1.44,10.61-4.39,2.51-2.73,4.85-6.75,4.39-10.61a41.44,41.44,0,0,0-1.24-7.4A39.23,39.23,0,0,0,695,972.8a36.9,36.9,0,0,0-4.13-5.79,22.09,22.09,0,0,0-2.43-2.59,37.44,37.44,0,0,0-8.78-6.08,44,44,0,0,0-10.35-3.67,47.65,47.65,0,0,0-11.36-1,45.11,45.11,0,0,0-11.13,1.82A38.74,38.74,0,0,0,628,968.06a55.43,55.43,0,0,0-4.81,6.78,62.63,62.63,0,0,0-3.44,7.61,45.75,45.75,0,0,0-2.58,11,62.86,62.86,0,0,0,1.73,25.08,65.14,65.14,0,0,0,9.74,20.65,85.83,85.83,0,0,0,8.18,10,89.05,89.05,0,0,0,9.67,8.21c5.91,4.52,12.41,7.68,19.26,10.51a75.1,75.1,0,0,0,18.1,4.91,90,90,0,0,0,22.47.87,84.09,84.09,0,0,0,21.78-4.83,90.11,90.11,0,0,0,20.85-11,101.08,101.08,0,0,0,17.38-15.73A109.18,109.18,0,0,0,793,976.75a116,116,0,0,0-1.6-26.44,102.55,102.55,0,0,0-6.05-21.82,117.15,117.15,0,0,0-12.09-23.31,131.53,131.53,0,0,0-8.89-11.47c-2.41-2.78-7-4.4-10.61-4.4a15.26,15.26,0,0,0-10.6,4.4c-2.63,2.86-4.57,6.61-4.4,10.6l.54,4a15,15,0,0,0,3.86,6.62Z"/><path class="cls-23" d="M190,872.19a44.7,44.7,0,0,1,5.09,9l-1.51-3.58a47.26,47.26,0,0,1,3.06,11.21l-.54-4a45.51,45.51,0,0,1,0,12.06l.54-4a42.42,42.42,0,0,1-2.94,10.55l1.51-3.58a44.12,44.12,0,0,1-5.3,9.11l2.34-3a40.44,40.44,0,0,1-7.09,7.17l3-2.34a36.34,36.34,0,0,1-7.7,4.54l3.59-1.51a31.5,31.5,0,0,1-8,2.22l4-.53a33.5,33.5,0,0,1-8.49,0l4,.54a34.83,34.83,0,0,1-8.51-2.31l3.58,1.51a32.73,32.73,0,0,1-7-4.05l3,2.35a29.14,29.14,0,0,1-5.2-5.21l2.34,3a26.3,26.3,0,0,1-3.24-5.57l1.51,3.58a24.33,24.33,0,0,1-1.56-5.73l.53,4a23.3,23.3,0,0,1,0-5.9l-.54,4a19.27,19.27,0,0,1,1.26-4.57l-1.51,3.59a16.26,16.26,0,0,1,1.86-3.17l-2.34,3a14,14,0,0,1,2.3-2.32l-3,2.35a11.38,11.38,0,0,1,2.13-1.24l-3.58,1.51a12.5,12.5,0,0,1,3.17-.85l-4,.54a14.1,14.1,0,0,1,3.31,0l-4-.53a14.15,14.15,0,0,1,3.43.92l-3.58-1.51a12.46,12.46,0,0,1,2.53,1.45l-3-2.35a10.81,10.81,0,0,1,1.83,1.81l-2.35-3a9.07,9.07,0,0,1,1,1.76l-1.51-3.58a9.28,9.28,0,0,1,.55,2l-.54-4c0,.27.05.54.07.82A15.81,15.81,0,0,0,158.84,909a15.23,15.23,0,0,0,10.61,4.39c3.88-.17,7.9-1.45,10.6-4.39s4.59-6.62,4.4-10.61a24.49,24.49,0,0,0-6.52-15.8,11.34,11.34,0,0,0-1.13-1.06,35.22,35.22,0,0,0-4.22-3.17,28.21,28.21,0,0,0-6.41-2.76,30.21,30.21,0,0,0-7.25-1.09,29.1,29.1,0,0,0-7.14.77,25,25,0,0,0-6.55,2.56,12.53,12.53,0,0,0-1.39.88,33.22,33.22,0,0,0-4.34,3.52A30.4,30.4,0,0,0,132,895.54a35.54,35.54,0,0,0-.68,14.07,38.41,38.41,0,0,0,4.38,13.48A37.31,37.31,0,0,0,139,928a42.45,42.45,0,0,0,3.84,4.52,44.72,44.72,0,0,0,9.52,7.12,48.74,48.74,0,0,0,11.14,4.51,48.06,48.06,0,0,0,24.32,0,32.27,32.27,0,0,0,4.18-1.45,62.16,62.16,0,0,0,7.27-3.36,52.88,52.88,0,0,0,9.91-7.51,58.29,58.29,0,0,0,8.06-9.81,60,60,0,0,0,5.62-11.29,40.59,40.59,0,0,0,2.48-8.75,60.28,60.28,0,0,0,1-13.86,61.94,61.94,0,0,0-7.71-26.76,44.33,44.33,0,0,0-2.81-4.36,16.92,16.92,0,0,0-9-6.89,15.35,15.35,0,0,0-11.56,1.51c-3.2,2.07-6,5.14-6.89,9s-.83,8.35,1.51,11.56Z"/><path class="cls-24" d="M436.72,1144.23a53.6,53.6,0,0,0,12.88,1,62.25,62.25,0,0,0,12.58-2,67.7,67.7,0,0,0,19.91-9.3,113.35,113.35,0,0,0,30.1-29.89,60.2,60.2,0,0,0,5.87-11.81,44.39,44.39,0,0,0,2.56-13c.26-3.68-1.85-8.07-4.39-10.61a15.23,15.23,0,0,0-10.61-4.39c-3.87.17-7.9,1.44-10.6,4.39l-2.35,3a15,15,0,0,0-2.05,7.57c0,.67-.11,1.34-.2,2l.54-4a32.84,32.84,0,0,1-2.28,8.08l1.51-3.58a50.56,50.56,0,0,1-6.31,10.45l2.34-3a106.71,106.71,0,0,1-18.78,18.61l3-2.35a64.41,64.41,0,0,1-13.84,8.26l3.58-1.51a48,48,0,0,1-11.79,3.28l4-.53a39.3,39.3,0,0,1-10,0l4,.53c-.58-.08-1.15-.17-1.72-.27a11.28,11.28,0,0,0-6-.27,11.11,11.11,0,0,0-5.58,1.78,15.28,15.28,0,0,0-6.89,9c-.88,3.84-.69,8.15,1.51,11.56,2,3.12,5.17,6.21,9,6.9Z"/><path class="cls-25" d="M575,1286.32l-.23,1.1c.31.37.59.74.91,1.12C575.44,1287.8,575.24,1287.06,575,1286.32Z"/></g></g></svg>