<svg viewBox="0 0 443 396" fill="none" xmlns="http://www.w3.org/2000/svg">
<path fill-rule="evenodd" clip-rule="evenodd" d="M18.2111 269.138C7.0932 279.944 1 291.77 1 304.135C1 316.499 7.0932 328.325 18.2111 339.131C29.3305 349.939 45.4465 359.695 65.4019 367.899C105.31 384.305 160.478 394.465 221.44 394.465C282.402 394.465 337.57 384.305 377.478 367.899C397.433 359.695 413.55 349.939 424.669 339.131C435.787 328.325 441.88 316.499 441.88 304.135C441.88 291.77 435.787 279.944 424.669 269.138C413.55 258.33 397.433 248.574 377.478 240.371C337.57 223.964 282.402 213.805 221.44 213.805C160.478 213.805 105.31 223.964 65.4019 240.371C45.4465 248.574 29.3305 258.33 18.2111 269.138ZM65.0217 239.446C105.078 222.978 160.38 212.805 221.44 212.805C282.5 212.805 337.802 222.978 377.858 239.446C397.885 247.679 414.125 257.495 425.366 268.421C436.608 279.348 442.88 291.417 442.88 304.135C442.88 316.852 436.608 328.921 425.366 339.848C414.125 350.774 397.885 360.59 377.858 368.824C337.802 385.291 282.5 395.465 221.44 395.465C160.38 395.465 105.078 385.291 65.0217 368.824C44.9948 360.59 28.755 350.774 17.5141 339.848C6.27158 328.921 0 316.852 0 304.135C0 291.417 6.27158 279.348 17.5141 268.421C28.755 257.495 44.9948 247.679 65.0217 239.446Z" fill="#EDAB4E"/>
<path d="M221.44 394.965C343.462 394.965 442.38 354.299 442.38 304.135C442.38 253.971 343.462 213.305 221.44 213.305C99.4182 213.305 0.5 253.971 0.5 304.135C0.5 354.299 99.4182 394.965 221.44 394.965Z" fill="white"/>
<path d="M240.42 59.9046L304.74 109.135C304.74 109.135 331.05 136.235 337.7 114.435C337.95 113.615 338.13 112.765 338.25 111.915L345.94 58.3946C346.06 57.5546 346.09 56.7046 346.18 55.8646C349.6 24.4246 335.35 12.2246 320.18 14.4846L255.26 39.5346C239.83 41.8346 228.02 50.4146 240.42 59.9046Z" fill="#998161"/>
<path d="M227.89 63.1346L154.44 97.2846C154.44 97.2846 122.89 118.045 121.11 95.3246C121.04 94.4646 121.05 93.5946 121.11 92.7346L125.18 38.8246C125.24 37.9746 125.4 37.1346 125.49 36.2946C128.95 4.8646 145.51 -3.96538 159.82 1.52462L217.79 40.0246C232.37 45.6246 242.05 56.5546 227.89 63.1346Z" fill="#998161"/>
<path d="M260.49 64.8046L303.83 97.9746C303.83 97.9746 321.56 116.235 326.04 101.545C326.21 100.985 326.33 100.415 326.41 99.8446L331.59 63.7846C331.67 63.2246 331.69 62.6446 331.76 62.0746C334.07 40.8946 324.46 32.6646 314.24 34.1946L270.49 51.0746C260.1 52.6246 252.14 58.4146 260.49 64.8046Z" fill="white"/>
<path d="M211.34 59.4246L161.85 82.4346C161.85 82.4346 140.59 96.4246 139.39 81.1146C139.35 80.5346 139.35 79.9546 139.39 79.3746L142.13 43.0446C142.17 42.4746 142.28 41.9146 142.34 41.3446C144.67 20.1646 155.83 14.2146 165.47 17.9146L204.53 43.8546C214.36 47.6246 220.88 54.9946 211.34 59.4246Z" fill="white"/>
<path d="M333.86 135.635C333.9 135.305 333.96 134.975 334 134.645C339.34 85.8146 294.99 40.9046 234.93 34.3246C174.87 27.7446 121.85 62.0046 116.5 110.825C116.29 112.705 116.19 114.585 116.13 116.455C105.83 126.385 99.29 138.255 97.84 151.445C93.08 194.945 145.17 236.335 214.18 243.885C283.19 251.445 343 222.305 347.77 178.805C349.43 163.725 344.22 148.895 333.86 135.635Z" fill="#EDAB4E"/>
<path d="M299.62 94.5446C301.67 75.8346 288.16 59.0046 269.45 56.9546C252.22 55.0646 236.6 66.3746 232.63 82.7846C231.69 82.6246 230.75 82.4746 229.8 82.3746C227.54 82.1246 225.31 82.0546 223.1 82.1346C222.97 65.0846 210.1 50.4546 192.73 48.5546C174.02 46.5046 157.19 60.0146 155.14 78.7246C153.25 95.9646 164.57 111.595 180.99 115.555C180.37 117.845 179.91 120.195 179.64 122.625C177.99 137.655 186.83 147.625 200.73 151.965C220.06 158.005 243.96 160.495 261.59 148.575C266.81 145.045 269.37 138.575 270.03 132.525C270.32 129.855 270.36 127.225 270.2 124.625C285.42 122.625 297.88 110.475 299.62 94.5446Z" fill="#F0EFEF"/>
<path d="M223.48 43.9846C223.19 46.6246 217.85 48.2146 211.55 47.5246C205.25 46.8346 200.38 44.1346 200.67 41.4846C200.96 38.8446 206.3 37.2546 212.6 37.9446C218.9 38.6346 223.77 41.3346 223.48 43.9846Z" fill="white"/>
<path d="M266.52 48.6946C266.23 51.3346 260.89 52.9246 254.59 52.2346C248.29 51.5446 243.42 48.8446 243.71 46.2046C244 43.5646 249.34 41.9746 255.64 42.6646C261.93 43.3446 266.81 46.0446 266.52 48.6946Z" fill="white"/>
<path d="M214.75 118.035C216.11 121.425 217.99 124.545 220.88 126.865C224.11 129.465 227.67 131.025 231.83 131.375C235.23 131.665 238.92 130.645 241.83 128.905C245.32 126.815 247.73 123.715 249.13 119.935C250.21 117.025 247.93 113.315 245 112.655C241.65 111.895 238.87 113.675 237.72 116.785C237.33 117.845 238.23 115.825 237.89 116.395C237.76 116.615 237.65 116.865 237.52 117.085C237.37 117.345 237.14 117.605 237 117.865C237.08 117.705 237.88 116.835 237.34 117.395C236.94 117.815 236.53 118.205 236.09 118.595C235.62 119.025 237.36 117.775 236.4 118.335C236.17 118.465 235.95 118.625 235.73 118.755C235.5 118.885 235.26 119.005 235.03 119.135C234.16 119.625 236.09 118.755 235.42 118.985C234.92 119.165 234.42 119.335 233.9 119.465C233.66 119.525 233.36 119.535 233.12 119.625C234.26 119.165 234.21 119.515 233.43 119.555C232.9 119.585 232.37 119.565 231.84 119.535C230.83 119.475 233 119.765 232.28 119.585C232.01 119.515 231.74 119.475 231.48 119.405C231.21 119.335 230.95 119.255 230.69 119.175C229.77 118.865 230.7 119.135 231.03 119.355C230.59 119.055 230.03 118.875 229.57 118.595C229.33 118.455 229.1 118.305 228.87 118.155C228.09 117.615 228.85 118.085 229.14 118.385C228.77 117.985 228.3 117.665 227.91 117.265C227.68 117.025 227.46 116.775 227.24 116.525C226.56 115.775 227.84 117.395 227.44 116.805C227.13 116.345 226.81 115.895 226.53 115.405C226.29 114.985 225.47 113.065 226.19 114.875C225.6 113.395 224.9 112.175 223.47 111.335C222.2 110.595 220.33 110.275 218.91 110.735C216.11 111.655 213.52 114.955 214.75 118.035Z" fill="#AE8047"/>
<path d="M168.63 91.3346C167.16 93.1346 165.78 95.0146 164.5 96.9546C156.07 109.765 139.86 104.325 134.99 95.4446C131.88 89.7546 135.17 81.1046 138.33 76.1546C145 65.6746 156.66 60.3246 168.43 57.8146C174.37 56.5546 180.44 55.9246 186.5 55.6146C190.81 55.3946 197.03 54.9946 200.95 57.1146C203.27 58.3746 204.25 60.4946 203.8 63.1046C202.61 69.9446 189.35 73.7846 184.26 77.1646C178.38 81.0646 173.09 85.8646 168.63 91.3346Z" fill="#998161"/>
<path d="M287.64 105.055C291.26 110.625 293.37 117.615 299.94 120.305C306.7 123.065 315.56 121.305 320.42 115.745C324.69 110.865 323.34 101.705 321.34 96.1846C318.1 87.2546 311.28 80.2946 303.22 75.5246C295 70.6646 286.54 67.9346 277.16 64.9846C270.87 63.0046 262.66 60.1146 258.03 65.6046C255.79 68.2546 255.84 71.9146 256.75 75.0846C257.91 79.1346 260.5 81.7446 263.99 84.0146C265.88 85.2546 267.85 86.3646 269.75 87.5946C276.47 91.9146 282.33 97.5446 286.96 104.055C287.2 104.385 287.42 104.715 287.64 105.055Z" fill="#998161"/>
<path d="M178.57 126.585C177.89 132.965 177.78 139.385 178.25 145.775C178.97 144.825 179.7 143.875 180.42 142.925C180.77 142.895 180.77 142.885 180.42 142.895C180.51 142.905 180.6 142.915 180.69 142.915C180.37 142.815 180.36 142.815 180.67 142.915C180.59 142.865 180.52 142.825 180.44 142.775C180.68 142.975 180.68 142.955 180.42 142.735C180.36 142.675 180.3 142.605 180.24 142.535C180.43 142.785 180.44 142.765 180.26 142.485C180.36 142.765 180.38 142.805 180.31 142.605C180.26 142.455 180.22 142.305 180.2 142.155C180.24 142.335 180.26 142.325 180.24 142.115C180.24 141.945 180.24 141.785 180.26 141.615C180.24 141.795 180.25 141.785 180.29 141.575C180.44 140.855 180.69 140.155 180.94 139.465C181.46 138.005 180.36 136.165 178.87 135.825C177.21 135.445 175.78 136.325 175.23 137.895C174.35 140.375 173.79 143.185 175.21 145.595C176.62 147.995 179.28 149.175 181.98 148.635C183.17 148.395 184.24 146.995 184.15 145.775C183.68 139.375 183.78 132.955 184.47 126.585C184.64 125.045 182.99 123.555 181.51 123.625C179.78 123.705 178.75 124.925 178.57 126.585Z" fill="#AE8047"/>
<path d="M178.54 125.335C174.04 131.425 171.69 139.065 172.03 146.635C172.1 148.175 173.34 149.665 174.99 149.595C176.53 149.525 178.02 148.295 177.95 146.635C177.87 144.965 177.92 143.295 178.12 141.645C178.08 141.875 178.09 141.815 178.15 141.445C178.18 141.225 178.22 141.005 178.26 140.785C178.34 140.345 178.43 139.905 178.52 139.475C178.7 138.655 178.91 137.855 179.16 137.055C180.12 133.945 181.61 131.115 183.66 128.335C184.61 127.045 183.87 125.035 182.6 124.285C181.09 123.395 179.49 124.045 178.54 125.335Z" fill="#AE8047"/>
<path d="M298.23 155.765C294.92 156.115 291.74 156.605 288.9 157.315C283.13 132.605 263.32 113.505 231.86 109.135C196.82 104.265 171.56 114.315 159.64 146.935C157 145.615 153.98 144.445 150.81 143.375C141.5 140.245 128.2 140.465 129.86 154.215C130.67 160.915 135.12 164.775 144.9 168.285C144.07 170.195 143.28 172.155 142.58 174.235C133.16 201.815 170.45 230.875 214.12 236.945C257.79 243.025 302.98 225.325 300.73 196.235C300.34 191.155 299.3 186.225 297.68 181.485C308.62 180.225 314.02 177.445 316.33 170.885C320.93 157.815 307.99 154.725 298.23 155.765Z" fill="#F4CDCB"/>
<path d="M235.49 186.215C235.07 190.015 228.52 192.405 220.86 191.565C213.19 190.725 207.31 186.965 207.73 183.175C208.15 179.375 214.7 176.985 222.36 177.825C230.03 178.665 235.9 182.425 235.49 186.215Z" fill="#CE9AC0"/>
<path d="M263.29 182.305C262.3 191.325 256.9 198.135 251.22 197.515C245.54 196.895 241.74 189.075 242.72 180.055C243.71 171.035 249.11 164.225 254.79 164.845C260.47 165.465 264.27 173.285 263.29 182.305Z" fill="#998161"/>
<path d="M201.3 175.525C200.31 184.545 194.91 191.355 189.23 190.735C183.55 190.115 179.75 182.295 180.73 173.275C181.72 164.255 187.12 157.445 192.8 158.065C198.49 158.685 202.29 166.495 201.3 175.525Z" fill="#998161"/>
<path d="M299.03 121.655C292.03 111.255 269.75 93.9846 255.19 91.2646C250.75 90.4346 246.08 90.0446 241.8 91.0246C239.33 91.5946 231.48 92.5346 229.1 94.3446C227.16 92.0646 224.44 89.9546 222.15 88.8646C218.19 86.9846 213.54 86.3546 209.03 86.2046C194.22 85.7146 168.74 97.7446 159.66 106.385C150.35 115.245 143.79 126.315 144.38 138.195C144.44 139.455 144.59 140.765 145.37 141.885C146.35 143.275 148.16 144.165 149.91 144.925C166.16 151.985 193.54 160.675 211.26 158.415C213.95 158.075 215.29 155.235 213.78 153.115C211.57 150.015 209.21 146.965 209.43 143.565C209.58 141.185 210.9 138.185 213.2 137.135C217.17 135.305 221.16 135.705 224.2 138.945C224.82 139.605 225.63 140.045 226.48 140.225C227.35 140.235 228.24 139.985 228.99 139.475C232.66 136.965 236.64 137.445 240.12 140.085C242.13 141.615 242.78 144.825 242.41 147.175C241.88 150.545 238.93 153.005 236.1 155.555C234.17 157.305 234.86 160.365 237.41 161.275C254.22 167.325 282.83 164.755 300.22 161.385C302.1 161.025 304.06 160.555 305.31 159.405C306.32 158.485 306.74 157.235 307.08 156.025C310.21 144.545 306.2 132.315 299.03 121.655Z" fill="#E8DC72"/>
<path d="M201.26 203.385C207.65 207.995 215.06 211.495 223.1 211.375C224.7 211.355 226.06 210.035 226.06 208.415C226.06 206.825 224.71 205.435 223.1 205.455C216.14 205.565 209.88 202.345 204.25 198.275C202.95 197.335 200.95 198.055 200.2 199.335C199.32 200.825 199.96 202.445 201.26 203.385Z" fill="#998161"/>
<path d="M200.62 194.845C200.6 195.245 200.58 195.645 200.54 196.045C200.52 196.195 200.53 196.375 200.49 196.525C200.68 195.905 200.5 196.385 200.48 196.565C200.35 197.305 200.19 198.045 199.98 198.765C199.88 199.105 199.77 199.445 199.66 199.785C199.6 199.975 199.53 200.155 199.46 200.335C199.43 200.415 199.19 201.035 199.35 200.635C199.51 200.235 199.22 200.915 199.22 200.925C199.16 201.065 199.09 201.205 199.02 201.345C198.85 201.695 198.67 202.035 198.48 202.365C198.15 202.955 197.78 203.535 197.38 204.085C197.37 204.105 196.93 204.655 197.21 204.315C197.49 203.985 197.08 204.465 197.02 204.535C196.81 204.785 196.59 205.025 196.36 205.255C196.11 205.515 195.86 205.765 195.59 206.005C195.46 206.125 195.32 206.235 195.19 206.355C194.91 206.595 195.17 206.415 195.3 206.285C194.85 206.745 194.13 207.085 193.57 207.375C192.2 208.095 191.67 210.125 192.51 211.425C193.41 212.825 195.09 213.265 196.56 212.485C202.85 209.165 206.25 201.715 206.55 194.855C206.62 193.305 205.14 191.825 203.59 191.895C201.92 191.955 200.69 193.185 200.62 194.845Z" fill="#998161"/>
<path d="M243.62 83.2846C243.23 86.8646 237.3 89.1546 230.38 88.3946C223.46 87.6346 218.16 84.1246 218.55 80.5446C218.94 76.9646 224.87 74.6746 231.79 75.4346C238.72 76.1846 244.02 79.6946 243.62 83.2846Z" fill="#A28A78"/>
<path d="M210.21 65.4546C209.57 71.3446 204.27 75.5946 198.38 74.9546C192.49 74.3046 188.24 69.0146 188.88 63.1246C189.53 57.2346 194.82 52.9846 200.71 53.6246C206.61 54.2646 210.86 59.5646 210.21 65.4546Z" fill="#7F6656"/>
<path d="M269.83 71.9846C269.19 77.8746 263.89 82.1246 258 81.4846C252.11 80.8446 247.86 75.5446 248.5 69.6546C249.15 63.7646 254.44 59.5146 260.33 60.1546C266.22 60.7946 270.47 66.0946 269.83 71.9846Z" fill="#7F6656"/>
<path d="M84.9 235.145C86.69 235.645 88.62 235.835 90.53 236.265C95.29 237.355 100.01 238.655 104.7 240.015C123.28 245.425 141.9 252.265 161.49 252.415C169.78 252.485 179.61 245.315 177.95 236.145C177.35 232.845 174.98 230.095 172.18 228.265C163.34 222.535 150.42 221.115 140.31 218.805C128.8 216.175 117.19 213.955 105.53 212.135C96.42 210.715 85.48 207.845 79.28 216.485C76.12 220.895 77.02 228.655 80.58 232.605C81.81 233.985 83.29 234.695 84.9 235.145Z" fill="#E79D4A"/>
<path d="M94.43 210.845C91.15 210.185 88.6 209.675 86.87 206.445C86.15 205.105 85.63 203.665 85.04 202.255C84.34 200.595 83.65 197.665 81.83 197.035C80.92 196.725 79.84 197.025 79.24 197.815C78.11 199.315 79.49 201.545 80.03 203.005C78.55 202.325 77.69 200.575 76.59 199.375C75.44 198.115 73.1 197.015 71.86 198.685C70 201.195 73.92 203.205 73.4 205.475C72.91 207.645 70.26 204.765 69.18 204.525C65.35 203.675 64.67 207.615 66.73 210.225C67.59 211.315 68.64 212.275 69.16 213.575C67.79 213.175 66.34 212.825 64.95 213.135C63.56 213.455 62.25 214.635 62.2 216.155C62.16 217.435 62.99 218.575 63.91 219.415C65.38 220.765 67.2 221.675 69.11 222.035C66.15 222.085 63.82 225.345 66.65 227.785C68.09 229.015 70.11 229.065 71.92 228.735C73.18 228.505 74.37 227.905 75.62 227.585C78.3 226.905 77.97 227.835 78.85 230.035C79.17 230.835 79.72 231.575 80.48 231.915" fill="#A28A78"/>
<path d="M103.044 300.737V340.573C103.044 342.373 102.324 342.733 100.044 342.853C97.6445 342.973 88.6456 342.973 81.5663 342.613C83.6061 346.452 86.0058 352.451 86.8458 356.531C97.1646 356.531 104.964 356.291 110.603 354.251C116.242 352.332 118.042 348.492 118.042 341.053V300.737H103.044ZM66.928 250.703V263.901H140.6V250.703H66.928ZM135.2 250.703V253.823C129.801 260.662 117.202 271.101 106.764 276.98C109.163 279.26 113.483 283.699 115.403 286.579C128.241 279.5 142.4 268.101 152.598 258.022L142.28 249.863L139.04 250.703H135.2ZM55.2893 289.818V303.497H153.318V289.818H55.2893ZM83.7261 279.26C97.5246 284.419 117.682 292.698 127.401 297.498L135.08 285.139C124.642 280.46 104.004 272.9 90.9253 268.461L83.7261 279.26ZM148.519 289.818V292.218C145.159 300.977 139.04 311.536 134 318.255L146.239 325.335C153.078 317.295 160.278 305.177 165.557 293.898L153.798 288.859L151.279 289.818H148.519Z" fill="#B5B5B6"/>
<path d="M228.91 298.338C235.029 306.977 241.389 318.615 243.548 326.054L256.147 319.575C253.507 311.896 246.668 300.737 240.429 292.458L228.91 298.338ZM232.869 264.381V277.94H275.945V264.381H232.869ZM269.825 264.381V267.261C268.385 316.096 266.706 336.373 262.746 340.453C261.426 342.133 259.986 342.493 257.587 342.493C254.467 342.493 247.508 342.493 239.949 341.893C242.588 345.972 244.508 352.212 244.748 356.291C251.827 356.651 259.147 356.651 263.586 356.051C268.625 355.211 271.865 353.891 275.225 349.332C280.264 342.973 281.824 323.895 283.624 270.981C283.744 269.181 283.744 264.381 283.744 264.381H269.825ZM233.589 243.864C229.63 259.582 222.311 275.3 213.192 284.779C216.791 286.819 223.151 291.138 226.03 293.538C235.149 282.619 243.428 264.981 248.468 247.103L233.589 243.864ZM191.354 244.104C188.594 252.503 183.435 264.021 179.115 271.221L188.834 275.18C193.514 268.581 199.153 257.902 204.073 248.543L191.354 244.104ZM205.752 258.262C199.393 271.101 188.474 288.739 179.235 299.537L187.994 303.977C197.233 293.778 208.992 277.1 217.871 263.301L205.752 258.262ZM172.876 272.54C178.995 278.3 186.315 286.579 189.314 292.338L196.633 281.059C193.514 275.78 186.075 268.101 179.595 262.582L172.876 272.54ZM202.753 287.179C207.312 295.458 211.752 306.377 213.192 313.216L224.11 308.176C222.551 301.217 217.751 290.778 212.952 282.739L202.753 287.179ZM172.756 296.898L173.956 309.376C185.835 308.656 201.433 307.577 216.551 306.377V294.978C200.473 295.818 183.915 296.538 172.756 296.898ZM204.913 317.295C207.792 324.615 210.912 334.334 211.992 340.573L223.271 336.493C221.831 330.374 218.591 321.015 215.471 313.816L204.913 317.295ZM177.916 314.536C176.956 324.735 175.036 335.413 171.556 342.493C174.556 343.692 179.955 346.212 182.475 347.772C185.955 340.093 188.594 328.094 189.794 316.576L177.916 314.536ZM191.834 303.257V356.771H204.673V303.257H191.834Z" fill="#B5B5B6"/>
<path d="M328.619 254.782V267.141H404.57V254.782H328.619ZM346.017 303.977V315.976H388.132V303.977H346.017ZM346.137 324.135V336.133H388.492V324.135H346.137ZM358.975 244.104V260.302H373.854V244.104H358.975ZM381.293 298.937V356.411H395.451V298.937H381.293ZM380.813 262.222C371.694 277.82 349.016 285.499 323.699 288.979C325.979 291.858 329.219 297.978 330.539 301.097C357.656 295.818 382.013 285.979 394.251 266.061L380.813 262.222ZM299.942 255.142C307.501 258.502 316.98 264.021 321.42 268.221L329.699 256.462C324.899 252.383 315.18 247.463 307.741 244.584L299.942 255.142ZM292.983 287.779C300.662 291.018 310.261 296.298 314.82 300.377L323.099 288.379C318.18 284.419 308.221 279.62 300.782 276.98L292.983 287.779ZM296.462 345.972L309.061 355.091C315.78 343.213 322.979 329.294 328.979 316.576L317.94 307.577C311.221 321.615 302.582 336.853 296.462 345.972ZM337.978 298.578V312.616C337.978 322.815 336.298 339.613 322.979 350.172C326.339 351.972 331.858 355.691 334.498 357.971C349.616 345.612 351.776 325.455 351.776 312.856V298.578H337.978ZM348.897 261.142L337.138 266.181C353.696 288.499 374.934 295.458 399.771 300.137C401.091 295.698 404.33 290.418 407.45 287.179C383.813 283.939 364.015 279.26 348.897 261.142Z" fill="#B5B5B6"/>
<path d="M94.4424 299.815V339.651C94.4424 341.451 93.7224 341.811 91.4427 341.931C89.043 342.051 80.044 342.051 72.9648 341.691C75.0045 345.53 77.4043 351.53 78.2442 355.609C88.563 355.609 96.3621 355.369 102.002 353.329C107.641 351.41 109.441 347.57 109.441 340.131V299.815H94.4424ZM58.3264 249.781V262.979H131.998V249.781H58.3264ZM126.599 249.781V252.901C121.199 259.74 108.601 270.179 98.1619 276.058C100.562 278.338 104.881 282.777 106.801 285.657C119.64 278.578 133.798 267.179 143.997 257.1L133.678 248.941L130.438 249.781H126.599ZM46.6877 288.897V302.575H144.717V288.897H46.6877ZM75.1245 278.338C88.923 283.497 109.081 291.776 118.8 296.576L126.479 284.217C116.04 279.538 95.4022 271.978 82.3237 267.539L75.1245 278.338ZM139.917 288.897V291.296C136.558 300.055 130.438 310.614 125.399 317.333L137.638 324.413C144.477 316.374 151.676 304.255 156.955 292.976L145.197 287.937L142.677 288.897H139.917Z" fill="#EDAB4E"/>
<path d="M220.308 297.416C226.428 306.055 232.787 317.693 234.947 325.133L247.545 318.653C244.906 310.974 238.066 299.815 231.827 291.536L220.308 297.416ZM224.268 263.459V277.018H267.343V263.459H224.268ZM261.224 263.459V266.339C259.784 315.174 258.104 335.451 254.145 339.531C252.825 341.211 251.385 341.571 248.985 341.571C245.865 341.571 238.906 341.571 231.347 340.971C233.987 345.05 235.907 351.29 236.147 355.369C243.226 355.729 250.545 355.729 254.984 355.129C260.024 354.289 263.264 352.969 266.623 348.41C271.663 342.051 273.222 322.973 275.022 270.059C275.142 268.259 275.142 263.459 275.142 263.459H261.224ZM224.988 242.942C221.028 258.66 213.709 274.378 204.59 283.857C208.19 285.897 214.549 290.216 217.429 292.616C226.548 281.697 234.827 264.059 239.866 246.181L224.988 242.942ZM182.753 243.182C179.993 251.581 174.833 263.099 170.514 270.299L180.233 274.258C184.912 267.659 190.552 256.98 195.471 247.621L182.753 243.182ZM197.151 257.34C190.792 270.179 179.873 287.817 170.634 298.616L179.393 303.055C188.632 292.856 200.391 276.178 209.27 262.38L197.151 257.34ZM164.275 271.619C170.394 277.378 177.713 285.657 180.713 291.416L188.032 280.138C184.912 274.858 177.473 267.179 170.994 261.66L164.275 271.619ZM194.151 286.257C198.711 294.536 203.15 305.455 204.59 312.294L215.509 307.255C213.949 300.295 209.15 289.856 204.35 281.817L194.151 286.257ZM164.155 295.976L165.354 308.454C177.233 307.734 192.831 306.655 207.95 305.455V294.056C191.871 294.896 175.313 295.616 164.155 295.976ZM196.311 316.374C199.191 323.693 202.31 333.412 203.39 339.651L214.669 335.571C213.229 329.452 209.989 320.093 206.87 312.894L196.311 316.374ZM169.314 313.614C168.354 323.813 166.434 334.491 162.955 341.571C165.954 342.771 171.354 345.29 173.873 346.85C177.353 339.171 179.993 327.172 181.193 315.654L169.314 313.614ZM183.232 302.335V355.849H196.071V302.335H183.232Z" fill="#EDAB4E"/>
<path d="M320.017 253.86V266.219H395.969V253.86H320.017ZM337.415 303.055V315.054H379.531V303.055H337.415ZM337.535 323.213V335.211H379.89V323.213H337.535ZM350.374 243.182V259.38H365.252V243.182H350.374ZM372.691 298.016V355.489H386.85V298.016H372.691ZM372.211 261.3C363.092 276.898 340.415 284.577 315.098 288.057C317.377 290.936 320.617 297.056 321.937 300.175C349.054 294.896 373.411 285.057 385.65 265.139L372.211 261.3ZM291.34 254.22C298.9 257.58 308.378 263.099 312.818 267.299L321.097 255.54C316.298 251.461 306.579 246.541 299.139 243.662L291.34 254.22ZM284.381 286.857C292.06 290.096 301.659 295.376 306.219 299.455L314.498 287.457C309.578 283.497 299.619 278.698 292.18 276.058L284.381 286.857ZM287.861 345.05L300.459 354.169C307.179 342.291 314.378 328.372 320.377 315.654L309.338 306.655C302.619 320.693 293.98 335.931 287.861 345.05ZM329.376 297.656V311.694C329.376 321.893 327.696 338.691 314.378 349.25C317.737 351.05 323.257 354.769 325.897 357.049C341.015 344.69 343.175 324.533 343.175 311.934V297.656H329.376ZM340.295 260.22L328.536 265.259C345.094 287.577 366.332 294.536 391.169 299.215C392.489 294.776 395.729 289.497 398.848 286.257C375.211 283.017 355.413 278.338 340.295 260.22Z" fill="#EDAB4E"/>
</svg>
