<svg xmlns="http://www.w3.org/2000/svg" viewBox="0 0 1344.26 1194.52"><defs><style>.cls-1{fill:#b789ab;}.cls-1,.cls-11{opacity:0.45;}.cls-1,.cls-11,.cls-14,.cls-19,.cls-20,.cls-21,.cls-22,.cls-23,.cls-25,.cls-26,.cls-27{isolation:isolate;}.cls-12,.cls-13,.cls-15,.cls-16,.cls-2,.cls-20,.cls-22,.cls-25,.cls-27,.cls-5{fill:none;}.cls-2{stroke:#b4b4b5;}.cls-12,.cls-13,.cls-15,.cls-16,.cls-2,.cls-20,.cls-25,.cls-27,.cls-5{stroke-linecap:round;stroke-linejoin:round;}.cls-3{fill:#88c6bf;}.cls-4{fill:#efd2e3;}.cls-5{stroke:#717171;stroke-width:12px;}.cls-6{fill:#6697c9;}.cls-7{fill:#87bab2;}.cls-8{fill:#eee;}.cls-19,.cls-9{fill:#fff;}.cls-10{fill:#f5d3db;}.cls-11{fill:#9fa0a0;}.cls-12,.cls-20{stroke:#fff;}.cls-12{stroke-width:11px;}.cls-13{stroke:#689994;stroke-width:8px;}.cls-14{fill:#e1a2bb;opacity:0.9;}.cls-15{stroke:#d16e7e;}.cls-15,.cls-16{stroke-width:5px;}.cls-16{stroke:#9e9f9f;}.cls-17{fill:#539faf;}.cls-18,.cls-26{fill:#5780ba;}.cls-19,.cls-20,.cls-21,.cls-22{font-size:164.32px;}.cls-19,.cls-20,.cls-21,.cls-22,.cls-23,.cls-25,.cls-26,.cls-27{font-family:HiraMaruProN-W4-83pv-RKSJ-H, Hiragino Maru Gothic ProN;}.cls-20{stroke-width:18px;}.cls-21{fill:#828282;}.cls-22{stroke:#828282;stroke-miterlimit:10;stroke-width:6px;}.cls-23,.cls-25,.cls-26,.cls-27{font-size:236.47px;}.cls-23{fill:#ebebec;}.cls-24{letter-spacing:-0.5em;}.cls-25{stroke:#e4e4e5;stroke-width:37px;}.cls-27{stroke:#5780ba;stroke-width:5px;}</style></defs><title>资源 21</title><g id="图层_2" data-name="图层 2"><g id="图层_1-2" data-name="图层 1"><ellipse class="cls-1" cx="645.87" cy="986.63" rx="645.87" ry="182.44"/><path class="cls-2" d="M979.6,952a413.77,413.77,0,0,0,69.58-53.18"/><path class="cls-3" d="M402.1,1040.91c-29.51,0-59.24-2.42-88.63-1.32q-45.75,1.65-91.5.33c-22-.66-44.15-1.76-65.73-5.73-13-2.42-25.66-6.16-36.45-12.77-9-5.39-13.1-14.09-17.94-22.24-9.58-16-10-34.57-9.36-52.52.33-8.15.88-16.41,4.07-24.22,3.75-9,12.33-16.63,22.46-21.25,9.91-4.41,21.8-3.64,32.26-6.72,3.42-1,7.16-2.53,8.48-5.4a9.63,9.63,0,0,0,.77-3.52c.66-10.24,1.32-20.15,4.74-30.17,4.62-13.43,12.55-25.87,22.46-37.1,19.71-22.46,47.34-40.52,77.73-52.19,31.82-12.22,65.73-19.6,99.87-25.88,33.25-6.16,66.61-13.43,100.19-19.15,22.35-3.86,51.09,2,73.44,5.5,46.13,7.27,91.5,21.58,129.37,44.7,41.07,25.11,72.89,61.88,76,105,2.21,31.05-8.58,61.22-31.16,86.21-21.91,24.12-51.3,50.21-84.33,64.08-38,15.86-88.64,14-129.93,14.1Q450.49,1040.69,402.1,1040.91Z"/><path class="cls-4" d="M552,1026.6c1.54,1.21,2.31,2.53,2.09,4.18-.22,2.2-2.42,3.85-4.73,5.17-9.69,5.73-22,7.38-33.91,8.26-27.2,2.09-56.82,3.42-83.79,1.1-8.59-.77-34.68-1.21-29.07-14.31,4.63-10.79,35.12-9.14,45.36-10.13,20.37-2,41.07-3.41,61.55-2.31C516.17,1019,544,1020.21,552,1026.6Z"/><path class="cls-5" d="M879.29,576.27c-15.52-9-29.73-21.58-42.06-36.89"/><path class="cls-5" d="M976.18,653.89C960,646.3,945.24,633.41,933.9,617"/><path class="cls-5" d="M908.14,719.4c8.7,41,17.07,81.92,26.31,122.77"/><path class="cls-5" d="M905.83,713C883.59,783.71,856,858.36,815.54,920.79"/><path class="cls-5" d="M900.76,703c-11,6.06-21.91,12.22-32.92,18.28-6.05,3.41-12.66,6.82-19.05,4.73"/><path class="cls-6" d="M798,526.06c7.26,17,30.38,35,38.53,43.93l74.65,81.59c7.27,7.93,16.63,15.86,22.68,24.88,0,0,53.07,78.62,78.73,27.31a40.51,40.51,0,0,0,2.42-6.06c10.79-33.58,14.86-72,40.19-97.88,12.66-13,27.74-23.34,41.62-34.9,2.75-2.31,5.61-4.85,7-8.15,1.77-4.07,1.22-8.7.22-12.88-16.51-71.46-102.28-81-161.85-76.74-46.57,3.3-94.36,8.91-135.54,33a25.18,25.18,0,0,0-6.93,5.28C794.62,511.53,794.84,518.69,798,526.06Z"/><path class="cls-6" d="M685.07,552.82,563.29,715.66s-45.14,83.46-75.75,35.12a40.37,40.37,0,0,1-3-5.72L430.29,620.31c-.88-2-1.54-4-2.31-5.94-29.18-74-3.09-113.19,34.9-117.93l172.75,17C674.39,508.56,708.52,521.44,685.07,552.82Z"/><path class="cls-7" d="M844.06,547.42c.22.22,92.38,101,92.38,101s35.78,53,53.07,18.39a26.79,26.79,0,0,0,1.65-4.08c5-15.3,6.27-32,12-47.12,5.83-15.31,19.27-27.64,31.27-37.88,11.67-9.91,20.81-22.68,8.59-36.55-31.16-35.57-72.45-41.62-116.82-34.36-22.57,3.75-45.15,7.6-67.61,11.89C843,521.77,830.3,532.34,844.06,547.42Z"/><path class="cls-7" d="M644.22,564.16l-82,109.66s-30.39,56.27-51,23.67a25.45,25.45,0,0,1-2-3.85l-36.55-84c-.55-1.32-1-2.75-1.54-4.07-19.71-49.88-2.1-76.3,23.45-79.5l116.49,11.45C637.06,534.32,660.07,543,644.22,564.16Z"/><path class="cls-7" d="M1126.48,887.64a550.44,550.44,0,0,0-99.32-98c-10.9-8.26-22.57-16.29-36-18.39-51.09-8.14-45.25,69.7-42.5,103.61.77,9.36,2.09,19,7.26,26.54,4,5.72,9.91,9.58,15.86,13,24.88,14.53,51.75,18,76.52,30.28,30.39,15.08,59.13,33.91,89.85,48.66,7.26,3.53,14.75,6.94,22.79,6.83s16.84-4.62,19.93-12.77c3.41-9.14-1.1-18.94-5.73-27.09A589.92,589.92,0,0,0,1126.48,887.64Z"/><path class="cls-6" d="M1154.88,1000c4,1.76,8.26,2.09,10.46,7.6,1,2.64,1.76,5.39,2.54,8,1,3.2,1.87,8.59,4.62,10.24a3.17,3.17,0,0,0,4.07-.66c1.88-2.42-.11-6.82-.88-9.58,2.2,1.66,3.42,5.07,5.07,7.49s4,4.41,6.16,3.63a2.38,2.38,0,0,0,1.32-1.21,5.84,5.84,0,0,0,.11-2c-.44-4.07-1.43-8.59-1.32-12.55,1.88,1.76,3.42,4.07,5.62,5.06,5.83,2.65,7.16-4.29,4.18-9.57-1.21-2.21-2.86-4.19-3.52-6.72,2.09,1.1,4.29,2.2,6.5,2a4.86,4.86,0,0,0,4.4-4.62c.11-2.32-1.1-4.52-2.42-6.28a19.7,19.7,0,0,0-7.82-6.17c4.62.77,8.37-4.4,4.18-9.58-2.09-2.64-5.28-3.3-8.14-3.19-1.77,0-3.53,1.54-5.29,1.1s-3.3-4.4-4.51-6.49c-.22-.44-.55-.88-.77-1.43-.44-.89-.66-1.88-1.1-2.76s-.78-1.76-1.22-2.64"/><path class="cls-3" d="M1030.13,703.55A19.47,19.47,0,0,0,1030,701c-8.69-123.43-137.63-214.6-288-203.81s-265.13,119.58-256.43,243c.33,4.73.88,9.46,1.65,14.09-20.81,29.29-31.6,61.55-29.29,94.91,3.31,47.56,33.36,87.2,70.47,114.51,22.35,16.4,47.45,28.95,73.33,38.53,13.43,5,28.41,10.9,42.5,13.11,16.07,2.53,34.79-1,51.09-2,52.08-3.08,104.05-7.81,155.69-15.41,26.42-3.85,52.85-8.48,79-14,11.67-2.43,25.21-3.75,36.33-8.26s20.59-13.54,30.17-20.37c23.68-16.74,45.26-37,61.44-61.33,17.62-26.53,27.86-57.8,25.66-89.84C1080.89,766.2,1061.51,731.74,1030.13,703.55Z"/><path class="cls-8" d="M940,605.56c-7.93-46.69-51.86-78.18-98.1-70.14-42.61,7.38-72.34,45.47-70.58,88-2.31.22-4.73.55-7,1a110,110,0,0,0-16.18,4.08c-12-41.18-52.85-67.72-95.9-60.34-46.25,7.93-77.41,52.3-69.48,99.1,7.27,43,45.14,73.1,87.2,71.23a111.4,111.4,0,0,0,1.66,18.06c6.38,37.55,34.35,55.49,70.68,56.48,50.54,1.21,109.56-9.25,143.69-50.31,10.13-12.23,11.78-29.62,9.25-44.71a120.51,120.51,0,0,0-5-19.26C925.1,683.4,946.68,645.41,940,605.56Z"/><ellipse class="cls-9" cx="674.72" cy="550.93" rx="35.56" ry="8.48" transform="translate(-90.28 134.34) rotate(-10.66)"/><ellipse class="cls-9" cx="794.06" cy="530.78" rx="35.56" ry="8.48" transform="translate(-84.49 156.07) rotate(-10.66)"/><path class="cls-6" d="M618.57,737.68A196,196,0,0,0,609,759c-18.83,48.45-74.65,31.05-96.12-.88-13.77-20.37-8.81-52.74-1.88-71.46,14.65-39.52,48.78-61.1,85.11-72.22,18.39-5.62,37.44-8.81,56.82-10.9,13.76-1.55,33.58-4,47.56,3.19,8.26,4.29,12.89,11.89,13.11,21.58.66,25.32-39.64,41.62-53.85,54.83A197.55,197.55,0,0,0,618.57,737.68Z"/><path class="cls-6" d="M927.3,664.46c12.66,11.89,22.57,28.63,40.41,30.72,18.38,2.09,38.64-9.14,46.68-27.41,7.05-16.08-2.53-39.09-11.23-52.08-14.09-21-35.45-34.14-58.36-40.63-23.34-6.61-45.8-7.38-70.68-8-16.74-.44-38.65-1.87-46.14,16.08-3.63,8.69-1,18.16,3.42,25.87,5.61,9.8,13.76,14.64,23.78,18.06,5.5,1.76,11,3.3,16.51,5.06a153.8,153.8,0,0,1,53.19,30.28A22,22,0,0,1,927.3,664.46Z"/><path class="cls-10" d="M990.5,752.55a187.76,187.76,0,0,0-23.68,9.91c-31.6-59.9-96.56-96.35-182.66-87.54-95.9,9.8-156.13,51.75-166,143.25a194.08,194.08,0,0,0-25.76-3.52c-26.64-2.1-61.77,6.93-48.23,41.28,6.61,16.74,20.92,23.79,49.11,26.65-.88,5.39-1.76,11-2.2,16.74-2,23.23,8.15,44.59,24,60.88a160.28,160.28,0,0,0,40,29.73,110.34,110.34,0,0,0,23.12,9.25c8.48,2.2,16.52,1,25.22.44,20.36-1.21,40.73-2,61-3.19,29.95-1.87,59.9-4,89.52-8.7,28.85-4.63,57.91-7.93,86.76-13.43,27.2-5.29,50.76-24.78,67.38-46.36,16.08-20.81,24.78-47.12,15.86-73a154.73,154.73,0,0,0-17.84-36c28.08-10.24,40.52-20.81,42.28-39.2C1051.83,743.3,1015.6,743.63,990.5,752.55Z"/><ellipse class="cls-7" cx="843.58" cy="946.38" rx="30.83" ry="14.86" transform="translate(-47.87 44.95) rotate(-2.97)"/><path class="cls-6" d="M942.71,685.82C893.06,652.13,814,628.24,765.88,673.49c-43.27-24.44-90.61,12.77-125.51,48-25.77,26.31-41.07,61.66-36.12,96.23-2.42,58.9,176.5,10.9,199.73,8.48,63.75-10.68,124.75-22.91,179-57.81C997.21,740.65,959.78,698.49,942.71,685.82Z"/><path class="cls-11" d="M969.36,890c-18.83,8.8-36.67,19.15-56.27,26-25.65,9-53.84,6.83-79.49,15.75-22.57,7.7-42.5,3.63-65.07,1.21a237.09,237.09,0,0,0-63,1.76c-26.32,4.18-48.12,9-71-1.43-17.07-7.82-29.4-17.73-20.26-35.9,10.35-20.7,39.09-33.47,64-38.2l2-.33,28.19-3.31c19.38-2.31,38.87-4.62,58.25-6.82l28.07-3.31c12.11-1.43,24.33-2.2,36.23-5,18.6-4.18,37.1-8.7,55.71-13,18.39-4.3,36.77-8.48,55.16-12.77,8.37-1.88,16.74-3.86,25-5.73,27.75-6.39,57.59,1.87,65.3,24.44,8.91,26.32-12.11,37.77-40,47.24A212.61,212.61,0,0,0,969.36,890Z"/><path class="cls-12" d="M937.54,850.21c9.58-4,21.25,1,25,10.57s-.66,22.46-9.8,27.75c-6.27,3.63-13.76,3.63-20.48,1.76-8.37-2.43-16.18-8.37-18-17.29-.89-4.4-.34-9,.66-13.54,1.21-5.84,3.19-11.78,6.6-16.74,9.47-13.87,29.4-17.5,42.61-9.14s19.16,26.54,15.86,42.94-14.65,30.94-28.63,39.53A50.23,50.23,0,0,1,932,923.32c-17.39,2.09-33.69-8.92-42.72-24-11-18.5-12.44-43.39-2.86-64,3.41-7.38,8.26-14.32,15-18.5,10.13-6.39,22.35-5.51,33.81-4.52"/><path class="cls-12" d="M732.85,875.75c9.58-4,21.25,1,25,10.57s-.66,22.46-9.8,27.75c-6.28,3.63-13.77,3.63-20.48,1.76-8.37-2.42-16.19-8.37-18.06-17.29-.88-4.4-.33-9,.66-13.54,1.21-5.83,3.2-11.78,6.61-16.73,9.47-13.88,29.4-17.51,42.61-9.14s19.16,26.53,15.85,42.94S760.6,933,746.62,941.6a50.27,50.27,0,0,1-19.27,7.26c-17.4,2.09-33.69-8.92-42.72-24-11-18.5-12.44-43.38-2.86-64,3.41-7.38,8.25-14.31,15-18.5,10.13-6.38,22.35-5.5,33.8-4.51"/><path class="cls-13" d="M111.43,906.69c-42.06,25.44-7.38,97.77,17.72,122.88"/><path class="cls-7" d="M710.28,1097.61a672,672,0,0,1-163.06-19.71c-15.86-4-31.93-8.69-44.48-19.15-47.79-40.08,23.34-90,54.5-111.54,8.59-5.94,18-11.56,28.4-12.22,8.15-.44,16.08,2.2,23.68,5,32.37,12,56.7,33.59,87,47.13,37.21,16.62,76.19,29.07,113.41,46.13,8.8,4,17.72,8.37,24.11,15.64s9.47,18.27,4.95,26.86c-5.06,9.58-17.06,12.44-27.63,14.1A660.59,660.59,0,0,1,710.28,1097.61Z"/><path class="cls-6" d="M830.19,1046.08c4.29,2.1,7.59,5.4,13.43,3.64,2.75-.88,5.39-2,8-3.09,3.19-1.21,8-4.07,11.34-2.86a3.46,3.46,0,0,1,2.42,3.75c-.55,3-5.4,4.18-8,5.39,2.86.77,6.39-.44,9.47-.66s6.28.44,7.27,2.64a2.22,2.22,0,0,1,0,1.87,3.75,3.75,0,0,1-1.54,1.33c-3.42,2.31-7.6,4.29-10.68,6.93,2.75.33,5.61.22,7.92,1.32,6.28,3.09,1.87,8.59-4.4,9.47-2.64.33-5.29.44-7.71,1.43,2.42,1,4.74,2.1,6.17,4a5,5,0,0,1-.33,6.6c-1.65,1.55-4.3,2.1-6.61,2.1a22.2,22.2,0,0,1-10.46-2.43c3.85,3.2,2.64,9.69-4.4,9.58-3.53-.11-6.39-2.2-8.37-4.51-1.21-1.43-1.32-3.86-3.08-5s-5.73.11-8.26.55a8.77,8.77,0,0,0-1.65.33c-1,.22-2,.66-2.87.88a27.62,27.62,0,0,1-2.86.78"/><path class="cls-13" d="M487.54,794.06c-14.53,9.9-22,27.52-24.66,45-6.94,44.81,15.63,92.82,54.39,115.83"/><path class="cls-5" d="M581.9,872.23a135.89,135.89,0,0,1,5,62.65"/><path class="cls-5" d="M607.22,868.38c2.76,13.32,5.29,26.75,7.6,40.07"/><path class="cls-5" d="M633.43,861.88c.77,8.59,1.54,17.18,2.42,25.76"/><ellipse class="cls-14" cx="1025.93" cy="925.01" rx="60.67" ry="22.46" transform="translate(-150.71 201.34) rotate(-10.45)"/><path class="cls-15" d="M1056.89,909.44a53.55,53.55,0,0,1-1.43,18.72"/><path class="cls-15" d="M1038.39,911.87a53.51,53.51,0,0,1-1.43,18.71"/><path class="cls-15" d="M1020.56,914a53.34,53.34,0,0,1-1.44,18.72"/><path class="cls-15" d="M1005.25,920a55.64,55.64,0,0,1-2.09,18.6"/><path class="cls-16" d="M1014.06,905.81c-17.4,5.4-44.15,12.33-45,35.79"/><ellipse class="cls-14" cx="675.25" cy="975.4" rx="67.27" ry="22.35" transform="translate(-88.6 67.71) rotate(-5.39)"/><path class="cls-15" d="M635.74,969.56a58.51,58.51,0,0,0,10,17.07"/><path class="cls-15" d="M656,966.26a58.46,58.46,0,0,0,10,17.06"/><path class="cls-15" d="M675.38,963a58.24,58.24,0,0,0,10,17.06"/><path class="cls-15" d="M694,964.06a59.34,59.34,0,0,0,10.79,16.73"/><path class="cls-16" d="M678.35,953.38c20.48-.11,51.31-1.66,63,20"/><path class="cls-17" d="M787.13,615.69c1.22,7.37-9.57,15-23.89,16.84s-26.86-2.53-28.07-9.91,9.46-15,23.78-16.84C773.37,603.69,786,608.2,787.13,615.69Z"/><path class="cls-18" d="M714.58,607.87a21.52,21.52,0,0,1-18.39,25,22.9,22.9,0,0,1-25.44-19,21.45,21.45,0,0,1,18.28-25A22.85,22.85,0,0,1,714.58,607.87Z"/><path class="cls-18" d="M846.15,585.3a22,22,0,0,1-18.83,25.21,22.92,22.92,0,0,1-25.65-19.27,21.93,21.93,0,0,1,18.83-25.32A23.15,23.15,0,0,1,846.15,585.3Z"/><text class="cls-19" transform="translate(910.67 1124.88)">NO…</text><text class="cls-20" transform="translate(910.67 1124.88)">NO…</text><text class="cls-21" transform="translate(900.76 1122.68)">NO…</text><text class="cls-22" transform="translate(900.76 1122.68)">NO…</text><text class="cls-23" transform="translate(199.27 250.69) rotate(-0.71)">予約済<tspan class="cls-24" x="709.4" y="0">．．．</tspan></text><text class="cls-25" transform="translate(199.27 250.69) rotate(-0.71)">予約済<tspan class="cls-24" x="709.4" y="0">．．．</tspan></text><text class="cls-26" transform="translate(199.27 250.69) rotate(-0.71)">予約済<tspan class="cls-24" x="709.4" y="0">．．．</tspan></text><text class="cls-27" transform="translate(199.27 250.69) rotate(-0.71)">予約済<tspan class="cls-24" x="709.4" y="0">．．．</tspan></text></g></g></svg>