<svg xmlns="http://www.w3.org/2000/svg" viewBox="0 0 1294.2 1294.2"><defs><style>.cls-1,.cls-2{isolation:isolate;font-size:231.54px;font-family:HiraMaruProN-W4-83pv-RKSJ-H, Hiragino Maru Gothic ProN;}.cls-1,.cls-2,.cls-5{fill:#6697c9;}.cls-1{stroke:#edeeef;stroke-width:64px;}.cls-1,.cls-16,.cls-6,.cls-8,.cls-9{stroke-linecap:round;stroke-linejoin:round;}.cls-2{stroke:#6697c9;}.cls-17,.cls-18,.cls-2{stroke-miterlimit:10;}.cls-18,.cls-2{stroke-width:3px;}.cls-3{fill:#b3b3b3;}.cls-4{fill:#87bab2;}.cls-16,.cls-6,.cls-8,.cls-9{fill:none;}.cls-16,.cls-6{stroke:#4265ae;}.cls-6,.cls-8,.cls-9{stroke-width:8px;}.cls-7{fill:#88c6bf;}.cls-8{stroke:#689994;}.cls-9{stroke:#5780ac;}.cls-10{fill:#b76da1;}.cls-11{fill:#f5d3db;}.cls-12{fill:#eee;}.cls-13,.cls-17{fill:#fff;}.cls-14{fill:#539faf;}.cls-15{fill:#5780ba;}.cls-16{stroke-width:6px;}.cls-17{stroke:#f7f8f8;stroke-width:34px;}.cls-18{fill:#2374b2;stroke:#2374b2;}</style></defs><title>资源 25</title><g id="图层_2" data-name="图层 2"><g id="图层_1-2" data-name="图层 1"><text class="cls-1" transform="matrix(1, -0.02, 0.02, 1, 255.43, 275.23)">予約可</text><text class="cls-2" transform="matrix(1, -0.02, 0.02, 1, 255.43, 275.23)">予約可</text><ellipse class="cls-3" cx="702.83" cy="1178.31" rx="452.03" ry="111.89"/><path class="cls-4" d="M615.83,761.11c-3.49,10.59-8.08,20.74-11.35,31.55-4.7,15.28,2,26.41,17.9,31.32,115.16-16.59,154,22,154.35-43.44,0-9.17-5.46-20.85-8.08-29.69-2.73-9.72-5.67-19.43-8.73-29-5.57-17.36-11.57-34.49-18.45-51.3-9.93-24.24-21.07-49.78-38.53-70.19-8.63-10.05-22.05-22.16-36.57-15.5-18.34,8.4-25.22,36-29.8,52.83-5.35,19.76-8.73,40.06-11.35,60.26-1.75,13.31-3.17,26.74-4.26,40.17A106,106,0,0,1,615.83,761.11Z"/><path class="cls-5" d="M726.41,643.76a46.12,46.12,0,0,0,2.07-50c8.52-7.86,15.61-17.25,19.21-28.06s3.17-22.92-2.51-32.85c-2.4-4.26-6-8.19-10.7-9.83s-10.8-.65-13.64,3.39c3.38-10.48-.44-23.36-10.37-29s-24.89-1.86-29,8.4c4.37-10.91-5.56-16.26-15.39-14.62-12.88,2.18-22.16,8.95-28.82,19.76-7.86,12.88-10.69,27.94-17,41.48-4.8,10.37-13.31,20.85-26.08,21.28-5.57.22-11.25.33-16.81.55-6.66.22-13.54.43-19.76,2.95s-11.57,7.75-12.12,14.19c-.55,7.64,5.9,14.3,13.1,17.79S573.8,614,581,617.45c21.39,10.16,29.58,35.15,50.65,45.63,10,5,27.5,3.06,38.53,1.86C687.66,663.19,715.71,658.72,726.41,643.76Z"/><path class="cls-6" d="M721.06,526.42c-3.39,9.93-4.48,20.41-7.86,30.34-2.08,5.9-4,11.9-7.1,17.47-2.51,4.69-7.09,9.71-12.55,8.73"/><path class="cls-6" d="M681.65,505.89c-2.29,22.27-6.44,40.28-18.66,59.39"/><path class="cls-6" d="M634.17,596.82c6.11.33,11,5.13,14.3,10.16,5.46,8.4,8.29,19.21,3.93,28.16"/><path class="cls-5" d="M896.37,1153.21c.76-31.66,46.94-34.39,121.71-32.64s120.73,6.44,120,38.1-41.59,56.32-116.37,54.69S895.6,1184.76,896.37,1153.21Z"/><path class="cls-7" d="M781.31,807.72C691.37,788.29,599,783.38,533.52,836.54,477.63,882,454.6,980.3,491.61,1047.87c24.77,45.41,49.88,69.64,94.53,101.84a858,858,0,0,0,136.45,80.13c24.23,11.35,49.88,21.83,76.08,23a108.88,108.88,0,0,0,88.42-39.08c19.76-24.12,27.94-54.91,29.58-85.91,1.31-25-.44-50.76-.54-76,0-7.21,0-14.52,2.62-21.29,10.69-27.4,42.46-27.94,67.24-30.56,49.56-5.24,37.33-68,18.45-96.17-22.16-33-64-53.16-104.91-64.84C862.42,828.24,822.14,816.56,781.31,807.72Z"/><path class="cls-4" d="M410.61,1009.66a40.07,40.07,0,0,1,8.95-4.36C727.83,890,515,1182.46,348.06,1158.23,254,1140.33,69.81,743.75,360.72,998.31,374.26,1011.41,386.81,1025.38,410.61,1009.66Z"/><path class="cls-8" d="M324.59,1146.66a75.5,75.5,0,0,0,61.79,4.91"/><path class="cls-8" d="M375.68,1013.7a74.71,74.71,0,0,1,11.13.88,5.72,5.72,0,0,1,2.73.87,5.26,5.26,0,0,1,1.64,3.06,38.27,38.27,0,0,1-1.2,22.37c1.53-3.16,3-6.44,4.58-9.6a48,48,0,0,1,4-7.32,25.84,25.84,0,0,1,16.7-10.15"/><path class="cls-7" d="M1000.62,838.83c5.34,8.3,9.71,17.79,13.86,28.27,19.87,50,40.82,106.32,37.77,160.9-2.08,36.68-26.31,65.83-66.48,59.06-41-7-46.94-64.08-62.55-94.86-9.28-18.45-26.42-48-46-58.29-11.69-6.12-31.55-4.37-44.76-6.55-22.71-3.71-71.72-12.66-66.91-43.88,5-31.88,60.25-51.42,86.56-60.7,29.36-10.26,61.56-19.65,93.22-16.59C973,808.7,989,820.71,1000.62,838.83Z"/><path class="cls-7" d="M881,1135.31a287,287,0,0,0,25.1-14.41c4.59-3,9.39-6.12,14.74-6.44,9.82-.66,18,8.29,21.18,17.9,13.53,40.61-20,77.07-50.76,95.4s-66.92,24.56-102.18,22.71c-8.18-.44-16.59-1.2-23.68-5.35-18.45-10.92-19.22-37.66-17.58-59.6,2.51-34.5,30.89-23.91,54.25-26.2C829.67,1156.7,856.2,1148,881,1135.31Z"/><path class="cls-5" d="M1219.37,1102c.76,40-57.2,45.74-151.51,47.49s-152.5-1.86-153.37-41.81,49.23-73.25,143.54-75S1218.61,1062.06,1219.37,1102Z"/><path class="cls-9" d="M974.53,1049.07c-15.07,4-33.19,14.52-45.41,23.91-23,17.68-12.12,62.33,13.31,67.46"/><path class="cls-10" d="M591.7,531.76c8.74-11.46,13.54-31.43,11.9-53.7C601,444,584.17,417.47,565.83,418.78s-30.89,29.91-28.38,64a19.33,19.33,0,0,1,.22,2.51c-30.35-7.2-57.42-2.29-61.67,11.79-4.48,14.85,17.9,34.06,50.1,43,21.07,5.89,41,5.79,53.6,1a14.47,14.47,0,0,0,3-1.31C587,537.55,590,534.93,591.7,531.76Z"/><ellipse class="cls-4" cx="590.42" cy="883.05" rx="111.02" ry="56.44" transform="translate(-455.03 694.87) rotate(-46.03)"/><path class="cls-9" d="M979.44,1141.42c58.29,7.09,118,14.08,175.42,2.18"/><path class="cls-8" d="M763.08,1244.57a117.32,117.32,0,0,0,68.34,7.65,69.17,69.17,0,0,0,13.32-3.72c6.87-2.83,13-7.2,19-11.46"/><path class="cls-8" d="M824.76,821.58a76.55,76.55,0,0,0,47.92,2.73"/><path class="cls-9" d="M1052.57,1005.41q-.48,13.59-1,27.18c13.87.22,27.84.54,41.7.76"/><path class="cls-8" d="M914.71,1063.7c-.11-9.39-.11-18.78-.22-28.06a23.94,23.94,0,0,1,.87-7.86,12.87,12.87,0,0,1,12.56-8.18c5.45.32,10.47,4.25,11.68,9.38"/><path class="cls-7" d="M548.91,646.93c-72.91-58.73-167-111-266-100.1-70.3,7.75-130.22,48.9-167.23,105.66-28.16,43.34-43.77,95-42.35,146.06,1.2,43.66,13.75,86.67,45.19,119.09,8.84,9.06,18.23,18.12,30,23.36,13.64,6.12,29.14,6.66,44.21,6.77,28.49.22,61.45-8.41,84,7.53,16.15,11.35,29.69,24.24,47.59,33.51a206,206,0,0,0,101.74,22.71c68.33-2.29,133.94-36.35,178.26-85.25,82.85-91.37,62.33-209-45.09-272.14A97.77,97.77,0,0,1,548.91,646.93Z"/><path class="cls-11" d="M619,737.2a86,86,0,0,0-16.92-34.6C582.21,678,554.26,660.9,525,648.24c-15.39-6.66-30.57-13.43-43.56-23.47-49.23-38.43-124.11-38.43-180.33-7.75-38.31,21-72.37,51.3-84.6,93-6.33,21.72-6.44,44.54-2.73,66.7,3.83,22.38,10.16,58,26.09,74.88,1,1.09,2.08,2.08,3.06,3.06-12.23-12.56-32.53,17.14-32.31,26.3.65,23.69,43.44,39.74,63.53,41.49,9.17.87,16.37-3,24.78-3.39,9.39-.44,8.08,2.51,15.72,8.52,29.25,22.92,63,45.3,102.5,44.21C478,970.15,532,934.13,566.93,889c16.91-21.94,32.74-44.86,43.11-70.19S625.54,764,619,737.2Z"/><ellipse class="cls-4" cx="486.64" cy="763.36" rx="40.28" ry="20.08" transform="translate(-412.42 657.43) rotate(-50.76)"/><path class="cls-5" d="M203.1,611.45l148.24-13.54S421,601.63,403,564.29a31.71,31.71,0,0,0-2.4-4l-56.66-81.87c-.87-1.31-2-2.51-2.84-3.72-35.25-47.26-70.4-45.84-88.2-23.47l-55.78,115C179.52,588.31,174.61,614.07,203.1,611.45Z"/><path class="cls-5" d="M168.93,642.23,147.64,775.41s-.32,61.45-34.16,43.33a25.78,25.78,0,0,1-3.71-2.4l-73.14-54.8c-1.2-.87-2.18-1.85-3.39-2.72-42.13-33.84-39.51-65-18.12-79.69l110.69-44.76C148,619.31,173.08,616,168.93,642.23Z"/><path class="cls-4" d="M236.06,593.44l100.1-9.17s46.94,2.51,34.71-22.7a13.5,13.5,0,0,0-1.63-2.73l-38.21-55c-.65-.87-1.31-1.64-2-2.51-23.69-31.66-47.27-30.67-59.28-15.72L232,562.88C220.13,577.72,216.85,595.19,236.06,593.44Z"/><path class="cls-4" d="M147.64,661.88l-14.19,89.84s-.22,41.81-23,29.36a12.26,12.26,0,0,1-2.51-1.63L58.57,742.33c-.76-.54-1.53-1.2-2.29-1.85C27.9,717.66,29.75,696.7,44.16,686.77l74.56-30C133.56,646.49,150.48,644.31,147.64,661.88Z"/><path class="cls-12" d="M317,550.65c-26.63-22.49-69.32-16.59-95.08,13.21-23.58,27.29-24.56,64.95-3.82,87.87-1.31,1.42-2.73,2.84-4,4.37A111.25,111.25,0,0,0,205.72,667c-26.64-16.7-64.63-9.71-88,17.36-25.1,29-23.68,70,3,91.37,24.34,19.75,61.57,16.37,86.89-6.66a73.74,73.74,0,0,0,9.28,9.06c21.07,17.13,46.61,12.33,69.75-6.12,32.21-25.76,64.63-62.65,67.57-103.59.88-12.22-5.89-22.92-14.41-30a80,80,0,0,0-11.89-8.18C343.15,603.05,339.55,569.75,317,550.65Z"/><path class="cls-13" d="M160,628.26c3.82,3.17.76,12.88-6.88,21.72s-16.81,13.43-20.63,10.26-.76-12.88,6.77-21.61S156.16,625.2,160,628.26Z"/><path class="cls-13" d="M196.77,585.36c3.82,3.17.65,13-7,21.94s-17,13.54-20.85,10.37-.76-13,7-21.94S193,582.09,196.77,585.36Z"/><path class="cls-5" d="M164.24,772.79a134.41,134.41,0,0,0,4.91,13.1c12.33,28.05-15.5,48.57-36.24,46.72-13.32-1.2-24.45-16.16-29.37-26.75-10.48-22.59-6.44-47.81,2.62-70.19A220.34,220.34,0,0,1,123.08,703c4.59-7.43,11-18.34,19.22-22.6a11.23,11.23,0,0,1,13.64,2c10.48,9.72,1.86,36.24,1.86,48.58A138.7,138.7,0,0,0,164.24,772.79Z"/><path class="cls-5" d="M327.1,588.42c14,.22,28.49,4.69,41-3.5,12.88-8.4,20.52-25.65,16.7-40.38-3.28-13-20.85-21.4-32.86-24.35-19.43-4.8-39.73-1.2-57.64,7.21C276,535.91,261.28,547.37,245,560c-10.91,8.51-25.65,19.21-21.5,33.51,2,6.88,8.4,11,15,13.1,8.41,2.73,15.94,1.31,24-2.08,4.37-1.85,8.62-3.82,13-5.67a134.74,134.74,0,0,1,48.9-10.37A7.78,7.78,0,0,1,327.1,588.42Z"/><path class="cls-5" d="M383,579.47c-25.21,2.18-80.78,24.56-103.59,47.7-7,7-13.43,14.85-17.36,23.36-2.29,4.91-10.69,19.65-10.91,25.54a53.57,53.57,0,0,0-17.25,6.77c-8,5.13-14.74,12.55-20.63,20.3C193.93,728.47,180.94,784,183,807.94c2.18,24.34,11.14,45.95,30,56.21a11,11,0,0,0,6.88,1.75c3.38-.33,7-2.62,10.26-4.8,45-30.35,84.92-69.1,120.62-110.91s70.19-84.27,95.3-133.5c1.85-3.71,3.71-7.64,3.49-11-.11-2.73-1.53-4.7-2.95-6.44C433,582.2,408.86,577.28,383,579.47Z"/><path class="cls-14" d="M237.37,638.3c5.79,4.81,2.73,17.36-6.66,28.17s-21.61,15.72-27.39,11-2.84-17.35,6.54-28.16S231.59,633.5,237.37,638.3Z"/><path class="cls-15" d="M167.51,674.33a21.2,21.2,0,0,1,2.73,30.56,22.7,22.7,0,0,1-31.44,2.51A21.22,21.22,0,0,1,136,676.84,23,23,0,0,1,167.51,674.33Z"/><path class="cls-15" d="M248.62,580.67a21.73,21.73,0,0,1,2.51,31.11,22.92,22.92,0,0,1-31.77,2.62,21.73,21.73,0,0,1-2.62-31.11A22.85,22.85,0,0,1,248.62,580.67Z"/><path class="cls-16" d="M531.23,781.08c-7.42-41.69,44.43-38.64,28.82,12,16-19.1,40.17,15.07,4.47,43.12"/><ellipse class="cls-15" cx="379.2" cy="817.14" rx="29.69" ry="48.03" transform="translate(-517.93 735.51) rotate(-59.91)"/><ellipse class="cls-15" cx="481.24" cy="683.1" rx="29.69" ry="48.03" transform="translate(-351.08 756.96) rotate(-59.91)"/><path class="cls-5" d="M216.31,993.07c-13.76-1.2-27.19-9.5-33.08-20.3-8.73.65-17.9.11-26.31-2.84s-16.15-8.3-20.19-15.28c-1.75-2.95-2.73-6.33-1.75-9.28a7.77,7.77,0,0,1,8-5c-8.3-2.84-14.85-10.26-14.3-17.36s9.5-12.66,17.9-10.26c-9-2.51-8.08-9.61-2.84-13.64,6.88-5.24,15.29-6.77,25.11-5.35,11.68,1.74,22.6,6.87,34.06,9.6,8.73,2.08,19.1,2.51,24.89-3.38l7.53-7.86c3.06-3.06,6.11-6.22,10.37-8.19s9.93-2.18,14.3.33c5.24,3.06,6.66,9,5.78,13.86s-3.49,9.39-4.36,14.3c-2.62,14.52,9.93,29.15,7.64,43.67-1.09,7-9.83,14.41-15.28,19.21C245.45,982.81,230.5,994.27,216.31,993.07Z"/><path class="cls-6" d="M144.91,912.4c7.65-2.29,15.94-1.85,23.69.11s15.07,5.24,22.27,8.52"/><path class="cls-6" d="M142.73,939.91a80.66,80.66,0,0,1,24.89,9.83"/><path class="cls-6" d="M206.26,904a92.43,92.43,0,0,0,14.41-.11c3.06-.22,6.33-.87,8.3-3.06a11.45,11.45,0,0,0,2.07-4.91"/><path class="cls-11" d="M717.78,847.67c-20.63,10.81-20.08,50.21.44,89.73-45.08,3.38-79.8,22.6-79.14,44.76.76,23.57,41.37,41.7,90.71,40.28s88.86-21.62,88.09-45.31c0-.54-.11-1.09-.11-1.63,3.5-19.11-2.62-46.5-17.9-73.36C776.29,860.77,739.51,836.32,717.78,847.67Z"/><path class="cls-17" d="M388.34,1223.82c1.64,0,2.62,1.2,2.62,3s-1,3.17-2.62,3.17l-15.72.11.55,44.1c0,2.07-1.31,3-3.39,3s-3.38-1.2-3.38-3l-.33-31.88c0-2.84.33-6,.44-8.51h-.33a47.14,47.14,0,0,1-7.75,12c-8,9.61-18.77,17.69-29.14,22a4.81,4.81,0,0,1-1.64.43,3.15,3.15,0,0,1-2.84-1.74,3.5,3.5,0,0,1-.33-1.53,3.23,3.23,0,0,1,1.86-2.95c13.64-5.79,27.94-18.23,35.69-31.66H328.74c-1.64,0-2.51-1.52-2.51-3.16s1-2.95,2.51-2.95l37.11-.11-.11-10.15c0-2,1.42-3,3.39-3s3.38,1,3.38,3l.11,10.15h15.72v-.22Z"/><path class="cls-17" d="M400.89,1248c-2,0-3.05-1.2-3.05-3.39s1.09-3.49,3.16-3.49h60.26c2.07,0,3.16,1.53,3.16,3.49s-1.09,3.39-3.05,3.39Z"/><path class="cls-17" d="M492.26,1274.15c0,2.07-1.53,2.94-3.49,2.94-2.19,0-3.5-.87-3.5-2.94v-60.48c0-2.07,1.31-3,3.5-3,2,0,3.49.88,3.49,3.06v20a229,229,0,0,1,38.75,14,3.34,3.34,0,0,1,2.18,3.27,5.34,5.34,0,0,1-.32,1.75,3.54,3.54,0,0,1-3.17,2.29,3.17,3.17,0,0,1-1.64-.43,220.38,220.38,0,0,0-35.69-13.87l-.11,33.41Zm24.56-60.26a2.58,2.58,0,0,1,2.07.87,45.25,45.25,0,0,1,6.88,8.74,3.91,3.91,0,0,1,.55,2.07,2.38,2.38,0,0,1-2.62,2.18,2.14,2.14,0,0,1-2.08-1.31,52.76,52.76,0,0,0-6.22-8.51,3.14,3.14,0,0,1-.76-1.86A2.11,2.11,0,0,1,516.82,1213.89Zm8.73-5a3.12,3.12,0,0,1,2.19,1,45.75,45.75,0,0,1,6.55,8.52,4.45,4.45,0,0,1,.43,2,2.42,2.42,0,0,1-2.51,2.18,2.32,2.32,0,0,1-2.07-1.2,47.12,47.12,0,0,0-6-8.29,2.29,2.29,0,0,1-1-2.08A2.56,2.56,0,0,1,525.55,1208.87Z"/><path class="cls-17" d="M558.19,1249.26c0,2.07-1.42,3.16-3.6,3.16s-3.6-1.09-3.6-3.05V1215.2c0-2.07,1.53-3.17,3.6-3.17s3.6,1.1,3.6,3.06Zm32.2-34.06a3.07,3.07,0,0,1,3.39-3.27c2.18,0,3.71,1.09,3.71,3v25.33c0,11.68-3.06,19.86-9.72,25.65-6.22,5.35-15.61,9-24.34,9.93h-.54a3.56,3.56,0,0,1-3.61-2.73,2.34,2.34,0,0,1-.11-.87,3,3,0,0,1,2.84-3.06c8-1,15.94-4.14,21-8.51,5.13-4.58,7.42-11.24,7.42-21.4Z"/><path class="cls-18" d="M388.34,1223.82c1.64,0,2.62,1.2,2.62,3s-1,3.17-2.62,3.17l-15.72.11.55,44.1c0,2.07-1.31,3-3.39,3s-3.38-1.2-3.38-3l-.33-31.88c0-2.84.33-6,.44-8.51h-.33a47.14,47.14,0,0,1-7.75,12c-8,9.61-18.77,17.69-29.14,22a4.81,4.81,0,0,1-1.64.43,3.15,3.15,0,0,1-2.84-1.74,3.5,3.5,0,0,1-.33-1.53,3.23,3.23,0,0,1,1.86-2.95c13.64-5.79,27.94-18.23,35.69-31.66H328.74c-1.64,0-2.51-1.52-2.51-3.16s1-2.95,2.51-2.95l37.11-.11-.11-10.15c0-2,1.42-3,3.39-3s3.38,1,3.38,3l.11,10.15h15.72v-.22Z"/><path class="cls-18" d="M400.89,1248c-2,0-3.05-1.2-3.05-3.39s1.09-3.49,3.16-3.49h60.26c2.07,0,3.16,1.53,3.16,3.49s-1.09,3.39-3.05,3.39Z"/><path class="cls-18" d="M492.26,1274.15c0,2.07-1.53,2.94-3.49,2.94-2.19,0-3.5-.87-3.5-2.94v-60.48c0-2.07,1.31-3,3.5-3,2,0,3.49.88,3.49,3.06v20a229,229,0,0,1,38.75,14,3.34,3.34,0,0,1,2.18,3.27,5.34,5.34,0,0,1-.32,1.75,3.54,3.54,0,0,1-3.17,2.29,3.17,3.17,0,0,1-1.64-.43,220.38,220.38,0,0,0-35.69-13.87l-.11,33.41Zm24.56-60.26a2.58,2.58,0,0,1,2.07.87,45.25,45.25,0,0,1,6.88,8.74,3.91,3.91,0,0,1,.55,2.07,2.38,2.38,0,0,1-2.62,2.18,2.14,2.14,0,0,1-2.08-1.31,52.76,52.76,0,0,0-6.22-8.51,3.14,3.14,0,0,1-.76-1.86A2.11,2.11,0,0,1,516.82,1213.89Zm8.73-5a3.12,3.12,0,0,1,2.19,1,45.75,45.75,0,0,1,6.55,8.52,4.45,4.45,0,0,1,.43,2,2.42,2.42,0,0,1-2.51,2.18,2.32,2.32,0,0,1-2.07-1.2,47.12,47.12,0,0,0-6-8.29,2.29,2.29,0,0,1-1-2.08A2.56,2.56,0,0,1,525.55,1208.87Z"/><path class="cls-18" d="M558.19,1249.26c0,2.07-1.42,3.16-3.6,3.16s-3.6-1.09-3.6-3.05V1215.2c0-2.07,1.53-3.17,3.6-3.17s3.6,1.1,3.6,3.06Zm32.2-34.06a3.07,3.07,0,0,1,3.39-3.27c2.18,0,3.71,1.09,3.71,3v25.33c0,11.68-3.06,19.86-9.72,25.65-6.22,5.35-15.61,9-24.34,9.93h-.54a3.56,3.56,0,0,1-3.61-2.73,2.34,2.34,0,0,1-.11-.87,3,3,0,0,1,2.84-3.06c8-1,15.94-4.14,21-8.51,5.13-4.58,7.42-11.24,7.42-21.4Z"/></g></g></svg>