<svg xmlns="http://www.w3.org/2000/svg" viewBox="0 0 1859.88 534.25"><defs><style>.cls-1,.cls-2{fill:#e6db72;stroke:#e6db72;stroke-width:14px;}.cls-1,.cls-2,.cls-3{stroke-miterlimit:10;}.cls-2,.cls-3{isolation:isolate;font-size:231.35px;font-family:HiraMaruProN-W4-83pv-RKSJ-H, Hiragino Maru Gothic ProN;}.cls-3,.cls-4{fill:#eba94e;}.cls-3{stroke:#eba94e;stroke-width:9px;}.cls-5{fill:#fff;}</style></defs><title>资源 35</title><g id="图层_2" data-name="图层 2"><g id="图层_1-2" data-name="图层 1"><path class="cls-1" d="M12.83,269.23c-.26-143.56,115.46-258.79,260.06-259,141.82-.17,257.16,116.3,257.28,259.8.11,141.8-115.89,257-259.11,257.19C128.76,527.49,13.09,411.91,12.83,269.23ZM252.6,476c0-2.18-.12-4.37,0-6.55.69-10.63,9.1-18.44,19.39-18.08s18.11,8.4,18.32,19.18c.08,4.15.18,8.3.12,12.45-.05,3.69,1.69,5.18,5.27,4.79,2-.22,3.93-.25,5.87-.55q105.8-16.86,160.86-108.77c15.34-25.66,23.75-53.78,28-83.26.8-5.58-.9-8.32-6.9-7.88a85.26,85.26,0,0,1-10.48-.08c-10.86-.59-18.32-8.51-18.18-19.19s7.82-18.47,18.62-18.9c3.71-.15,7.43-.1,11.14,0,5,.13,6.39-2.08,5.66-7Q471.57,118.83,358.41,66.49c-18.73-8.67-38.65-13.72-59.13-16.38-8.07-1.06-8.81-.44-8.88,7.44,0,3.28.07,6.56-.11,9.83A18.66,18.66,0,0,1,271.82,85c-10.43.08-18.52-7.29-19.15-17.57-.21-3.48,0-7-.12-10.48-.15-7.32-.78-7.81-8.09-6.85-22.24,2.9-43.76,8.47-64,18.25C107.08,103.84,64.62,162.13,52.57,242.7c-.69,4.66,1.11,6.48,5.63,6.43a103.67,103.67,0,0,1,13.08.26c10.44,1.17,17.28,9.38,16.89,19.8-.36,9.85-8,17.46-18.16,18a78,78,0,0,1-10.48.07c-5.89-.51-7.84,1.84-7,7.66,6.07,43.17,22,82,50.44,115.37,36.16,42.52,81.7,68.17,136.9,76.57C252.26,488.75,252.27,488.7,252.6,476Z"/><path class="cls-1" d="M252.62,476c-.33,12.74-.33,12.79-12.75,10.9-55.2-8.4-100.73-34.05-136.9-76.56C74.54,376.87,58.6,338.08,52.53,294.91c-.82-5.82,1.13-8.16,7-7.66A78,78,0,0,0,70,287.18c10.17-.53,17.8-8.14,18.17-18,.38-10.41-6.46-18.63-16.89-19.8a103.86,103.86,0,0,0-13.09-.26c-4.52.06-6.32-1.77-5.63-6.43,12-80.57,54.51-138.86,127.91-174.35,20.22-9.78,41.74-15.35,64-18.25,7.31-1,7.94-.47,8.1,6.85.07,3.49-.1,7,.11,10.48.63,10.29,8.72,17.65,19.15,17.57a18.65,18.65,0,0,0,18.47-17.62c.18-3.26.08-6.55.11-9.82.08-7.89.81-8.5,8.88-7.45,20.48,2.66,40.4,7.71,59.13,16.38q113,52.33,131.89,175.67c.74,4.87-.69,7.08-5.66,7-3.71-.1-7.43-.15-11.14,0-10.8.43-18.49,8.28-18.62,18.9s7.32,18.61,18.18,19.19a83.32,83.32,0,0,0,10.48.08c6-.44,7.7,2.3,6.9,7.88-4.23,29.48-12.65,57.6-28,83.26q-54.95,91.9-160.86,108.77c-1.93.31-3.91.33-5.87.55-3.58.39-5.32-1.1-5.27-4.79.06-4.15,0-8.3-.12-12.45-.21-10.78-7.9-18.82-18.32-19.18s-18.7,7.46-19.39,18.09C252.5,471.58,252.62,473.77,252.62,476Zm18.2-168.53c10.49.45,19.35-6.9,21.84-17.13,1-4.2,3-8.75,5.88-11.83q53.77-56.92,108-113.44a30,30,0,0,0,4.11-5.06,13.74,13.74,0,0,0-1.89-16.91c-4.29-4.48-10.61-5.85-16.19-2.74a37.07,37.07,0,0,0-8.5,7q-53.46,55.86-106.77,111.86c-6.4,6.7-8.66,6.75-16,1.18q-27.66-21-55.43-41.87c-11.67-8.81-23.2-17.84-35.06-26.39-9.74-7-22.19-1.85-23.3,9.48-.68,6.9,3.42,11.22,8.61,15.11q44.29,33.21,88.31,66.79a22.67,22.67,0,0,1,6.52,9.24C254.42,301.31,261.68,307,270.82,307.42Z"/><path class="cls-1" d="M270.8,307.43c-9.14-.39-16.4-6.11-19.89-14.68a22.71,22.71,0,0,0-6.52-9.23q-44-33.66-88.31-66.79c-5.19-3.89-9.29-8.21-8.61-15.11,1.11-11.33,13.56-16.51,23.3-9.49,11.86,8.56,23.39,17.59,35.06,26.4q27.72,20.92,55.43,41.86c7.34,5.58,9.59,5.53,16-1.18Q330.63,203.27,384,147.35a37.33,37.33,0,0,1,8.5-7c5.58-3.1,11.9-1.73,16.19,2.75A13.75,13.75,0,0,1,410.61,160,30,30,0,0,1,406.5,165q-54,56.68-108,113.44c-2.91,3.08-4.86,7.62-5.88,11.83C290.15,300.52,281.29,307.88,270.8,307.43Z"/><text class="cls-2" transform="matrix(1, -0.01, 0.01, 1, 593.4, 371.31)">PC席予定表</text><text class="cls-3" transform="matrix(1, -0.01, 0.01, 1, 578.76, 365.03)">PC席予定表</text><path class="cls-4" d="M0,259C-.26,115.41,115.46.18,260.06,0,401.88-.17,517.22,116.3,517.34,259.8c.11,141.8-115.89,257-259.11,257.19C115.94,517.23.26,401.64,0,259ZM239.77,465.7c0-2.18-.12-4.37,0-6.55.69-10.63,9.1-18.44,19.39-18.08s18.11,8.39,18.32,19.18c.08,4.15.18,8.3.12,12.45-.05,3.69,1.69,5.18,5.28,4.78,2-.21,3.93-.24,5.86-.55q105.81-16.85,160.86-108.77c15.34-25.65,23.76-53.77,28-83.25.8-5.58-.9-8.33-6.9-7.88a83.33,83.33,0,0,1-10.48-.09c-10.86-.58-18.32-8.5-18.18-19.18s7.82-18.48,18.62-18.9c3.71-.15,7.43-.1,11.14,0,5,.13,6.4-2.09,5.66-6.95Q458.74,108.57,345.58,56.23c-18.73-8.68-38.64-13.72-59.13-16.39-8.07-1.05-8.8-.43-8.88,7.45,0,3.28.07,6.56-.11,9.83A18.64,18.64,0,0,1,259,74.73c-10.42.08-18.52-7.28-19.15-17.56-.21-3.49,0-7-.11-10.48-.16-7.33-.78-7.81-8.1-6.86-22.24,2.91-43.75,8.48-64,18.26C94.25,93.58,51.8,151.86,39.75,232.44c-.7,4.66,1.1,6.48,5.62,6.42a107.77,107.77,0,0,1,13.09.26c10.44,1.18,17.28,9.39,16.89,19.81-.37,9.85-8,17.46-18.17,18A76.38,76.38,0,0,1,46.7,277c-5.88-.5-7.84,1.85-7,7.67,6.07,43.17,22,82,50.44,115.37Q144.38,463.81,227,476.6C239.44,478.49,239.44,478.44,239.77,465.7Z"/><path class="cls-5" d="M239.79,465.69c-.32,12.74-.33,12.79-12.75,10.9-55.2-8.4-100.73-34-136.9-76.57-28.43-33.41-44.37-72.2-50.44-115.37-.82-5.82,1.14-8.17,7-7.66a78,78,0,0,0,10.48-.07c10.17-.54,17.8-8.15,18.17-18,.39-10.42-6.45-18.63-16.89-19.8a103.86,103.86,0,0,0-13.09-.26c-4.52.06-6.32-1.77-5.62-6.43,12-80.57,54.5-138.86,127.9-174.35,20.23-9.78,41.75-15.35,64-18.25,7.32-1,7.95-.47,8.1,6.85.07,3.49-.1,7,.11,10.48.63,10.28,8.73,17.65,19.15,17.57a18.65,18.65,0,0,0,18.47-17.62c.18-3.27.08-6.55.11-9.83.08-7.88.81-8.5,8.88-7.44,20.49,2.66,40.4,7.71,59.13,16.38q113,52.34,131.89,175.67c.74,4.87-.69,7.08-5.66,7-3.71-.09-7.43-.14-11.14,0-10.8.43-18.48,8.28-18.62,18.9s7.32,18.6,18.18,19.19a85.26,85.26,0,0,0,10.48.08c6-.44,7.7,2.3,6.9,7.88-4.23,29.48-12.65,57.6-28,83.26q-54.94,91.9-160.86,108.77c-1.93.3-3.91.33-5.86.55-3.59.39-5.33-1.1-5.28-4.79.06-4.15,0-8.3-.12-12.45-.21-10.78-7.9-18.82-18.32-19.18s-18.7,7.46-19.39,18.08C239.67,461.32,239.79,463.51,239.79,465.69ZM258,297.16c10.5.45,19.36-6.91,21.84-17.13,1-4.2,3-8.75,5.88-11.83q53.78-56.92,108-113.44a30,30,0,0,0,4.11-5.06,13.73,13.73,0,0,0-1.89-16.91c-4.28-4.48-10.6-5.85-16.19-2.75a37.33,37.33,0,0,0-8.5,7Q317.77,193,264.45,248.94c-6.4,6.71-8.66,6.76-16,1.18q-27.66-21-55.43-41.86c-11.67-8.81-23.2-17.84-35.06-26.4-9.74-7-22.19-1.84-23.3,9.49-.67,6.9,3.43,11.22,8.61,15.11q44.29,33.21,88.31,66.79a22.71,22.71,0,0,1,6.52,9.23C241.6,291.05,248.86,296.77,258,297.16Z"/><path class="cls-4" d="M258,297.17c-9.14-.4-16.4-6.11-19.89-14.68a22.71,22.71,0,0,0-6.52-9.23q-44-33.66-88.31-66.8c-5.18-3.88-9.29-8.21-8.61-15.1,1.11-11.34,13.56-16.51,23.3-9.49,11.86,8.56,23.39,17.58,35.06,26.4q27.72,20.92,55.43,41.86c7.34,5.58,9.6,5.53,16-1.18Q317.8,193,371.2,137.09a37.33,37.33,0,0,1,8.5-7c5.58-3.1,11.9-1.73,16.19,2.75a13.71,13.71,0,0,1,1.89,16.9,29.72,29.72,0,0,1-4.11,5.07q-54,56.68-108,113.43c-2.91,3.09-4.86,7.63-5.88,11.83C277.32,290.26,268.47,297.62,258,297.17Z"/></g></g></svg>