<svg xmlns="http://www.w3.org/2000/svg" viewBox="0 0 1260.13 1260.13"><defs><style>.cls-1{fill:#f6f6f6;}.cls-2,.cls-3{isolation:isolate;font-size:143.21px;font-family:HiraMaruProN-W4-83pv-RKSJ-H, Hiragino Maru Gothic ProN;}.cls-2,.cls-27{fill:#e69b49;}.cls-15,.cls-29,.cls-3,.cls-30,.cls-31,.cls-32,.cls-33,.cls-34,.cls-35,.cls-4,.cls-8{fill:none;}.cls-3,.cls-4{stroke:#e69b49;}.cls-3{stroke-miterlimit:10;stroke-width:3px;}.cls-12,.cls-14,.cls-15,.cls-17,.cls-31,.cls-32,.cls-33,.cls-34,.cls-35,.cls-4,.cls-9{stroke-linecap:round;stroke-linejoin:round;}.cls-4{stroke-width:6px;}.cls-5{fill:#eba94e;}.cls-6{fill:#988061;}.cls-7{fill:#9e9e9f;}.cls-12,.cls-15,.cls-17,.cls-18,.cls-8,.cls-9{stroke:#b76da1;}.cls-10,.cls-13,.cls-18,.cls-29,.cls-36,.cls-37,.cls-8{stroke-miterlimit:10;}.cls-10,.cls-12,.cls-13,.cls-14,.cls-15,.cls-17,.cls-18,.cls-29,.cls-31,.cls-32,.cls-33,.cls-34,.cls-35,.cls-8,.cls-9{stroke-width:7px;}.cls-28,.cls-9{fill:#cd98be;}.cls-10,.cls-13,.cls-21{fill:#fff;}.cls-10,.cls-14{stroke:#cd98be;}.cls-11,.cls-14{fill:#b76da1;}.cls-12{fill:#d1dae9;}.cls-13{stroke:#cd90bd;}.cls-16{fill:#aad5a8;}.cls-17{fill:#ddf0f5;}.cls-18{fill:#fae9b7;}.cls-19{fill:#a18877;}.cls-20{fill:#f5d5d0;}.cls-22{fill:#eee;}.cls-23{fill:#ad8046;}.cls-24{fill:#f3ccca;}.cls-25{fill:#e6db72;}.cls-26{fill:#7e6656;}.cls-29,.cls-30,.cls-31{stroke:#796956;}.cls-30{stroke-miterlimit:10;stroke-width:7px;}.cls-32{stroke:#c4843d;}.cls-33{stroke:#867155;}.cls-34{stroke:#888;}.cls-35{stroke:#9e9e9f;}.cls-36{fill:#eeeeef;stroke:#eeeeef;stroke-width:17px;}.cls-37{fill:#c67144;stroke:#c67144;stroke-width:0.5px;}</style></defs><title>资源 9</title><g id="图层_2" data-name="图层 2"><g id="图层_1-2" data-name="图层 1"><path class="cls-1" d="M1202.36,399.16l45.1-80.3a98.59,98.59,0,0,0-37.7-134.3L903.56,12.66a98.59,98.59,0,0,0-134.3,37.7l-45.1,80.3A98.59,98.59,0,0,0,761.86,265l82.3,46.2,2,161.3,138.7-82.2,83.2,46.7A98.74,98.74,0,0,0,1202.36,399.16Z"/><text class="cls-2" transform="translate(777.7 170.33) rotate(29.31)">予約可</text><text class="cls-3" transform="translate(777.7 170.33) rotate(29.31)">予約可</text><line class="cls-4" x1="725.36" y1="188.06" x2="1131.86" y2="413.36"/><path class="cls-5" d="M102.26,550.86a239.76,239.76,0,0,1,26.7,28.4,350.56,350.56,0,0,1,31.4,46.3c53.3,92.4,130.9,141.5,115.7,175.5s-55.5-4-157.7-63.9c-39-22.9-67-52.1-86-81.3a228.66,228.66,0,0,1-17.9-33.5c-15.6-36.3-17.7-69-10.5-85.3,10.9-24.2,51.6-27.9,98.3,13.8"/><path class="cls-6" d="M14.46,622.26C-1.14,586-3.24,553.26,4,537c10.8-24.2,51.5-27.8,98.2,13.8"/><polygon class="cls-6" points="214.46 701.56 188.26 779.06 155.96 759.06 192.06 674.46 214.46 701.56"/><path class="cls-6" d="M168.56,639.16s12.2,17.6,14.2,20.2l-61.6,79.3s-24.3-15-25.7-15.9Z"/><path class="cls-6" d="M131.56,582.46s16.1,22,21.7,31.1l-87.1,83.5s-26.3-27.2-30.6-36.7Z"/><ellipse class="cls-7" cx="509.86" cy="952.96" rx="88.7" ry="27.3"/><path class="cls-8" d="M642.86,714.56a30.14,30.14,0,0,1,.1,4.2c-.3,4.1-4.1,14.8-.8,17.6,6.2,5.3,17.2,3.8,24.7,4.3,9.3.6,18.6,1.3,27.9,1.5q24,.6,48,.3c5.9-.1,13,1.6,18-2.5,4-3.3,5.5-8.6,5.8-13.5.4-5.5.4-15-4.4-19-2.2-1.8-6.4-2.4-9.7-2.4-18.7-.1-37.3-.1-56-.1h-28.3c-6.9,0-16.8-2.6-23.1,1.3C642.56,707.76,642.66,711.26,642.86,714.56Z"/><path class="cls-9" d="M837.66,640.66V652a7.92,7.92,0,0,1-7.9,7.9h-16.9a8.25,8.25,0,0,1-8.1-6.4c-1-4-1.9-8-2.9-12.1a7.48,7.48,0,0,1,7.5-9.2c6.9.3,13.9.6,21.1,1A7.56,7.56,0,0,1,837.66,640.66Zm-17.3,225.9-7.2-16.2c-1.2-2.6,1.3-5.3,5.3-5.9,5.5-.7,11.2-1.5,16.8-2.2,5.4-.6,10.4-.7,10.4,4.6,0,2.4,1.4,4.7,1.9,7.1,2,10.6-4.7,16.6-17.8,17C825.36,871.16,821.56,869.26,820.36,866.56ZM739,641.26c3-.1,6-.3,9-.4,5-.3,10.9.5,13.2,5.5a5.86,5.86,0,0,1-5.2,8.2c-29.3.9-58.6.4-88.1-1.1a5.85,5.85,0,0,1,.3-11.7C691.76,641.76,715.36,642.26,739,641.26ZM663.06,815c22.5,0,44.4-.3,66.4.1,14.5.2,28.9,1.3,43.3,2.2,7.8.5,10.9,5.6,10.2,16-.5,7.8-6,6.7-11.2,6.2-34.8-2.9-69.6-5.7-104.5-8.6C665.86,825.16,664.46,820.06,663.06,815Zm-1.6,42.4h118.4c-2.1,10.4-2.8,19.2-6,27-1.4,3.3-8.1,6.2-12.4,6.2-24.4-.3-48.8-1.5-73.3-2.4-7.5-.3-14.9-.8-21.6-1.2C664.66,876.46,663,866.56,661.46,857.36Zm256.1,56.9c1.4-4.6.8-10.2.6-15.2-.4-8.4-.8-16.8-2-25.1-.7-4.6-5.1-8.7-8.1-13a10.93,10.93,0,0,1-.8-1.5c-2.8-8.7-4.4-18.5-5.9-28.3-.2-1.6-.3-3.6.4-4.9,9.3-15.4,3.8-30.8-10.8-34.4a5.63,5.63,0,0,1-4-6.7c1.6-8.2,3.4-16.4,4.4-24.7,1.8-16.4.6-17.5-15.1-18-.5,0-.9-.7-1-.8.9-8.3,2.4-16.4,2.3-24.4-.1-6.3-1.1-12.5-2-19.1a5.65,5.65,0,0,1,5.7-6.4,10.06,10.06,0,0,0,5.4-1.1c2.9-1.7,5.2-6.1,5.7-9.7,1.5-10-2.5-16.9-10.7-21.3a5.53,5.53,0,0,1-2.8-3.7c-1.5-7.7-2.6-14.9-4.4-21.9-4.6-18.7-31.3-7.7-44.2-8-2.7-.1-5.5-.3-8.2-.4-11.2-.8-21.5-1.5-32.6-.4-11.6,1.2-23.3,2.4-35.1,1.7-20.9-1.1-42-1.2-62.9-2-10.6-.4-21.3-.8-31.9-1.4-5.8-.3-14.7-1.7-16.7,5.6-1.3,4.7.3,9.9.4,14.6.2,8.4.3,16.9.4,25.3v.9l6,2.4a5.65,5.65,0,0,1,.5,10.2l-3.8,2a5.5,5.5,0,0,0-3,4.7v.7a5.66,5.66,0,0,0,5.6,5.9h118.2a5.67,5.67,0,0,1,5.4,3.9c2.7,8.6,1.6,18.2.3,27.8-1.1,7.7-.7,18.1-5.4,22s-14.9,1.3-22.6,1.1c-20.7-.7-41.5-1.5-62.2-2.3l-30.6-1.2c-9.3-.4-11.4,2.1-14,10.6a5.72,5.72,0,0,0,4.5,7.3l8,1.2a5.59,5.59,0,0,1,4.7,5.9c-.2,3.3-.5,6.5-1,9.7-.9,5.4-4,7.4-9.9,8a21.89,21.89,0,0,0-7.4,2.6c-.1,5.6-.2,6.9-.3,12.5a77.83,77.83,0,0,1,9,5.9c3.8,3.2,6.6,6.1,8.5,9.7a5.61,5.61,0,0,1-4,8.2c-5.4.9-9.8,3.2-10.4,10.4-.5,5.8,1.4,10.2,6,13.5a5.59,5.59,0,0,1-1.2,9.6c-4,1.7-8,3.5-12.1,5.2-.9.4-2.5,7.8-2.8,9.1-.7,3.7-.3,7.7-.4,11.5-.1,12.7-1.4,27.3,2.2,39.5,3.1,10.7,8.1,20.6,11.7,31,1.6,4.6,6.1,5,10.6,4.8,12.7-.4,26.3,1.4,39.1,2.4,38.9,1.9,77.3,3.3,115.1-11.1,22.4-8.6,45.3-15.5,68.2-22.4,11.2-3.3,24.4-5.5,35-10.5A11.84,11.84,0,0,0,917.56,914.26Z"/><path class="cls-10" d="M816.66,683l5.5-12.1a9.61,9.61,0,0,1,8.7-5.7c15.3-.1,31.8-.3,48.2.2,8.6.2,7,8.1,7.9,13.7s-1.6,7.3-7.1,7.4c-18.4.4-36.7,1.3-55.1,1.9-4.1.2-8.2.3-7.9-5.7Z"/><path class="cls-10" d="M816.86,682.66c-4.2,7.8-10.2,6.6-16.2,5.9a8.3,8.3,0,0,1-7.3-7.5l-.5-5.9a8.23,8.23,0,0,1,8.2-8.9h7.4a8.24,8.24,0,0,1,8.2,8.2V683Z"/><path class="cls-10" d="M773.06,682.56l-1.4-9.1a6.16,6.16,0,0,1,6.1-7.1h4.3a6.13,6.13,0,0,1,6.1,5.1c.5,2.9,1,5.9,1.6,9a6.17,6.17,0,0,1-6.1,7.3h-4.5A6.22,6.22,0,0,1,773.06,682.56Z"/><path class="cls-11" d="M702.46,721.76h-46v-1h45.9A3.4,3.4,0,0,0,702.46,721.76Z"/><path class="cls-11" d="M760.56,722.26h-46v-1h45.9A3.4,3.4,0,0,1,760.56,722.26Z"/><path class="cls-11" d="M760.56,726.06h-46v-1h45.9A3.75,3.75,0,0,1,760.56,726.06Z"/><path class="cls-11" d="M706.56,726.66h-46v-1h45.9A3.08,3.08,0,0,1,706.56,726.66Z"/><path class="cls-11" d="M706.56,732.26h-46v-1h45.9A3.08,3.08,0,0,1,706.56,732.26Z"/><path class="cls-11" d="M760.56,731.76h-46v-1h45.9A3.08,3.08,0,0,1,760.56,731.76Z"/><path class="cls-12" d="M901.26,824.06c5-.9,7.9-3.3,6.8-11.9-1-7.6-7.4-14.1-13.1-18.6-7.3-5.8-10.5-4.8-19.3-2.3-18.6,5.3-37.1,10.5-55.7,15.8a138.61,138.61,0,0,1-18,4.3c-8.5,1.3-17.2,1.3-25.8,1.2l-65.9-.6c-20.7-.2-41.4-5-62.2-3.1-.1,7.8,4.2,8.9,7.7,15.5a5.61,5.61,0,0,1-4,8.2c-5.4.9-9.8,3.2-10.4,10.4-1.1,12.3,6.8,12.2,16.3,12.8,12.3.8,24.6,1.2,36.9,1.5,24.6.4,49.3-.3,73.8-2.1,5.6-.4,11.3-.9,16.6-2.6a119.9,119.9,0,0,0,11.1-4.8c8.4-3.7,17.3-6,26.2-8.3,22.9-5.9,45.9-11.9,69.5-14.5C895.46,824.66,898.66,824.46,901.26,824.06Z"/><path class="cls-13" d="M660.66,821.06c21.8,0,43-.3,64.2.1,14,.2,28,1.3,41.9,2.2,7.6.5,10.6,5.6,9.9,16-.5,7.8-5.8,6.7-10.8,6.2-33.7-2.9-67.3-5.7-101.1-8.6C663.26,831.26,662,826.16,660.66,821.06Z"/><path class="cls-14" d="M782.06,749.16a6.39,6.39,0,0,1-1.3-1.5c-1.6-2.3-.6-5.9-.6-8.6.2-4.9.2-9.8.5-14.8l.6-14.1c.2-3.7-.8-9.3,1.4-12.5,1.9-2.7,5.5-2.1,8.4-2.1h61.5c6.9,0,16.4-1.1,20.4,5.9,2.6,4.6,1.1,12.1,1.1,17.2,0,6.6-.1,13.1-.3,19.7-.1,2.3-3.4,6.2-5.5,6.4-4.1.4-8.2.7-12.2,1.1-13.5,1.2-27.1,2.2-40.6,3.3l-20,1.5C790.86,751.16,785.56,752.36,782.06,749.16Z"/><path class="cls-11" d="M755,687.66c-7.4.2-14.9.2-22.3,0-14-.3-28-.7-42-1-7.2-.2-14.4-.5-21.7-.6-2.5,0-12,3.3-12.1-1.6a2.61,2.61,0,0,1,.7-1.7c1.3-1.4,3.6-1.3,5.5-1.2,13.5,1.2,27.5.1,41.1.1,14-.1,28-.1,41.9-.2,4.7,0,10.2.6,10.2-7.8,0-8.6-5-9.5-10.9-9.4-14.8.3-29.6.7-44.4.9-7.4.1-14.8.3-22.2.4-5.7.1-13.9,1.9-19-1.3a1.39,1.39,0,0,1-.7-.8c-.4-1.7,11.6-1,13.1-1h17.6c20,0,40.1-.2,60.1,0,2.8,0,7.6,1.6,8.1,3.6,1.5,6.3,1.5,13.2,1.7,19.8C760,686.56,756.66,687.66,755,687.66Z"/><path class="cls-15" d="M762.46,751.66a498.41,498.41,0,0,0,113.7-8.3"/><path class="cls-15" d="M770.16,696.56c34.8-2.1,69.8-2.6,104.7-1.5"/><path class="cls-15" d="M759,655.16c6.4,2.5,9.1,9.9,10.4,16.6a93.58,93.58,0,0,1,1.3,25.9"/><path class="cls-15" d="M763.66,656.56c38.9,4.6,78.3,9.2,117.1,3.5"/><path class="cls-16" d="M647.16,750.56a10.49,10.49,0,0,0-4.1,2c-3,2.6-4.8,8.6-2.8,12.2,2.2,3.8,7.3,2.8,10.7,4.7,4.7,2.7,4.3,9.3,3.3,14.4-4.5,1.7-9.1,3.5-12.2,6.9s-4.5,8.9-1.7,12.6c4.8,6.3,18.4,5,25.5,5.5,24.2,1.9,48.4,2.5,72.7,2.8l27,.3c7.7.1,14.4.8,22.1-.1,4.4-.5,8.7-1,13-1.8,5.2-1,10.3-2.3,15.3-3.7,20.4-5.6,40.8-10.6,61.2-16,7.9-2.1,9.8-3.7,10.9-11.5,1.1-8.5.3-17.1.1-25.7a11.39,11.39,0,0,0-.9-4.8c-2.9-5.5-12.3-1.8-16.8-.8-56.9,12.8-113.9,7.2-171.4,4.3-10.5-.5-20.9-.9-31.4-1.1C662.46,750.66,653.36,749,647.16,750.56Z"/><path class="cls-17" d="M657.76,793.76c1.6-8.8,2.8-15.8,4.2-23.7,1.6-.1,4.1-.4,6.6-.4q40.2-.3,80.4-.7c14.3-.1,14.3-.1,19.1,13.1,5.9,16.4,5.3,17.8-12,17C723.26,797.76,690.46,795.56,657.76,793.76Z"/><path class="cls-18" d="M916.16,910.76c1.4-4.6.8-10.2.6-15.2-.4-8.4-.8-16.8-2-25.1-.6-4-4.2-10.9-7.9-12.9-4.7-2.6-12.7.5-17.8,1.8-14.1,3.7-27.5,9.8-41.2,14.8-18.5,6.9-37.6,9-56.6,13.7-8.4,2-16.7,4.1-25.3,5-9.7,1-19.5.6-29.2.2l-80-3.6c-5-.2-10.2-.4-14.8,1.7-5.7,2.7-9.3,8.6-10.8,14.8-4.2,18.3,4.6,32.7,10.3,49.4,1.6,4.6,6.1,5,10.6,4.8,12.7-.4,26.3,1.4,39.1,2.4,38.9,1.9,77.3,3.3,115.1-11.1,22.4-8.6,45.3-15.5,68.2-22.4,11.2-3.3,24.4-5.5,35-10.5A12.14,12.14,0,0,0,916.16,910.76Z"/><path class="cls-18" d="M904.46,901.46c-.4,2.7-4.4,6-7.4,7.1-27.8,9.5-55.7,18.7-83.7,27.8-2.4.8-4.9,1.6-7.3,2.3-11.2,3.5-22.2-5.7-20.2-16.9.8-4.3,1.5-8.5,2.3-12.8a15.37,15.37,0,0,1,10.9-11.9c27.9-8,57-16.3,86.6-24.8,9.9-2.8,20.1,4.2,20.2,14.2A96.24,96.24,0,0,1,904.46,901.46Z"/><path class="cls-11" d="M765.56,949c-.7-7.8.4-15.7,0-23.5-.2-3.4-.5-9.2-4.1-10.7-14.9-6.3-33.6-3.5-49.4-3.8-19.2-.2-38.4-.5-57.6-.6-5.5,0-10.1-.5-9.5-7.3,21.1,1,42.3,1.9,63.4,2.8,20.4,1,41.3.1,61.6,2.7a2.34,2.34,0,0,1,1.8.8,2.54,2.54,0,0,1,.2,1.2c-.1,7.9.3,15.9-.5,23.8-.4,3.9-1.8,7.7-2.1,11.5-.3,3.4,1,4.7-3.5,4.5A2.54,2.54,0,0,1,765.56,949Z"/><path class="cls-8" d="M649.36,953.36c.8-13.4,1.5-25.7,2.3-39.3,5.5.3,13.1.9,20.7,1,25.4.4,50.7.6,76.1.8,10.5.1,12.1,1.6,12,12.2,0,8-.5,16.1-.8,24.1l-92.8,1.2Z"/><path class="cls-19" d="M447.26,910.56c-6,14.7,13.7,24.7,46.9,38.3s54.3,20.1,60.3,5.4-7-33.8-40.2-47.4S453.26,895.86,447.26,910.56Z"/><path class="cls-19" d="M269.86,890.26c5.8,14.7-14,24.6-47.4,37.7s-54.5,19.5-60.3,4.7,7.4-33.8,40.7-46.9S264,875.46,269.86,890.26Z"/><path class="cls-5" d="M597.86,698.66c-.2-67.6-13.1-135.2-70.5-176.4-49-35.2-137.1-40.4-187.8-5.6-34,23.3-50,44.4-69.2,80.6-40.2,76-52.5,152.1-55,237.2-.4,15.3.3,32.6,11.9,42.6,27.2,23.6,55.2-6.2,77.2-19.9,47.6-29.6,100.1-24,142.7,11.9,8,6.7,16,13.5,24,20.2,24.3,20.4,53.4,42.5,77.6,7.7,21.8-31.2,41.4-70.3,44.5-109C595.36,759.86,598,729.26,597.86,698.66Z"/><path class="cls-20" d="M495.56,644.16c-14.4-14.3-48.3-3.6-77.4,23.6-14.1-36.4-39.3-60.1-58.3-53.8-20.2,6.7-25.7,44.9-12.3,85.4s40.7,67.8,60.9,61.1c.5-.2.9-.3,1.4-.5,17.3-2,39.5-14.2,58.9-33.8C498.76,695.86,510.66,659.16,495.56,644.16Z"/><path class="cls-6" d="M509.66,218.76l128.1,98s52.4,53.9,65.6,10.5a27.84,27.84,0,0,0,1.1-5l15.3-106.5c.2-1.7.3-3.4.5-5,6.8-62.6-21.6-86.9-51.8-82.4l-129.3,49.9C508.46,182.76,485,199.86,509.66,218.76Z"/><path class="cls-6" d="M484.76,225.16l-146.2,68s-62.8,41.3-66.4-3.9a43.39,43.39,0,0,1,0-5.1l8.1-107.3c.1-1.7.4-3.4.6-5,6.9-62.6,39.9-80.2,68.4-69.2l115.4,76.6C493.66,190.36,513,212.06,484.76,225.16Z"/><path class="cls-21" d="M549.66,228.56l86.3,66s35.3,36.3,44.2,7.1a18.63,18.63,0,0,0,.7-3.4l10.3-71.8c.2-1.1.2-2.3.3-3.4,4.6-42.2-14.5-58.5-34.9-55.5l-87.1,33.6C548.86,204.26,533,215.76,549.66,228.56Z"/><path class="cls-21" d="M451.76,217.86l-98.5,45.8s-42.3,27.9-44.7-2.6a20.45,20.45,0,0,1,0-3.5l5.5-72.3c.1-1.1.3-2.3.4-3.4,4.6-42.2,26.9-54,46.1-46.6l77.8,51.6C457.76,194.36,470.76,209,451.76,217.86Z"/><path class="cls-5" d="M695.66,369.56c.1-.7.2-1.3.3-2,10.6-97.2-77.7-186.6-197.2-199.7S273.66,223,263,320.16c-.4,3.7-.6,7.5-.7,11.2-20.5,19.8-33.5,43.4-36.4,69.7-9.5,86.6,94.2,169,231.6,184s256.5-43,265.9-129.6C726.66,425.46,716.36,396,695.66,369.56Z"/><path class="cls-22" d="M627.56,287.76a67.86,67.86,0,0,0-133.4-23.4c-1.9-.3-3.7-.6-5.6-.8a99.21,99.21,0,0,0-13.3-.5,67.85,67.85,0,1,0-83.8,66.5,90.2,90.2,0,0,0-2.7,14.1c-3.3,29.9,14.3,49.8,42,58.4,38.5,12,86.1,17,121.2-6.8,10.4-7,15.5-19.9,16.8-32a82.7,82.7,0,0,0,.3-15.7A67.77,67.77,0,0,0,627.56,287.76Z"/><ellipse class="cls-21" cx="453.28" cy="184.47" rx="9.6" ry="22.8" transform="translate(220.6 614.99) rotate(-83.75)"/><ellipse class="cls-21" cx="538.93" cy="193.81" rx="9.6" ry="22.8" transform="translate(287.63 708.46) rotate(-83.75)"/><path class="cls-23" d="M453.06,336.06a46.13,46.13,0,0,0,10.9,17.6,57,57,0,0,0,8.1,6.6,46.5,46.5,0,0,0,9.3,4.4c3.3,1.3,6.7,1.6,10.2,2.1a38.46,38.46,0,0,0,8.3-.3,32.89,32.89,0,0,0,8.1-1.9,40.57,40.57,0,0,0,9.1-4.5,38.32,38.32,0,0,0,8-7,45.1,45.1,0,0,0,4.4-6.1,43.39,43.39,0,0,0,3-7,13.87,13.87,0,0,0,.3-7,12.83,12.83,0,0,0-2.1-6.5c-2.1-3.6-6.3-7.1-10.5-8-4.5-1-9.5-.8-13.5,1.8-1.2.9-2.4,1.8-3.5,2.7a17.27,17.27,0,0,0-4.5,7.7,4.18,4.18,0,0,1-.4,1l1.8-4.2a25.09,25.09,0,0,1-2.6,4.5c.9-1.2,1.8-2.4,2.7-3.5a28.74,28.74,0,0,1-3.9,3.9c1.2-.9,2.4-1.8,3.5-2.7a26.24,26.24,0,0,1-5.1,3l4.2-1.8a26.38,26.38,0,0,1-6.1,1.7l4.7-.6a19.45,19.45,0,0,1-5.9,0l4.7.6a25.85,25.85,0,0,1-6.2-1.7l4.2,1.8a31.23,31.23,0,0,1-5.9-3.4c1.2.9,2.4,1.8,3.5,2.7a34.47,34.47,0,0,1-5.4-5.4c.9,1.2,1.8,2.4,2.7,3.5a27,27,0,0,1-3.8-6.6l1.8,4.2a4.88,4.88,0,0,1-.3-.7,19.19,19.19,0,0,0-8-10.5,12.83,12.83,0,0,0-6.5-2.1,13.87,13.87,0,0,0-7,.3c-4.2,1.4-8.3,4-10.5,8l-1.8,4.2a17.93,17.93,0,0,0,0,9.2Z"/><path class="cls-6" d="M366.76,281.36a128.56,128.56,0,0,0-8.2,11.2c-16.8,25.5-49.1,14.7-58.7-3-6.2-11.3.4-28.6,6.6-38.4,13.3-20.9,36.5-31.5,59.9-36.5a228.44,228.44,0,0,1,36-4.4c8.6-.4,21-1.2,28.8,3,4.6,2.5,6.6,6.7,5.7,11.9-2.4,13.6-28.8,21.3-38.9,28A137.33,137.33,0,0,0,366.76,281.36Z"/><path class="cls-6" d="M603.66,308.66c7.2,11.1,11.4,25,24.5,30.4,13.5,5.5,31.1,2,40.8-9.1,8.5-9.7,5.8-28,1.8-38.9-6.5-17.8-20-31.6-36.1-41.1-16.4-9.7-33.2-15.1-51.9-21-12.5-3.9-28.9-9.7-38.1,1.2-4.5,5.3-4.4,12.6-2.6,18.9,2.3,8.1,7.5,13.3,14.4,17.8,3.8,2.5,7.7,4.7,11.5,7.1a126,126,0,0,1,34.3,32.8A13.3,13.3,0,0,1,603.66,308.66Z"/><path class="cls-23" d="M375,351.56a203.2,203.2,0,0,0-.6,38.2c4.3-5.6,8.6-11.2,12.8-16.9a1.7,1.7,0,0,1-.7.1l4.7-.6h-1.1l4.7.6a5.49,5.49,0,0,1-1.7-.5l4.2,1.8-1.5-.9c1.2.9,2.4,1.8,3.5,2.7a8,8,0,0,1-1.3-1.3c.9,1.2,1.8,2.4,2.7,3.5a6,6,0,0,1-.9-1.5l1.8,4.2a5.92,5.92,0,0,1-.5-1.9c.2,1.6.4,3.1.6,4.7a13.09,13.09,0,0,1,0-2.8c-.2,1.6-.4,3.1-.6,4.7a34.37,34.37,0,0,1,1.5-5.5,13.87,13.87,0,0,0,.3-7,12.83,12.83,0,0,0-2.1-6.5c-2.1-3.6-6.3-7.1-10.5-8-4.5-1-9.5-.8-13.5,1.8-1.2.9-2.4,1.8-3.5,2.7a17.27,17.27,0,0,0-4.5,7.7c-2.8,7.9-3.2,16.7,1.1,24.2a24.44,24.44,0,0,0,9.4,9.2,32.59,32.59,0,0,0,4.8,2,7,7,0,0,0,1.4.3,31.88,31.88,0,0,0,5.4.6,28,28,0,0,0,5.7-.8l4.2-1.8a13.26,13.26,0,0,0,4.9-4.5,9.63,9.63,0,0,0,2.3-3.9,12.94,12.94,0,0,0,1.5-6.7,221.59,221.59,0,0,1,.6-38.2,12.72,12.72,0,0,0-1.5-6.7A12.89,12.89,0,0,0,405,339a13.5,13.5,0,0,0-5.6-3.6,12.94,12.94,0,0,0-6.7-1.5c-4.5.2-9.2,1.7-12.4,5.1-.9,1.2-1.8,2.4-2.7,3.5a16.8,16.8,0,0,0-2.6,9.1Z"/><path class="cls-23" d="M376.46,343.16a77.23,77.23,0,0,0-5.7,9.1,97.73,97.73,0,0,0-5.7,13.8,80.11,80.11,0,0,0-2.8,14.6,55.79,55.79,0,0,0-.4,10.8,18.46,18.46,0,0,0,5.1,12.4,13.5,13.5,0,0,0,5.6,3.6,12.94,12.94,0,0,0,6.7,1.5c4.5-.2,9.2-1.7,12.4-5.1s5.3-7.7,5.1-12.4a57.93,57.93,0,0,1,.5-11c-.2,1.6-.4,3.1-.6,4.7a64.73,64.73,0,0,1,4.2-15.5l-1.8,4.2a69.33,69.33,0,0,1,7.4-13,12.83,12.83,0,0,0,2.1-6.5,13.87,13.87,0,0,0-.3-7,18,18,0,0,0-8-10.5c-4.1-2.1-9-3.2-13.5-1.8l-4.2,1.8a18.39,18.39,0,0,0-6.1,6.3Z"/><path class="cls-24" d="M624.76,409.56a141.39,141.39,0,0,0-18.6,3.1c-11.5-49.2-50.9-87.2-113.6-95.9-69.7-9.7-120.1,10.3-143.8,75.2a137.19,137.19,0,0,0-17.6-7.1c-18.5-6.2-45-5.8-41.7,21.6,1.6,13.3,10.5,21,29.9,28-1.6,3.8-3.2,7.7-4.6,11.8-18.6,55,55.6,112.9,142.5,125s176.9-23.1,172.4-81.1a117.43,117.43,0,0,0-6.1-29.4c21.8-2.5,32.5-8,37.1-21.1C670,413.66,644.16,407.56,624.76,409.56Z"/><path class="cls-25" d="M618.86,341.36c-13.8-20.7-57.7-55-86.5-60.4-8.8-1.6-18-2.4-26.4-.4-4.9,1.1-20.4,3-25.1,6.6a46.05,46.05,0,0,0-13.7-10.9c-7.8-3.7-17-5-25.9-5.3-29.2-1-79.5,23.1-97.5,40.3-18.4,17.7-31.3,39.7-30.2,63.4.1,2.5.4,5.1,2,7.3,1.9,2.8,5.5,4.5,9,6,32,14,86.1,31.3,121,26.7,5.3-.7,8-6.3,5-10.6-4.4-6.2-9-12.2-8.6-19,.3-4.7,2.9-10.7,7.4-12.8,7.8-3.6,15.7-2.9,21.7,3.6a8.12,8.12,0,0,0,4.5,2.5,8.58,8.58,0,0,0,4.9-1.5c7.2-5,15.1-4.1,22,1.2,4,3,5.2,9.4,4.5,14.1-1,6.7-6.9,11.6-12.5,16.7a6.73,6.73,0,0,0,2.6,11.4c33.2,12,89.6,6.8,124,.1,3.7-.7,7.6-1.7,10.1-4,2-1.8,2.8-4.3,3.5-6.7C640.86,387,633,362.66,618.86,341.36Z"/><ellipse class="cls-19" cx="491.1" cy="262.56" rx="13" ry="25.1" transform="translate(176.67 722.18) rotate(-83.75)"/><circle class="cls-26" cx="428.28" cy="227.47" r="21.4" transform="translate(77.05 561.83) rotate(-71.56)"/><circle class="cls-26" cx="546.96" cy="240.46" r="21.4"/><path class="cls-27" d="M613.56,557.56a.9.9,0,0,0-.5.1c-16.4,1.8-69.6,12.2-49.2,40.1,9.2,12.6,5.9,31.6,14.7,43.6,10.1,13.6,29.6,5.8,45.2,3.6,37.9-5.4,78.7-11.5,114.8-24.6,18.8-6.8,51-24.6,51-47.8,0-15.8-18.2-28.5-29.9-36.4-16.5-11.1-37.8-18.3-56.5-24.5-14.3-4.8-24.1-2.3-37.6,4-7.3,3.4-21.7,10.3-16.4,20.6,2.7,5.4,8.7,8.1,14.2,10.5,13.9,6,25.9,9.1,39.8,15.2C677.06,550.46,641.56,554.46,613.56,557.56Z"/><path class="cls-27" d="M271.36,603.56c11.2,2,29.4,4.9,39.6-1,20-11.5-1.3-26.3-3.3-39-1.3-8.6,7.2-15,7.9-23.2.5-5.8-2.8-14.2-5.8-19.1-7.2-11.8-19.1-15.3-32.4-14.9-130,4.3-247,37.8-75.3,119.1,59.9,1.2,31.6-23.5-10.9-46.7C213.46,594.26,245.86,599.46,271.36,603.56Z"/><path class="cls-19" d="M703.36,511.56c-7.9-2.2-13-10.8-16.7-19.1-1.5-3.5-2.6-7.1-3.8-10.7-1.4-4.2-2.6-11.6-7-13.5a5.72,5.72,0,0,0-6.5,1.5c-3,3.5,0,9.3,1.1,13-3.5-1.9-5.3-6.4-7.8-9.6s-8.2-6.5-11.5-2.5c-5,5.9,4.3,11.6,2.6,17.1-1.6,5.3-7.6-2.3-10.2-3.1-9.3-2.8-11.6,6.9-6.9,13.7,1.9,2.8,4.3,5.4,5.4,8.7-3.3-1.2-6.8-2.4-10.2-1.8s-6.9,3.3-7.2,7c-.3,3.2,1.5,6.1,3.6,8.4a26.17,26.17,0,0,0,12.3,7.4c-7.3-.4-13.5,7.3-7,13.9,3.3,3.3,8.3,3.8,12.8,3.3,3.1-.4,6.4-3.5,9.3-2.2s5.2.8,8.9,5.3c2.6,3.1,8.2,2.1,10,3.1"/><ellipse class="cls-28" cx="468.8" cy="472.1" rx="10.3" ry="22.1" transform="translate(-51.5 886.76) rotate(-83.75)"/><ellipse class="cls-6" cx="406.82" cy="453.22" rx="26.2" ry="20.6" transform="translate(-110.2 775.08) rotate(-79.99)"/><ellipse class="cls-6" cx="533.92" cy="467.77" rx="26.2" ry="20.6" transform="translate(-19.53 912.26) rotate(-79.99)"/><path class="cls-6" d="M437,507.26c13.1,8.1,28.3,14.2,44,12.8,2.6-.2,5.1-2.1,5-5-.1-2.5-2.2-5.3-5-5a52.4,52.4,0,0,1-5.6.2c-.9,0-1.9-.1-2.8-.1-.5,0-.9-.1-1.4-.1-.2,0-1.6-.2-.5,0a61.55,61.55,0,0,1-10.5-2.4c-1.7-.5-3.3-1.2-4.9-1.8-1.4-.6.9.4-.5-.2l-1.2-.6-2.4-1.2c-3.1-1.6-6.2-3.3-9.2-5.2a4.93,4.93,0,0,0-6.8,1.8,5,5,0,0,0,1.8,6.8Z"/><path class="cls-6" d="M435.26,490.86c0,1.5,0,3.1-.1,4.6,0,.3-.1.7-.1,1-.1,1.2.1-.8,0,.3-.1.8-.3,1.6-.4,2.4-.3,1.4-.7,2.8-1.1,4.2a19.45,19.45,0,0,1-.8,2.2c-.3.9.2-.5,0,.1-.2.4-.3.7-.5,1.1-.6,1.3-1.3,2.5-2,3.7-.4.6-.7,1.1-1.1,1.7a5.5,5.5,0,0,1-.7.9c.8-1,0,0-.1.1a23.67,23.67,0,0,1-2.7,2.8c-.3.2-.5.5-.8.7-.1.1-.3.2-.4.3q-.45.3.3-.3c-.2.4-1.3.9-1.7,1.1-2.2,1.4-3.3,4.5-1.8,6.8s4.5,3.3,6.8,1.8c11.7-7.3,17.6-22,17.2-35.5a5.08,5.08,0,0,0-5-5c-2.7.2-5.1,2.2-5,5Z"/><path class="cls-29" d="M446.76,459.06c1.5-13.5,11.6-19.9,29.2-17.7,7.2.9,18.2,9.2,16.7,22.7"/><ellipse class="cls-30" cx="402.15" cy="452.66" rx="38.9" ry="45.1" transform="translate(-91.58 803.17) rotate(-83.75)"/><ellipse class="cls-30" cx="537.82" cy="467.06" rx="38.9" ry="45.1" transform="translate(15.02 950.87) rotate(-83.75)"/><line class="cls-31" x1="317.76" y1="383.26" x2="357.26" y2="447.76"/><line class="cls-31" x1="623.46" y1="415.66" x2="582.36" y2="475.76"/><path class="cls-32" d="M618.26,557.76a196.12,196.12,0,0,1,45.3-.2c19.5,2.2,38.7,2.8,57.5,8.7a336.14,336.14,0,0,1-38.8-14.7"/><path class="cls-32" d="M259.06,601.86A185.31,185.31,0,0,1,221,583c-15.5-10.1-31.2-18.7-44.6-31.5a324.05,324.05,0,0,1,26.3,28.6"/><path class="cls-19" d="M234,588.86c12.9,11.2,33.5,7,49.1,6.8,18.6-.2,37.6,6,48.2,22.1,5.8,8.7,10.8,22.4-4,23.4-16.7,1.2-35.1-6.7-50.3-12.4a17.24,17.24,0,0,0-21,7.5c-5.6,9.5-17.4,15.8-27.9,18.4a19.68,19.68,0,0,1-12-.4,19.1,19.1,0,0,1-5.8-3.9,19.63,19.63,0,0,1-5.1-7.6c-.5-1.3-.3-2.7-1.8-3.4-1-.4-3,0-4.1-.3a23.48,23.48,0,0,1-8.8-4,14.09,14.09,0,0,1-5.6-15.4,30.5,30.5,0,0,1,5.5-11.3,72.68,72.68,0,0,1,25.4-22A16.31,16.31,0,0,1,234,588.86Z"/><path class="cls-33" d="M208.36,647.66c3.9,2.4,7,4.9,11.7,5.5a30.19,30.19,0,0,0,13-1.4,25.4,25.4,0,0,0,13.4-9.5"/><path class="cls-33" d="M263.86,626.66a35.94,35.94,0,0,0-10.7-13.2"/><path class="cls-34" d="M148,925.66a24.61,24.61,0,0,0,7.1,18.6,23.78,23.78,0,0,0,18.6,6.8"/><path class="cls-35" d="M157.56,925.66a18,18,0,0,0,5.5,13.8,18.49,18.49,0,0,0,14.2,5"/><path class="cls-36" d="M108.86,822.06c2.4-4.2,6.3-6.5,11.6-6.5,8,0,13.8,6.9,13.8,17.3,0,12.4-7.3,18.2-14.7,18.2a11.61,11.61,0,0,1-10.2-5.4h-.1v18.5h-5.2v-36.9c0-4.4-.1-7.8-.3-10.9h4.7l.4,5.7Zm.3,14.6c0,6.6,4.9,10.1,9.5,10.1,6.7,0,10.3-5.7,10.3-13.8,0-7-3.5-13.2-10.1-13.2-5.8,0-9.7,5.6-9.7,10.5Z"/><path class="cls-36" d="M168.56,841.16c0,3.5.2,6.4.3,9h-4.7l-.2-5.3h-.2A12.24,12.24,0,0,1,153,851c-5.1,0-11.1-2.9-11.1-14.6v-20h5.2v19.1c0,6.6,1.9,11.2,7.6,11.2a9,9,0,0,0,8.8-9.2v-21.2h5.2v24.9Z"/><path class="cls-36" d="M183.56,822.06c2.4-4.2,6.3-6.5,11.6-6.5,8,0,13.8,6.9,13.8,17.3,0,12.4-7.3,18.2-14.7,18.2a11.61,11.61,0,0,1-10.2-5.4h-.2v18.5h-5.2v-36.9c0-4.4-.1-7.8-.2-10.9h4.7l.3,5.8.1-.1Zm.3,14.6c0,6.6,4.9,10.1,9.5,10.1,6.7,0,10.3-5.7,10.3-13.8,0-7-3.5-13.2-10.1-13.2-5.8,0-9.7,5.6-9.7,10.5v6.4Z"/><path class="cls-36" d="M243.26,841.16c0,3.5.2,6.4.3,9h-4.7l-.3-5.3h-.2a12.24,12.24,0,0,1-10.8,6.1c-5.1,0-11.1-2.9-11.1-14.6v-20h5.2v19.1c0,6.6,1.9,11.2,7.6,11.2a9,9,0,0,0,8.8-9.2v-21.2h5.2v24.9Z"/><path class="cls-37" d="M108.86,822.06c2.4-4.2,6.3-6.5,11.6-6.5,8,0,13.8,6.9,13.8,17.3,0,12.4-7.3,18.2-14.7,18.2a11.61,11.61,0,0,1-10.2-5.4h-.1v18.5h-5.2v-36.9c0-4.4-.1-7.8-.3-10.9h4.7l.4,5.7Zm.3,14.6c0,6.6,4.9,10.1,9.5,10.1,6.7,0,10.3-5.7,10.3-13.8,0-7-3.5-13.2-10.1-13.2-5.8,0-9.7,5.6-9.7,10.5Z"/><path class="cls-37" d="M168.56,841.16c0,3.5.2,6.4.3,9h-4.7l-.2-5.3h-.2A12.24,12.24,0,0,1,153,851c-5.1,0-11.1-2.9-11.1-14.6v-20h5.2v19.1c0,6.6,1.9,11.2,7.6,11.2a9,9,0,0,0,8.8-9.2v-21.2h5.2v24.9Z"/><path class="cls-37" d="M183.56,822.06c2.4-4.2,6.3-6.5,11.6-6.5,8,0,13.8,6.9,13.8,17.3,0,12.4-7.3,18.2-14.7,18.2a11.61,11.61,0,0,1-10.2-5.4h-.2v18.5h-5.2v-36.9c0-4.4-.1-7.8-.2-10.9h4.7l.3,5.8.1-.1Zm.3,14.6c0,6.6,4.9,10.1,9.5,10.1,6.7,0,10.3-5.7,10.3-13.8,0-7-3.5-13.2-10.1-13.2-5.8,0-9.7,5.6-9.7,10.5v6.4Z"/><path class="cls-37" d="M243.26,841.16c0,3.5.2,6.4.3,9h-4.7l-.3-5.3h-.2a12.24,12.24,0,0,1-10.8,6.1c-5.1,0-11.1-2.9-11.1-14.6v-20h5.2v19.1c0,6.6,1.9,11.2,7.6,11.2a9,9,0,0,0,8.8-9.2v-21.2h5.2v24.9Z"/></g></g></svg>