<svg xmlns="http://www.w3.org/2000/svg" viewBox="0 0 1287.52 1287.52"><defs><style>.cls-1,.cls-3,.cls-4,.cls-5{isolation:isolate;font-size:236.47px;font-family:HiraMaruProN-W4-83pv-RKSJ-H, Hiragino Maru Gothic ProN;}.cls-1{fill:#ebebec;}.cls-2{letter-spacing:-0.5em;}.cls-17,.cls-18,.cls-19,.cls-20,.cls-21,.cls-25,.cls-3,.cls-5,.cls-9{fill:none;}.cls-3{stroke:#e4e4e5;stroke-width:37px;}.cls-19,.cls-20,.cls-21,.cls-24,.cls-25,.cls-3,.cls-9{stroke-linecap:round;stroke-linejoin:round;}.cls-4{fill:#dca059;}.cls-5{stroke:#e69b49;stroke-miterlimit:10;stroke-width:2px;}.cls-6{fill:#bcb8c1;}.cls-7{fill:#e69b49;}.cls-8{fill:#a18877;}.cls-9{stroke:#828282;}.cls-25,.cls-9{stroke-width:13px;}.cls-10{fill:#eba94e;}.cls-11{fill:#988061;}.cls-12{fill:#f5d5d0;}.cls-13{fill:#fff;}.cls-14{fill:#eee;}.cls-15{fill:#f3ccca;}.cls-16{fill:#cd98be;}.cls-17,.cls-18,.cls-19,.cls-20{stroke:#796956;}.cls-17{stroke-miterlimit:10;}.cls-17,.cls-19{stroke-width:7px;}.cls-18{stroke-miterlimit:10;stroke-width:7px;}.cls-20{stroke-width:5px;}.cls-21{stroke:#c4843d;stroke-width:12px;}.cls-22{fill:#7e6656;}.cls-23{fill:#e6db72;}.cls-24{fill:#e1a2bb;stroke:#e1a2bb;}.cls-25{stroke:#717172;}</style></defs><title>资源 2</title><g id="图层_2" data-name="图层 2"><g id="图层_1-2" data-name="图层 1"><text class="cls-1" transform="translate(28.12 250.69) rotate(-0.71)">予約済<tspan class="cls-2" x="709.4" y="0">．．．</tspan></text><text class="cls-3" transform="translate(28.12 250.69) rotate(-0.71)">予約済<tspan class="cls-2" x="709.4" y="0">．．．</tspan></text><text class="cls-4" transform="translate(28.12 250.69) rotate(-0.71)">予約済<tspan class="cls-2" x="709.4" y="0">．．．</tspan></text><text class="cls-5" transform="translate(28.12 250.69) rotate(-0.71)">予約済<tspan class="cls-2" x="709.4" y="0">．．．</tspan></text><ellipse class="cls-6" cx="554" cy="1197.22" rx="209.8" ry="90.3"/><path class="cls-7" d="M270.4,878.32c-67,18.8-128.9,70.4-120.6,15.6S219,779.42,286,760.62s114.5,10.4,106.3,65.2S337.4,859.52,270.4,878.32Z"/><path class="cls-8" d="M183.1,912.32c-7.5,1.8-14.9,1.6-21.2,8.5-3,3.3-5.5,6.7-8.2,10.1-3.2,4-7.3,11-12.8,12.8-2.7.9-5.5.3-6.5-1.4-2-3.4,3.5-8.8,6.1-12.4-4.6,1.8-8.3,6.1-12.2,9.1-3.7,2.9-8.8,5.2-12,3.9a2.27,2.27,0,0,1-1.6-1.8,5.56,5.56,0,0,1,.8-2.6c2.7-5.3,6.5-11,8.3-16.2-3.9,2.1-7.7,4.8-11.9,5.8-11.1,2.6-10-6.6-2.3-13,3.2-2.7,6.8-5.1,9.2-8.3-4.1,1.1-8.3,2.2-11.8,1.7s-6.2-3.1-5.2-6.7c.9-3,4-5.8,7.1-7.9a48,48,0,0,1,16.2-7c-8,.4-11.9-7-2.3-13.1a23.33,23.33,0,0,1,15.1-3.1c3.3.3,6.1,1.6,9.2,2.1,4.6.8,5.3.7,6.8-3.7a29.13,29.13,0,0,1,6.5-10.4"/><path class="cls-9" d="M126.9,1117.52c2.4,15.5,5.9,31,13.6,44.6s19.8,25.3,34.9,29.5"/><path class="cls-10" d="M237.2,877.92c27.7-70.7,68.5-136.2,144.5-155.9,64.8-16.8,157.6,13.8,195.8,71,25.6,38.4,33.5,67,38.4,112.7,10.4,96-7.8,180.8-40,271-5.8,16.2-13.6,34-29.6,39.8-37.7,13.6-54.4-29.1-71.5-52.4-37-50.5-93.3-66.1-151.8-45.9-11,3.8-22,7.5-32.9,11.3-33.3,11.5-72.3,22.7-83.1-23.7-9.7-41.6-14.1-90.6-1.4-132.4C214.8,943,224.7,909.92,237.2,877.92Z"/><path class="cls-10" d="M577,1012.52c33.3,28.9,103.1-16.1,66.5,49.8-72.1,95.4,31.4,151.3,100.6,73.6,47.1-46.3,63.4-172.1-5.6-197.1-36.7-16.7-74.1,8.5-110.3.5-16.1-4.8-10.8-17.8-13.9-19.4C566.1,922.62,539.5,984.62,577,1012.52Z"/><path class="cls-11" d="M763.8,1106.92c-11.1,34.5-62.8,58.9-82,66.2-28.5,10.8-68-9.9-62.4-70.8"/><path class="cls-11" d="M780.9,1012.72c11.7-1.2,2.2,51.3-7.2,51.7-39.6,14.2-96,22.7-129.7,19.8-1.2-8,2.6-37.4,8.6-39.2C699.3,1041.12,736.5,1016,780.9,1012.72Z"/><path class="cls-11" d="M692.9,965.12c7.3-6.8,14.7-13.7,23.5-18.3s19.4-6.8,28.9-3.5c7.2,2.5,13,7.8,17.8,13.6,3.3,4.1,6.4,8.9,6,14.1-.5,6.6-6.2,11.5-11.6,15.4a285.32,285.32,0,0,1-103.7,46.3c.5-.1-3.5-18-3.3-19.8.6-6.8,5.5-10.8,10.3-16.1C670.9,985.72,681.9,975.42,692.9,965.12Z"/><path class="cls-11" d="M617.5,952.92c-2-29.6,10-8,25.9-10.7,7.7,21.2-17.9,102.1-28.5,78C614.4,994.82,619.2,976.42,617.5,952.92Z"/><path class="cls-12" d="M451.1,897.42c-14.4-14.3-48.3-3.6-77.4,23.6-14.1-36.4-39.3-60.1-58.3-53.8-20.2,6.7-25.7,44.9-12.3,85.4s40.7,67.8,60.9,61.1c.5-.2.9-.3,1.4-.5,17.3-2,39.5-14.2,58.9-33.8C454.3,949.12,466.3,912.42,451.1,897.42Z"/><path class="cls-8" d="M283.2,1160.22c-1.2,18.1-26.5,18.6-67.3,16s-65.9-6.4-64.7-24.5,24.1-31.3,65-28.7S284.4,1142.12,283.2,1160.22Z"/><path class="cls-11" d="M527.3,434.92l105.1,82.9s42.5,45,55.3,10.7a18.23,18.23,0,0,0,1.1-4l17-84.7c.3-1.3.4-2.7.6-4,8.1-49.8-15.1-70.3-40.9-67.7l-111.6,35.3C527.7,406.12,507.1,418.92,527.3,434.92Z"/><path class="cls-11" d="M428.5,440l-124.3,54.4s-53.4,33.1-56.4-3.1a28,28,0,0,1,0-4.1l6.9-85.9c.1-1.3.4-2.7.5-4,5.9-50.1,33.9-64.2,58.1-55.4l98.1,61.4C436.1,412.12,452.5,429.52,428.5,440Z"/><path class="cls-13" d="M560.9,444.12,631.7,500s28.6,30.3,37.3,7.2a27.59,27.59,0,0,0,.8-2.7l11.4-57.1a25.12,25.12,0,0,0,.4-2.7c5.5-33.6-10.2-47.3-27.5-45.6l-75.2,23.8C561.1,424.72,547.2,433.32,560.9,444.12Z"/><path class="cls-13" d="M400.5,434.12l-83.8,36.7s-36,22.3-38-2.1a13.1,13.1,0,0,1,0-2.8l4.6-57.9a25.12,25.12,0,0,1,.4-2.7c3.9-33.8,22.8-43.2,39.2-37.3l66.1,41.4C405.6,415.32,416.6,427,400.5,434.12Z"/><path class="cls-10" d="M692.2,598c.1-.7.2-1.3.3-2,11.3-97.1-82.4-186.5-209.2-199.5s-238.8,55.1-250.1,152.2c-.4,3.7-.7,7.5-.8,11.2-21.8,19.8-35.6,43.4-38.6,69.6-10.1,86.5,99.9,168.9,245.7,183.9s272-42.9,282.1-129.5C725,653.92,714.1,624.42,692.2,598Z"/><path class="cls-14" d="M618.6,512c4.7-40-26-76.1-68.5-80.4-39.1-4-74.6,20.2-83.6,55.3-2.1-.3-4.3-.7-6.4-.9a110.84,110.84,0,0,0-15.2-.5c-.3-36.5-29.5-67.8-69-71.9-42.5-4.4-80.7,24.5-85.4,64.6-4.3,36.9,21.4,70.3,58.7,78.8a94,94,0,0,0-3.1,15.1c-3.7,32.1,16.3,53.5,47.9,62.8,43.9,12.9,98.2,18.3,138.3-7.3,11.9-7.6,17.7-21.4,19.2-34.3a87.19,87.19,0,0,0,.4-16.9C586.4,572.12,614.7,546.12,618.6,512Z"/><ellipse class="cls-13" cx="426.4" cy="415.32" rx="18.4" ry="7.3" transform="translate(-16.2 17.31) rotate(-2.28)"/><ellipse class="cls-13" cx="493.63" cy="416.95" rx="7.3" ry="18.4" transform="translate(29.32 866.32) rotate(-84.25)"/><path class="cls-11" d="M343.5,515.82c-3.3,3.9-6.5,7.9-9.4,12-19.2,27.4-56,15.8-67-3.2-7.1-12.2.4-30.7,7.6-41.3,15.2-22.4,41.6-33.9,68.4-39.2a282.85,282.85,0,0,1,41-4.7c9.8-.5,23.9-1.3,32.8,3.2,5.3,2.7,7.5,7.2,6.5,12.8-2.7,14.6-32.8,22.9-44.4,30.1A159.14,159.14,0,0,0,343.5,515.82Z"/><path class="cls-11" d="M565.1,536.22c8.2,11.9,13,26.9,28,32.6,15.4,5.9,35.5,2.1,46.5-9.8,9.7-10.4,6.6-30.1,2.1-41.9-7.4-19.1-22.9-34-41.2-44.2-18.7-10.4-37.9-16.2-59.2-22.6-14.3-4.2-32.9-10.4-43.5,1.3-5.1,5.7-5,13.5-2.9,20.3,2.6,8.7,8.5,14.3,16.4,19.1,4.3,2.6,8.8,5,13.1,7.6a138.86,138.86,0,0,1,39.1,35.2C564.1,534.82,564.6,535.52,565.1,536.22Z"/><path class="cls-15" d="M602.3,628.92a153.49,153.49,0,0,0-20.6,3.2c-12.7-51.3-56.4-91-125.8-100.1-77.2-10.1-133,10.8-159.2,78.5a162.32,162.32,0,0,0-19.5-7.4c-20.5-6.5-49.8-6-46.2,22.5,1.8,13.9,11.6,21.9,33.2,29.2-1.8,4-3.6,8-5.1,12.3-20.8,57.3,61.5,117.6,157.7,130.2s195.9-24.1,190.9-84.5a117.87,117.87,0,0,0-6.7-30.6c24.1-2.6,36-8.4,41.1-22C652.3,633.12,623.8,626.72,602.3,628.92Z"/><ellipse class="cls-8" cx="452.93" cy="485.47" rx="10" ry="20.5" transform="translate(-74.82 888.35) rotate(-84.34)"/><ellipse class="cls-16" cx="411.93" cy="704.54" rx="10.7" ry="21.2" transform="translate(-338.45 1025.47) rotate(-82.84)"/><ellipse class="cls-11" cx="347.82" cy="674.4" rx="27.2" ry="19.8" transform="matrix(0.13, -0.99, 0.99, 0.13, -365.55, 933.04)"/><ellipse class="cls-11" cx="484.58" cy="692.76" rx="27.2" ry="19.8" transform="translate(-264.5 1084.68) rotate(-82.65)"/><path class="cls-11" d="M386,735.92c12.4,8.3,27,14.8,42.3,13.3,2.6-.3,5.1-2.1,5-5-.1-2.5-2.2-5.3-5-5a48.74,48.74,0,0,1-5.4.2c-.8,0-1.7-.1-2.5-.1-.5,0-.9-.1-1.4-.1s-1-.1-.3,0a53.63,53.63,0,0,1-10.3-2.6c-.8-.3-1.6-.6-2.3-.9-.1,0-1.4-.6-.5-.2a6.12,6.12,0,0,0-1.2-.5c-1.6-.7-3.1-1.5-4.6-2.3-3-1.6-5.9-3.5-8.8-5.4a4.93,4.93,0,0,0-6.8,1.8,5.14,5.14,0,0,0,1.8,6.8Z"/><path class="cls-11" d="M384.3,719.12c0,1.6,0,3.3-.1,4.9,0,.4-.1.8-.1,1.2,0,.1-.2,1.3-.1.6s-.1.6-.1.7c-.1.3-.1.7-.2,1a40.51,40.51,0,0,1-1.2,4.7,17.23,17.23,0,0,1-.7,2.1c-.1.4-.3.7-.4,1.1-.1.2-.1.4-.2.5.2-.5.3-.6.1-.3A42,42,0,0,1,377,743c-.4.5.6-.7,0,0-.2.3-.5.5-.7.8-.5.5-.9,1-1.4,1.5s-1,.9-1.5,1.4c-.7.6.6-.4.1-.1a5.5,5.5,0,0,0-.9.7c-2.2,1.5-3.3,4.5-1.8,6.8s4.5,3.4,6.8,1.8c11.7-7.9,17-23.2,16.6-36.8a5.08,5.08,0,0,0-5-5,5,5,0,0,0-4.9,5Z"/><path class="cls-17" d="M389.3,686.82c1.4-14,15.5-19.6,34.1-17.1,7.6,1,19.3,9.8,17.9,23.8"/><ellipse class="cls-18" cx="347.82" cy="674.36" rx="40.5" ry="43.3" transform="translate(-390.65 848.72) rotate(-76)"/><ellipse class="cls-18" cx="484.58" cy="692.72" rx="40.5" ry="43.3" transform="translate(-304.78 995.34) rotate(-76)"/><line class="cls-19" x1="594.1" y1="629.82" x2="529.4" y2="696.72"/><line class="cls-20" x1="332.1" y1="611.32" x2="305.7" y2="664.02"/><path class="cls-8" d="M465.7,1218c-.2,15.8,21.8,18,57.7,18.4s57.9-1.2,58.1-17-18.9-28.9-54.7-29.3S465.9,1202.22,465.7,1218Z"/><path class="cls-21" d="M615.6,914.12c.1,83.3,2.7,172.2-35.7,250.5"/><path class="cls-7" d="M487.9,863.32c-56.8,37.2-122.2,41.2-95.4,83.2s94.5,46,151.3,8.8,81.1-101.4,54.3-143.5S544.7,826.12,487.9,863.32Z"/><path class="cls-8" d="M407,904.12c-5.6,3.2-10.2,8.1-17.2,5.8-3.3-1.1-6.4-2.8-9.6-4.2-3.8-1.7-9.4-5.6-13.7-3.7a5.92,5.92,0,0,0-3.5,5.5c.2,4.4,6.1,6,9.3,7.6-3.7,1.2-7.9-.4-11.7-.7-3.6-.3-7.8.8-9.3,4.1a3.6,3.6,0,0,0-.2,2.7,4.44,4.44,0,0,0,1.7,1.9c4,3.2,8.9,6,12.3,9.8-3.4.6-7,.5-10.1,2.3-8.2,4.7-3.5,12.6,4.2,13.7,3.2.5,6.5.4,9.4,1.8-3.1,1.5-6.2,3.3-8.3,6.1s-2.6,6.9-.4,9.6c1.8,2.3,5.1,2.9,8,2.8a26.78,26.78,0,0,0,13.3-3.9c-5.3,4.9-4.6,14.2,4.2,13.8,4.5-.2,8.2-3.4,11-6.9,1.9-2.4,3.2-5.4,5-7.9,2.6-3.7,3-4.1,5.9-.9a20.19,20.19,0,0,0,8.6,5.5"/><ellipse class="cls-22" cx="411.26" cy="465.78" rx="20.2" ry="12.7" transform="translate(-178.86 660.31) rotate(-66.8)"/><ellipse class="cls-22" cx="500.68" cy="470.45" rx="20.2" ry="12.7" transform="translate(-128.96 745.33) rotate(-66.8)"/><path class="cls-23" d="M584,576.42c-25.6-31.1-85.8-69.1-132.4-47.4-45.7-46.9-190.3,33.9-154.2,84.1,31.5,14.1,67.3,27.9,100.7,17.3,6.3-7,4.9-15.5,14-22.2,7-5.9,18.4.6,15.7,9.7,26-23,15.6,20.2,30.4,23.6,41.1,16.7,88.4,8.1,130.9,2.6C615.9,637.42,594.2,587.32,584,576.42Z"/><path class="cls-24" d="M476.1,522.12c11.3-4.2,19.4-27.5,3.9-28.9a9,9,0,0,0-6.9,2.4c-4.2,4.1-7.6,9.1-12.3,13-5.8,4.7-3.1,13.6,4.5,14.5A23,23,0,0,0,476.1,522.12Z"/><path class="cls-25" d="M370.8,438.12c6.5,1.6,13.1,3.3,19.9,3.6A51.9,51.9,0,0,0,425.9,430"/><path class="cls-25" d="M507.5,435.92c19.5,4.2,36.8,17.5,43.8,35.1"/></g></g></svg>