<svg xmlns="http://www.w3.org/2000/svg" viewBox="0 0 999.1 1295.23"><defs><style>.cls-1{fill:#eba94e;}.cls-2{fill:#988061;}.cls-3{fill:#9e9e9f;}.cls-11,.cls-25,.cls-26,.cls-27,.cls-28,.cls-29,.cls-30,.cls-31,.cls-4{fill:none;}.cls-11,.cls-13,.cls-14,.cls-4,.cls-5,.cls-8{stroke:#b76da1;}.cls-14,.cls-25,.cls-32,.cls-33,.cls-35,.cls-4,.cls-6,.cls-9{stroke-miterlimit:10;}.cls-10,.cls-11,.cls-13,.cls-14,.cls-25,.cls-27,.cls-28,.cls-29,.cls-30,.cls-31,.cls-4,.cls-5,.cls-6,.cls-8,.cls-9{stroke-width:7px;}.cls-24,.cls-5{fill:#cd98be;}.cls-10,.cls-11,.cls-13,.cls-27,.cls-28,.cls-29,.cls-30,.cls-31,.cls-34,.cls-5,.cls-8{stroke-linecap:round;stroke-linejoin:round;}.cls-17,.cls-6,.cls-9{fill:#fff;}.cls-10,.cls-6{stroke:#cd98be;}.cls-10,.cls-34,.cls-7{fill:#b76da1;}.cls-8{fill:#d1dae9;}.cls-9{stroke:#cd90bd;}.cls-12{fill:#aad5a8;}.cls-13{fill:#ddf0f5;}.cls-14{fill:#fae9b7;}.cls-15{fill:#a18877;}.cls-16{fill:#f5d5d0;}.cls-18{fill:#eee;}.cls-19{fill:#ad8046;}.cls-20{fill:#f3ccca;}.cls-21{fill:#e6db72;}.cls-22{fill:#7e6656;}.cls-23,.cls-35{fill:#e69b49;}.cls-25,.cls-26,.cls-27{stroke:#796956;}.cls-26{stroke-miterlimit:10;stroke-width:7px;}.cls-28{stroke:#c4843d;}.cls-29{stroke:#867155;}.cls-30{stroke:#888;}.cls-31{stroke:#9e9e9f;}.cls-32{fill:#eeeeef;stroke:#eeeeef;stroke-width:17px;}.cls-33{fill:#c67144;stroke:#c67144;stroke-width:0.5px;}.cls-34,.cls-35{isolation:isolate;font-family:HiraMaruProN-W4-83pv-RKSJ-H, Hiragino Maru Gothic ProN;}.cls-34{font-size:231.54px;stroke:#eaecef;stroke-width:37px;}.cls-35{font-size:236.47px;stroke:#e69b49;stroke-width:4px;}</style></defs><title>资源 29</title><g id="图层_2" data-name="图层 2"><g id="图层_1-2" data-name="图层 1"><path class="cls-1" d="M110.85,829.76a260.82,260.82,0,0,1,29,30.79,379,379,0,0,1,34,50.19c57.78,100.16,141.9,153.38,125.42,190.24s-60.16-4.34-170.94-69.27C86,1006.89,55.68,975.23,35.08,943.58a248,248,0,0,1-19.4-36.31C-1.23,867.92-3.51,832.47,4.3,814.8c11.81-26.23,55.93-30.24,106.55,15"/><path class="cls-2" d="M15.68,907.16C-1.23,867.81-3.51,832.36,4.3,814.7c11.7-26.24,55.82-30.14,106.44,14.95"/><polygon class="cls-2" points="232.48 993.12 204.08 1077.13 169.06 1055.45 208.19 963.74 232.48 993.12"/><path class="cls-2" d="M182.72,925.48s13.23,19.08,15.39,21.89l-66.77,86s-26.34-16.25-27.86-17.23Z"/><path class="cls-2" d="M142.61,864s17.46,23.84,23.53,33.71L71.72,988.24s-28.51-29.48-33.17-39.78Z"/><ellipse class="cls-3" cx="552.68" cy="1265.63" rx="96.15" ry="29.59"/><path class="cls-4" d="M696.85,1007.21a32.17,32.17,0,0,1,.11,4.55c-.32,4.45-4.44,16-.86,19.08,6.72,5.75,18.64,4.12,26.77,4.66,10.08.65,20.16,1.41,30.24,1.63q26,.64,52,.32c6.4-.1,14.1,1.74,19.52-2.71,4.33-3.57,6-9.32,6.28-14.63.44-6,.44-16.26-4.77-20.6-2.38-2-6.93-2.6-10.51-2.6-20.27-.11-40.43-.11-60.7-.11H724.28c-7.48,0-18.21-2.81-25,1.41C696.53,999.84,696.64,1003.63,696.85,1007.21Z"/><path class="cls-5" d="M908,927.1v12.25a8.58,8.58,0,0,1-8.56,8.57H881.13a8.94,8.94,0,0,1-8.78-6.94c-1.08-4.34-2.06-8.67-3.14-13.12a8.11,8.11,0,0,1,8.13-10c7.48.33,15.07.65,22.87,1.08A8.2,8.2,0,0,1,908,927.1ZM889.26,1172l-7.8-17.56c-1.3-2.82,1.41-5.75,5.74-6.4,6-.76,12.14-1.63,18.21-2.38,5.86-.65,11.28-.76,11.28,5,0,2.6,1.51,5.1,2.06,7.7,2.16,11.49-5.1,18-19.3,18.43C894.68,1177,890.56,1174.9,889.26,1172ZM801,927.75c3.25-.1,6.5-.32,9.75-.43,5.42-.32,11.82.54,14.31,6a6.35,6.35,0,0,1-5.64,8.89c-31.76,1-63.52.44-95.5-1.19a6.34,6.34,0,0,1,.33-12.68C749.86,928.3,775.44,928.84,801,927.75ZM718.75,1116c24.39,0,48.13-.32,72,.11,15.72.22,31.32,1.41,46.93,2.39,8.46.54,11.82,6.07,11.06,17.34-.54,8.45-6.5,7.26-12.14,6.72q-56.58-4.71-113.28-9.32C721.79,1127.1,720.27,1121.57,718.75,1116ZM717,1162H845.36c-2.28,11.28-3,20.82-6.5,29.27-1.52,3.58-8.78,6.72-13.44,6.72-26.45-.32-52.9-1.62-79.46-2.6-8.13-.32-16.15-.87-23.41-1.3C720.49,1182.71,718.64,1172,717,1162Zm277.61,61.68c1.51-5,.86-11,.65-16.47-.44-9.11-.87-18.22-2.17-27.21-.76-5-5.53-9.43-8.78-14.09a12.33,12.33,0,0,1-.87-1.63c-3-9.43-4.77-20-6.4-30.68-.21-1.73-.32-3.9.44-5.31,10.08-16.69,4.12-33.38-11.71-37.29a6.1,6.1,0,0,1-4.33-7.26c1.73-8.89,3.68-17.78,4.76-26.77,2-17.78.66-19-16.36-19.52-.55,0-1-.75-1.09-.86,1-9,2.6-17.78,2.5-26.45-.11-6.83-1.2-13.55-2.17-20.71a6.12,6.12,0,0,1,6.18-6.93c2.27,0,4.33-.22,5.85-1.2,3.14-1.84,5.64-6.61,6.18-10.51,1.62-10.84-2.71-18.32-11.6-23.09a6,6,0,0,1-3-4c-1.63-8.35-2.82-16.15-4.77-23.74-5-20.27-33.93-8.35-47.92-8.67-2.92-.11-6-.33-8.89-.44-12.14-.86-23.3-1.62-35.33-.43-12.58,1.3-25.26,2.6-38,1.84-22.66-1.19-45.53-1.3-68.18-2.16-11.49-.44-23.09-.87-34.58-1.52-6.29-.33-15.94-1.84-18.11,6.07-1.4,5.09.33,10.73.44,15.82.22,9.11.32,18.32.43,27.43v1l6.51,2.61a6.12,6.12,0,0,1,.54,11l-4.12,2.17a6,6,0,0,0-3.25,5.1v.75a6.14,6.14,0,0,0,6.07,6.4H831.59a6.15,6.15,0,0,1,5.86,4.23c2.92,9.32,1.73,19.73.32,30.13-1.19,8.35-.76,19.62-5.85,23.85s-16.15,1.41-24.5,1.19c-22.44-.76-45-1.62-67.42-2.49l-33.17-1.3c-10.08-.44-12.36,2.27-15.18,11.49a6.19,6.19,0,0,0,4.88,7.91l8.67,1.3a6.07,6.07,0,0,1,5.1,6.4c-.22,3.58-.55,7-1.09,10.51-1,5.86-4.33,8-10.73,8.67a23.81,23.81,0,0,0-8,2.82c-.11,6.07-.22,7.48-.33,13.55a84.06,84.06,0,0,1,9.76,6.4c4.12,3.47,7.15,6.61,9.21,10.51a6.07,6.07,0,0,1-4.33,8.89c-5.86,1-10.63,3.47-11.28,11.27-.54,6.29,1.52,11.06,6.51,14.64a6.05,6.05,0,0,1-1.3,10.4c-4.34,1.85-8.67,3.8-13.12,5.64-1,.44-2.71,8.46-3,9.87-.76,4-.33,8.34-.44,12.46-.11,13.77-1.51,29.59,2.39,42.82,3.36,11.6,8.78,22.33,12.68,33.6,1.73,5,6.61,5.42,11.49,5.21,13.77-.44,28.51,1.51,42.38,2.6,42.17,2.06,83.8,3.57,124.77-12,24.28-9.33,49.1-16.81,73.93-24.29,12.14-3.57,26.45-6,37.94-11.38A12.86,12.86,0,0,0,994.63,1223.68Z"/><path class="cls-6" d="M885.25,973l6-13.12a10.43,10.43,0,0,1,9.43-6.18c16.59-.11,34.47-.32,52.25.22,9.32.22,7.59,8.78,8.57,14.85s-1.74,7.91-7.7,8c-20,.43-39.78,1.41-59.73,2.06-4.44.22-8.89.33-8.56-6.18Z"/><path class="cls-6" d="M885.47,972.63c-4.55,8.46-11.06,7.16-17.56,6.4A9,9,0,0,1,860,970.9l-.54-6.4a8.92,8.92,0,0,1,8.89-9.65h8a8.93,8.93,0,0,1,8.89,8.89V973Z"/><path class="cls-6" d="M838,972.52l-1.52-9.86a6.68,6.68,0,0,1,6.61-7.7h4.67a6.64,6.64,0,0,1,6.61,5.53c.54,3.14,1.08,6.4,1.73,9.76a6.69,6.69,0,0,1-6.61,7.91H844.6A6.73,6.73,0,0,1,838,972.52Z"/><path class="cls-7" d="M761.46,1015H711.6v-1.09h49.75A3.68,3.68,0,0,0,761.46,1015Z"/><path class="cls-7" d="M824.44,1015.56H774.58v-1.09h49.75A3.68,3.68,0,0,1,824.44,1015.56Z"/><path class="cls-7" d="M824.44,1019.68H774.58v-1.09h49.75A4.06,4.06,0,0,1,824.44,1019.68Z"/><path class="cls-7" d="M765.9,1020.33H716v-1.09H765.8A3.65,3.65,0,0,1,765.9,1020.33Z"/><path class="cls-7" d="M765.9,1026.4H716v-1.09H765.8A3.65,3.65,0,0,1,765.9,1026.4Z"/><path class="cls-7" d="M824.44,1025.86H774.58v-1.09h49.75A3.33,3.33,0,0,1,824.44,1025.86Z"/><path class="cls-8" d="M977,1125.91c5.42-1,8.56-3.58,7.37-12.9-1.09-8.24-8-15.29-14.2-20.16-7.92-6.29-11.38-5.21-20.92-2.5-20.17,5.75-40.22,11.38-60.38,17.13a151.67,151.67,0,0,1-19.51,4.66c-9.22,1.41-18.65,1.41-28,1.3l-71.43-.65c-22.44-.22-44.88-5.42-67.43-3.36-.11,8.46,4.55,9.65,8.35,16.8a6.08,6.08,0,0,1-4.34,8.89c-5.85,1-10.62,3.47-11.27,11.27-1.19,13.34,7.37,13.23,17.67,13.88,13.33.87,26.66,1.3,40,1.63,26.66.43,53.44-.33,80-2.28,6.07-.43,12.25-1,18-2.82a130.69,130.69,0,0,0,12-5.2c9.11-4,18.75-6.51,28.4-9,24.82-6.4,49.76-12.9,75.34-15.72C970.67,1126.56,974.14,1126.34,977,1125.91Z"/><path class="cls-9" d="M716.15,1122.66c23.63,0,46.61-.33,69.59.1,15.18.22,30.35,1.41,45.42,2.39,8.24.54,11.49,6.07,10.73,17.34-.54,8.46-6.29,7.26-11.71,6.72-36.53-3.14-72.95-6.18-109.59-9.32C719,1133.71,717.56,1128.18,716.15,1122.66Z"/><path class="cls-10" d="M847.75,1044.72a6.82,6.82,0,0,1-1.41-1.63c-1.74-2.49-.65-6.39-.65-9.32.21-5.31.21-10.62.54-16q.32-7.65.65-15.29c.21-4-.87-10.08,1.52-13.55,2.06-2.93,6-2.27,9.1-2.27h66.67c7.48,0,17.77-1.2,22.11,6.39,2.82,5,1.19,13.12,1.19,18.65,0,7.15-.11,14.2-.32,21.35-.11,2.49-3.69,6.72-6,6.94-4.44.43-8.88.76-13.22,1.19-14.63,1.3-29.38,2.38-44,3.58l-21.68,1.62C857.28,1046.88,851.54,1048.19,847.75,1044.72Z"/><path class="cls-7" d="M818.37,978.05c-8,.22-16.15.22-24.17,0-15.18-.32-30.36-.76-45.53-1.08-7.81-.22-15.61-.54-23.52-.65-2.71,0-13,3.57-13.12-1.74a2.83,2.83,0,0,1,.76-1.84c1.41-1.52,3.9-1.41,6-1.3,14.63,1.3,29.81.11,44.55.11,15.18-.11,30.35-.11,45.42-.22,5.1,0,11.06.65,11.06-8.45,0-9.33-5.42-10.3-11.82-10.19-16,.32-32.08.76-48.13,1-8,.11-16,.33-24.06.44-6.18.1-15.07,2.06-20.6-1.41a1.5,1.5,0,0,1-.75-.87c-.44-1.84,12.57-1.08,14.2-1.08h19.07c21.68,0,43.47-.22,65.15,0,3,0,8.24,1.73,8.78,3.9,1.63,6.83,1.63,14.31,1.84,21.46C823.79,976.86,820.21,978.05,818.37,978.05Z"/><path class="cls-11" d="M826.5,1047.43a540.32,540.32,0,0,0,123.25-9"/><path class="cls-11" d="M834.85,987.7c37.72-2.28,75.66-2.82,113.49-1.63"/><path class="cls-11" d="M822.71,942.82c6.93,2.71,9.86,10.73,11.27,18a101.46,101.46,0,0,1,1.41,28.07"/><path class="cls-11" d="M827.8,944.34c42.17,5,84.88,10,126.93,3.79"/><path class="cls-12" d="M701.52,1046.23a11.51,11.51,0,0,0-4.45,2.17c-3.25,2.82-5.2,9.32-3,13.23,2.38,4.12,7.91,3,11.6,5.09,5.09,2.93,4.66,10.08,3.57,15.61-4.88,1.84-9.86,3.79-13.22,7.48s-4.88,9.65-1.85,13.66c5.21,6.83,20,5.42,27.65,6,26.23,2.06,52.46,2.71,78.8,3l29.27.32c8.35.11,15.61.87,24-.11,4.77-.54,9.43-1.08,14.09-2,5.63-1.08,11.16-2.49,16.58-4,22.12-6.07,44.23-11.49,66.34-17.34,8.57-2.28,10.63-4,11.82-12.47,1.19-9.21.32-18.53.11-27.86a12.34,12.34,0,0,0-1-5.2c-3.14-6-13.33-1.95-18.21-.87-61.68,13.88-123.47,7.81-185.8,4.66-11.38-.54-22.65-1-34-1.19C718.1,1046.34,708.24,1044.5,701.52,1046.23Z"/><path class="cls-13" d="M713,1093.06c1.73-9.54,3-17.12,4.55-25.69,1.73-.11,4.44-.43,7.15-.43q43.57-.33,87.16-.76c15.5-.11,15.5-.11,20.7,14.2,6.4,17.78,5.74,19.29-13,18.43C784,1097.4,748.45,1095,713,1093.06Z"/><path class="cls-14" d="M993.11,1219.89c1.52-5,.86-11.06.65-16.48-.44-9.1-.87-18.21-2.17-27.21-.65-4.33-4.55-11.81-8.56-14-5.1-2.82-13.77.54-19.3,2-15.28,4-29.81,10.62-44.66,16-20.05,7.48-40.76,9.76-61.35,14.86-9.11,2.16-18.1,4.44-27.43,5.42-10.51,1.08-21.13.65-31.65.21l-86.72-3.9c-5.42-.22-11-.43-16,1.84-6.18,2.93-10.08,9.32-11.71,16-4.55,19.83,5,35.44,11.17,53.54,1.73,5,6.61,5.42,11.49,5.21,13.76-.44,28.51,1.52,42.38,2.6,42.17,2.06,83.79,3.58,124.77-12,24.28-9.33,49.1-16.8,73.93-24.28,12.14-3.58,26.44-6,37.93-11.39A13.18,13.18,0,0,0,993.11,1219.89Z"/><path class="cls-14" d="M980.42,1209.81c-.43,2.92-4.76,6.5-8,7.69-30.13,10.3-60.37,20.27-90.73,30.14-2.6.87-5.31,1.73-7.91,2.49-12.14,3.8-24.06-6.18-21.9-18.32.87-4.66,1.63-9.21,2.5-13.87a16.65,16.65,0,0,1,11.81-12.9c30.25-8.67,61.79-17.67,93.88-26.89,10.73-3,21.78,4.56,21.89,15.4A104,104,0,0,1,980.42,1209.81Z"/><path class="cls-7" d="M829.86,1261.3c-.76-8.46.43-17,0-25.48-.22-3.68-.54-10-4.44-11.6-16.16-6.82-36.43-3.79-53.55-4.11-20.82-.22-41.63-.55-62.44-.66-6,0-10.95-.54-10.3-7.91,22.87,1.09,45.85,2.06,68.73,3,22.11,1.08,44.76.11,66.77,2.92a2.54,2.54,0,0,1,2,.87,2.71,2.71,0,0,1,.22,1.3c-.11,8.57.32,17.24-.54,25.8-.44,4.23-2,8.35-2.28,12.47-.33,3.68,1.08,5.09-3.8,4.87A2.77,2.77,0,0,1,829.86,1261.3Z"/><path class="cls-4" d="M703.9,1266.07c.87-14.53,1.63-27.86,2.49-42.6,6,.32,14.2,1,22.44,1.08,27.54.43,55,.65,82.49.87,11.39.11,13.12,1.73,13,13.22,0,8.67-.54,17.45-.87,26.13l-100.59,1.3Z"/><path class="cls-15" d="M484.83,1219.67c-6.51,15.94,14.85,26.78,50.84,41.52S594.53,1283,601,1267s-7.59-36.64-43.58-51.38S491.33,1203.74,484.83,1219.67Z"/><path class="cls-15" d="M292.53,1197.67c6.29,15.93-15.18,26.66-51.38,40.86s-59.08,21.14-65.37,5.1,8-36.64,44.12-50.84S286.13,1181.62,292.53,1197.67Z"/><path class="cls-1" d="M648.08,990c-.22-73.28-14.2-146.56-76.43-191.22C518.54,760.6,423,755,368.08,792.69c-36.85,25.26-54.2,48.13-75,87.37-43.58,82.38-56.91,164.87-59.62,257.12-.43,16.59.33,35.34,12.9,46.18,29.49,25.58,59.84-6.72,83.68-21.57,51.6-32.09,108.51-26,154.69,12.9,8.67,7.26,17.34,14.63,26,21.89,26.35,22.12,57.89,46.07,84.12,8.35,23.63-33.82,44.88-76.2,48.24-118.16C645.37,1056.32,648.18,1023.15,648.08,990Z"/><path class="cls-16" d="M537.18,930.9c-15.61-15.5-52.35-3.9-83.9,25.58C438,917,410.68,891.33,390.09,898.16c-21.9,7.26-27.86,48.67-13.34,92.57s44.12,73.5,66,66.24c.54-.22,1-.33,1.52-.55,18.75-2.16,42.81-15.39,63.84-36.64C540.65,986.94,553.55,947.16,537.18,930.9Z"/><path class="cls-2" d="M552.47,469.77,691.33,576s56.8,58.43,71.11,11.38a30.4,30.4,0,0,0,1.19-5.42l16.58-115.44c.22-1.84.33-3.69.55-5.42,7.37-67.86-23.42-94.2-56.16-89.32L584.45,425.87C551.17,430.75,525.69,449.28,552.47,469.77Z"/><path class="cls-2" d="M525.48,476.71,367,550.42s-68.08,44.77-72-4.23a46.38,46.38,0,0,1,0-5.53l8.78-116.31c.11-1.84.44-3.68.65-5.42,7.48-67.85,43.25-86.93,74.15-75l125.09,83C535.12,439,556.05,462.51,525.48,476.71Z"/><path class="cls-17" d="M595.83,480.39l93.55,71.55s38.26,39.35,47.91,7.69a20.69,20.69,0,0,0,.76-3.68l11.16-77.83c.22-1.19.22-2.5.33-3.69,5-45.74-15.72-63.41-37.83-60.16l-94.42,36.42C595,454.05,577.72,466.52,595.83,480.39Z"/><path class="cls-17" d="M489.71,468.8,382.93,518.44s-45.85,30.25-48.45-2.82a21.81,21.81,0,0,1,0-3.79l6-78.37c.11-1.19.33-2.5.43-3.69,5-45.74,29.16-58.53,50-50.51l84.33,55.93C496.21,443.32,510.3,459.15,489.71,468.8Z"/><path class="cls-1" d="M754.09,633.24c.11-.76.22-1.41.32-2.17C765.9,525.7,670.19,428.8,540.65,414.6s-244,59.72-255.6,165.09c-.43,4-.65,8.13-.76,12.14-22.22,21.46-36.31,47-39.46,75.55-10.29,93.87,102.11,183.2,251.05,199.45s278-46.61,288.24-140.48C787.69,693.83,776.53,661.85,754.09,633.24Z"/><path class="cls-18" d="M680.27,544.57a73.56,73.56,0,0,0-144.6-25.37c-2.06-.32-4-.65-6.07-.87a107.66,107.66,0,0,0-14.42-.54,73.55,73.55,0,1,0-90.84,72.09,98.6,98.6,0,0,0-2.93,15.28c-3.57,32.41,15.51,54,45.53,63.31,41.74,13,93.33,18.42,131.38-7.38,11.27-7.58,16.8-21.57,18.21-34.68a90,90,0,0,0,.33-17A73.46,73.46,0,0,0,680.27,544.57Z"/><ellipse class="cls-17" cx="491.35" cy="432.59" rx="10.41" ry="24.72" transform="translate(7.87 873.96) rotate(-83.75)"/><ellipse class="cls-17" cx="584.19" cy="442.73" rx="10.41" ry="24.72" transform="translate(80.53 975.28) rotate(-83.75)"/><path class="cls-19" d="M491.11,596.92a59.56,59.56,0,0,0,4.88,10.3,60.61,60.61,0,0,0,6.94,8.78,62.11,62.11,0,0,0,8.78,7.16,50.72,50.72,0,0,0,10.08,4.76c3.58,1.41,7.26,1.74,11.06,2.28a41.65,41.65,0,0,0,9-.32,36.11,36.11,0,0,0,8.79-2.06,43.94,43.94,0,0,0,9.86-4.88c3.14-2.28,6.29-4.55,8.67-7.59a48.78,48.78,0,0,0,4.77-6.61,46.74,46.74,0,0,0,3.25-7.59,15.05,15.05,0,0,0,.33-7.59,13.89,13.89,0,0,0-2.28-7c-2.27-3.91-6.83-7.7-11.38-8.68-4.88-1.08-10.3-.86-14.63,2-1.3,1-2.61,2-3.8,2.92a18.85,18.85,0,0,0-4.88,8.35,4.06,4.06,0,0,1-.43,1.08l1.95-4.55a27.17,27.17,0,0,1-2.82,4.88c1-1.3,2-2.6,2.93-3.8a30.74,30.74,0,0,1-4.23,4.23c1.3-1,2.6-1.95,3.8-2.92a28.83,28.83,0,0,1-5.53,3.25l4.55-2a29.16,29.16,0,0,1-6.61,1.84l5.09-.65a21.38,21.38,0,0,1-6.39,0l5.09.65a28.66,28.66,0,0,1-6.72-1.84l4.55,2a34.19,34.19,0,0,1-6.39-3.69c1.3,1,2.6,2,3.79,2.93a37.7,37.7,0,0,1-5.85-5.86c1,1.31,1.95,2.61,2.93,3.8a28.89,28.89,0,0,1-4.12-7.16l2,4.56a5.71,5.71,0,0,1-.33-.76,20.74,20.74,0,0,0-8.67-11.38,13.92,13.92,0,0,0-7-2.28,15.05,15.05,0,0,0-7.59.33c-4.56,1.51-9,4.33-11.38,8.67-.65,1.51-1.31,3-2,4.55a19.58,19.58,0,0,0,0,10Z"/><path class="cls-2" d="M397.57,537.63a137.33,137.33,0,0,0-8.89,12.14c-18.21,27.64-53.23,15.93-63.63-3.25-6.72-12.25.43-31,7.15-41.63,14.42-22.65,39.57-34.14,64.93-39.56a247.59,247.59,0,0,1,39-4.77c9.32-.44,22.76-1.3,31.22,3.25,5,2.71,7.15,7.26,6.17,12.9-2.6,14.74-31.21,23.09-42.16,30.35A148.7,148.7,0,0,0,397.57,537.63Z"/><path class="cls-2" d="M654.36,567.22c7.81,12,12.36,27.1,26.56,32.95,14.63,6,33.71,2.17,44.23-9.86,9.21-10.51,6.28-30.35,2-42.17-7.05-19.29-21.68-34.25-39.13-44.55-17.78-10.51-36-16.37-56.26-22.76-13.55-4.23-31.33-10.52-41.3,1.3-4.88,5.74-4.77,13.66-2.82,20.49,2.49,8.78,8.13,14.41,15.61,19.29,4.12,2.71,8.35,5.1,12.46,7.7a136.45,136.45,0,0,1,37.18,35.55A13.53,13.53,0,0,1,654.36,567.22Z"/><path class="cls-19" d="M406.46,613.72a220.43,220.43,0,0,0-.66,41.41c4.67-6.07,9.33-12.14,13.88-18.32a1.83,1.83,0,0,1-.76.11l5.1-.65h-1.2l5.1.65a6.12,6.12,0,0,1-1.84-.54l4.55,2-1.63-1c1.3,1,2.6,1.95,3.8,2.92a8.18,8.18,0,0,1-1.41-1.41c1,1.3,1.95,2.6,2.92,3.8a6.54,6.54,0,0,1-1-1.63l2,4.55a6.32,6.32,0,0,1-.54-2.06c.21,1.74.43,3.36.65,5.1a14,14,0,0,1,0-3c-.22,1.74-.44,3.36-.65,5.1a36.68,36.68,0,0,1,1.62-6,15.06,15.06,0,0,0,.33-7.59,14,14,0,0,0-2.28-7c-2.27-3.9-6.83-7.69-11.38-8.67-4.88-1.08-10.3-.87-14.63,2-1.3,1-2.61,2-3.8,2.93a18.74,18.74,0,0,0-4.88,8.35c-3,8.56-3.46,18.1,1.2,26.23a26.46,26.46,0,0,0,10.19,10,34.37,34.37,0,0,0,5.2,2.17,6.87,6.87,0,0,0,1.52.32,34,34,0,0,0,5.85.65,30.55,30.55,0,0,0,6.18-.86l4.55-2a14.42,14.42,0,0,0,5.31-4.88,10.42,10.42,0,0,0,2.5-4.23,14,14,0,0,0,1.62-7.26,240.7,240.7,0,0,1,.65-41.41A20.89,20.89,0,0,0,439,600.07a14.54,14.54,0,0,0-6.07-3.91,14,14,0,0,0-7.26-1.62c-4.88.21-10,1.84-13.44,5.53-1,1.3-1.95,2.6-2.93,3.79a18.21,18.21,0,0,0-2.81,9.86Z"/><path class="cls-19" d="M408.08,604.62a83.75,83.75,0,0,0-6.18,9.86,107.26,107.26,0,0,0-6.18,15,87.46,87.46,0,0,0-3,15.83,60.38,60.38,0,0,0-.43,11.71,20,20,0,0,0,5.52,13.44,14.74,14.74,0,0,0,6.07,3.9,14.15,14.15,0,0,0,7.27,1.63c4.87-.22,10-1.85,13.44-5.53s5.74-8.35,5.53-13.44a62.72,62.72,0,0,1,.54-11.93c-.22,1.74-.44,3.36-.65,5.1a70.12,70.12,0,0,1,4.55-16.81l-1.95,4.56a75.14,75.14,0,0,1,8-14.09,14,14,0,0,0,2.28-7,15.06,15.06,0,0,0-.33-7.59,19.53,19.53,0,0,0-8.67-11.38c-4.44-2.28-9.76-3.47-14.63-1.95l-4.56,1.95a19.92,19.92,0,0,0-6.61,6.83Z"/><path class="cls-20" d="M677.23,676.6A151.54,151.54,0,0,0,657.07,680c-12.46-53.34-55.17-94.53-123.14-104-75.55-10.51-130.18,11.17-155.87,81.52a149.17,149.17,0,0,0-19.08-7.7c-20.06-6.72-48.78-6.29-45.21,23.42,1.74,14.41,11.39,22.76,32.42,30.35-1.74,4.12-3.47,8.34-5,12.79C321,776,401.47,838.76,495.67,851.88s191.75-25,186.88-87.92a127.23,127.23,0,0,0-6.62-31.86c23.63-2.71,35.23-8.68,40.22-22.88C726.23,681,698.26,674.43,677.23,676.6Z"/><path class="cls-21" d="M670.84,602.67c-15-22.44-62.55-59.62-93.77-65.47-9.53-1.74-19.51-2.61-28.61-.44-5.31,1.19-22.12,3.25-27.21,7.16A50,50,0,0,0,506.4,532.1c-8.46-4-18.43-5.42-28.08-5.74-31.65-1.09-86.17,25-105.68,43.68-19.95,19.19-33.93,43-32.74,68.72.11,2.71.43,5.53,2.17,7.92,2.06,3,6,4.88,9.75,6.5,34.69,15.18,93.33,33.93,131.16,28.94,5.75-.75,8.68-6.83,5.42-11.49-4.77-6.72-9.75-13.22-9.32-20.59.33-5.1,3.15-11.6,8-13.88,8.46-3.9,17-3.14,23.53,3.91a8.87,8.87,0,0,0,4.87,2.71,9.35,9.35,0,0,0,5.32-1.63c7.8-5.42,16.36-4.44,23.84,1.3,4.34,3.25,5.64,10.19,4.88,15.28-1.08,7.27-7.48,12.58-13.55,18.11-4.12,3.79-2.71,10.4,2.82,12.35,36,13,97.12,7.38,134.41.11,4-.76,8.24-1.84,10.95-4.33,2.17-2,3-4.66,3.8-7.27C694.69,652.1,686.12,625.76,670.84,602.67Z"/><ellipse class="cls-15" cx="532.34" cy="517.24" rx="14.09" ry="27.21" transform="translate(-39.75 990.15) rotate(-83.75)"/><circle class="cls-22" cx="464.25" cy="479.2" r="23.2" transform="translate(-137.18 768.08) rotate(-71.56)"/><circle class="cls-22" cx="592.9" cy="493.29" r="23.2"/><path class="cls-23" d="M665.09,837a1.06,1.06,0,0,0-.54.1c-17.78,2-75.44,13.23-53.33,43.47,10,13.66,6.4,34.26,15.93,47.26,11,14.75,32.09,6.29,49,3.91,41.08-5.86,85.31-12.47,124.44-26.67,20.38-7.37,55.29-26.67,55.29-51.82,0-17.12-19.73-30.89-32.42-39.45-17.88-12-41-19.84-61.24-26.56-15.5-5.2-26.13-2.49-40.76,4.34-7.91,3.68-23.52,11.16-17.78,22.33,2.93,5.85,9.43,8.78,15.4,11.38,15.06,6.5,28.07,9.86,43.14,16.47C733.93,829.33,695.45,833.66,665.09,837Z"/><path class="cls-23" d="M294.15,886.89c12.15,2.17,31.87,5.31,42.93-1.09,21.68-12.46-1.41-28.5-3.58-42.27-1.41-9.32,7.81-16.26,8.57-25.15.54-6.29-3-15.39-6.29-20.7-7.81-12.79-20.7-16.59-35.12-16.15-140.92,4.66-267.75,41-81.63,129.1,64.94,1.3,34.26-25.48-11.81-50.62C231.39,876.81,266.51,882.44,294.15,886.89Z"/><path class="cls-15" d="M762.44,787.16c-8.57-2.38-14.1-11.71-18.11-20.7-1.62-3.8-2.82-7.7-4.12-11.6-1.51-4.55-2.81-12.57-7.58-14.63a6.19,6.19,0,0,0-7,1.62c-3.25,3.8,0,10.08,1.19,14.09-3.79-2.06-5.74-6.93-8.45-10.4s-8.89-7-12.47-2.71c-5.42,6.39,4.66,12.57,2.82,18.53-1.73,5.75-8.24-2.49-11.06-3.36-10.08-3-12.57,7.48-7.48,14.85,2.06,3,4.67,5.86,5.86,9.43-3.58-1.3-7.37-2.6-11.06-1.95s-7.48,3.58-7.8,7.59c-.33,3.47,1.62,6.61,3.9,9.11a28.38,28.38,0,0,0,13.33,8c-7.91-.44-14.63,7.91-7.59,15.07,3.58,3.57,9,4.11,13.88,3.57,3.36-.43,6.94-3.79,10.08-2.38s5.64.86,9.65,5.74c2.82,3.36,8.89,2.28,10.84,3.36"/><ellipse class="cls-24" cx="508.18" cy="744.38" rx="11.17" ry="23.96" transform="translate(-287.08 1168.56) rotate(-83.75)"/><ellipse class="cls-2" cx="440.99" cy="723.92" rx="28.4" ry="22.33" transform="translate(-348.55 1032.38) rotate(-79.99)"/><ellipse class="cls-2" cx="578.76" cy="739.69" rx="28.4" ry="22.33" transform="translate(-250.26 1181.08) rotate(-79.99)"/><path class="cls-2" d="M473.66,782.5c14.2,8.78,30.68,15.39,47.7,13.88,2.82-.22,5.53-2.28,5.42-5.42-.11-2.71-2.39-5.75-5.42-5.42a58.63,58.63,0,0,1-6.07.21c-1,0-2.06-.11-3-.11-.54,0-1-.1-1.52-.1-.21,0-1.73-.22-.54,0a66.9,66.9,0,0,1-11.38-2.61c-1.84-.54-3.58-1.3-5.31-1.95-1.52-.65,1,.44-.54-.21l-1.3-.65-2.61-1.3c-3.36-1.74-6.72-3.58-10-5.64a5.35,5.35,0,0,0-7.37,2,5.47,5.47,0,0,0,2,7.37Z"/><path class="cls-2" d="M471.82,764.72c0,1.63,0,3.36-.11,5,0,.32-.11.76-.11,1.08-.11,1.3.11-.86,0,.33-.11.87-.32,1.73-.43,2.6-.33,1.52-.76,3-1.19,4.55a23,23,0,0,1-.87,2.39c-.33,1,.22-.54,0,.11-.22.43-.33.76-.54,1.19-.65,1.41-1.41,2.71-2.17,4-.43.65-.76,1.19-1.19,1.84a6.49,6.49,0,0,1-.76,1c.87-1.09,0,0-.11.11a25.28,25.28,0,0,1-2.93,3c-.32.22-.54.54-.86.76-.11.11-.33.22-.44.33q-.48.32.33-.33c-.22.43-1.41,1-1.84,1.19-2.39,1.52-3.58,4.88-2,7.37s4.88,3.58,7.38,2c12.68-7.91,19.07-23.84,18.64-38.48a5.52,5.52,0,0,0-5.42-5.42c-2.93.22-5.53,2.39-5.42,5.42Z"/><path class="cls-25" d="M484.29,730.25c1.62-14.63,12.57-21.57,31.65-19.18,7.8,1,19.73,10,18.1,24.6"/><ellipse class="cls-26" cx="435.92" cy="723.31" rx="42.17" ry="48.89" transform="translate(-330.52 1077.95) rotate(-83.75)"/><ellipse class="cls-26" cx="582.99" cy="738.92" rx="42.17" ry="48.89" transform="translate(-214.98 1238.06) rotate(-83.75)"/><line class="cls-27" x1="344.45" y1="648.09" x2="387.27" y2="718"/><line class="cls-27" x1="675.83" y1="683.21" x2="631.27" y2="748.36"/><path class="cls-28" d="M670.19,837.24a212.22,212.22,0,0,1,49.1-.21c21.14,2.38,42,3,62.33,9.43a365.25,365.25,0,0,1-42.06-15.94"/><path class="cls-28" d="M280.82,885.05a201.72,201.72,0,0,1-41.3-20.49c-16.8-10.95-33.82-20.27-48.34-34.15a351.73,351.73,0,0,1,28.5,31"/><path class="cls-15" d="M253.61,871c14,12.14,36.32,7.59,53.23,7.38,20.16-.22,40.76,6.5,52.25,23.95,6.28,9.43,11.7,24.28-4.34,25.37-18.1,1.3-38.05-7.27-54.53-13.45a18.69,18.69,0,0,0-22.76,8.13c-6.07,10.3-18.86,17.13-30.24,19.95a21.41,21.41,0,0,1-13-.43,21,21,0,0,1-6.29-4.23,21.46,21.46,0,0,1-5.53-8.24c-.54-1.41-.32-2.93-1.95-3.68-1.08-.44-3.25,0-4.44-.33a25.48,25.48,0,0,1-9.54-4.34,15.23,15.23,0,0,1-6.07-16.69,33.19,33.19,0,0,1,6-12.25,78.84,78.84,0,0,1,27.54-23.85A17.67,17.67,0,0,1,253.61,871Z"/><path class="cls-29" d="M225.86,934.69c4.23,2.6,7.59,5.31,12.69,6a32.71,32.71,0,0,0,14.09-1.51c5.74-1.85,11.16-5.31,14.52-10.3"/><path class="cls-29" d="M286,911.93a38.94,38.94,0,0,0-11.59-14.31"/><path class="cls-30" d="M160.39,1236a26.66,26.66,0,0,0,7.7,20.16,25.75,25.75,0,0,0,20.16,7.37"/><path class="cls-31" d="M170.8,1236a19.52,19.52,0,0,0,6,15,20.07,20.07,0,0,0,15.39,5.42"/><path class="cls-32" d="M75.47,1142.55c2.61-4.55,6.83-7,12.58-7,8.67,0,15,7.48,15,18.76,0,13.44-7.92,19.72-15.94,19.72a12.56,12.56,0,0,1-11-5.85h-.11v20H70.27v-40c0-4.77-.11-8.46-.32-11.82H75l.43,6.18Zm.33,15.82c0,7.16,5.31,11,10.3,11,7.26,0,11.16-6.18,11.16-15,0-7.58-3.79-14.3-11-14.3-6.28,0-10.51,6.07-10.51,11.38Z"/><path class="cls-32" d="M140.19,1163.25c0,3.8.21,6.94.32,9.76h-5.09l-.22-5.75H135a13.26,13.26,0,0,1-11.7,6.62c-5.53,0-12-3.15-12-15.83v-21.68h5.63v20.7c0,7.16,2.06,12.14,8.24,12.14a9.69,9.69,0,0,0,9.54-10v-23h5.64v27Z"/><path class="cls-32" d="M156.45,1142.55c2.6-4.55,6.83-7,12.57-7,8.67,0,15,7.48,15,18.76,0,13.44-7.91,19.72-15.93,19.72a12.59,12.59,0,0,1-11.06-5.85h-.22v20h-5.63v-40c0-4.77-.11-8.46-.22-11.82H156l.33,6.29.11-.11Zm.32,15.82c0,7.16,5.31,11,10.3,11,7.26,0,11.17-6.18,11.17-15,0-7.58-3.8-14.3-11-14.3-6.29,0-10.52,6.07-10.52,11.38v6.93Z"/><path class="cls-32" d="M221.16,1163.25c0,3.8.22,6.94.33,9.76h-5.1l-.32-5.75h-.22a13.26,13.26,0,0,1-11.71,6.62c-5.53,0-12-3.15-12-15.83v-21.68h5.64v20.7c0,7.16,2.06,12.14,8.24,12.14a9.69,9.69,0,0,0,9.53-10v-23h5.64v27Z"/><path class="cls-33" d="M75.47,1142.55c2.61-4.55,6.83-7,12.58-7,8.67,0,15,7.48,15,18.76,0,13.44-7.92,19.72-15.94,19.72a12.56,12.56,0,0,1-11-5.85h-.11v20H70.27v-40c0-4.77-.11-8.46-.32-11.82H75l.43,6.18Zm.33,15.82c0,7.16,5.31,11,10.3,11,7.26,0,11.16-6.18,11.16-15,0-7.58-3.79-14.3-11-14.3-6.28,0-10.51,6.07-10.51,11.38Z"/><path class="cls-33" d="M140.19,1163.25c0,3.8.21,6.94.32,9.76h-5.09l-.22-5.75H135a13.26,13.26,0,0,1-11.7,6.62c-5.53,0-12-3.15-12-15.83v-21.68h5.63v20.7c0,7.16,2.06,12.14,8.24,12.14a9.69,9.69,0,0,0,9.54-10v-23h5.64v27Z"/><path class="cls-33" d="M156.45,1142.55c2.6-4.55,6.83-7,12.57-7,8.67,0,15,7.48,15,18.76,0,13.44-7.91,19.72-15.93,19.72a12.59,12.59,0,0,1-11.06-5.85h-.22v20h-5.63v-40c0-4.77-.11-8.46-.22-11.82H156l.33,6.29.11-.11Zm.32,15.82c0,7.16,5.31,11,10.3,11,7.26,0,11.17-6.18,11.17-15,0-7.58-3.8-14.3-11-14.3-6.29,0-10.52,6.07-10.52,11.38v6.93Z"/><path class="cls-33" d="M221.16,1163.25c0,3.8.22,6.94.33,9.76h-5.1l-.32-5.75h-.22a13.26,13.26,0,0,1-11.71,6.62c-5.53,0-12-3.15-12-15.83v-21.68h5.64v20.7c0,7.16,2.06,12.14,8.24,12.14a9.69,9.69,0,0,0,9.53-10v-23h5.64v27Z"/><text class="cls-34" transform="matrix(1, -0.01, 0.01, 1, 149.54, 236.33)">予約可</text><text class="cls-35" transform="matrix(1, -0.01, 0.01, 1, 149.54, 236.33)">予約可</text></g></g></svg>