<svg xmlns="http://www.w3.org/2000/svg" viewBox="0 0 1280.06 1280.06"><defs><style>.cls-1{fill:#b76da1;}.cls-2{fill:#b8a0c7;}.cls-3{fill:#a192ba;}.cls-11,.cls-12,.cls-15,.cls-18,.cls-20,.cls-4{fill:none;}.cls-12,.cls-15,.cls-20,.cls-4{stroke:#8a73a8;}.cls-12,.cls-15,.cls-18,.cls-4{stroke-linecap:round;stroke-linejoin:round;}.cls-4{stroke-width:5px;}.cls-5{fill:#d85891;}.cls-6{fill:#eee;}.cls-7{fill:#fff;}.cls-8{fill:#ae8fbd;}.cls-19,.cls-9{fill:#8a73a8;}.cls-10{fill:#f6d6e4;}.cls-12{stroke-width:3px;}.cls-13{fill:#cd98be;}.cls-14{fill:#badfea;}.cls-15{stroke-width:9px;}.cls-16,.cls-18,.cls-19,.cls-20{isolation:isolate;font-size:236.47px;font-family:HiraMaruProN-W4-83pv-RKSJ-H, Hiragino Maru Gothic ProN;}.cls-16{fill:#ebebec;}.cls-17{letter-spacing:-0.5em;}.cls-18{stroke:#e4e4e5;stroke-width:37px;}.cls-20{stroke-miterlimit:10;stroke-width:2px;}</style></defs><title>资源 19</title><g id="图层_2" data-name="图层 2"><g id="图层_1-2" data-name="图层 1"><path class="cls-1" d="M671.12,589.74c-132.72-142.21-148.29-148.39-130.76-168,55.38-26.5,216.15-75.28,230-25.57C797.24,460.22,752.9,663.58,671.12,589.74Z"/><path class="cls-2" d="M669.16,560.25c-102.4-109.72-114.47-114.57-101-129.63,42.8-20.52,166.86-58.06,177.48-19.69C766.62,460.22,732.38,617.18,669.16,560.25Z"/><path class="cls-1" d="M497.46,562.73c-174.18-51.05-189.54-48.06-185.52-73.84,30-51.67,131.17-177.69,166.65-142.73C531.39,386.28,597.9,582.42,497.46,562.73Z"/><path class="cls-2" d="M484.47,534.06C350,494.66,338.23,496.93,341.23,477c23.1-39.91,101.26-137.16,128.59-110.14C510.66,397.83,562,549.32,484.47,534.06Z"/><path class="cls-3" d="M229.54,808.68c42.39,103.12,133.75,190.06,212.13,80,53.93-75.79-133-161.7-182.12-241.62C186.64,688.54,208.61,757.63,229.54,808.68Z"/><path class="cls-2" d="M756.1,979.66c-23.93-76.42-62.19-148.4-141.59-174.8-67.76-22.58-168.92,2.48-214.09,59.71-30.22,38.37-40.94,67.86-49.81,115.5a636.64,636.64,0,0,0-10.42,137.78c.83,23.2,3.1,47.13,14.13,67.44,15.16,28,45.69,45.38,77,49.91s63.52-2.57,92.81-14.74c12.27-5.06,24.54-11.14,37.74-11.45,12.07-.31,23.72,4.33,35.17,8.25,57,19.7,134.68,33.41,174.07-27.53,20.11-31,19.19-71.37,11-107.36C774.76,1049.79,766.93,1014.31,756.1,979.66Z"/><path class="cls-1" d="M617,860.45l6,51.87A5.12,5.12,0,0,0,630.8,916l45.58-28.87a5.11,5.11,0,0,0-.62-9l-51.56-23A5.16,5.16,0,0,0,617,860.45Z"/><path class="cls-4" d="M627.29,867.77A67.82,67.82,0,0,1,645,889.22"/><path class="cls-5" d="M617,865.71l15.26-7.12a5.34,5.34,0,0,0,2.58-7.11h0a5.34,5.34,0,0,0-7.11-2.58L612.44,856a5.36,5.36,0,0,0-2.57,7.12h0A5.44,5.44,0,0,0,617,865.71Z"/><path class="cls-2" d="M736,620.78c0-.72.1-1.44.1-2.16,4-103.85-98.07-192.12-228.21-197.18S269,496.52,264.91,600.37a116.39,116.39,0,0,0,.11,12c-20.63,22.48-32.9,48.47-34,76.52-3.61,92.5,114.68,172.22,264.11,178s273.59-64.55,277.3-157.06C773.63,677.71,760.22,647.19,736,620.78Z"/><path class="cls-6" d="M662.67,526.73a74.5,74.5,0,0,0-147.78-16.6c-2.06-.2-4.13-.41-6.19-.51a97.33,97.33,0,0,0-14.64.41,74.54,74.54,0,1,0-87.45,78.68,96.85,96.85,0,0,0-2,15.68c-1.55,33.1,19,53.62,49.91,61.25,43,10.63,95.49,12.79,132.41-15.67,10.93-8.46,15.68-22.89,16.3-36.2a95.78,95.78,0,0,0-.73-17.32A75,75,0,0,0,662.67,526.73Z"/><ellipse class="cls-7" cx="482.08" cy="454.56" rx="8.66" ry="20.62" transform="translate(5.48 914.85) rotate(-87.32)"/><ellipse class="cls-7" cx="553.84" cy="457.88" rx="8.66" ry="20.62" transform="translate(70.56 989.71) rotate(-87.32)"/><path class="cls-8" d="M376.29,537.46A129.14,129.14,0,0,0,368,550.35c-16.71,29.18-52.8,19.49-64.56.72-7.53-12-1.55-31.35,4.75-42.59,13.2-23.82,37.95-37.12,63.31-44.14a241.18,241.18,0,0,1,39.19-7.22c9.39-1,22.9-2.78,31.76,1.35,5.26,2.47,7.64,6.9,7,12.68-1.65,15.16-30.12,25.27-40.84,33.41A150.61,150.61,0,0,0,376.29,537.46Z"/><path class="cls-8" d="M653.9,565.61c8.66,11.66,14.13,26.71,28.88,31.66,15.16,5.16,34.23.11,44.13-12.79,8.67-11.24,4.54-31-.62-42.9-8.25-19.07-24-33.41-42.28-42.69-18.56-9.49-37.43-14.33-58.26-19.49-14-3.51-32.28-8.66-41.66,3.92-4.54,6.08-3.92,14.13-1.55,20.93,3.09,8.67,9.07,14,17,18.57,4.34,2.47,8.77,4.64,13,7a136.71,136.71,0,0,1,39.7,33.62C652.87,564.27,653.39,564.89,653.9,565.61Z"/><ellipse class="cls-9" cx="511.37" cy="499.68" rx="14.23" ry="27.53" transform="translate(-11.58 987.22) rotate(-87.33)"/><ellipse class="cls-9" cx="440.39" cy="474.11" rx="23.51" ry="23.41" transform="translate(-169.2 691.2) rotate(-66.71)"/><ellipse class="cls-9" cx="587.4" cy="494.64" rx="23.51" ry="23.41" transform="translate(-99.22 838.53) rotate(-66.7)"/><path class="cls-10" d="M637.71,664.61a151.35,151.35,0,0,0-21,4.23c-16.6-52-64.45-90.65-136.64-96.94-80.44-7-136.43,16.81-158.91,87.35a161.22,161.22,0,0,0-20.63-6.7c-21.66-5.78-51.87-4-46.1,25.06,2.79,14.13,13.51,22,36.2,28.46-1.65,4.12-3.09,8.35-4.43,12.89-17.53,59.5,71.46,117.67,171.7,126.33s200.48-33.31,191.19-95a120.81,120.81,0,0,0-9.07-31c24.75-3.71,36.61-10.21,40.94-24.34C689.58,666.78,659.78,661.42,637.71,664.61Z"/><path class="cls-1" d="M637.92,599.85c-14.34-22.17-62.39-61.46-95.19-70.12-10-2.69-20.62-4.44-30.52-3.51-5.57.51-22.69.62-29,3.4-5.67-4-22.59-7.42-28-9.07-9.59-2.89-20.31-3.2-30.63-2.58C391,520,337.41,549.22,319.78,568.19c-18,19.49-29.19,42.8-23.83,66.21,2.38,10.21,17.12,13.51,26.09,16.29a115.9,115.9,0,0,0,34,5.47c10.41,0,14.43-5.47,21.55-12,3.71-3.4,9.69-2.26,12.68,1.45,3.82,4.64,3.61,9.07,10.93,12,9.29,3.51,14.75.52,19.29-6a76.87,76.87,0,0,1,6.39-8c3.61-4,11-3,13.61,1.85,6.19,11.55,15.27,23.2,25.68,7.12,2.79-4.33,5.06-8.46,7.94-12.38,2.27,4.44,3.82,9,5.88,13.72,7.63,17.94,18.36,8.25,26.4-2,3.3-4.23,10.83-3.82,13.72.93a81.06,81.06,0,0,1,5,9.17c3.09,6.71,7.32,11.76,16.29,12.9,8.15.92,11.45-3.82,12.69-9.7,1.44-6,10.41-7.22,14.43-2,6.81,8.77,9.7,15,21.35,15.37,15.88.51,42.18,6.6,56.1-2.48,2.48-1.54,3.61-3.92,4.54-6.29C659.88,647.7,652.66,622.54,637.92,599.85Z"/><path class="cls-3" d="M740.32,932.74c36.92-154.48-109.31-120-106.73-54.45-8.05,79.61,1,160.25-11.45,239.66C663.39,1189.42,740.11,955.12,740.32,932.74Z"/><path class="cls-11" d="M241.09,667.81c-12.68-12.37-23.51-16.5-31.76-15.26h0Z"/><path class="cls-11" d="M241.09,667.81l.21.21,3.09,1.85c-.1-.2-.1-.31-.21-.51Z"/><path class="cls-1" d="M241.71,667.19A57,57,0,0,0,229,656.88c-10-6.29-23.82-7.32-31.55,3A31.3,31.3,0,0,0,192,674.93c-.72,6.49,1,12.06,1.76,18.35,1.75,15.47,27.32,34.14,23.2,8.87.1.93,10.11.52,11.24.52a28.63,28.63,0,0,0,8.77-1.86,16.29,16.29,0,0,0,9.9-9.59c1.95-5.26,1.13-11.14-.52-16.4A24.07,24.07,0,0,0,241.71,667.19Z"/><path class="cls-1" d="M209.22,652.55c8.25-1.24,19.08,2.78,31.77,15.26l3.09,1.55c.1.2.1.31.21.51,5.88,3.1,12.58,5.16,15.16-1.34C273.37,620.78,176.64,610.58,209.22,652.55Z"/><path class="cls-1" d="M221.7,611.4c62.39-29,72.19,88.38,26.61,28.67a11.73,11.73,0,0,0-1-1.14c-7.22-6.7-15.57-7.52-24.34-10.31a9.36,9.36,0,0,1-5.57-13,.1.1,0,0,1,.1-.1A8.31,8.31,0,0,1,221.7,611.4Z"/><path class="cls-12" d="M218.71,626.35a34.15,34.15,0,0,1,21,3.92,53.72,53.72,0,0,1,16.4,14c3,3.61,5.67,8,5.05,12.68"/><path class="cls-12" d="M206.23,654.2c14.34-3.3,41.46,12.27,39.09,33.62"/><path class="cls-1" d="M625.85,1093.2c-2.47,4.64-.82,10.52-1.86,15.47-1,4.54-3.71,8.87-5.46,13-1.44,3.41-5,8.25-2.89,12.89a8,8,0,0,0,5.78,4.54c4.43.62,5.57-4.84,7-7.73,1.44,3.92.1,7.73.1,11.44,0,3.51,1.34,8,4.75,10.11a5.09,5.09,0,0,0,5.87.1c2.58-2.06,4.13-5,5.57-8.14,1.55-3.41,2.48-.11,3.1,2.37a16.91,16.91,0,0,0,2,5.26c5.26,9.07,12.78,6,13.51-1.44.3-3.1,0-6.4,1.23-9.08,1.76,3.4,3.72,6.81,6.6,9.38s7.12,3.92,9.7,2.27c2.16-1.34,2.57-4.43,2.27-7.42a33.56,33.56,0,0,0-4.75-14c5.16,6.19,14.54,7.33,13.51-1.44-.51-4.43-3.92-8.77-7.63-12.27-2.58-2.37-5.57-4.23-8.25-6.5-3.3-2.78-3.61-3.61-1.86-7.63a22.61,22.61,0,0,1,7.43-9.59"/><path class="cls-9" d="M274.3,775.16q2.77-4.49,5.88-9c2.06-2.89,4.12-5.77,6.39-8.56a68.48,68.48,0,0,1,7.53-7.94,25.84,25.84,0,0,1,4.74-3.3,13.22,13.22,0,0,1,6.29-1.75,10.23,10.23,0,0,1,3.51.72,13.91,13.91,0,0,1,3,1.65,28.12,28.12,0,0,1,4.33,4.23c2.37,3,4.33,6,6.39,8.66A44.39,44.39,0,0,0,329,767a22.36,22.36,0,0,0,7.84,4.22l-1.44-.2c7.11-.62,14.13-1.24,21.14-2.17l10.62-1.44c1.86-.21,3.61-.52,5.67-.62a26,26,0,0,1,6.7.41,22.49,22.49,0,0,1,6.4,2.58,45.64,45.64,0,0,1,4.85,3.3c3,2.17,5.77,4.44,8.66,6.6q8.5,6.49,17,12.69l-1.23-.62a39.3,39.3,0,0,0,14.74,2.37,95,95,0,0,0,15.78-2l-1.24.51L448,791l1.75-.82a18.81,18.81,0,0,1,1.76-.72l3.61-1.55,3.71-1.24a70,70,0,0,1,15.47-3.19,51.12,51.12,0,0,1,15.88,1.13A64,64,0,0,1,504.78,790c9.18,4.54,17.12,10.42,25.68,14.85a64.16,64.16,0,0,0,13.41,5.26c1.13.31,2.37.52,3.5.72s2.37.31,3.61.42l3.71.1,3.72-.1a42.89,42.89,0,0,1-15,.92,58.34,58.34,0,0,1-14.64-3.81c-9.38-3.71-17.94-8.87-26.81-12.38a58.34,58.34,0,0,0-13.41-3.81A46.35,46.35,0,0,0,475,792a60.05,60.05,0,0,0-13.3,3.41,87.62,87.62,0,0,0-12.69,6,5.14,5.14,0,0,1-1.13.41h-.11A90,90,0,0,1,430,804.35a46.73,46.73,0,0,1-9.29-.52,47.94,47.94,0,0,1-9.17-2.37,2.41,2.41,0,0,1-1.14-.62h-.1c-5.88-4.12-11.65-8.56-17.33-13l-8.35-6.5a46.12,46.12,0,0,0-4-2.78,12,12,0,0,0-3.4-1.55,22.54,22.54,0,0,0-4-.31c-1.54.1-3.3.21-5.05.41-3.51.41-7.11.72-10.72,1-7.22.62-14.44,1-21.66,1.14h-.21a5.28,5.28,0,0,1-1.23-.21,28.53,28.53,0,0,1-10.42-6.39,48.58,48.58,0,0,1-7.22-9c-2-3.1-3.71-6.19-5.57-9a20.3,20.3,0,0,0-2.88-3.5,5.49,5.49,0,0,0-3.2-1.55,8,8,0,0,0-3.92.72,25.29,25.29,0,0,0-4.23,2.37,60.26,60.26,0,0,0-7.84,6.71c-2.57,2.47-5,5-7.32,7.63C278.94,769.8,276.67,772.48,274.3,775.16Z"/><ellipse class="cls-9" cx="348.98" cy="697.22" rx="20.42" ry="14.85" transform="translate(-378.62 977.4) rotate(-84.47)"/><ellipse class="cls-13" cx="391.17" cy="734.68" rx="11.96" ry="19.49" transform="translate(-404.1 980.28) rotate(-79.13)"/><ellipse class="cls-9" cx="436.92" cy="703.5" rx="20.42" ry="14.85" transform="translate(-305.4 1070.61) rotate(-84.47)"/><path class="cls-9" d="M431.87,731.34a13.16,13.16,0,0,0,6.09,1.13,40.43,40.43,0,0,0,6.08-.62c4.23-.62,8.35-1.24,12.27-2.06A53.12,53.12,0,0,0,467.76,726a43.49,43.49,0,0,0,10.62-6.7,22.39,22.39,0,0,1-8.15,10.93,33.42,33.42,0,0,1-12.68,5.67,46.21,46.21,0,0,1-13.51.93,25.7,25.7,0,0,1-6.81-1.34A11.08,11.08,0,0,1,431.87,731.34Z"/><path class="cls-14" d="M87.27,470.05C39.87,482.32,15,530.43,46.61,536.22a28.77,28.77,0,0,0,13.32-1c25.14-7.81,42.72-31.94,62.92-46.43,59.38-42.73-9.15-23.76-33.3-19.28C88.76,469.69,88,469.85,87.27,470.05Z"/><path class="cls-14" d="M123.56,559.62c-91.95,66.81-45.7,142,8.37,44,17.55-23.21,37.24-41.73,59.59-61C174.07,533.2,138.62,549.85,123.56,559.62Z"/><path class="cls-1" d="M640.8,1253.46c.11,17.32,24.24,19.18,63.22,18.87s63.11-2.58,62.91-19.9-21.25-31.15-60.33-30.84S640.6,1236.24,640.8,1253.46Z"/><path class="cls-1" d="M496.33,1259.23c.51,16.81-22.8,19.49-60.75,20.52s-61.35-.2-61.77-17,19.49-31,57.44-32.07S495.81,1242.42,496.33,1259.23Z"/><path class="cls-10" d="M564.9,1107.54l-25.78-12.38a19.9,19.9,0,0,0-18.35.62L496,1110c-14.24,8.15-31.56-3.61-29.39-19.8l3.81-28.36a19.86,19.86,0,0,0-6.29-17.32L443,1025.35a19.8,19.8,0,0,1,9.69-34.14l28.05-5.16a19.53,19.53,0,0,0,14.44-11.34L507,948.62a19.71,19.71,0,0,1,35.37-1.24l13.51,25.16a19.68,19.68,0,0,0,15.26,10.32L599.45,986c16.29,1.75,23.41,21.45,12.17,33.31L591.92,1040a19.73,19.73,0,0,0-5,17.74l5.88,28C596.15,1101.66,579.65,1114.65,564.9,1107.54Z"/><path class="cls-2" d="M843.65,980.49a86.15,86.15,0,0,1,29.08,15.57c29.29,23.3,44,63.73,43.93,103.23a114,114,0,0,1-3.61,30.21c-4.74,17.64-14.74,33.11-25.88,47a262.07,262.07,0,0,1-72.29,62.8c-14.23,8.35-35,13.72-43.93-.52-4.54-7.11-4-16.6-3.3-25.26,2.06-25.89,30.83-138.7-3.82-140.56-13-.52-25.57-2.27-30.83-13.1-3.41-7-2.17-15.67,2-22.38C760.64,996.57,801.78,968.11,843.65,980.49Z"/><path class="cls-1" d="M784.77,1163.33a8.45,8.45,0,0,0-2.79-.11c-5.26.73-8.76,6.6-10.62,12.07a162.55,162.55,0,0,0-6.39,26.09c-1.76,10-2.38,20.62.51,29.6,5.88,18.56,24.55,19.49,39.91,13.4,8.35-3.3,22.48-8.56,29.39-15.67,5.47-5.57,14.85-17.12,10.42-25.68-2.06-3.92-14.85-6.81-18.15-9.28-8.87-6.7-17.74-13.3-26.71-19.8C796,1170.75,790.44,1164.46,784.77,1163.33Z"/><path class="cls-1" d="M790.54,1070.51c12.27-28,47.34-49.19,98-49.29C894.9,962.64,751,1008.23,790.54,1070.51Z"/><path class="cls-1" d="M782.81,1115.89c38.67-23.72,83.63-35,127.56-32C932.55,1047.62,815.29,1037.93,782.81,1115.89Z"/><path class="cls-1" d="M825.91,1130.22c33.21-4.64,72.6-8.56,77.35-8.56,2.37,0,4.84.11,6.7,1.65,2.89,2.38,2.89,7.22,1.86,11.14-5.47,21.66-24.75,23.51-42.18,25.27a339.8,339.8,0,0,1-36.92,1.13c-5.26-.1-49.91.41-50.53-2.68-1.14-5.77-2.79-11.76-3.3-17.53C778.68,1137.65,800.44,1133.73,825.91,1130.22Z"/><path class="cls-15" d="M751.66,981.52c24.13,36.92,44,118.28,23.62,194.49"/><path class="cls-1" d="M396,856.22,363.5,897.06a5.06,5.06,0,0,0,2.89,8.14l52.69,11.86a5.08,5.08,0,0,0,5.88-6.8l-20.11-52.7A5.19,5.19,0,0,0,396,856.22Z"/><path class="cls-4" d="M398.05,868.7a67.76,67.76,0,0,1-2.68,27.74"/><path class="cls-5" d="M392.17,859.93,408,865.71a5.28,5.28,0,0,0,6.8-3.2h0a5.29,5.29,0,0,0-3.19-6.81l-15.78-5.77a5.28,5.28,0,0,0-6.81,3.2h0A5.49,5.49,0,0,0,392.17,859.93Z"/><text class="cls-16" transform="translate(28.12 250.69) rotate(-0.71)">予約済<tspan class="cls-17" x="709.4" y="0">．．．</tspan></text><text class="cls-18" transform="translate(28.12 250.69) rotate(-0.71)">予約済<tspan class="cls-17" x="709.4" y="0">．．．</tspan></text><text class="cls-19" transform="translate(28.12 250.69) rotate(-0.71)">予約済<tspan class="cls-17" x="709.4" y="0">．．．</tspan></text><text class="cls-20" transform="translate(28.12 250.69) rotate(-0.71)">予約済<tspan class="cls-17" x="709.4" y="0">．．．</tspan></text></g></g></svg>