<svg xmlns="http://www.w3.org/2000/svg" viewBox="0 0 1341.3 1341.3"><defs><style>.cls-1{fill:#f6f6f6;}.cls-2,.cls-3{isolation:isolate;font-size:143.21px;font-family:HiraMaruProN-W4-83pv-RKSJ-H, Hiragino Maru Gothic ProN;}.cls-2,.cls-21,.cls-9{fill:#b76da1;}.cls-13,.cls-15,.cls-26,.cls-28,.cls-29,.cls-3,.cls-4,.cls-7{fill:none;}.cls-3,.cls-4{stroke:#b76da1;}.cls-3{stroke-miterlimit:10;stroke-width:4px;}.cls-11,.cls-12,.cls-13,.cls-14,.cls-15,.cls-16,.cls-17,.cls-19,.cls-20,.cls-21,.cls-26,.cls-28,.cls-29,.cls-30,.cls-4,.cls-7{stroke-linecap:round;stroke-linejoin:round;}.cls-13,.cls-4{stroke-width:4px;}.cls-5{fill:#b3b3b3;}.cls-6{fill:#a192ba;}.cls-26,.cls-29,.cls-7{stroke:#8a73a8;}.cls-7{stroke-width:7px;}.cls-8{fill:#b8a0c7;}.cls-10{fill:#f6d6e4;}.cls-11{fill:#b8cfeb;}.cls-11,.cls-12,.cls-14,.cls-15,.cls-16,.cls-17,.cls-18,.cls-19,.cls-20{stroke:#8f8f8f;}.cls-11,.cls-14,.cls-15,.cls-17,.cls-19{stroke-width:2px;}.cls-12{fill:#f4e1bb;}.cls-12,.cls-16,.cls-18,.cls-20{stroke-width:2px;}.cls-13{stroke:#98cb84;}.cls-14{fill:#ebeea2;}.cls-16{fill:#b4d796;}.cls-17,.cls-30{fill:#eeeeef;}.cls-18{fill:#eed1da;stroke-miterlimit:10;}.cls-19,.cls-27{fill:#cd98be;}.cls-20{fill:#f9e29f;}.cls-21,.cls-28{stroke:#9b5b89;}.cls-21{stroke-width:3px;}.cls-22{fill:#eee;}.cls-23{fill:#fff;}.cls-24{fill:#ae8fbd;}.cls-25{fill:#8a73a8;}.cls-26{stroke-width:9px;}.cls-28,.cls-29{stroke-width:5px;}.cls-30{stroke:#eeeeef;stroke-width:37px;}.cls-31{fill:#6d438f;stroke:#6d438f;stroke-miterlimit:10;}.cls-32{fill:#d85891;}</style></defs><title>资源 8</title><g id="图层_2" data-name="图层 2"><g id="图层_1-2" data-name="图层 1"><path class="cls-1" d="M525.19,121.59l-50.5-77a98.62,98.62,0,0,0-136.6-28.4L44.59,208.79a98.62,98.62,0,0,0-28.4,136.6l50.5,77a98.62,98.62,0,0,0,136.6,28.4l78.9-51.8,144.1,72.6-9.2-161.1,79.7-52.3A98.58,98.58,0,0,0,525.19,121.59Z"/><text class="cls-2" transform="translate(106.06 379.47) rotate(-33.27)">予約可</text><text class="cls-3" transform="translate(106.06 379.47) rotate(-33.27)">予約可</text><line class="cls-4" x1="128.69" y1="402.69" x2="484.79" y2="165.99"/><ellipse class="cls-5" cx="858.59" cy="888.79" rx="289.2" ry="38.4"/><path class="cls-6" d="M692,716.79c31.4,65.7-70.7,47.8-108.3-4.4a37.67,37.67,0,0,1-4.9-35.1c32.3-86.1,186.2-143.7,112.7,7.2C686.59,694.69,687.09,706.59,692,716.79Z"/><path class="cls-7" d="M673.39,664.29c-4.3,2.4-6.7,7.2-7.5,12.1s0,9.8.7,14.6"/><path class="cls-8" d="M1000.79,669.69c-19.3-61.8-50.3-120-114.5-141.4-54.8-18.3-136.6,2-173.1,48.3-24.5,31-33.1,54.8-40.3,93.4a513.79,513.79,0,0,0-8.5,111.4c.6,18.7,2.5,38.1,11.4,54.6,12.3,22.6,36.9,36.7,62.3,40.4s51.4-2.1,75.1-12c9.9-4.1,19.8-9,30.5-9.2,9.8-.2,19.2,3.5,28.4,6.7,46.1,15.9,108.9,27,140.8-22.2,16.2-25.1,15.5-57.7,8.9-86.8C1015.89,726.49,1009.49,697.69,1000.79,669.69Z"/><path class="cls-9" d="M896.79,879.89c2,19.3,29,18.8,72.6,14.2s70.1-9.6,68.1-28.9-27-32.5-70.6-27.9S894.79,860.59,896.79,879.89Z"/><path class="cls-9" d="M780.39,881.79c.5,18.8-25.6,21.8-68.1,23.1s-68.7-.2-69.3-19.1,21.9-34.8,64.4-36S779.89,863,780.39,881.79Z"/><path class="cls-10" d="M843.79,769.09l-22.5-10.9a17,17,0,0,0-16.1.6l-21.7,12.5a17.28,17.28,0,0,1-25.7-17.4l3.3-24.8a17.39,17.39,0,0,0-5.5-15.2l-18.5-16.8a17.35,17.35,0,0,1,8.5-29.9l24.6-4.5a17.36,17.36,0,0,0,12.7-9.9l10.3-22.9a17.26,17.26,0,0,1,31-1.1l11.9,22.1a17.31,17.31,0,0,0,13.4,9l24.9,2.7a17.32,17.32,0,0,1,10.6,29.2l-17.3,18.1a17.28,17.28,0,0,0-4.4,15.5l5.1,24.5C871.09,764,856.69,775.29,843.79,769.09Z"/><path class="cls-6" d="M965,515.89a233.19,233.19,0,0,0-30.1,13.4c-17.2,9.4-34.3,25.5-14.6,39.6,20.5,14.6,28.1,27.4,31.6,49.6,2.3,14.6,7.9,31.5,24.1,37.4,8.9,3.3,19.1,2.3,27.8-.8,27.3-9.8,50.4-33.6,71.3-50.5,23.8-19.3,46.9-39.4,69-60.1,17.3-16.2,40.8-34,29.4-58-6.4-13.3-22.1-17.7-37.7-18.3-55.7-2.2-108.1,24.9-156.9,42.6C974.29,512.49,969.59,514.19,965,515.89Z"/><ellipse class="cls-6" cx="797.33" cy="567.77" rx="97.7" ry="33.8" transform="matrix(0.99, -0.14, 0.14, 0.99, -72.86, 119.59)"/><path class="cls-9" d="M1173.59,559.19c-3.1-.9-18.3,7.1-23.9,7-9.2-.1-17.4-3.3-25.3-7.9-14.8-8.6-24-27.4-22.5-44.9.6-7.4,2.9-11.7.8-19.4-1.8-6.5-5.9-12-6.6-18.9-1.5-15,14.1-25.9,28.4-30.5,17-5.5,35.5-7.1,52.8-2.5,8.7,2.3,17.4,6.5,22.4,14s5.1,18.8-1.8,24.6c5-4.5,13.2.5,16.1,6.6,6.1,12.8-.4,30.1-13.5,35.7,6.4-4.3,16-1,19.5,5.9s1.6,15.7-3.4,21.5-12.6,9-20.2,10.2A50.36,50.36,0,0,1,1173.59,559.19Z"/><path class="cls-11" d="M1238.79,310.49c-5-4.1-8.3-11.1-6.1-17.2,2.5-6.9,10.8-9.9,18.1-10.3a19.71,19.71,0,0,1,9.3,1.3,20.36,20.36,0,0,1,5.8,4.3,56,56,0,0,1,12.5,18,2.82,2.82,0,0,1,.4,2,3.23,3.23,0,0,1-1.2,1.4C1265.39,318.89,1251,320.39,1238.79,310.49Z"/><path class="cls-11" d="M1293.09,277.79c5.6-3.3,13.3-4,18.2.2,5.6,4.7,5.6,13.5,3.4,20.5a16.94,16.94,0,0,1-10.4,12.3,56.08,56.08,0,0,1-21.2,5.6,2.82,2.82,0,0,1-2-.4,3.11,3.11,0,0,1-.9-1.7C1276.19,299.89,1279.69,285.79,1293.09,277.79Z"/><path class="cls-11" d="M1329.39,307.19c6,2.4,11.2,8.2,10.9,14.6-.4,7.4-7.3,12.6-14.2,15.2a19.63,19.63,0,0,1-9.2,1.5,22.77,22.77,0,0,1-6.8-2.3,55.51,55.51,0,0,1-17.3-13.5,2.62,2.62,0,0,1-.9-1.8,3,3,0,0,1,.8-1.7C1301.59,307.09,1315,301.39,1329.39,307.19Z"/><path class="cls-11" d="M1320.29,351.89c1.6,6.3,0,13.9-5.4,17.5-6.1,4-14.5,1.5-20.6-2.5a20.13,20.13,0,0,1-6.7-6.6,20.49,20.49,0,0,1-2.1-6.9,56.2,56.2,0,0,1,.7-22,3.42,3.42,0,0,1,.9-1.8,2.83,2.83,0,0,1,1.8-.4C1303.89,329.39,1316.49,336.79,1320.29,351.89Z"/><path class="cls-11" d="M1268.19,368.19c-5.3,3.7-12.9,5-18.2,1.2-6-4.3-6.6-13-5-20.2a20.14,20.14,0,0,1,3.7-8.6,21,21,0,0,1,5.7-4.5,56.8,56.8,0,0,1,20.7-7.2,2.75,2.75,0,0,1,2,.2,2.94,2.94,0,0,1,1,1.6C1283.39,344.89,1280.89,359.19,1268.19,368.19Z"/><path class="cls-11" d="M1222.09,348.59c-7.1-2.4-13.4-8.7-13.5-16.2,0-8.5,7.7-15,15.5-18.4,3.3-1.4,6.9-2.6,10.6-2.3a24.54,24.54,0,0,1,8,2.3,65.53,65.53,0,0,1,20.8,14.5,3.51,3.51,0,0,1,1.2,2,3.86,3.86,0,0,1-.8,2C1254.19,347,1239.19,354.49,1222.09,348.59Z"/><ellipse class="cls-12" cx="1281.4" cy="321.78" rx="29.2" ry="15.2" transform="translate(-39.73 310.14) rotate(-13.59)"/><path class="cls-13" d="M1112.89,420.79c23.6,23.8,35.2,57.4,38.5,90.8s-1.1,67-5.4,100.2"/><path class="cls-13" d="M1187.19,336.89a1585.66,1585.66,0,0,0-61.4,259.9"/><path class="cls-13" d="M1183.49,418.89a280.27,280.27,0,0,0-48.6,176.7"/><path class="cls-13" d="M1108.39,321c26.7,18.3,34.2,43.5,39.4,67.4a661.87,661.87,0,0,1,12.6,200.7"/><path class="cls-13" d="M1150.59,336.89c12,18.7,15.4,44.5,17.8,69a1532.76,1532.76,0,0,1,5.7,205.6"/><path class="cls-13" d="M1237.89,384.69c-80.8,37.5-74.7,126.7-94,196.2"/><path class="cls-11" d="M1075.69,380.79c-5-4.1-8.3-11.1-6.1-17.2,2.5-6.9,10.8-9.9,18.1-10.3a19.71,19.71,0,0,1,9.3,1.3,20.36,20.36,0,0,1,5.8,4.3,56,56,0,0,1,12.5,18,2.82,2.82,0,0,1,.4,2,3.23,3.23,0,0,1-1.2,1.4C1102.19,389.09,1087.79,390.59,1075.69,380.79Z"/><path class="cls-11" d="M1129.89,348c5.6-3.3,13.3-4,18.2.2,5.6,4.7,5.6,13.5,3.4,20.5a16.94,16.94,0,0,1-10.4,12.3,56.08,56.08,0,0,1-21.2,5.6,2.82,2.82,0,0,1-2-.4,3.11,3.11,0,0,1-.9-1.7C1113,370.09,1116.49,356,1129.89,348Z"/><path class="cls-11" d="M1166.29,377.39c6,2.4,11.2,8.2,10.9,14.6-.4,7.4-7.3,12.6-14.2,15.2a19.63,19.63,0,0,1-9.2,1.5,22.77,22.77,0,0,1-6.8-2.3,55.51,55.51,0,0,1-17.3-13.5,2.62,2.62,0,0,1-.9-1.8,3,3,0,0,1,.8-1.7C1138.39,377.39,1151.79,371.59,1166.29,377.39Z"/><path class="cls-11" d="M1157.09,422.09c1.6,6.3,0,13.9-5.4,17.5-6.1,4-14.5,1.5-20.6-2.5a20.13,20.13,0,0,1-6.7-6.6,20.49,20.49,0,0,1-2.1-6.9,56.2,56.2,0,0,1,.7-22,3.42,3.42,0,0,1,.9-1.8,2.83,2.83,0,0,1,1.8-.4C1140.79,399.59,1153.29,407,1157.09,422.09Z"/><path class="cls-11" d="M1105,438.49c-5.3,3.7-12.9,5-18.2,1.2-6-4.3-6.6-13-5-20.2a20.14,20.14,0,0,1,3.7-8.6,21,21,0,0,1,5.7-4.5,56.8,56.8,0,0,1,20.7-7.2,2.75,2.75,0,0,1,2,.2,2.94,2.94,0,0,1,1,1.6C1120.19,415.09,1117.79,429.39,1105,438.49Z"/><path class="cls-11" d="M1058.89,418.79c-7.1-2.4-13.4-8.7-13.5-16.2,0-8.5,7.7-15,15.5-18.4,3.3-1.4,6.9-2.6,10.6-2.3a24.54,24.54,0,0,1,8,2.3,65.53,65.53,0,0,1,20.8,14.5,3.51,3.51,0,0,1,1.2,2,3.86,3.86,0,0,1-.8,2C1091.09,417.19,1076,424.69,1058.89,418.79Z"/><ellipse class="cls-12" cx="1118.2" cy="391.98" rx="29.2" ry="15.2" transform="translate(-60.8 273.75) rotate(-13.59)"/><path class="cls-14" d="M1109.89,266.49c-5-4.1-8.3-11.1-6.1-17.2,2.5-6.9,10.8-9.9,18.1-10.3a19.71,19.71,0,0,1,9.3,1.3,20.36,20.36,0,0,1,5.8,4.3,56,56,0,0,1,12.5,18,2.82,2.82,0,0,1,.4,2,3.23,3.23,0,0,1-1.2,1.4C1136.49,274.89,1122,276.39,1109.89,266.49Z"/><path class="cls-14" d="M1164.19,233.69c5.6-3.3,13.3-4,18.2.2,5.6,4.7,5.6,13.5,3.4,20.5a16.94,16.94,0,0,1-10.4,12.3,56.08,56.08,0,0,1-21.2,5.6,2.82,2.82,0,0,1-2-.4,3.11,3.11,0,0,1-.9-1.7C1147.29,255.89,1150.79,241.79,1164.19,233.69Z"/><path class="cls-14" d="M1200.49,263.19c6,2.4,11.2,8.2,10.9,14.6-.4,7.4-7.3,12.6-14.2,15.2a19.63,19.63,0,0,1-9.2,1.5,22.77,22.77,0,0,1-6.8-2.3,55.51,55.51,0,0,1-17.3-13.5,2.62,2.62,0,0,1-.9-1.8,3,3,0,0,1,.8-1.7C1172.69,263.09,1186,257.39,1200.49,263.19Z"/><path class="cls-15" d="M1191.39,307.89c1.6,6.3,0,13.9-5.4,17.5-6.1,4-14.5,1.5-20.6-2.5a20.13,20.13,0,0,1-6.7-6.6,20.49,20.49,0,0,1-2.1-6.9,56.2,56.2,0,0,1,.7-22,3.42,3.42,0,0,1,.9-1.8,2.83,2.83,0,0,1,1.8-.4C1175,285.39,1187.49,292.79,1191.39,307.89Z"/><path class="cls-15" d="M1139.29,324.19c-5.3,3.7-12.9,5-18.2,1.2-6-4.3-6.6-13-5-20.2a20.14,20.14,0,0,1,3.7-8.6,21,21,0,0,1,5.7-4.5,56.8,56.8,0,0,1,20.7-7.2,2.75,2.75,0,0,1,2,.2,2.94,2.94,0,0,1,1,1.6C1154.49,300.79,1152,315.19,1139.29,324.19Z"/><path class="cls-14" d="M1093.19,304.59c-7.1-2.4-13.4-8.7-13.5-16.2,0-8.5,7.7-15,15.5-18.4,3.3-1.4,6.9-2.6,10.6-2.3a24.54,24.54,0,0,1,8,2.3,65.53,65.53,0,0,1,20.8,14.5,3.51,3.51,0,0,1,1.2,2,3.86,3.86,0,0,1-.8,2C1125.29,303,1110.29,310.39,1093.19,304.59Z"/><ellipse class="cls-16" cx="1152.5" cy="277.78" rx="29.2" ry="15.2" transform="translate(-33 278.62) rotate(-13.59)"/><path class="cls-17" d="M1063.69,308.79c-5-4.1-8.3-11.1-6.1-17.2,2.5-6.9,10.8-9.9,18.1-10.3a19.71,19.71,0,0,1,9.3,1.3,20.36,20.36,0,0,1,5.8,4.3,56,56,0,0,1,12.5,18,2.82,2.82,0,0,1,.4,2,3.23,3.23,0,0,1-1.2,1.4C1090.29,317.19,1075.79,318.69,1063.69,308.79Z"/><path class="cls-17" d="M1117.89,276c5.6-3.3,13.3-4,18.2.2,5.6,4.7,5.6,13.5,3.4,20.5a16.94,16.94,0,0,1-10.4,12.3,56.08,56.08,0,0,1-21.2,5.6,2.82,2.82,0,0,1-2-.4,3.11,3.11,0,0,1-.9-1.7C1101,298.19,1104.49,284.09,1117.89,276Z"/><path class="cls-17" d="M1154.29,305.49c6,2.4,11.2,8.2,10.9,14.6-.4,7.4-7.3,12.6-14.2,15.2a19.63,19.63,0,0,1-9.2,1.5,22.77,22.77,0,0,1-6.8-2.3,55.51,55.51,0,0,1-17.3-13.5,2.62,2.62,0,0,1-.9-1.8,3,3,0,0,1,.8-1.7C1126.39,305.39,1139.79,299.69,1154.29,305.49Z"/><path class="cls-17" d="M1145.09,350.19c1.6,6.3,0,13.9-5.4,17.5-6.1,4-14.5,1.5-20.6-2.5a20.13,20.13,0,0,1-6.7-6.6,20.49,20.49,0,0,1-2.1-6.9,56.2,56.2,0,0,1,.7-22,3.42,3.42,0,0,1,.9-1.8,2.83,2.83,0,0,1,1.8-.4C1128.79,327.69,1141.29,335.09,1145.09,350.19Z"/><path class="cls-17" d="M1093,366.49c-5.3,3.7-12.9,5-18.2,1.2-6-4.3-6.6-13-5-20.2a20.14,20.14,0,0,1,3.7-8.6,21,21,0,0,1,5.7-4.5,56.8,56.8,0,0,1,20.7-7.2,2.75,2.75,0,0,1,2,.2,2.94,2.94,0,0,1,1,1.6C1108.19,343.19,1105.79,357.49,1093,366.49Z"/><path class="cls-17" d="M1046.89,346.89c-7.1-2.4-13.4-8.7-13.5-16.2,0-8.5,7.7-15,15.5-18.4,3.3-1.4,6.9-2.6,10.6-2.3a24.54,24.54,0,0,1,8,2.3,65.53,65.53,0,0,1,20.8,14.5,3.51,3.51,0,0,1,1.2,2,3.86,3.86,0,0,1-.8,2C1079.09,345.29,1064,352.69,1046.89,346.89Z"/><ellipse class="cls-18" cx="1106.2" cy="320.08" rx="29.2" ry="15.2" transform="translate(-44.24 268.92) rotate(-13.59)"/><path class="cls-19" d="M1158.79,302.79c-5-4.1-8.3-11.1-6.1-17.2,2.5-6.9,10.8-9.9,18.1-10.3a19.71,19.71,0,0,1,9.3,1.3,20.36,20.36,0,0,1,5.8,4.3,56,56,0,0,1,12.5,18,2.82,2.82,0,0,1,.4,2,3.23,3.23,0,0,1-1.2,1.4C1185.39,311.09,1170.89,312.59,1158.79,302.79Z"/><path class="cls-19" d="M1213,270c5.6-3.3,13.3-4,18.2.2,5.6,4.7,5.6,13.5,3.4,20.5a16.94,16.94,0,0,1-10.4,12.3,56.08,56.08,0,0,1-21.2,5.6,2.82,2.82,0,0,1-2-.4,3.11,3.11,0,0,1-.9-1.7C1196.09,292.19,1199.69,278,1213,270Z"/><path class="cls-19" d="M1249.39,299.39c6,2.4,11.2,8.2,10.9,14.6-.4,7.4-7.3,12.6-14.2,15.2a19.63,19.63,0,0,1-9.2,1.5,22.77,22.77,0,0,1-6.8-2.3,55.51,55.51,0,0,1-17.3-13.5,2.62,2.62,0,0,1-.9-1.8,3,3,0,0,1,.8-1.7C1221.59,299.39,1234.89,293.59,1249.39,299.39Z"/><path class="cls-19" d="M1240.29,344.19c1.6,6.3,0,13.9-5.4,17.5-6.1,4-14.5,1.5-20.6-2.5a20.13,20.13,0,0,1-6.7-6.6,20.49,20.49,0,0,1-2.1-6.9,56.2,56.2,0,0,1,.7-22,3.42,3.42,0,0,1,.9-1.8,2.83,2.83,0,0,1,1.8-.4C1223.89,321.59,1236.39,329,1240.29,344.19Z"/><path class="cls-19" d="M1188.19,360.49c-5.3,3.7-12.9,5-18.2,1.2-6-4.3-6.6-13-5-20.2a20.14,20.14,0,0,1,3.7-8.6,21,21,0,0,1,5.7-4.5,56.8,56.8,0,0,1,20.7-7.2,2.75,2.75,0,0,1,2,.2,2.94,2.94,0,0,1,1,1.6C1203.39,337.09,1200.89,351.49,1188.19,360.49Z"/><path class="cls-19" d="M1142.09,340.89c-7.1-2.4-13.4-8.7-13.5-16.2,0-8.5,7.7-15,15.5-18.4,3.3-1.4,6.9-2.6,10.6-2.3a24.54,24.54,0,0,1,8,2.3,65.53,65.53,0,0,1,20.8,14.5,3.51,3.51,0,0,1,1.2,2,3.86,3.86,0,0,1-.8,2C1174.19,339.19,1159.09,346.69,1142.09,340.89Z"/><path class="cls-17" d="M1195.59,379.19c-5-4.1-8.3-11.1-6.1-17.2,2.5-6.9,10.8-9.9,18.1-10.3a19.71,19.71,0,0,1,9.3,1.3,20.36,20.36,0,0,1,5.8,4.3,56,56,0,0,1,12.5,18,2.82,2.82,0,0,1,.4,2,3.23,3.23,0,0,1-1.2,1.4C1222.09,387.49,1207.69,389,1195.59,379.19Z"/><path class="cls-17" d="M1249.79,346.39c5.6-3.3,13.3-4,18.2.2,5.6,4.7,5.6,13.5,3.4,20.5a16.94,16.94,0,0,1-10.4,12.3,56.08,56.08,0,0,1-21.2,5.6,2.82,2.82,0,0,1-2-.4,3.11,3.11,0,0,1-.9-1.7C1232.89,368.49,1236.39,354.39,1249.79,346.39Z"/><path class="cls-17" d="M1286.09,375.79c6,2.4,11.2,8.2,10.9,14.6-.4,7.4-7.3,12.6-14.2,15.2a19.63,19.63,0,0,1-9.2,1.5,22.77,22.77,0,0,1-6.8-2.3,55.51,55.51,0,0,1-17.3-13.5,2.62,2.62,0,0,1-.9-1.8,3,3,0,0,1,.8-1.7C1258.29,375.79,1271.69,370,1286.09,375.79Z"/><path class="cls-17" d="M1277,420.49c1.6,6.3,0,13.9-5.4,17.5-6.1,4-14.5,1.5-20.6-2.5a20.13,20.13,0,0,1-6.7-6.6,20.49,20.49,0,0,1-2.1-6.9,56.2,56.2,0,0,1,.7-22,3.42,3.42,0,0,1,.9-1.8,2.83,2.83,0,0,1,1.8-.4C1260.59,398,1273.19,405.39,1277,420.49Z"/><path class="cls-17" d="M1224.89,436.89c-5.3,3.7-12.9,5-18.2,1.2-6-4.3-6.6-13-5-20.2a20.14,20.14,0,0,1,3.7-8.6,21,21,0,0,1,5.7-4.5,56.8,56.8,0,0,1,20.7-7.2,2.75,2.75,0,0,1,2,.2,2.94,2.94,0,0,1,1,1.6C1240.09,413.49,1237.69,427.79,1224.89,436.89Z"/><path class="cls-17" d="M1178.79,417.19c-7.1-2.4-13.4-8.7-13.5-16.2,0-8.5,7.7-15,15.5-18.4,3.3-1.4,6.9-2.6,10.6-2.3a24.54,24.54,0,0,1,8,2.3,65.53,65.53,0,0,1,20.8,14.5,3.51,3.51,0,0,1,1.2,2,3.86,3.86,0,0,1-.8,2C1211,415.59,1195.89,423.09,1178.79,417.19Z"/><ellipse class="cls-20" cx="1238.1" cy="390.38" rx="29.2" ry="15.2" transform="translate(-57.07 301.88) rotate(-13.59)"/><ellipse class="cls-20" cx="1201.2" cy="314" rx="29.2" ry="15.2" transform="translate(-40.15 291.07) rotate(-13.59)"/><path class="cls-21" d="M1122.79,459.59a22.7,22.7,0,0,1,19.8,2.2,23,23,0,0,1,10.4,17.1c.3,3.6-.3,7.5-2.7,10.2-2.6,2.9-6.7,3.9-10.6,4.3a70.73,70.73,0,0,1-27.1-2"/><path class="cls-21" d="M1178.39,448.49c-1.2,2.8-4,4.5-6.6,6.2-5.8,3.8-11.1,9-13.2,15.6s0,14.9,6,18.3a18.16,18.16,0,0,0,8.2,2.1,31.56,31.56,0,0,0,24.6-10.5"/><path class="cls-21" d="M1184.29,490.69c-6.2-2.1-19.2,3.5-21.7,8.8a19.42,19.42,0,0,0,1.2,18.4c4.9,8.1,13.5,10.9,21.9,8.4,4.9-1.4,11-1.7,13.5-5.7"/><path class="cls-21" d="M1204,521.79c-5.6-1-10.8,2.6-16,5-4.3,1.9-9,3.1-13.2,5.3s-8.1,5.7-8.9,10.4c-1.6,8.7,7.9,17.6,15.9,19.3a27,27,0,0,0,4.9.4c3.6.1,7.4.1,10.8-1.2"/><path class="cls-9" d="M683.39,245l-87.8,120.4s-32.3,61.6-55.4,26.5a28.2,28.2,0,0,1-2.3-4.2l-41.4-90.6c-.7-1.4-1.1-2.9-1.7-4.4-22.4-53.8-3.6-82.7,24.3-86.6l127.6,10.5C675,212.79,700.29,221.79,683.39,245Z"/><path class="cls-8" d="M653.39,253.69l-59.2,81.1s-21.8,41.5-37.3,17.8a15.09,15.09,0,0,1-1.5-2.8l-27.9-61c-.4-1-.8-2-1.2-2.9-15.1-36.2-2.4-55.8,16.4-58.4l86,7.1C647.79,232,664.79,238.09,653.39,253.69Z"/><path class="cls-9" d="M883.29,297.19c-24.6-4.2-53.5-18.7-68.9-24.2-23.8-8.5-47.6-17.1-71.4-25.6,0,0-68.1-13.6-41-45.7,1-1.2,2.2-2.3,3.3-3.4l75.1-65.4c1.2-1,2.5-1.9,3.7-2.9,29.7-24.1,65.2-35.4,91.6-2.5,29,36.1,45.2,85.8,49.2,131.5,1,12,.4,25.9-9,33.4C908,298.69,896.19,299.39,883.29,297.19Z"/><path class="cls-8" d="M865.79,273.19c-31.6-9.7-61.6-29.2-93.9-35.7,0,0-45.9-9.2-27.7-30.8a25,25,0,0,1,2.3-2.3l50.6-44.1c.8-.7,1.7-1.3,2.5-2,47.8-38.9,77.6,11,94.3,54.7,8,20.9,10.7,44.7,2.8,65.6A112,112,0,0,1,865.79,273.19Z"/><path class="cls-8" d="M968.19,327.39c-.1-.7-.1-1.3-.2-2-14.6-96-123.8-158.9-244-140.6s-205.8,111-191.3,207c.6,3.7,1.3,7.3,2.2,10.9-15,24.3-21.6,50.3-17.7,76.2,13,85.5,135.5,137.7,273.6,116.7s239.6-107.4,226.6-192.9C1012.89,373,995.19,347.29,968.19,327.39Z"/><path class="cls-22" d="M832.79,257.09a70.37,70.37,0,0,0-134.4,40.8c-1.9.6-3.7,1.2-5.6,1.9a103.31,103.31,0,0,0-12.6,5.8,70.39,70.39,0,1,0-46.4,101,92.75,92.75,0,0,0,4.1,14.3c11,29.3,36.5,39.4,66.2,34.5,41.3-6.9,87.6-24.6,109-63.1,6.3-11.4,5-25.7.6-37.5a90.32,90.32,0,0,0-7-14.7A70.73,70.73,0,0,0,832.79,257.09Z"/><ellipse class="cls-23" cx="623.26" cy="242.93" rx="23.7" ry="10" transform="translate(-45.62 235.08) rotate(-20.62)"/><ellipse class="cls-23" cx="706.96" cy="211.54" rx="23.7" ry="10" transform="translate(-29.2 262.55) rotate(-20.62)"/><path class="cls-24" d="M588.39,373.39c-1,4.7-1.8,9.4-2.4,14.2-3.6,31.5-38.5,36.6-55.8,24.7-11-7.6-13-26.7-11.8-38.7,2.5-25.6,19-46.3,38.4-62a233.59,233.59,0,0,1,31.3-20.9c7.7-4.4,18.8-11,28-10.7,5.5.2,9.2,3.2,10.8,8.4,4.2,13.7-16.7,33.2-22.9,44.2A147.71,147.71,0,0,0,588.39,373.39Z"/><path class="cls-24" d="M820.49,287.69c11.9,6.9,22.3,17.8,36.9,16.7,15-1.2,29.7-12.7,33.5-27.5,3.3-13-7.7-28.7-16.5-37-14.3-13.5-33.4-20-52.6-21.2-19.7-1.3-37.8,1.6-57.8,4.9-13.4,2.2-31.3,4.5-34.7,19-1.7,7,1.8,13.7,6.5,18.7,5.9,6.4,13.1,8.8,21.7,9.7,4.6.5,9.3.7,13.9,1.2a130.1,130.1,0,0,1,47.1,14.3C819.09,286.89,819.79,287.29,820.49,287.69Z"/><ellipse class="cls-25" cx="694.61" cy="297.82" rx="26" ry="13.5" transform="translate(-60.39 263.8) rotate(-20.63)"/><circle class="cls-25" cx="620.19" cy="294.59" r="22.2"/><circle class="cls-25" cx="736.09" cy="250.99" r="22.2"/><path class="cls-10" d="M874.39,375.39a138.2,138.2,0,0,0-14.9,10.2c-30.4-34.7-80.5-48.8-138.6-29.7-64.8,21.3-100.3,58.4-94.1,120.4a152.82,152.82,0,0,0-18.3,1.6c-18.7,2.7-41.6,14.1-27.4,34.7,6.9,10.1,17.8,12.5,37.7,10a113.85,113.85,0,0,0,.9,11.4c6.4,51.9,95,67.4,175.8,40.9s144.5-92.4,116.6-137.1a106.85,106.85,0,0,0-17.4-21.1c17.9-11.1,25-20,23.6-32.5C915.49,359.79,890.49,365.59,874.39,375.39Z"/><path class="cls-26" d="M775.59,543.69c30.8-2.4,59.3-23.8,69.6-52.3"/><ellipse class="cls-27" cx="755.31" cy="513.09" rx="24.5" ry="12.3" transform="translate(-144.87 360.02) rotate(-24.54)"/><ellipse class="cls-25" cx="788.25" cy="457.2" rx="21.9" ry="29.3" transform="translate(-76.46 169.72) rotate(-11.72)"/><ellipse class="cls-25" cx="706.82" cy="481.03" rx="19.7" ry="31.6" transform="translate(-95.52 185.68) rotate(-14.03)"/><path class="cls-9" d="M855.89,314.79c-19-12.8-70.8-27.5-99.9-23-8.9,1.4-18,3.6-25.6,7.9-4.2,2.4-17.9,8.5-21.9,12.9-5.9-1.2-20.6,1.9-25.4,2.5-8.7,1-17.3,4.6-25.3,8.7-26.2,13.5-59.1,55.7-66.7,77.2-7.8,22-8.7,44.6,3.5,61.6,5.3,7.4,18.3,4.9,26.4,4a101.65,101.65,0,0,0,29.1-7.6c8.3-3.7,9.7-9.5,13.1-17.2,1.8-4,6.9-5.2,10.7-3.3,4.7,2.4,5.9,6.1,12.8,5.8,8.6-.4,12-4.7,13.4-11.5a70.48,70.48,0,0,1,2.4-8.7c1.5-4.5,7.8-6.3,11.5-3.3,8.9,7.1,20.1,13.3,22.9-3.3.7-4.4,1.1-8.6,2.1-12.7,3.3,2.8,6.1,5.9,9.4,9,12.2,11.7,17.5.2,20.4-10.8,1.2-4.6,7.3-6.8,11.3-4.1a64.77,64.77,0,0,1,7.1,5.6c4.8,4.3,9.8,6.9,17.4,4.6,6.8-2.1,7.8-7.1,6.8-12.3s5.9-9.5,10.9-6.7c8.4,4.7,12.8,8.6,22.3,4.8,12.8-5.1,35.9-9.5,43.9-21.7,1.4-2.1,1.5-4.5,1.5-6.7C889.59,345.69,875.29,328,855.89,314.79Z"/><path class="cls-8" d="M1054.29,671.09a65.09,65.09,0,0,1,20.9,11.3c21,16.5,31.3,44.3,30.8,71a70.46,70.46,0,0,1-3,20.4c-3.6,11.8-11.1,22-19.4,31.1a180.67,180.67,0,0,1-53.4,40.5c-10.5,5.2-25.6,8.3-32-1.5-3.2-4.9-2.7-11.3-2.1-17.2,1.9-17.5,24.2-93-1.1-95.2-9.5-.7-18.6-2.2-22.3-9.7-2.4-4.8-1.4-10.7,1.7-15.1C993.69,679.79,1024,661.59,1054.29,671.09Z"/><path class="cls-9" d="M1009.19,793.19a6.73,6.73,0,0,0-2-.1c-3.8.3-6.4,4.2-7.9,7.9a116.68,116.68,0,0,0-5,17.5c-1.4,6.7-2,13.9,0,20.1,4.1,12.7,17.6,13.8,28.9,10.2,6.1-2,16.5-5.2,21.6-9.8,4-3.6,11-11.2,7.9-17.1-1.4-2.7-10.8-5-13.1-6.8q-9.6-7.2-19.2-14.1C1017.29,798.59,1013.29,794.09,1009.19,793.19Z"/><path class="cls-28" d="M994.79,840.79c4.3,3.9,8.8,7.9,14.5,9.1,4.2.9,8.5.1,12.6-1.2"/><path class="cls-9" d="M1014.49,730.59c9.2-18.6,35.1-32,71.9-30.7C1091.89,660.39,986.49,687.39,1014.49,730.59Z"/><path class="cls-9" d="M1008.39,761a165.66,165.66,0,0,1,93.2-18.2C1118.19,718.89,1032.89,709.19,1008.39,761Z"/><path class="cls-9" d="M1039.59,771.89c24.2-2.2,53-3.8,56.4-3.7,1.7.1,3.5.2,4.9,1.3,2.1,1.7,2,5,1.2,7.6-4.2,14.5-18.3,15.3-31,15.9a268.41,268.41,0,0,1-26.9-.2c-3.8-.2-36.3-1.1-36.7-3.2-.8-3.9-1.9-8-2.2-12C1005.09,775.69,1021,773.59,1039.59,771.89Z"/><path class="cls-29" d="M1000.09,667.29c13.3,29.3,18.5,90.2-4.7,142.8"/><path class="cls-30" d="M417.19,822.39a2.2,2.2,0,0,1-.1.8c-1.6,7.4-4.1,15.6-7,21.4a3.29,3.29,0,0,1-2.9,1.9,3.53,3.53,0,0,1-1.4-.3,2.6,2.6,0,0,1-1.6-2.4,3.43,3.43,0,0,1,.4-1.6,87.36,87.36,0,0,0,6.9-20.4,2.46,2.46,0,0,1,2.5-2.1,2.2,2.2,0,0,1,.8.1A2.67,2.67,0,0,1,417.19,822.39Zm23.1-18.4a84.71,84.71,0,0,1-22.5-3.9,2.37,2.37,0,0,1-1.6-2.4,4.25,4.25,0,0,1,.2-1.1,2.43,2.43,0,0,1,2.3-1.7,7.38,7.38,0,0,1,1.2.2c6.5,2,17.4,4,27.7,4.9a2.78,2.78,0,0,1,2.8,2.7v.3a2.73,2.73,0,0,1-2.2,2.8c-8.1,2.1-15.6,5.9-15.6,9.9,0,2.7,1.2,4.1,6.7,8.8,5,4.3,7.3,8.4,7.3,13.3,0,7.5-5.4,11.9-14,11.9a21.54,21.54,0,0,1-14.3-5.5,3.49,3.49,0,0,1-1.2-2.2,2.93,2.93,0,0,1,.8-1.9,3.47,3.47,0,0,1,2.2-1,2.57,2.57,0,0,1,1.8.7,16.14,16.14,0,0,0,10.3,4.3c5.4,0,8.4-2.5,8.4-6.6,0-3.3-1.7-6.4-6.4-10.5-5.4-4.7-7.2-7.2-7.2-11.3,0-5.1,5.7-9.5,13.4-11.5Zm24.7,38.6a2.68,2.68,0,0,1-2,2.7,2.77,2.77,0,0,1-.9.1,2.56,2.56,0,0,1-2.6-2.3c-1.7-6.2-5.1-14.7-8.5-20a2.08,2.08,0,0,1-.3-1.3,2.62,2.62,0,0,1,1.6-2.3,5,5,0,0,1,1.2-.2,2.76,2.76,0,0,1,2.5,1.3,82.62,82.62,0,0,1,9.1,21.1A3.44,3.44,0,0,0,465,842.59Zm2.7-42.6a7.54,7.54,0,0,1-7.7,7.5,7.51,7.51,0,1,1,0-15A7.54,7.54,0,0,1,467.69,800Zm-12.2,0a4.57,4.57,0,0,0,4.6,4.5,4.61,4.61,0,0,0,4.5-4.5,4.55,4.55,0,0,0-9.1,0Z"/><path class="cls-30" d="M511.49,796.49a3,3,0,0,1-1.1,2.3,189.66,189.66,0,0,1-26.2,19.8c-1.6,1-1.9,1.7-1.9,2.6s.5,1.5,2.4,2.7a235.24,235.24,0,0,1,28.1,21.2,3.33,3.33,0,0,1,1.2,2.6,3.11,3.11,0,0,1-.8,2.2,3,3,0,0,1-2.3,1.1,3.3,3.3,0,0,1-2.4-1.1,209.88,209.88,0,0,0-28.6-22.4c-3.1-2.1-4.1-3.8-4.1-6.3,0-2.7,1.2-4.6,4.4-6.7a180.58,180.58,0,0,0,25.8-19.9,3.28,3.28,0,0,1,2.2-.9,4,4,0,0,1,2.2.8A2.32,2.32,0,0,1,511.49,796.49Z"/><path class="cls-30" d="M564.19,832.19a63.31,63.31,0,0,1,16.3,9.7,3.69,3.69,0,0,1,1.2,2.4,2.72,2.72,0,0,1-.6,1.7,3,3,0,0,1-4.4.4,65.22,65.22,0,0,0-13.9-9.1c-1-.4-2-.9-3.1-1.4a28.1,28.1,0,0,1,.1,2.9c0,8.3-5.1,11.5-14.3,11.5s-15.2-4.3-15.2-10.7,5.5-11,16.7-11a47.27,47.27,0,0,1,7.2.7c-.3-3.1-.5-6.1-.6-9.1-2.7.1-5.3.1-8,.1-4.8,0-8.4,0-13.5-.3a2.37,2.37,0,0,1-2.3-2.5v-.3a2.31,2.31,0,0,1,2.4-2.4h.1c4.9.3,8.4.4,13,.4,2.7,0,5.3,0,8-.1-.1-2.6-.2-5.4-.3-8.3-2.1.1-4.1.1-6.3.1-6.7,0-12.2-.1-15.8-.3a2.28,2.28,0,0,1-2.2-2.5v-.3a2.38,2.38,0,0,1,2.5-2.3h.1c3.6.2,9.1.3,15,.3,2.2,0,4.4,0,6.5-.1v-6.2q0-2.4,2.7-2.4c1.7,0,2.5.7,2.5,2.5,0,2.1,0,4.1.1,6a191.46,191.46,0,0,0,19.3-1.5,2,2,0,0,1,.7-.1,2.16,2.16,0,0,1,2.3,2.1,1.27,1.27,0,0,1,.1.6,2.27,2.27,0,0,1-2.1,2.3c-6.5.9-13,1.4-20.3,1.7,0,2.6.1,5.2.3,8.3,6.6-.3,12.6-.9,19-1.7h.4a2.3,2.3,0,0,1,2.3,2.2v.5a2.4,2.4,0,0,1-2.2,2.4,192.44,192.44,0,0,1-19.3,1.7c.2,3.6.5,6.9.7,10.5A25.56,25.56,0,0,1,564.19,832.19Zm-17.8,1.2c-7.6,0-10.9,2.3-10.9,6.2,0,3.6,3.9,5.5,9.4,5.5,6.4,0,9.5-1.7,9.4-7.8a26.2,26.2,0,0,0-.1-2.8A29.38,29.38,0,0,0,546.39,833.39Z"/><path class="cls-30" d="M609.09,820.09a38,38,0,0,1,15.1-3.5c12.2,0,19.7,6.3,19.7,15.4,0,11.2-10.4,18.2-27,18.2-10.1,0-16.6-4.1-16.6-10.3,0-5.2,4.4-9,11.1-9,7.3,0,13.4,4.3,14.5,13.1,6.9-1.6,12.1-5.8,12.1-12s-5.3-10.9-14.9-10.9c-9,0-17.3,2.9-28.4,9.7a4.07,4.07,0,0,1-1.8.5,2.95,2.95,0,0,1-2.9-2.8,2.68,2.68,0,0,1,1.6-2.5,295,295,0,0,0,34.9-25c-7.4.6-17.8,1-26.5,1.1a2.44,2.44,0,0,1-2.5-2.6,2.4,2.4,0,0,1,2.4-2.7c9.2,0,20.8-.3,29.8-.9h.6a3.53,3.53,0,0,1,3.4,1.7,4.14,4.14,0,0,1,.5,1.9,3.65,3.65,0,0,1-1.3,2.7,143.82,143.82,0,0,1-17.7,13.7c-1.9,1.3-4.2,2.8-6.1,3.9Zm2,15.4c-3.5,0-5.6,1.8-5.6,4.3,0,3.1,4.1,5.6,10.1,5.7,1.6,0,3.3,0,5-.1C620.09,838.69,615.79,835.49,611.09,835.49Z"/><path class="cls-31" d="M417.19,822.39a2.2,2.2,0,0,1-.1.8c-1.6,7.4-4.1,15.6-7,21.4a3.29,3.29,0,0,1-2.9,1.9,3.53,3.53,0,0,1-1.4-.3,2.6,2.6,0,0,1-1.6-2.4,3.43,3.43,0,0,1,.4-1.6,87.36,87.36,0,0,0,6.9-20.4,2.46,2.46,0,0,1,2.5-2.1,2.2,2.2,0,0,1,.8.1A2.67,2.67,0,0,1,417.19,822.39Zm23.1-18.4a84.71,84.71,0,0,1-22.5-3.9,2.37,2.37,0,0,1-1.6-2.4,4.25,4.25,0,0,1,.2-1.1,2.43,2.43,0,0,1,2.3-1.7,7.38,7.38,0,0,1,1.2.2c6.5,2,17.4,4,27.7,4.9a2.78,2.78,0,0,1,2.8,2.7v.3a2.73,2.73,0,0,1-2.2,2.8c-8.1,2.1-15.6,5.9-15.6,9.9,0,2.7,1.2,4.1,6.7,8.8,5,4.3,7.3,8.4,7.3,13.3,0,7.5-5.4,11.9-14,11.9a21.54,21.54,0,0,1-14.3-5.5,3.49,3.49,0,0,1-1.2-2.2,2.93,2.93,0,0,1,.8-1.9,3.47,3.47,0,0,1,2.2-1,2.57,2.57,0,0,1,1.8.7,16.14,16.14,0,0,0,10.3,4.3c5.4,0,8.4-2.5,8.4-6.6,0-3.3-1.7-6.4-6.4-10.5-5.4-4.7-7.2-7.2-7.2-11.3,0-5.1,5.7-9.5,13.4-11.5Zm24.7,38.6a2.68,2.68,0,0,1-2,2.7,2.77,2.77,0,0,1-.9.1,2.56,2.56,0,0,1-2.6-2.3c-1.7-6.2-5.1-14.7-8.5-20a2.08,2.08,0,0,1-.3-1.3,2.62,2.62,0,0,1,1.6-2.3,5,5,0,0,1,1.2-.2,2.76,2.76,0,0,1,2.5,1.3,82.62,82.62,0,0,1,9.1,21.1A3.44,3.44,0,0,0,465,842.59Zm2.7-42.6a7.54,7.54,0,0,1-7.7,7.5,7.51,7.51,0,1,1,0-15A7.54,7.54,0,0,1,467.69,800Zm-12.2,0a4.57,4.57,0,0,0,4.6,4.5,4.61,4.61,0,0,0,4.5-4.5,4.55,4.55,0,0,0-9.1,0Z"/><path class="cls-31" d="M511.49,796.49a3,3,0,0,1-1.1,2.3,189.66,189.66,0,0,1-26.2,19.8c-1.6,1-1.9,1.7-1.9,2.6s.5,1.5,2.4,2.7a235.24,235.24,0,0,1,28.1,21.2,3.33,3.33,0,0,1,1.2,2.6,3.11,3.11,0,0,1-.8,2.2,3,3,0,0,1-2.3,1.1,3.3,3.3,0,0,1-2.4-1.1,209.88,209.88,0,0,0-28.6-22.4c-3.1-2.1-4.1-3.8-4.1-6.3,0-2.7,1.2-4.6,4.4-6.7a180.58,180.58,0,0,0,25.8-19.9,3.28,3.28,0,0,1,2.2-.9,4,4,0,0,1,2.2.8A2.32,2.32,0,0,1,511.49,796.49Z"/><path class="cls-31" d="M564.19,832.19a63.31,63.31,0,0,1,16.3,9.7,3.69,3.69,0,0,1,1.2,2.4,2.72,2.72,0,0,1-.6,1.7,3,3,0,0,1-4.4.4,65.22,65.22,0,0,0-13.9-9.1c-1-.4-2-.9-3.1-1.4a28.1,28.1,0,0,1,.1,2.9c0,8.3-5.1,11.5-14.3,11.5s-15.2-4.3-15.2-10.7,5.5-11,16.7-11a47.27,47.27,0,0,1,7.2.7c-.3-3.1-.5-6.1-.6-9.1-2.7.1-5.3.1-8,.1-4.8,0-8.4,0-13.5-.3a2.37,2.37,0,0,1-2.3-2.5v-.3a2.31,2.31,0,0,1,2.4-2.4h.1c4.9.3,8.4.4,13,.4,2.7,0,5.3,0,8-.1-.1-2.6-.2-5.4-.3-8.3-2.1.1-4.1.1-6.3.1-6.7,0-12.2-.1-15.8-.3a2.28,2.28,0,0,1-2.2-2.5v-.3a2.38,2.38,0,0,1,2.5-2.3h.1c3.6.2,9.1.3,15,.3,2.2,0,4.4,0,6.5-.1v-6.2q0-2.4,2.7-2.4c1.7,0,2.5.7,2.5,2.5,0,2.1,0,4.1.1,6a191.46,191.46,0,0,0,19.3-1.5,2,2,0,0,1,.7-.1,2.16,2.16,0,0,1,2.3,2.1,1.27,1.27,0,0,1,.1.6,2.27,2.27,0,0,1-2.1,2.3c-6.5.9-13,1.4-20.3,1.7,0,2.6.1,5.2.3,8.3,6.6-.3,12.6-.9,19-1.7h.4a2.3,2.3,0,0,1,2.3,2.2v.5a2.4,2.4,0,0,1-2.2,2.4,192.44,192.44,0,0,1-19.3,1.7c.2,3.6.5,6.9.7,10.5A25.56,25.56,0,0,1,564.19,832.19Zm-17.8,1.2c-7.6,0-10.9,2.3-10.9,6.2,0,3.6,3.9,5.5,9.4,5.5,6.4,0,9.5-1.7,9.4-7.8a26.2,26.2,0,0,0-.1-2.8A29.38,29.38,0,0,0,546.39,833.39Z"/><path class="cls-31" d="M609.09,820.09a38,38,0,0,1,15.1-3.5c12.2,0,19.7,6.3,19.7,15.4,0,11.2-10.4,18.2-27,18.2-10.1,0-16.6-4.1-16.6-10.3,0-5.2,4.4-9,11.1-9,7.3,0,13.4,4.3,14.5,13.1,6.9-1.6,12.1-5.8,12.1-12s-5.3-10.9-14.9-10.9c-9,0-17.3,2.9-28.4,9.7a4.07,4.07,0,0,1-1.8.5,2.95,2.95,0,0,1-2.9-2.8,2.68,2.68,0,0,1,1.6-2.5,295,295,0,0,0,34.9-25c-7.4.6-17.8,1-26.5,1.1a2.44,2.44,0,0,1-2.5-2.6,2.4,2.4,0,0,1,2.4-2.7c9.2,0,20.8-.3,29.8-.9h.6a3.53,3.53,0,0,1,3.4,1.7,4.14,4.14,0,0,1,.5,1.9,3.65,3.65,0,0,1-1.3,2.7,143.82,143.82,0,0,1-17.7,13.7c-1.9,1.3-4.2,2.8-6.1,3.9Zm2,15.4c-3.5,0-5.6,1.8-5.6,4.3,0,3.1,4.1,5.6,10.1,5.7,1.6,0,3.3,0,5-.1C620.09,838.69,615.79,835.49,611.09,835.49Z"/><path class="cls-9" d="M908.19,559l10.9,49.4a4.91,4.91,0,0,0,7.9,2.8l41.1-32.5a5,5,0,0,0-1.5-8.6l-52-17A5.1,5.1,0,0,0,908.19,559Z"/><path class="cls-29" d="M918.89,565.09a68.17,68.17,0,0,1,19.3,18.9"/><path class="cls-32" d="M908.69,564.09l14-8.3a5.29,5.29,0,0,0,1.8-7.1h0a5.29,5.29,0,0,0-7.1-1.8l-14,8.3a5.29,5.29,0,0,0-1.8,7.1h0A5.11,5.11,0,0,0,908.69,564.09Z"/><path class="cls-9" d="M701.79,606.19l12.3,47.8a5,5,0,0,1-6.2,6l-45.8-13.4a4.94,4.94,0,0,1-2.2-8.2l33.4-34.4A5,5,0,0,1,701.79,606.19Z"/><path class="cls-29" d="M695.89,615.49a63.21,63.21,0,0,0-7.2,24.4"/><path class="cls-32" d="M703.59,610.69l-14.7-2.2a5.62,5.62,0,0,1-4.5-5.7h0a4.25,4.25,0,0,1,4.9-4.3l14.7,2.2a5.62,5.62,0,0,1,4.5,5.7h0A4.25,4.25,0,0,1,703.59,610.69Z"/></g></g></svg>