<svg xmlns="http://www.w3.org/2000/svg" viewBox="0 0 1280.79 1280.79"><defs><style>.cls-1{fill:#b76da1;}.cls-2{fill:#b8a0c7;}.cls-3{fill:#a192ba;}.cls-11,.cls-12,.cls-15,.cls-18,.cls-20,.cls-21,.cls-22,.cls-4{fill:none;}.cls-12,.cls-15,.cls-20,.cls-4{stroke:#8a73a8;}.cls-12,.cls-15,.cls-18,.cls-21,.cls-22,.cls-4{stroke-linecap:round;stroke-linejoin:round;}.cls-4{stroke-width:5px;}.cls-5{fill:#d85891;}.cls-6{fill:#eee;}.cls-7{fill:#fff;}.cls-8{fill:#ae8fbd;}.cls-19,.cls-9{fill:#8a73a8;}.cls-10{fill:#f6d6e4;}.cls-12{stroke-width:3px;}.cls-13{fill:#cd98be;}.cls-14{fill:#eadfea;}.cls-15{stroke-width:9px;}.cls-16,.cls-18,.cls-19,.cls-20{isolation:isolate;font-size:236.47px;font-family:HiraMaruProN-W4-83pv-RKSJ-H, Hiragino Maru Gothic ProN;}.cls-16{fill:#ebebec;}.cls-17{letter-spacing:-0.5em;}.cls-18{stroke:#e4e4e5;stroke-width:37px;}.cls-20{stroke-miterlimit:10;stroke-width:2px;}.cls-21{stroke:#888;}.cls-21,.cls-22{stroke-width:7px;}.cls-22{stroke:#9e9e9f;}</style></defs><title>资源 11</title><g id="图层_2" data-name="图层 2"><g id="图层_1-2" data-name="图层 1"><path class="cls-1" d="M612.37,611.4c-128.7-137.9-143.8-143.9-126.8-162.9,53.7-25.7,209.6-73,223-24.8C734.67,485.8,691.67,683,612.37,611.4Z"/><path class="cls-2" d="M610.47,582.8c-99.3-106.4-111-111.1-97.9-125.7,41.5-19.9,161.8-56.3,172.1-19.1C705,485.8,671.77,638,610.47,582.8Z"/><path class="cls-1" d="M444,585.2c-168.9-49.5-183.8-46.6-179.9-71.6,29.1-50.1,127.2-172.3,161.6-138.4C476.87,414.1,541.37,604.3,444,585.2Z"/><path class="cls-2" d="M431.37,557.4c-130.4-38.2-141.8-36-138.9-55.3,22.4-38.7,98.2-133,124.7-106.8C456.77,425.3,506.57,572.2,431.37,557.4Z"/><path class="cls-3" d="M184.17,823.7c41.1,100,129.7,184.3,205.7,77.6,52.3-73.5-129-156.8-176.6-234.3C142.57,707.2,163.87,774.2,184.17,823.7Z"/><path class="cls-2" d="M694.77,989.5c-23.2-74.1-60.3-143.9-137.3-169.5-65.7-21.9-163.8,2.4-207.6,57.9-29.3,37.2-39.7,65.8-48.3,112a617.1,617.1,0,0,0-10.1,133.6c.8,22.5,3,45.7,13.7,65.4,14.7,27.1,44.3,44,74.7,48.4s61.6-2.5,90-14.3c11.9-4.9,23.8-10.8,36.6-11.1,11.7-.3,23,4.2,34.1,8,55.3,19.1,130.6,32.4,168.8-26.7,19.5-30.1,18.6-69.2,10.7-104.1C712.87,1057.5,705.27,1023.1,694.77,989.5Z"/><path class="cls-1" d="M559.87,873.9l5.8,50.3a5,5,0,0,0,7.6,3.6l44.2-28a5,5,0,0,0-.6-8.7l-50-22.3A5,5,0,0,0,559.87,873.9Z"/><path class="cls-4" d="M569.87,881a65.84,65.84,0,0,1,17.2,20.8"/><path class="cls-5" d="M559.87,879l14.8-6.9a5.19,5.19,0,0,0,2.5-6.9h0a5.19,5.19,0,0,0-6.9-2.5l-14.8,6.9a5.19,5.19,0,0,0-2.5,6.9h0A5.28,5.28,0,0,0,559.87,879Z"/><path class="cls-2" d="M675.27,641.5c0-.7.1-1.4.1-2.1,3.9-100.7-95.1-186.3-221.3-191.2S222.47,521,218.47,621.7a112.22,112.22,0,0,0,.1,11.6c-20,21.8-31.9,47-33,74.2-3.5,89.7,111.2,167,256.1,172.6S707,817.5,710.57,727.8C711.77,696.7,698.77,667.1,675.27,641.5Z"/><path class="cls-6" d="M604.17,550.3a72.24,72.24,0,0,0-143.3-16.1c-2-.2-4-.4-6-.5a95.49,95.49,0,0,0-14.2.4,72.28,72.28,0,1,0-84.8,76.3,94.27,94.27,0,0,0-1.9,15.2c-1.5,32.1,18.4,52,48.4,59.4,41.7,10.3,92.6,12.4,128.4-15.2,10.6-8.2,15.2-22.2,15.8-35.1a93.73,93.73,0,0,0-.7-16.8A72.72,72.72,0,0,0,604.17,550.3Z"/><ellipse class="cls-7" cx="429.06" cy="480.3" rx="8.4" ry="20" transform="translate(-70.78 886.43) rotate(-87.32)"/><ellipse class="cls-7" cx="498.65" cy="483.53" rx="8.4" ry="20" transform="translate(-7.68 959.02) rotate(-87.32)"/><path class="cls-8" d="M326.47,560.7a126.07,126.07,0,0,0-8,12.5c-16.2,28.3-51.2,18.9-62.6.7-7.3-11.6-1.5-30.4,4.6-41.3,12.8-23.1,36.8-36,61.4-42.8a233.2,233.2,0,0,1,38-7c9.1-1,22.2-2.7,30.8,1.3,5.1,2.4,7.4,6.7,6.8,12.3-1.6,14.7-29.2,24.5-39.6,32.4A146.19,146.19,0,0,0,326.47,560.7Z"/><path class="cls-8" d="M595.67,588c8.4,11.3,13.7,25.9,28,30.7,14.7,5,33.2.1,42.8-12.4,8.4-10.9,4.4-30.1-.6-41.6-8-18.5-23.3-32.4-41-41.4-18-9.2-36.3-13.9-56.5-18.9-13.6-3.4-31.3-8.4-40.4,3.8-4.4,5.9-3.8,13.7-1.5,20.3,3,8.4,8.8,13.6,16.5,18,4.2,2.4,8.5,4.5,12.6,6.8a132.66,132.66,0,0,1,38.5,32.6C594.67,586.7,595.17,587.3,595.67,588Z"/><ellipse class="cls-9" cx="457.46" cy="524.06" rx="13.8" ry="26.7" transform="translate(-87.34 956.62) rotate(-87.33)"/><ellipse class="cls-9" cx="388.63" cy="499.27" rx="22.8" ry="22.7" transform="translate(-223.61 658.87) rotate(-66.71)"/><ellipse class="cls-9" cx="531.19" cy="519.17" rx="22.8" ry="22.7" transform="translate(-155.74 801.73) rotate(-66.7)"/><path class="cls-10" d="M580,684a147.12,147.12,0,0,0-20.4,4.1c-16.1-50.4-62.5-87.9-132.5-94-78-6.8-132.3,16.3-154.1,84.7a156.57,156.57,0,0,0-20-6.5c-21-5.6-50.3-3.9-44.7,24.3,2.7,13.7,13.1,21.3,35.1,27.6-1.6,4-3,8.1-4.3,12.5-17,57.7,69.3,114.1,166.5,122.5S600,826.9,591,767.1a116.94,116.94,0,0,0-8.8-30.1c24-3.6,35.5-9.9,39.7-23.6C630.27,686.1,601.37,680.9,580,684Z"/><path class="cls-1" d="M580.17,621.2c-13.9-21.5-60.5-59.6-92.3-68-9.7-2.6-20-4.3-29.6-3.4-5.4.5-22,.6-28.1,3.3-5.5-3.9-21.9-7.2-27.1-8.8-9.3-2.8-19.7-3.1-29.7-2.5-32.6,2-84.6,30.3-101.7,48.7-17.5,18.9-28.3,41.5-23.1,64.2,2.3,9.9,16.6,13.1,25.3,15.8a112.19,112.19,0,0,0,33,5.3c10.1,0,14-5.3,20.9-11.6,3.6-3.3,9.4-2.2,12.3,1.4,3.7,4.5,3.5,8.8,10.6,11.6,9,3.4,14.3.5,18.7-5.8a75.71,75.71,0,0,1,6.2-7.8c3.5-3.9,10.7-2.9,13.2,1.8,6,11.2,14.8,22.5,24.9,6.9,2.7-4.2,4.9-8.2,7.7-12,2.2,4.3,3.7,8.7,5.7,13.3,7.4,17.4,17.8,8,25.6-1.9,3.2-4.1,10.5-3.7,13.3.9a76.33,76.33,0,0,1,4.8,8.9c3,6.5,7.1,11.4,15.8,12.5,7.9.9,11.1-3.7,12.3-9.4,1.4-5.8,10.1-7,14-1.9,6.6,8.5,9.4,14.5,20.7,14.9,15.4.5,40.9,6.4,54.4-2.4,2.4-1.5,3.5-3.8,4.4-6.1C601.47,667.6,594.47,643.2,580.17,621.2Z"/><path class="cls-3" d="M679.47,944c35.8-149.8-106-116.4-103.5-52.8-7.8,77.2,1,155.4-11.1,232.4C604.87,1192.9,679.27,965.7,679.47,944Z"/><path class="cls-11" d="M195.37,687.1c-12.3-12-22.8-16-30.8-14.8h0Z"/><path class="cls-11" d="M195.37,687.1l.2.2,3,1.8c-.1-.2-.1-.3-.2-.5Z"/><path class="cls-1" d="M196,686.5a55.73,55.73,0,0,0-12.3-10c-9.7-6.1-23.1-7.1-30.6,2.9a30.39,30.39,0,0,0-5.3,14.6c-.7,6.3,1,11.7,1.7,17.8,1.7,15,26.5,33.1,22.5,8.6.1.9,9.8.5,10.9.5a27.47,27.47,0,0,0,8.5-1.8,15.78,15.78,0,0,0,9.6-9.3c1.9-5.1,1.1-10.8-.5-15.9A23.36,23.36,0,0,0,196,686.5Z"/><path class="cls-1" d="M164.47,672.3c8-1.2,18.5,2.7,30.8,14.8l3,1.5c.1.2.1.3.2.5,5.7,3,12.2,5,14.7-1.3C226.67,641.5,132.87,631.6,164.47,672.3Z"/><path class="cls-1" d="M176.57,632.4c60.5-28.1,70,85.7,25.8,27.8a11,11,0,0,0-1-1.1c-7-6.5-15.1-7.3-23.6-10a9.08,9.08,0,0,1-5.4-12.6.1.1,0,0,1,.1-.1A8,8,0,0,1,176.57,632.4Z"/><path class="cls-12" d="M173.67,646.9a33.06,33.06,0,0,1,20.4,3.8A51.88,51.88,0,0,1,210,664.3c2.9,3.5,5.5,7.8,4.9,12.3"/><path class="cls-12" d="M161.57,673.9c13.9-3.2,40.2,11.9,37.9,32.6"/><path class="cls-1" d="M568.47,1099.6c-2.4,4.5-.8,10.2-1.8,15-1,4.4-3.6,8.6-5.3,12.6-1.4,3.3-4.9,8-2.8,12.5a7.79,7.79,0,0,0,5.6,4.4c4.3.6,5.4-4.7,6.8-7.5,1.4,3.8.1,7.5.1,11.1,0,3.4,1.3,7.7,4.6,9.8a5,5,0,0,0,5.7.1c2.5-2,4-4.9,5.4-7.9,1.5-3.3,2.4-.1,3,2.3a16.64,16.64,0,0,0,1.9,5.1c5.1,8.8,12.4,5.8,13.1-1.4.3-3,0-6.2,1.2-8.8,1.7,3.3,3.6,6.6,6.4,9.1s6.9,3.8,9.4,2.2c2.1-1.3,2.5-4.3,2.2-7.2a32.37,32.37,0,0,0-4.6-13.6c5,6,14.1,7.1,13.1-1.4-.5-4.3-3.8-8.5-7.4-11.9-2.5-2.3-5.4-4.1-8-6.3-3.2-2.7-3.5-3.5-1.8-7.4a22,22,0,0,1,7.2-9.3"/><path class="cls-9" d="M227.57,791.2q2.7-4.35,5.7-8.7c2-2.8,4-5.6,6.2-8.3a66,66,0,0,1,7.3-7.7,25.14,25.14,0,0,1,4.6-3.2,12.84,12.84,0,0,1,6.1-1.7,9.83,9.83,0,0,1,3.4.7,13.5,13.5,0,0,1,2.9,1.6A27.33,27.33,0,0,1,268,768c2.3,2.9,4.2,5.8,6.2,8.4a42.52,42.52,0,0,0,6.4,6.9,21.68,21.68,0,0,0,7.6,4.1l-1.4-.2c6.9-.6,13.7-1.2,20.5-2.1l10.3-1.4c1.8-.2,3.5-.5,5.5-.6a24.89,24.89,0,0,1,6.5.4,21.74,21.74,0,0,1,6.2,2.5,42.87,42.87,0,0,1,4.7,3.2c2.9,2.1,5.6,4.3,8.4,6.4q8.25,6.3,16.5,12.3l-1.2-.6a38,38,0,0,0,14.3,2.3,91.37,91.37,0,0,0,15.3-1.9l-1.2.5,3.4-1.6,1.7-.8c.6-.3,1.2-.5,1.7-.7l3.5-1.5,3.6-1.2a67.73,67.73,0,0,1,15-3.1,49.87,49.87,0,0,1,15.4,1.1,61.74,61.74,0,0,1,14.2,5.2c8.9,4.4,16.6,10.1,24.9,14.4a62.67,62.67,0,0,0,13,5.1c1.1.3,2.3.5,3.4.7s2.3.3,3.5.4l3.6.1,3.6-.1a41.48,41.48,0,0,1-14.5.9,57.11,57.11,0,0,1-14.2-3.7c-9.1-3.6-17.4-8.6-26-12a56.3,56.3,0,0,0-13-3.7,44.94,44.94,0,0,0-13.2-.2,58.22,58.22,0,0,0-12.9,3.3,85.93,85.93,0,0,0-12.3,5.8,4.87,4.87,0,0,1-1.1.4h-.1a87,87,0,0,1-17.2,2.5,45.32,45.32,0,0,1-9-.5,46.6,46.6,0,0,1-8.9-2.3,2.38,2.38,0,0,1-1.1-.6h-.1c-5.7-4-11.3-8.3-16.8-12.6l-8.1-6.3a45.63,45.63,0,0,0-3.9-2.7,11.76,11.76,0,0,0-3.3-1.5,22.09,22.09,0,0,0-3.9-.3c-1.5.1-3.2.2-4.9.4-3.4.4-6.9.7-10.4,1-7,.6-14,1-21,1.1H287a5,5,0,0,1-1.2-.2,27.6,27.6,0,0,1-10.1-6.2,46.88,46.88,0,0,1-7-8.7c-1.9-3-3.6-6-5.4-8.7a19.54,19.54,0,0,0-2.8-3.4,5.3,5.3,0,0,0-3.1-1.5,7.72,7.72,0,0,0-3.8.7,23.78,23.78,0,0,0-4.1,2.3,58.08,58.08,0,0,0-7.6,6.5c-2.5,2.4-4.8,4.8-7.1,7.4C232.07,786,229.87,788.6,227.57,791.2Z"/><ellipse class="cls-9" cx="299.99" cy="715.61" rx="19.8" ry="14.4" transform="translate(-441.2 945.26) rotate(-84.47)"/><ellipse class="cls-13" cx="340.9" cy="751.94" rx="11.6" ry="18.9" transform="translate(-461.84 944.92) rotate(-79.13)"/><ellipse class="cls-9" cx="385.27" cy="721.7" rx="19.8" ry="14.4" transform="translate(-370.19 1035.64) rotate(-84.47)"/><path class="cls-9" d="M380.37,748.7a12.61,12.61,0,0,0,5.9,1.1,39.33,39.33,0,0,0,5.9-.6c4.1-.6,8.1-1.2,11.9-2a51.7,51.7,0,0,0,11.1-3.7,42.28,42.28,0,0,0,10.3-6.5,21.77,21.77,0,0,1-7.9,10.6,32.57,32.57,0,0,1-12.3,5.5,44.79,44.79,0,0,1-13.1.9,24.92,24.92,0,0,1-6.6-1.3A10.67,10.67,0,0,1,380.37,748.7Z"/><path class="cls-14" d="M92.17,887.4c-34.7,32.4-33.6,84.9-4,75.2a28,28,0,0,0,10.9-7c17.8-18.3,21.6-47,32.1-68.7,30.8-63.9-18.8-16-37.3-1C93.27,886.4,92.67,886.9,92.17,887.4Z"/><path class="cls-14" d="M164.57,946.9c-47.4,99.5,26.8,142.1,27.5,33.6,4.2-27.9,12.4-52.8,22.5-79.6C195.37,901,172.87,931.6,164.57,946.9Z"/><path class="cls-1" d="M583,1255c.1,16.8,23.5,18.6,61.3,18.3s61.2-2.5,61-19.3-20.6-30.2-58.5-29.9S582.77,1238.3,583,1255Z"/><path class="cls-1" d="M442.87,1260.6c.5,16.3-22.1,18.9-58.9,19.9s-59.5-.2-59.9-16.5,18.9-30.1,55.7-31.1S442.37,1244.3,442.87,1260.6Z"/><path class="cls-10" d="M509.37,1113.5l-25-12a19.31,19.31,0,0,0-17.8.6l-24,13.8c-13.8,7.9-30.6-3.5-28.5-19.2l3.7-27.5a19.29,19.29,0,0,0-6.1-16.8l-20.5-18.6a19.19,19.19,0,0,1,9.4-33.1l27.2-5a19,19,0,0,0,14-11l11.4-25.3a19.12,19.12,0,0,1,34.3-1.2l13.1,24.4a19.11,19.11,0,0,0,14.8,10l27.5,3c15.8,1.7,22.7,20.8,11.8,32.3l-19.1,20.1a19.12,19.12,0,0,0-4.9,17.2l5.7,27.2C539.67,1107.8,523.67,1120.4,509.37,1113.5Z"/><path class="cls-2" d="M779.67,990.3a83.72,83.72,0,0,1,28.2,15.1c28.4,22.6,42.7,61.8,42.6,100.1a110.89,110.89,0,0,1-3.5,29.3c-4.6,17.1-14.3,32.1-25.1,45.6a254.15,254.15,0,0,1-70.1,60.9c-13.8,8.1-33.9,13.3-42.6-.5-4.4-6.9-3.9-16.1-3.2-24.5,2-25.1,29.9-134.5-3.7-136.3-12.6-.5-24.8-2.2-29.9-12.7-3.3-6.8-2.1-15.2,1.9-21.7C699.17,1005.9,739.07,978.3,779.67,990.3Z"/><path class="cls-1" d="M722.57,1167.6a8.17,8.17,0,0,0-2.7-.1c-5.1.7-8.5,6.4-10.3,11.7a158.3,158.3,0,0,0-6.2,25.3c-1.7,9.7-2.3,20,.5,28.7,5.7,18,23.8,18.9,38.7,13,8.1-3.2,21.8-8.3,28.5-15.2,5.3-5.4,14.4-16.6,10.1-24.9-2-3.8-14.4-6.6-17.6-9-8.6-6.5-17.2-12.9-25.9-19.2C733.47,1174.8,728.07,1168.7,722.57,1167.6Z"/><path class="cls-1" d="M728.17,1077.6c11.9-27.2,45.9-47.7,95-47.8C829.37,973,689.87,1017.2,728.17,1077.6Z"/><path class="cls-1" d="M720.67,1121.6c37.5-23,81.1-33.9,123.7-31C865.87,1055.4,752.17,1046,720.67,1121.6Z"/><path class="cls-1" d="M762.47,1135.5c32.2-4.5,70.4-8.3,75-8.3,2.3,0,4.7.1,6.5,1.6,2.8,2.3,2.8,7,1.8,10.8-5.3,21-24,22.8-40.9,24.5a329.33,329.33,0,0,1-35.8,1.1c-5.1-.1-48.4.4-49-2.6-1.1-5.6-2.7-11.4-3.2-17C716.67,1142.7,737.77,1138.9,762.47,1135.5Z"/><path class="cls-15" d="M690.47,991.3c23.4,35.8,42.7,114.7,22.9,188.6"/><path class="cls-1" d="M345.57,869.8l-31.5,39.6a4.91,4.91,0,0,0,2.8,7.9L368,928.8a4.93,4.93,0,0,0,5.7-6.6l-19.5-51.1A5,5,0,0,0,345.57,869.8Z"/><path class="cls-4" d="M347.57,881.9a65.62,65.62,0,0,1-2.6,26.9"/><path class="cls-5" d="M341.87,873.4l15.3,5.6a5.12,5.12,0,0,0,6.6-3.1h0a5.12,5.12,0,0,0-3.1-6.6l-15.3-5.6a5.12,5.12,0,0,0-6.6,3.1h0A5.33,5.33,0,0,0,341.87,873.4Z"/><text class="cls-16" transform="translate(28.12 250.69) rotate(-0.71)">予約済<tspan class="cls-17" x="709.4" y="0">．．．</tspan></text><text class="cls-18" transform="translate(28.12 250.69) rotate(-0.71)">予約済<tspan class="cls-17" x="709.4" y="0">．．．</tspan></text><text class="cls-19" transform="translate(28.12 250.69) rotate(-0.71)">予約済<tspan class="cls-17" x="709.4" y="0">．．．</tspan></text><text class="cls-20" transform="translate(28.12 250.69) rotate(-0.71)">予約済<tspan class="cls-17" x="709.4" y="0">．．．</tspan></text><path class="cls-21" d="M552.87,145.4A24.61,24.61,0,0,0,560,164a23.78,23.78,0,0,0,18.6,6.8"/><path class="cls-22" d="M562.47,145.4a18,18,0,0,0,5.5,13.8,18.49,18.49,0,0,0,14.2,5"/></g></g></svg>