<svg xmlns="http://www.w3.org/2000/svg" viewBox="0 0 1264.6 1264.6"><defs><style>.cls-1,.cls-2{isolation:isolate;font-size:231.54px;font-family:HiraMaruProN-W4-83pv-RKSJ-H, Hiragino Maru Gothic ProN;}.cls-1,.cls-19,.cls-2,.cls-7{fill:#b76da1;}.cls-1{stroke:#eaecef;}.cls-1,.cls-10,.cls-11,.cls-12,.cls-13,.cls-14,.cls-15,.cls-17,.cls-18,.cls-19,.cls-24,.cls-26,.cls-27,.cls-28,.cls-5,.cls-9{stroke-linecap:round;stroke-linejoin:round;}.cls-1,.cls-28{stroke-width:37px;}.cls-2{stroke:#b76da1;}.cls-2,.cls-29{stroke-miterlimit:10;}.cls-12,.cls-13,.cls-15,.cls-17,.cls-2,.cls-9{stroke-width:2px;}.cls-3{fill:#b3b3b3;}.cls-4{fill:#a192ba;}.cls-11,.cls-13,.cls-24,.cls-26,.cls-27,.cls-5{fill:none;}.cls-24,.cls-27,.cls-5{stroke:#8a73a8;}.cls-5{stroke-width:7px;}.cls-6{fill:#b8a0c7;}.cls-8{fill:#f6d6e4;}.cls-9{fill:#b8cfeb;}.cls-10,.cls-12,.cls-13,.cls-14,.cls-15,.cls-16,.cls-17,.cls-18,.cls-9{stroke:#8f8f8f;}.cls-10{fill:#f4e1bb;}.cls-10,.cls-14,.cls-16,.cls-18{stroke-width:2px;}.cls-11{stroke:#98cb84;stroke-width:4px;}.cls-12{fill:#ebeea2;}.cls-14{fill:#b4d796;}.cls-15,.cls-28{fill:#eeeeef;}.cls-16{fill:#eed1da;stroke-miterlimit:10;}.cls-17,.cls-25{fill:#cd98be;}.cls-18{fill:#f9e29f;}.cls-19,.cls-26{stroke:#9b5b89;}.cls-19{stroke-width:3px;}.cls-20{fill:#eee;}.cls-21{fill:#fff;}.cls-22{fill:#ae8fbd;}.cls-23{fill:#8a73a8;}.cls-24{stroke-width:9px;}.cls-26,.cls-27{stroke-width:5px;}.cls-28{stroke:#eeeeef;}.cls-29{fill:#6d438f;stroke:#6d438f;}.cls-30{fill:#d85891;}</style></defs><title>资源 23</title><g id="图层_2" data-name="图层 2"><g id="图层_1-2" data-name="图层 1"><text class="cls-1" transform="matrix(1, -0.02, 0.02, 1, 111.7, 247.67)">予約可</text><text class="cls-2" transform="matrix(1, -0.02, 0.02, 1, 111.7, 247.67)">予約可</text><ellipse class="cls-3" cx="543.59" cy="1220.31" rx="334.19" ry="44.29"/><path class="cls-4" d="M351.07,1021.94c36.29,75.77-81.69,55.13-125.14-5.08a43.37,43.37,0,0,1-5.67-40.48c37.33-99.3,215.17-165.74,130.24,8.3C344.83,996.45,345.41,1010.17,351.07,1021.94Z"/><path class="cls-5" d="M329.58,961.39c-5,2.76-7.74,8.3-8.67,14s0,11.31.81,16.84"/><path class="cls-6" d="M707.92,967.62c-22.31-71.28-58.13-138.41-132.32-163.09-63.32-21.1-157.85,2.31-200,55.71C347.26,896,337.32,923.44,329,968a591.46,591.46,0,0,0-9.82,128.48c.69,21.57,2.89,44,13.17,63,14.22,26.06,42.65,42.33,72,46.59s59.39-2.42,86.78-13.84c11.44-4.73,22.88-10.38,35.25-10.61,11.32-.23,22.18,4,32.81,7.73,53.28,18.34,125.85,31.14,162.71-25.61,18.72-28.94,17.91-66.54,10.28-100.11C725.37,1033.13,718,999.91,707.92,967.62Z"/><path class="cls-7" d="M587.74,1210.05c2.31,22.26,33.51,21.68,83.89,16.38s81-11.08,78.7-33.33-31.2-37.49-81.59-32.18S585.43,1187.79,587.74,1210.05Z"/><path class="cls-7" d="M453.23,1212.24c.58,21.68-29.58,25.14-78.7,26.64s-79.38-.23-80.08-22,25.31-40.13,74.42-41.52S452.65,1190.56,453.23,1212.24Z"/><path class="cls-8" d="M526.49,1082.26l-26-12.57a19.68,19.68,0,0,0-18.6.69l-25.08,14.42c-14.33,8.18-32-3.58-29.7-20.07l3.82-28.61a20.06,20.06,0,0,0-6.36-17.53l-21.38-19.37A20,20,0,0,1,413,964.73l28.43-5.19a20.06,20.06,0,0,0,14.68-11.42L468,921.71a20,20,0,0,1,35.82-1.27l13.75,25.49a20,20,0,0,0,15.49,10.38l28.77,3.12A20,20,0,0,1,574.1,993.1l-20,20.88a19.88,19.88,0,0,0-5.08,17.88l5.89,28.25C558,1076.38,541.4,1089.41,526.49,1082.26Z"/><path class="cls-4" d="M666.55,790.23a271.09,271.09,0,0,0-34.79,15.45c-19.87,10.85-39.63,29.42-16.87,45.68,23.69,16.84,32.47,31.6,36.52,57.2,2.66,16.84,9.13,36.33,27.85,43.14,10.28,3.81,22.07,2.65,32.12-.92,31.55-11.31,58.24-38.76,82.4-58.25,27.5-22.26,54.19-45.44,79.73-69.31,20-18.69,47.15-39.22,34-66.9-7.4-15.34-25.54-20.41-43.57-21.11-64.37-2.53-124.92,28.72-181.31,49.14C677.29,786.31,671.86,788.27,666.55,790.23Z"/><ellipse class="cls-4" cx="472.81" cy="850.07" rx="112.9" ry="38.99" transform="translate(-116.2 75.96) rotate(-8.18)"/><path class="cls-7" d="M907.6,840.17c-3.58-1-21.15,8.19-27.62,8.07-10.63-.11-20.1-3.8-29.23-9.11-17.11-9.92-27.74-31.6-26-51.78.69-8.54,3.35-13.5.92-22.38-2.08-7.49-6.82-13.84-7.63-21.8-1.73-17.3,16.3-29.87,32.82-35.17,19.65-6.35,41-8.19,61-2.89,10,2.66,20.1,7.5,25.88,16.15s5.89,21.68-2.08,28.37c5.78-5.19,15.25.58,18.61,7.61,7,14.77-.47,34.72-15.6,41.18,7.39-5,18.48-1.15,22.53,6.8s1.85,18.11-3.93,24.8S942.73,840.4,934,841.79A58.4,58.4,0,0,1,907.6,840.17Z"/><path class="cls-9" d="M982.94,553.33c-5.77-4.73-9.59-12.8-7-19.84,2.88-8,12.48-11.41,20.91-11.88a22.83,22.83,0,0,1,10.75,1.5,23.63,23.63,0,0,1,6.7,5,65,65,0,0,1,14.45,20.76,3.29,3.29,0,0,1,.46,2.31,3.79,3.79,0,0,1-1.39,1.62C1013.68,563,997,564.75,982.94,553.33Z"/><path class="cls-9" d="M1045.69,515.62c6.47-3.81,15.37-4.62,21,.23,6.47,5.42,6.47,15.57,3.93,23.64a23.27,23.27,0,0,1-5.08,9.57,23.65,23.65,0,0,1-6.94,4.62,64.84,64.84,0,0,1-24.49,6.46,3.32,3.32,0,0,1-2.32-.46,3.75,3.75,0,0,1-1-2C1026.16,541.11,1030.21,524.84,1045.69,515.62Z"/><path class="cls-9" d="M1087.64,549.53c6.93,2.76,12.94,9.45,12.6,16.83-.47,8.54-8.44,14.54-16.41,17.54-3.47,1.26-7,2.19-10.64,1.73a26.2,26.2,0,0,1-7.85-2.66,63.9,63.9,0,0,1-20-15.57,3,3,0,0,1-1-2.07,3.4,3.4,0,0,1,.92-2C1055.51,549.41,1071,542.84,1087.64,549.53Z"/><path class="cls-9" d="M1077.12,601.08c1.85,7.27,0,16-6.24,20.18-7.05,4.62-16.75,1.73-23.8-2.88a23.17,23.17,0,0,1-7.74-7.61,23.47,23.47,0,0,1-2.43-8,64.51,64.51,0,0,1,.81-25.37,3.92,3.92,0,0,1,1-2.08,3.29,3.29,0,0,1,2.08-.46C1058.17,575.13,1072.73,583.66,1077.12,601.08Z"/><path class="cls-9" d="M1016.92,619.88c-6.13,4.27-14.91,5.77-21,1.38-6.94-5-7.63-15-5.78-23.29.81-3.58,2-7.15,4.27-9.92a24.38,24.38,0,0,1,6.59-5.19,65.86,65.86,0,0,1,23.92-8.31,3.21,3.21,0,0,1,2.31.23,3.42,3.42,0,0,1,1.16,1.85C1034.48,593,1031.59,609.5,1016.92,619.88Z"/><path class="cls-9" d="M963.65,597.27c-8.21-2.76-15.49-10-15.6-18.68,0-9.8,8.89-17.3,17.91-21.22,3.81-1.62,8-3,12.25-2.65a28.37,28.37,0,0,1,9.24,2.65,75.86,75.86,0,0,1,24,16.72,4,4,0,0,1,1.38,2.31,4.49,4.49,0,0,1-.92,2.31C1000.74,595.43,983.41,604.08,963.65,597.27Z"/><ellipse class="cls-10" cx="1032.19" cy="566.36" rx="33.74" ry="17.53" transform="translate(-103.95 257.55) rotate(-13.55)"/><path class="cls-11" d="M837.46,680.55C864.73,708,878.13,746.75,882,785.27s-1.27,77.27-6.24,115.57"/><path class="cls-11" d="M923.32,583.78a1825.52,1825.52,0,0,0-71,299.76"/><path class="cls-11" d="M919,678.35a322.81,322.81,0,0,0-56.16,203.8"/><path class="cls-11" d="M832.26,565.44c30.85,21.11,39.52,50.17,45.53,77.74a761.93,761.93,0,0,1,14.56,231.48"/><path class="cls-11" d="M881,583.78c13.87,21.57,17.8,51.32,20.57,79.58a1764.63,1764.63,0,0,1,6.59,237.13"/><path class="cls-11" d="M981.9,638.91C888.53,682.16,895.58,785,873.28,865.2"/><path class="cls-9" d="M794.47,634.41c-5.78-4.73-9.59-12.8-7.05-19.84,2.89-8,12.48-11.41,20.92-11.87a22.78,22.78,0,0,1,10.74,1.49,23.67,23.67,0,0,1,6.71,5,64.85,64.85,0,0,1,14.44,20.76,3.24,3.24,0,0,1,.46,2.31,3.83,3.83,0,0,1-1.38,1.62C825.09,644,808.45,645.72,794.47,634.41Z"/><path class="cls-9" d="M857.1,596.58c6.47-3.8,15.37-4.61,21,.23,6.47,5.42,6.47,15.57,3.93,23.65a19.51,19.51,0,0,1-12,14.18,64.84,64.84,0,0,1-24.49,6.46,3.27,3.27,0,0,1-2.32-.46,3.68,3.68,0,0,1-1-2C837.57,622.07,841.62,605.81,857.1,596.58Z"/><path class="cls-9" d="M899.16,630.49c6.94,2.77,13,9.46,12.6,16.84-.46,8.53-8.44,14.53-16.41,17.53-3.47,1.27-7.05,2.19-10.63,1.73a26.62,26.62,0,0,1-7.86-2.65,64.27,64.27,0,0,1-20-15.57,3,3,0,0,1-1-2.08,3.41,3.41,0,0,1,.93-2C866.92,630.49,882.41,623.8,899.16,630.49Z"/><path class="cls-9" d="M888.53,682.05c1.85,7.26,0,16-6.24,20.18-7,4.61-16.75,1.73-23.8-2.88a23.2,23.2,0,0,1-7.74-7.62,23.48,23.48,0,0,1-2.43-8,64.56,64.56,0,0,1,.81-25.38,3.89,3.89,0,0,1,1-2.07,3.22,3.22,0,0,1,2.08-.47C869.7,656.1,884.14,664.63,888.53,682.05Z"/><path class="cls-9" d="M828.33,701c-6.13,4.27-14.91,5.77-21,1.38-6.94-5-7.63-15-5.78-23.29.81-3.58,2-7.15,4.27-9.92a24.38,24.38,0,0,1,6.59-5.19,65.86,65.86,0,0,1,23.92-8.31,3.21,3.21,0,0,1,2.31.23,3.42,3.42,0,0,1,1.16,1.85C845.89,674,843.12,690.47,828.33,701Z"/><path class="cls-9" d="M775.06,678.24c-8.21-2.77-15.49-10-15.6-18.68,0-9.81,8.89-17.3,17.91-21.23,3.81-1.61,8-3,12.25-2.65a28.37,28.37,0,0,1,9.24,2.65,75.89,75.89,0,0,1,24,16.73,4,4,0,0,1,1.38,2.3,4.46,4.46,0,0,1-.92,2.31C812.27,676.39,794.82,685,775.06,678.24Z"/><ellipse class="cls-10" cx="843.6" cy="647.33" rx="33.74" ry="17.53" transform="translate(-128.17 215.63) rotate(-13.55)"/><path class="cls-12" d="M834,502.58c-5.78-4.72-9.59-12.8-7-19.83,2.89-8,12.48-11.42,20.92-11.88a22.79,22.79,0,0,1,10.74,1.5,23.49,23.49,0,0,1,6.71,5,64.63,64.63,0,0,1,14.44,20.76,3.22,3.22,0,0,1,.46,2.3,3.72,3.72,0,0,1-1.38,1.62C864.73,512.27,848,514,834,502.58Z"/><path class="cls-12" d="M896.74,464.75c6.47-3.8,15.37-4.61,21,.24,6.47,5.42,6.47,15.57,3.93,23.64a23.18,23.18,0,0,1-5.09,9.57,23.6,23.6,0,0,1-6.93,4.62,64.88,64.88,0,0,1-24.5,6.45,3.23,3.23,0,0,1-2.31-.46,3.55,3.55,0,0,1-1-2C877.21,490.36,881.25,474.1,896.74,464.75Z"/><path class="cls-12" d="M938.69,498.78c6.93,2.77,12.94,9.46,12.59,16.84-.46,8.53-8.43,14.53-16.41,17.53-3.46,1.27-7,2.19-10.63,1.73a26.62,26.62,0,0,1-7.86-2.65,64.42,64.42,0,0,1-20-15.57,3,3,0,0,1-1-2.08,3.41,3.41,0,0,1,.93-2C906.56,498.66,921.93,492.09,938.69,498.78Z"/><path class="cls-13" d="M928.17,550.33c1.85,7.27,0,16-6.24,20.19-7,4.61-16.76,1.73-23.81-2.89a23.26,23.26,0,0,1-7.74-7.61,23.68,23.68,0,0,1-2.42-8,64.7,64.7,0,0,1,.8-25.37,4.06,4.06,0,0,1,1-2.08,3.29,3.29,0,0,1,2.08-.46C909.22,524.38,923.66,532.92,928.17,550.33Z"/><path class="cls-13" d="M868,569.13c-6.12,4.27-14.9,5.77-21,1.39-6.93-5-7.62-15-5.78-23.3.81-3.58,2-7.15,4.28-9.92a24.23,24.23,0,0,1,6.59-5.19,65.53,65.53,0,0,1,23.92-8.3,3.16,3.16,0,0,1,2.31.23,3.34,3.34,0,0,1,1.15,1.84C885.53,542.14,882.64,558.75,868,569.13Z"/><path class="cls-12" d="M814.69,546.53c-8.2-2.77-15.48-10-15.6-18.69,0-9.8,8.9-17.3,17.91-21.22,3.82-1.61,8-3,12.25-2.65a28.36,28.36,0,0,1,9.25,2.65,75.7,75.7,0,0,1,24,16.72,4.08,4.08,0,0,1,1.39,2.31A4.46,4.46,0,0,1,863,528C851.79,544.68,834.45,553.22,814.69,546.53Z"/><ellipse class="cls-14" cx="883.24" cy="515.61" rx="33.74" ry="17.53" transform="translate(-96.21 221.25) rotate(-13.55)"/><path class="cls-15" d="M780.6,551.37c-5.78-4.73-9.59-12.8-7.05-19.84,2.89-7.95,12.48-11.41,20.92-11.88a22.83,22.83,0,0,1,10.75,1.5,23.77,23.77,0,0,1,6.7,5,64.74,64.74,0,0,1,14.44,20.76,3.25,3.25,0,0,1,.47,2.31,3.77,3.77,0,0,1-1.39,1.61C811.34,561.06,794.59,562.79,780.6,551.37Z"/><path class="cls-15" d="M843.23,513.54c6.48-3.8,15.37-4.61,21,.23,6.47,5.42,6.47,15.57,3.93,23.65a19.57,19.57,0,0,1-12,14.18,64.94,64.94,0,0,1-24.5,6.46,3.23,3.23,0,0,1-2.31-.46,3.55,3.55,0,0,1-1-2C823.71,539.15,827.75,522.88,843.23,513.54Z"/><path class="cls-15" d="M885.3,547.57c6.93,2.76,12.94,9.45,12.59,16.83-.46,8.54-8.43,14.54-16.41,17.54-3.46,1.26-7,2.19-10.63,1.73A26.2,26.2,0,0,1,863,581a64.05,64.05,0,0,1-20-15.57,3,3,0,0,1-1-2.07,3.41,3.41,0,0,1,.93-2C853.06,547.45,868.54,540.88,885.3,547.57Z"/><path class="cls-15" d="M874.67,599.12c1.85,7.27,0,16-6.24,20.18-7,4.62-16.76,1.73-23.81-2.88a19.48,19.48,0,0,1-10.17-15.57,64.89,64.89,0,0,1,.81-25.37,3.92,3.92,0,0,1,1-2.08,3.29,3.29,0,0,1,2.08-.46C855.83,573.17,870.28,581.7,874.67,599.12Z"/><path class="cls-15" d="M814.46,617.92c-6.12,4.27-14.91,5.77-21,1.38-6.93-5-7.63-15-5.78-23.29.81-3.58,2-7.15,4.28-9.92a24.34,24.34,0,0,1,6.58-5.19,65.86,65.86,0,0,1,23.92-8.31,3.24,3.24,0,0,1,2.32.23,3.46,3.46,0,0,1,1.15,1.85C832,591.05,829.25,607.54,814.46,617.92Z"/><path class="cls-15" d="M761.19,595.31c-8.21-2.76-15.49-10-15.6-18.68,0-9.8,8.9-17.3,17.91-21.22,3.81-1.62,8-3,12.25-2.65a28.37,28.37,0,0,1,9.24,2.65,75.75,75.75,0,0,1,24,16.72,4.1,4.1,0,0,1,1.39,2.31,4.5,4.5,0,0,1-.93,2.31C798.4,593.47,781,602,761.19,595.31Z"/><ellipse class="cls-16" cx="829.73" cy="564.4" rx="33.74" ry="17.53" transform="translate(-109.13 210.07) rotate(-13.55)"/><path class="cls-17" d="M890.5,544.45c-5.78-4.73-9.59-12.8-7-19.84,2.89-8,12.48-11.41,20.91-11.88a22.81,22.81,0,0,1,10.75,1.5,23.63,23.63,0,0,1,6.7,5A64.61,64.61,0,0,1,936.26,540a3.24,3.24,0,0,1,.46,2.31,3.71,3.71,0,0,1-1.39,1.61C921.24,554,904.48,555.75,890.5,544.45Z"/><path class="cls-17" d="M953.13,506.62c6.47-3.8,15.37-4.61,21,.23,6.47,5.42,6.47,15.57,3.93,23.65a23.27,23.27,0,0,1-5.08,9.57,23.56,23.56,0,0,1-6.94,4.61,64.84,64.84,0,0,1-24.5,6.46,3.25,3.25,0,0,1-2.31-.46,3.61,3.61,0,0,1-1-2C933.6,532.23,937.76,515.85,953.13,506.62Z"/><path class="cls-17" d="M995.19,540.53c6.94,2.77,12.95,9.46,12.6,16.84-.46,8.53-8.44,14.53-16.41,17.53-3.47,1.27-7,2.19-10.63,1.73a26.62,26.62,0,0,1-7.86-2.65,64.16,64.16,0,0,1-20-15.57,3,3,0,0,1-1-2.08,3.46,3.46,0,0,1,.92-2C963.07,540.53,978.44,533.84,995.19,540.53Z"/><path class="cls-17" d="M984.68,592.2c1.85,7.27,0,16-6.24,20.18-7.05,4.62-16.76,1.73-23.81-2.88a23.26,23.26,0,0,1-7.74-7.61,23.69,23.69,0,0,1-2.43-8,64.89,64.89,0,0,1,.81-25.37,3.92,3.92,0,0,1,1-2.08,3.29,3.29,0,0,1,2.08-.46C965.73,566.13,980.17,574.67,984.68,592.2Z"/><path class="cls-17" d="M924.47,611c-6.12,4.27-14.91,5.77-21,1.38-6.93-5-7.63-15-5.78-23.29.81-3.58,2-7.15,4.28-9.92a24.34,24.34,0,0,1,6.58-5.19,65.85,65.85,0,0,1,23.93-8.31,3.22,3.22,0,0,1,2.31.23,3.46,3.46,0,0,1,1.15,1.85C942,584,939.15,600.62,924.47,611Z"/><path class="cls-17" d="M871.2,588.39c-8.2-2.76-15.48-10-15.6-18.68,0-9.8,8.9-17.3,17.91-21.22,3.81-1.62,8-3,12.25-2.65a28.23,28.23,0,0,1,9.24,2.65,75.75,75.75,0,0,1,24,16.72,4.1,4.1,0,0,1,1.39,2.31,4.36,4.36,0,0,1-.93,2.3C908.29,586.43,890.84,595.08,871.2,588.39Z"/><path class="cls-15" d="M933,632.57c-5.77-4.73-9.59-12.81-7-19.84,2.89-8,12.48-11.42,20.92-11.88a22.83,22.83,0,0,1,10.75,1.5,23.58,23.58,0,0,1,6.7,5,64.63,64.63,0,0,1,14.44,20.76,3.24,3.24,0,0,1,.47,2.31,3.71,3.71,0,0,1-1.39,1.61C963.65,642.14,947,643.87,933,632.57Z"/><path class="cls-15" d="M995.66,594.74c6.47-3.81,15.36-4.62,21,.23,6.47,5.42,6.47,15.57,3.93,23.64a23.29,23.29,0,0,1-5.09,9.57,23.6,23.6,0,0,1-6.93,4.62,64.89,64.89,0,0,1-24.5,6.46,3.28,3.28,0,0,1-2.31-.46,3.61,3.61,0,0,1-1-2C976.13,620.23,980.17,604,995.66,594.74Z"/><path class="cls-15" d="M1037.6,628.65c6.94,2.76,13,9.45,12.6,16.83-.46,8.54-8.44,14.54-16.41,17.54-3.47,1.26-7,2.19-10.63,1.73a26.26,26.26,0,0,1-7.86-2.66,64,64,0,0,1-20-15.57,3,3,0,0,1-1-2.07,3.4,3.4,0,0,1,.92-2C1005.48,628.65,1021,622,1037.6,628.65Z"/><path class="cls-15" d="M1027.09,680.2c1.85,7.27,0,16-6.24,20.18-7.05,4.62-16.76,1.73-23.81-2.88a23.26,23.26,0,0,1-7.74-7.61,23.69,23.69,0,0,1-2.43-8,64.89,64.89,0,0,1,.81-25.37,3.92,3.92,0,0,1,1-2.08,3.29,3.29,0,0,1,2.08-.46C1008.14,654.25,1022.7,662.78,1027.09,680.2Z"/><path class="cls-15" d="M966.88,699.12c-6.12,4.26-14.91,5.76-21,1.38-6.93-5-7.63-15-5.78-23.3.81-3.57,2-7.15,4.28-9.92a24.34,24.34,0,0,1,6.58-5.19,65.85,65.85,0,0,1,23.92-8.3,3.19,3.19,0,0,1,2.32.23,3.43,3.43,0,0,1,1.15,1.84C984.45,672.13,981.67,688.62,966.88,699.12Z"/><path class="cls-15" d="M913.61,676.39c-8.21-2.76-15.49-10-15.6-18.68,0-9.8,8.9-17.3,17.91-21.22,3.81-1.62,8-3,12.25-2.65a28.23,28.23,0,0,1,9.24,2.65,75.75,75.75,0,0,1,24,16.72,4.1,4.1,0,0,1,1.39,2.31,4.5,4.5,0,0,1-.93,2.31C950.82,674.55,933.37,683.2,913.61,676.39Z"/><ellipse class="cls-18" cx="982.15" cy="645.48" rx="33.74" ry="17.53" transform="translate(-123.88 248.03) rotate(-13.55)"/><ellipse class="cls-18" cx="939.51" cy="557.39" rx="33.74" ry="17.53" transform="translate(-104.43 235.59) rotate(-13.55)"/><path class="cls-19" d="M848.9,725.3a26.29,26.29,0,0,1,22.88,2.53,26.58,26.58,0,0,1,12,19.73c.34,4.15-.35,8.65-3.12,11.76-3,3.34-7.75,4.5-12.25,5A81.84,81.84,0,0,1,837.11,762"/><path class="cls-19" d="M913.15,712.49c-1.39,3.23-4.63,5.19-7.63,7.15-6.7,4.39-12.83,10.39-15.25,18s0,17.18,6.93,21.1a21,21,0,0,0,9.48,2.43,36.52,36.52,0,0,0,28.42-12.11"/><path class="cls-19" d="M920,761.17c-7.17-2.43-22.19,4-25.08,10.15a22.35,22.35,0,0,0,1.39,21.22c5.66,9.34,15.6,12.57,25.3,9.68,5.67-1.61,12.71-2,15.6-6.57"/><path class="cls-19" d="M942.73,797c-6.47-1.15-12.48,3-18.49,5.77-5,2.19-10.4,3.58-15.25,6.11s-9.36,6.58-10.29,12c-1.85,10,9.13,20.3,18.38,22.26a31.78,31.78,0,0,0,5.66.46c4.16.12,8.55.12,12.48-1.38"/><path class="cls-7" d="M341.14,477.79,239.68,616.65s-37.33,71.05-64,30.56a32.11,32.11,0,0,1-2.66-4.84L125.16,537.88c-.81-1.62-1.27-3.35-2-5.08-25.89-62-4.16-95.38,28.08-99.88L298.73,445C331.43,440.65,360.67,451,341.14,477.79Z"/><path class="cls-6" d="M306.47,487.82l-68.41,93.54s-25.19,47.86-43.1,20.53a17.67,17.67,0,0,1-1.74-3.23L161,528.3c-.46-1.15-.92-2.3-1.38-3.34-17.45-41.75-2.78-64.36,19-67.36l99.38,8.19C300,462.79,319.64,469.83,306.47,487.82Z"/><path class="cls-7" d="M572.14,538c-28.43-4.84-61.83-21.57-79.62-27.91-27.51-9.8-55-19.72-82.51-29.52,0,0-78.7-15.69-47.38-52.71,1.16-1.39,2.54-2.66,3.81-3.92l86.79-75.43c1.38-1.16,2.89-2.19,4.27-3.35,34.32-27.79,75.35-40.83,105.85-2.88,33.52,41.64,52.24,99,56.86,151.66,1.15,13.84.46,29.88-10.4,38.53C600.68,539.72,587,540.53,572.14,538Z"/><path class="cls-6" d="M551.91,510.31c-36.51-11.19-71.18-33.68-108.5-41.17,0,0-53.05-10.61-32-35.53a28.82,28.82,0,0,1,2.65-2.65l58.48-50.86c.92-.81,2-1.5,2.88-2.31,55.24-44.86,89.68,12.69,109,63.09,9.24,24.1,12.36,51.55,3.23,75.66C575.37,516.31,563.59,513.89,551.91,510.31Z"/><path class="cls-6" d="M670.25,572.82c-.12-.8-.12-1.5-.24-2.3C653.14,459.8,527,387.25,388.05,408.36S150.24,536.38,167,647.1c.69,4.27,1.5,8.42,2.54,12.57-17.33,28-25,58-20.45,87.89,15,98.61,156.58,158.81,316.17,134.59S742.12,758.28,727.1,659.67C721.9,625.42,701.45,595.78,670.25,572.82Z"/><path class="cls-20" d="M513.78,491.74A81.31,81.31,0,0,0,358.47,538.8c-2.19.69-4.27,1.38-6.47,2.19a118.46,118.46,0,0,0-14.56,6.69,81.31,81.31,0,1,0-53.62,116.49,107.46,107.46,0,0,0,4.74,16.49c12.71,33.79,42.18,45.44,76.5,39.79,47.72-8,101.23-28.37,126-72.77,7.28-13.15,5.77-29.65.69-43.25a104.6,104.6,0,0,0-8.09-17A81.49,81.49,0,0,0,513.78,491.74Z"/><ellipse class="cls-21" cx="271.66" cy="475.42" rx="27.38" ry="11.54" transform="translate(-149.72 125.76) rotate(-20.57)"/><ellipse class="cls-21" cx="368.38" cy="439.21" rx="27.38" ry="11.54" transform="translate(-130.83 157.44) rotate(-20.57)"/><path class="cls-22" d="M231.36,625.88c-1.16,5.42-2.08,10.84-2.78,16.38-4.16,36.33-44.49,42.21-64.48,28.48-12.71-8.76-15-30.79-13.63-44.63,2.89-29.53,21.95-53.4,44.37-71.51A270.08,270.08,0,0,1,231,530.5c8.9-5.08,21.73-12.69,32.36-12.35,6.35.24,10.63,3.7,12.48,9.69,4.85,15.8-19.3,38.29-26.47,51A170,170,0,0,0,231.36,625.88Z"/><path class="cls-22" d="M499.57,527c13.75,8,25.77,20.53,42.64,19.26,17.33-1.39,34.32-14.65,38.71-31.72,3.81-15-8.9-33.1-19.07-42.67-16.52-15.57-38.59-23.07-60.78-24.46-22.77-1.5-43.68,1.85-66.79,5.66-15.49,2.53-36.17,5.19-40.1,21.91-2,8.07,2.08,15.8,7.51,21.57,6.82,7.38,15.14,10.15,25.08,11.18,5.31.58,10.74.81,16.06,1.39a150.63,150.63,0,0,1,54.43,16.49C498,526.11,498.76,526.57,499.57,527Z"/><ellipse class="cls-23" cx="354.11" cy="538.73" rx="30.04" ry="15.57" transform="translate(-166.67 158.72) rotate(-20.56)"/><ellipse class="cls-23" cx="268.1" cy="534.99" rx="25.65" ry="25.6"/><ellipse class="cls-23" cx="402.04" cy="484.71" rx="25.65" ry="25.6"/><path class="cls-8" d="M561.85,628.18A160,160,0,0,0,544.63,640c-35.13-40-93-56.29-160.16-34.26-74.88,24.57-115.9,67.36-108.74,138.87a175.44,175.44,0,0,0-21.15,1.84c-21.6,3.12-48.07,16.26-31.66,40,8,11.65,20.57,14.42,43.57,11.54a129.05,129.05,0,0,0,1,13.15c7.39,59.85,109.78,77.73,203.15,47.17s167-106.57,134.74-158.13a123.62,123.62,0,0,0-20.11-24.33C606,663,614.2,652.75,612.58,638.33,609.35,610.19,580.46,616.88,561.85,628.18Z"/><path class="cls-24" d="M447.68,822.29c35.59-2.76,68.53-27.45,80.43-60.32"/><ellipse class="cls-25" cx="424.25" cy="787.01" rx="28.3" ry="14.19" transform="translate(-287.87 246.4) rotate(-24.47)"/><ellipse class="cls-23" cx="462.31" cy="722.55" rx="25.3" ry="33.79" transform="translate(-138.02 109.84) rotate(-11.8)"/><ellipse class="cls-23" cx="368.22" cy="750.03" rx="22.76" ry="36.45" transform="translate(-171.48 112.18) rotate(-14.09)"/><path class="cls-7" d="M540.47,558.29c-22-14.76-81.81-31.72-115.44-26.53-10.28,1.62-20.8,4.16-29.58,9.12-4.85,2.76-20.69,9.8-25.31,14.87-6.82-1.38-23.8,2.19-29.35,2.89-10.05,1.15-20,5.3-29.24,10-30.27,15.57-68.29,64.24-77.07,89-9,25.37-10.06,51.44,4,71,6.13,8.53,21.15,5.65,30.51,4.61a117.57,117.57,0,0,0,33.63-8.77c9.59-4.26,11.21-11,15.13-19.83,2.08-4.62,8-6,12.37-3.81,5.43,2.77,6.82,7,14.79,6.69,9.94-.46,13.87-5.42,15.49-13.26a79.89,79.89,0,0,1,2.77-10c1.73-5.19,9-7.26,13.29-3.8,10.28,8.18,23.22,15.34,26.46-3.81.81-5.07,1.27-9.92,2.43-14.65,3.81,3.23,7.05,6.81,10.86,10.38,14.1,13.5,20.22.23,23.57-12.45,1.39-5.31,8.44-7.85,13.06-4.73a75.05,75.05,0,0,1,8.21,6.46c5.54,5,11.32,8,20.1,5.3,7.86-2.42,9-8.19,7.86-14.18s6.82-11,12.6-7.73c9.7,5.42,14.79,9.92,25.77,5.53,14.79-5.88,41.48-10.95,50.73-25,1.61-2.43,1.73-5.19,1.73-7.73C579.42,593.93,562.89,573.52,540.47,558.29Z"/><path class="cls-6" d="M769.74,969.23a75.27,75.27,0,0,1,24.15,13c24.27,19,36.17,51.1,35.59,81.89a81.14,81.14,0,0,1-3.46,23.53c-4.16,13.61-12.83,25.37-22.42,35.87a208.68,208.68,0,0,1-61.71,46.71c-12.13,6-29.58,9.57-37-1.73-3.7-5.65-3.12-13-2.42-19.84,2.19-20.18,28-107.26-1.28-109.8-11-.8-21.49-2.53-25.76-11.19-2.78-5.53-1.62-12.34,2-17.41C699.71,979.26,734.73,958.27,769.74,969.23Z"/><path class="cls-7" d="M717.62,1110.05a7.8,7.8,0,0,0-2.31-.11c-4.39.34-7.39,4.84-9.13,9.11a134.5,134.5,0,0,0-5.77,20.18c-1.62,7.73-2.32,16,0,23.19,4.73,14.64,20.33,15.91,33.39,11.76,7.05-2.31,19.07-6,25-11.3,4.62-4.15,12.71-12.92,9.13-19.73-1.62-3.11-12.48-5.76-15.14-7.84q-11.09-8.3-22.18-16.26C727,1116.28,722.36,1111.09,717.62,1110.05Z"/><path class="cls-26" d="M701,1165c5,4.5,10.17,9.11,16.76,10.5,4.85,1,9.82.11,14.56-1.39"/><path class="cls-7" d="M723.75,1037.85c10.63-21.45,40.56-36.9,83.08-35.4C813.19,956.89,691.39,988,723.75,1037.85Z"/><path class="cls-7" d="M716.7,1072.92a191.68,191.68,0,0,1,107.7-21C843.58,1024.36,745,1013.17,716.7,1072.92Z"/><path class="cls-7" d="M752.75,1085.49c28-2.54,61.25-4.39,65.18-4.27,2,.12,4,.23,5.66,1.5,2.43,2,2.31,5.77,1.39,8.77-4.86,16.72-21.15,17.64-35.83,18.33a310.09,310.09,0,0,1-31.08-.23c-4.39-.23-42-1.27-42.41-3.69-.93-4.5-2.2-9.22-2.54-13.84C712.89,1089.87,731.26,1087.45,752.75,1085.49Z"/><path class="cls-27" d="M707.11,964.85c15.37,33.79,21.38,104-5.43,164.7"/><path class="cls-28" d="M33.52,1143.73a2.61,2.61,0,0,1-.11.92c-1.85,8.54-4.74,18-8.09,24.69a3.81,3.81,0,0,1-3.35,2.19,4.11,4.11,0,0,1-1.62-.35,3,3,0,0,1-1.85-2.77,4,4,0,0,1,.46-1.84,101.07,101.07,0,0,0,8-23.53,2.83,2.83,0,0,1,2.88-2.42,2.7,2.7,0,0,1,.93.11A3.09,3.09,0,0,1,33.52,1143.73Zm26.7-21.22a98.05,98.05,0,0,1-26-4.5,2.73,2.73,0,0,1-1.85-2.77,4.65,4.65,0,0,1,.23-1.26,2.81,2.81,0,0,1,2.66-2,8.34,8.34,0,0,1,1.38.24c7.51,2.3,20.11,4.61,32,5.65a3.2,3.2,0,0,1,3.24,3.11v.35a3.15,3.15,0,0,1-2.54,3.23c-9.36,2.42-18,6.8-18,11.41,0,3.12,1.39,4.73,7.74,10.15,5.78,5,8.44,9.69,8.44,15.34,0,8.65-6.24,13.73-16.18,13.73a24.9,24.9,0,0,1-16.53-6.35,4,4,0,0,1-1.38-2.53,3.34,3.34,0,0,1,.92-2.19,4,4,0,0,1,2.54-1.16,2.93,2.93,0,0,1,2.08.81,18.71,18.71,0,0,0,11.91,5c6.24,0,9.7-2.88,9.7-7.61,0-3.81-2-7.38-7.39-12.11-6.24-5.42-8.32-8.31-8.32-13,0-5.88,6.58-11,15.48-13.26ZM88.76,1167a3.08,3.08,0,0,1-2.31,3.11,3.12,3.12,0,0,1-1,.12,3,3,0,0,1-3-2.65c-2-7.15-5.89-17-9.82-23.07a2.38,2.38,0,0,1-.35-1.5,3,3,0,0,1,1.85-2.65,5.69,5.69,0,0,1,1.39-.23,3.19,3.19,0,0,1,2.89,1.5A94.89,94.89,0,0,1,88.87,1166,4.17,4.17,0,0,0,88.76,1167Zm3.12-49.13a8.7,8.7,0,0,1-8.9,8.65,8.66,8.66,0,1,1,0-17.3A8.7,8.7,0,0,1,91.88,1117.9Zm-14.1,0a5.28,5.28,0,0,0,5.32,5.19,5.33,5.33,0,0,0,5.2-5.19,5.26,5.26,0,0,0-10.52,0Z"/><path class="cls-28" d="M142.49,1113.86a3.38,3.38,0,0,1-1.27,2.65c-8.78,8.19-20.45,16.61-30.27,22.84-1.85,1.15-2.2,2-2.2,3s.58,1.73,2.77,3.11A272.18,272.18,0,0,1,144,1169.91a3.84,3.84,0,0,1,1.38,3,3.58,3.58,0,0,1-.92,2.54,3.46,3.46,0,0,1-2.66,1.27,3.83,3.83,0,0,1-2.77-1.27c-9.25-8.88-21.5-18.22-33-25.84-3.59-2.42-4.74-4.38-4.74-7.26,0-3.12,1.39-5.31,5.08-7.73a208.17,208.17,0,0,0,29.82-22.95,3.81,3.81,0,0,1,2.54-1,4.63,4.63,0,0,1,2.54.92A2.66,2.66,0,0,1,142.49,1113.86Z"/><path class="cls-28" d="M203.39,1155c6.24,2.66,13.41,6.46,18.84,11.19a4.25,4.25,0,0,1,1.38,2.77,3.15,3.15,0,0,1-.69,2,3.44,3.44,0,0,1-2.77,1.38,3.4,3.4,0,0,1-2.31-.92,74.84,74.84,0,0,0-16.07-10.49c-1.15-.46-2.31-1-3.58-1.62a31.26,31.26,0,0,1,.12,3.35c0,9.57-5.9,13.26-16.53,13.26s-17.56-5-17.56-12.34,6.35-12.69,19.3-12.69a55,55,0,0,1,8.32.81c-.35-3.58-.58-7-.7-10.5-3.12.12-6.12.12-9.24.12-5.55,0-9.71,0-15.6-.35a2.73,2.73,0,0,1-2.66-2.88v-.35a2.66,2.66,0,0,1,2.77-2.76h.12c5.66.34,9.71.46,15,.46,3.12,0,6.13,0,9.25-.12-.12-3-.23-6.23-.35-9.57-2.43.11-4.74.11-7.28.11-7.74,0-14.1-.11-18.26-.34a2.63,2.63,0,0,1-2.54-2.89v-.34a2.73,2.73,0,0,1,2.89-2.65h.11c4.16.23,10.52.34,17.34.34,2.54,0,5.08,0,7.51-.11v-7.15c0-1.85,1-2.77,3.12-2.77s2.89.81,2.89,2.88c0,2.42,0,4.73.11,6.92a222.38,222.38,0,0,0,22.31-1.73,2.3,2.3,0,0,1,.8-.11,2.49,2.49,0,0,1,2.66,2.42,1.4,1.4,0,0,1,.12.69,2.62,2.62,0,0,1-2.43,2.65c-7.51,1-15,1.62-23.46,2,0,3,.12,6,.35,9.58,7.63-.35,14.56-1,22-2h.46a2.66,2.66,0,0,1,2.66,2.53v.58a2.77,2.77,0,0,1-2.55,2.77,223.43,223.43,0,0,1-22.3,2c.23,4.15.58,8,.81,12.11A30,30,0,0,1,203.39,1155Zm-20.57,1.39c-8.78,0-12.59,2.65-12.59,7.15,0,4.15,4.5,6.34,10.86,6.34,7.4,0,11-2,10.86-9a31.69,31.69,0,0,0-.11-3.23A33.93,33.93,0,0,0,182.82,1156.42Z"/><path class="cls-28" d="M255.28,1141.08a44,44,0,0,1,17.45-4c14.09,0,22.76,7.27,22.76,17.76,0,12.92-12,21-31.2,21-11.67,0-19.18-4.72-19.18-11.87,0-6,5.08-10.39,12.83-10.39,8.43,0,15.48,5,16.75,15.11,8-1.84,14-6.69,14-13.84s-6.12-12.57-17.21-12.57c-10.4,0-20,3.35-32.82,11.19a4.7,4.7,0,0,1-2.08.58,3.39,3.39,0,0,1-3.35-3.23,3.08,3.08,0,0,1,1.84-2.89,339.34,339.34,0,0,0,40.33-28.83c-8.55.69-20.56,1.15-30.62,1.27a2.82,2.82,0,0,1-2.89-3c0-1.73.93-3.11,2.78-3.11,10.63,0,24-.35,34.43-1h.7a4.06,4.06,0,0,1,3.92,2,4.7,4.7,0,0,1,.58,2.19,4.18,4.18,0,0,1-1.5,3.11,165.47,165.47,0,0,1-20.45,15.8c-2.2,1.5-4.86,3.23-7,4.5Zm2.31,17.76c-4,0-6.47,2.08-6.47,5,0,3.58,4.74,6.46,11.67,6.57,1.85,0,3.81,0,5.78-.11C268,1162.53,263,1158.84,257.59,1158.84Z"/><path class="cls-29" d="M33.52,1143.73a2.61,2.61,0,0,1-.11.92c-1.85,8.54-4.74,18-8.09,24.69a3.81,3.81,0,0,1-3.35,2.19,4.11,4.11,0,0,1-1.62-.35,3,3,0,0,1-1.85-2.77,4,4,0,0,1,.46-1.84,101.07,101.07,0,0,0,8-23.53,2.83,2.83,0,0,1,2.88-2.42,2.7,2.7,0,0,1,.93.11A3.09,3.09,0,0,1,33.52,1143.73Zm26.7-21.22a98.05,98.05,0,0,1-26-4.5,2.73,2.73,0,0,1-1.85-2.77,4.65,4.65,0,0,1,.23-1.26,2.81,2.81,0,0,1,2.66-2,8.34,8.34,0,0,1,1.38.24c7.51,2.3,20.11,4.61,32,5.65a3.2,3.2,0,0,1,3.24,3.11v.35a3.15,3.15,0,0,1-2.54,3.23c-9.36,2.42-18,6.8-18,11.41,0,3.12,1.39,4.73,7.74,10.15,5.78,5,8.44,9.69,8.44,15.34,0,8.65-6.24,13.73-16.18,13.73a24.9,24.9,0,0,1-16.53-6.35,4,4,0,0,1-1.38-2.53,3.34,3.34,0,0,1,.92-2.19,4,4,0,0,1,2.54-1.16,2.93,2.93,0,0,1,2.08.81,18.71,18.71,0,0,0,11.91,5c6.24,0,9.7-2.88,9.7-7.61,0-3.81-2-7.38-7.39-12.11-6.24-5.42-8.32-8.31-8.32-13,0-5.88,6.58-11,15.48-13.26ZM88.76,1167a3.08,3.08,0,0,1-2.31,3.11,3.12,3.12,0,0,1-1,.12,3,3,0,0,1-3-2.65c-2-7.15-5.89-17-9.82-23.07a2.38,2.38,0,0,1-.35-1.5,3,3,0,0,1,1.85-2.65,5.69,5.69,0,0,1,1.39-.23,3.19,3.19,0,0,1,2.89,1.5A94.89,94.89,0,0,1,88.87,1166,4.17,4.17,0,0,0,88.76,1167Zm3.12-49.13a8.7,8.7,0,0,1-8.9,8.65,8.66,8.66,0,1,1,0-17.3A8.7,8.7,0,0,1,91.88,1117.9Zm-14.1,0a5.28,5.28,0,0,0,5.32,5.19,5.33,5.33,0,0,0,5.2-5.19,5.26,5.26,0,0,0-10.52,0Z"/><path class="cls-29" d="M142.49,1113.86a3.38,3.38,0,0,1-1.27,2.65c-8.78,8.19-20.45,16.61-30.27,22.84-1.85,1.15-2.2,2-2.2,3s.58,1.73,2.77,3.11A272.18,272.18,0,0,1,144,1169.91a3.84,3.84,0,0,1,1.38,3,3.58,3.58,0,0,1-.92,2.54,3.46,3.46,0,0,1-2.66,1.27,3.83,3.83,0,0,1-2.77-1.27c-9.25-8.88-21.5-18.22-33-25.84-3.59-2.42-4.74-4.38-4.74-7.26,0-3.12,1.39-5.31,5.08-7.73a208.17,208.17,0,0,0,29.82-22.95,3.81,3.81,0,0,1,2.54-1,4.63,4.63,0,0,1,2.54.92A2.66,2.66,0,0,1,142.49,1113.86Z"/><path class="cls-29" d="M203.39,1155c6.24,2.66,13.41,6.46,18.84,11.19a4.25,4.25,0,0,1,1.38,2.77,3.15,3.15,0,0,1-.69,2,3.44,3.44,0,0,1-2.77,1.38,3.4,3.4,0,0,1-2.31-.92,74.84,74.84,0,0,0-16.07-10.49c-1.15-.46-2.31-1-3.58-1.62a31.26,31.26,0,0,1,.12,3.35c0,9.57-5.9,13.26-16.53,13.26s-17.56-5-17.56-12.34,6.35-12.69,19.3-12.69a55,55,0,0,1,8.32.81c-.35-3.58-.58-7-.7-10.5-3.12.12-6.12.12-9.24.12-5.55,0-9.71,0-15.6-.35a2.73,2.73,0,0,1-2.66-2.88v-.35a2.66,2.66,0,0,1,2.77-2.76h.12c5.66.34,9.71.46,15,.46,3.12,0,6.13,0,9.25-.12-.12-3-.23-6.23-.35-9.57-2.43.11-4.74.11-7.28.11-7.74,0-14.1-.11-18.26-.34a2.63,2.63,0,0,1-2.54-2.89v-.34a2.73,2.73,0,0,1,2.89-2.65h.11c4.16.23,10.52.34,17.34.34,2.54,0,5.08,0,7.51-.11v-7.15c0-1.85,1-2.77,3.12-2.77s2.89.81,2.89,2.88c0,2.42,0,4.73.11,6.92a222.38,222.38,0,0,0,22.31-1.73,2.3,2.3,0,0,1,.8-.11,2.49,2.49,0,0,1,2.66,2.42,1.4,1.4,0,0,1,.12.69,2.62,2.62,0,0,1-2.43,2.65c-7.51,1-15,1.62-23.46,2,0,3,.12,6,.35,9.58,7.63-.35,14.56-1,22-2h.46a2.66,2.66,0,0,1,2.66,2.53v.58a2.77,2.77,0,0,1-2.55,2.77,223.43,223.43,0,0,1-22.3,2c.23,4.15.58,8,.81,12.11A30,30,0,0,1,203.39,1155Zm-20.57,1.39c-8.78,0-12.59,2.65-12.59,7.15,0,4.15,4.5,6.34,10.86,6.34,7.4,0,11-2,10.86-9a31.69,31.69,0,0,0-.11-3.23A33.93,33.93,0,0,0,182.82,1156.42Z"/><path class="cls-29" d="M255.28,1141.08a44,44,0,0,1,17.45-4c14.09,0,22.76,7.27,22.76,17.76,0,12.92-12,21-31.2,21-11.67,0-19.18-4.72-19.18-11.87,0-6,5.08-10.39,12.83-10.39,8.43,0,15.48,5,16.75,15.11,8-1.84,14-6.69,14-13.84s-6.12-12.57-17.21-12.57c-10.4,0-20,3.35-32.82,11.19a4.7,4.7,0,0,1-2.08.58,3.39,3.39,0,0,1-3.35-3.23,3.08,3.08,0,0,1,1.84-2.89,339.34,339.34,0,0,0,40.33-28.83c-8.55.69-20.56,1.15-30.62,1.27a2.82,2.82,0,0,1-2.89-3c0-1.73.93-3.11,2.78-3.11,10.63,0,24-.35,34.43-1h.7a4.06,4.06,0,0,1,3.92,2,4.7,4.7,0,0,1,.58,2.19,4.18,4.18,0,0,1-1.5,3.11,165.47,165.47,0,0,1-20.45,15.8c-2.2,1.5-4.86,3.23-7,4.5Zm2.31,17.76c-4,0-6.47,2.08-6.47,5,0,3.58,4.74,6.46,11.67,6.57,1.85,0,3.81,0,5.78-.11C268,1162.53,263,1158.84,257.59,1158.84Z"/><path class="cls-7" d="M600.91,839.94l12.6,57a5.67,5.67,0,0,0,9.13,3.23l47.49-37.48a5.73,5.73,0,0,0-1.73-9.92l-60.09-19.61A5.9,5.9,0,0,0,600.91,839.94Z"/><path class="cls-27" d="M613.28,847a78.93,78.93,0,0,1,22.3,21.8"/><path class="cls-30" d="M601.49,845.82l16.18-9.57a6.11,6.11,0,0,0,2.08-8.19h0a6.13,6.13,0,0,0-8.21-2.08l-16.18,9.58a6.1,6.1,0,0,0-2.08,8.19h0A5.92,5.92,0,0,0,601.49,845.82Z"/><path class="cls-7" d="M362.4,894.38l14.21,55.13a5.72,5.72,0,0,1-7.16,6.92L316.52,941a5.69,5.69,0,0,1-2.54-9.45l38.6-39.68A5.8,5.8,0,0,1,362.4,894.38Z"/><path class="cls-27" d="M355.58,905.1a72.87,72.87,0,0,0-8.32,28.15"/><path class="cls-30" d="M364.48,899.57l-17-2.54a6.5,6.5,0,0,1-5.2-6.57h0a4.91,4.91,0,0,1,5.66-5l17,2.53a6.49,6.49,0,0,1,5.2,6.58h0A4.91,4.91,0,0,1,364.48,899.57Z"/></g></g></svg>