<svg xmlns="http://www.w3.org/2000/svg" viewBox="0 0 1335.33 1335.33"><defs><style>.cls-1{fill:#edaa5d;}.cls-2{fill:#a18877;}.cls-3{fill:#717171;}.cls-4{fill:#221714;}.cls-5{fill:#fff;}.cls-6{fill:#eee;}.cls-7{fill:#ad8046;}.cls-8{fill:#f6d6e4;}.cls-9{fill:#7e6656;}.cls-10,.cls-14,.cls-15{isolation:isolate;font-size:259.9px;font-family:HiraMaruProN-W4-83pv-RKSJ-H, Hiragino Maru Gothic ProN;letter-spacing:-0.03em;}.cls-10{fill:#dca059;}.cls-11{letter-spacing:-0.1em;}.cls-12{letter-spacing:-0.04em;}.cls-13{letter-spacing:0em;}.cls-14,.cls-15,.cls-18,.cls-19,.cls-20,.cls-21{fill:none;}.cls-14{stroke:#efefef;stroke-width:78px;}.cls-14,.cls-15{stroke-miterlimit:10;}.cls-15{stroke:#e69b49;stroke-width:4px;}.cls-16{fill:#cd98be;}.cls-17{fill:#988061;}.cls-18,.cls-19,.cls-20,.cls-21{stroke:#796956;}.cls-18{stroke-miterlimit:10;}.cls-18,.cls-20{stroke-width:7px;}.cls-19{stroke-miterlimit:10;stroke-width:7px;}.cls-20,.cls-21{stroke-linecap:round;stroke-linejoin:round;}.cls-21{stroke-width:5px;}.cls-22{fill:#e7db72;}</style></defs><title>资源 15</title><g id="图层_2" data-name="图层 2"><g id="图层_1-2" data-name="图层 1"><path class="cls-1" d="M1029.2,745.86a206.45,206.45,0,0,0-31.33,26.93,298.49,298.49,0,0,0-36,46.38c-60.23,94.31-153.11,134.65-132.22,176.2s68.47,6.48,191.14-41.22c46.82-18.25,79.68-45.84,101.23-75.29a186.2,186.2,0,0,0,20.11-34.52c17-38.14,17.7-74.74,7.69-94.63-14.83-29.68-65.39-41.88-120.57-3.85"/><path class="cls-2" d="M1142.08,844.23c17-38.14,17.7-74.74,7.69-94.63-14.83-29.57-65.39-41.77-120.57-3.74"/><polygon class="cls-2" points="899.83 894.58 936.98 987.78 975.67 971.4 925.66 868.2 899.83 894.58"/><path class="cls-2" d="M952.7,832.8s-14,17.48-16.27,20.12l81.12,102.22s29.13-12.2,30.77-13Z"/><path class="cls-2" d="M994.91,775.87s-18.58,21.76-24.95,31l112.88,112s30.77-25.72,35.5-35.51Z"/><path class="cls-1" d="M839.93,1281.8c1.21,8,3.84,16.6,8.57,23,4.4,5.94,12.53,12.86,18.69,12.53s14.39-8.13,16.81-14.5c6.93-18.36,8.69-38.25,15.06-56.83,0-.11,0-.11.11-.22-20.44,15.39-41.22,22.31-65.62,24.29,3.3,1.54,5.39,5.17,6.38,11.76"/><path class="cls-2" d="M504.58,1310.6a32.7,32.7,0,0,0,2.31,7c4,10.67,10.88,17.59,23,17.7s18.58-7.91,20.33-18c1.65-9.23,5.39-14.17,10.89-16.37-22.65.11-43.86-5-67.16-6.16,5.82,2.53,9.56,7.26,10.66,15.83"/><path class="cls-1" d="M733.64,1297v2.75a6.2,6.2,0,0,0,1.32-.44c2.75-1,9.78,4.83,12.53,9,6,9.45,12.53,16.93,24.84,13.85,11.54-3,15.5-12.2,14.84-22.64-.77-12.31,4.07-18.91,13.85-22.2l-5.39.11c-18.46,18.9-37.15,19.23-62,19.56"/><path class="cls-2" d="M329.82,1286.42h0c10.11.66,16.37,4,20.55,13.52,4,8.9,8.79,18.13,15.61,25,4.4,4.39,13.52,7.36,19.45,5.93,4.73-1.1,8.91-9.23,11-15,2.2-6.27,1.65-13.41,2.53-23-22,2.31-47.81-10.66-69.13-6.37"/><path class="cls-3" d="M966.88,1022.3c-7.81-37-17.81-73.54-26.16-110.47a4.17,4.17,0,0,0,1.65,0c-13.74-22.09-15.17-51.55-21.77-76.61-5.05-19.45-8.24-37.48-18.24-55.39-5.28-9.46-9.89-19.24-14.29-29.13-4.07-9.12-9.56-17.26-14.29-25.94C864,707,855.42,688.38,845.53,670.57c-22.42-40.56-47.92-79.36-78.7-114.09-42.2-47.48-93-82.65-155.3-92.66-74.09-11.87-143.44,7.37-205.87,50.12C345.09,555.38,305,613,273,677.5c-12.53,25.28-30.88,47.15-41.66,72.76-9,21.43-13.74,44.29-24.18,65.18-8.24,16.48-16.26,34.73-21.87,52.65A153.06,153.06,0,0,0,180.77,888c-4.83,27.26-10,52.54-9.34,80.24.66,28.69,1.32,57.37-.11,86.06-2.09,40.45-9.89,80.68-11.87,121.13-2.31,47,17.7,78.58,62.43,89.25,46.06,11,92.77,20.11,139.7,26.81,4,.55,7.7,1.32,11.32,2.09,36.49,0,73.65,3.63,110.36,6.38,7.69-.22,15.38-.22,23,1.32.66.11,1.32.33,1.87.44h.66c90.13,5.38,184.43,10.33,272.69-11.76,27.81-6.93,55.73-14,83.54-20.89s59.68-14.51,83.86-30.44c19-12.53,40.56-35.84,42.21-59.8,3.63-53.86-13.3-104.75-24.18-156.51M933.24,891.72l4.07,13.19a35,35,0,0,1-3.85-12,4.68,4.68,0,0,0-.22-1.21"/><path class="cls-4" d="M290.91,675.08c15.28-25.5,31.21-50.78,48.58-74.85,27.26-37.81,61.22-69.58,102.88-89.69,55.07-26.6,112.55-42.65,175.42-27.59,73,17.36,125,61.55,166,121.56,11.21,16.38,22.09,33.09,32.65,49.9,13.52,21.55,12,28.25-11.66,35.51A678.21,678.21,0,0,1,625.6,719.37c-13.41.44-19.68-5-24.3-17.8C586.91,662,573,622.1,554.81,584.29c-10.55-21.87-28.14-40.67-44.29-59.46-3.52-4.18-13.85-2.42-22.76-3.63,17.92,22.53,33.86,40.45,47.38,60.12,9,13.08,15.82,28.14,21.43,43.09,8.46,22.53,14.95,45.94,22.2,68.91,6.82,21.44-1.1,34.3-23.63,32.43-15.5-1.32-32.86-5.83-45.39-14.62-58.37-40.89-121.24-40.34-186.42-24.4-4.72,1.21-8.79,4.83-13.52,6.15-6.59,1.76-13.52,2.42-20.33,3.52.44-7.47-1.76-16,1.43-21.32"/><rect class="cls-4" x="344.33" y="1018.23" width="45.61" height="4.84"/><path class="cls-4" d="M675.94,1280c-2.09.88-4.84-.11-7.37-.22v.55c-4.94,0-10.44,1.43-14.62-.44s-7-6.7-10.44-10.22c5-3.52,9.45-8.9,15-10.22s12,.88,17.48,3.08c5.27,2.09,9.67,6.26,14.39,9.56-4.72,2.75-9.34,5.71-14.39,7.91"/><path class="cls-5" d="M935.22,1161.67c-.44,1.21-.77,2.41-1.1,3.62a50.37,50.37,0,0,0-1.54,18.58c.55,5.27,3.52,9.89,3.19,15.28-.55,10.22-9.56,18.46-18.35,22.42-16.27,7.36-34,12.09-51.11,17.26-25.5,7.69-51,15.16-76.72,22-28.36,7.58-56.72,14.62-85.3,21.1-7.14,1.65-13.63-2.75-20.55-2.75-8.35,0-16.6-.22-25-.77-16.27-1.2-32.65-3.18-49-2.52-25.72,1.1-50.89,8.35-76.72,8.46-45.07.22-90.35.11-135.09-4.62-50.12-5.27-99.8-15.16-149.37-24.29-21.76-4.06-43.09-10.55-64.3-17.25-14.51-4.62-22.42-16.49-22.64-31.55-.33-27.7.55-55.4,1-83.2,2.09-.66,4.17-1.21,6.15-1.87,8.14,7.14,17.48,13.41,24.18,21.76,12.31,15.28,27.59,22,46.83,23.85,38.47,3.63,76.72,10.66,115.3,12.53,59.57,2.86,110.46-16.7,147.94-65.62,9.89-13,21.21-17.58,40-14.29,27.59,4.84,55,2,82.65,3.63,25.07,1.54,49.91,3.63,75-1.87,66.71-14.61,136.29-26.38,201.25-50.34,15.06-5.6,27.48,2,30.11,18.47,4.4,27,13,59.35,5.06,86.39-.55,1.76-1.21,3.63-1.87,5.61"/><path class="cls-5" d="M478.09,495c44.19-16.6,90.35-24,139.7-12.2,73,17.36,125,61.55,166,121.56,11.21,16.38,22.09,33.09,32.65,49.9,13.52,21.55,12,28.25-11.66,35.51a671.64,671.64,0,0,1-113.87,24.4c-19.56,2.42-39.35,4.06-59,4.83-18.14.77-33.85,12-53,9.46-23.19-3.08-49.13-3.74-69.13-17.7-58.37-40.89-121.24-40.34-186.42-24.4-4.72,1.21-8.79,4.83-13.52,6.15-6.59,1.76-13.52,2.42-20.33,3.52.33-7-1.87-15.61,1.32-21,15.28-25.5,31.21-50.78,48.58-74.85,27.26-37.81,61.22-69.58,102.88-89.69,11.87-5.72,23.85-11,35.83-15.5"/><path class="cls-4" d="M324.32,855.67c14.29-16.49,31.44-12.09,47.48-10.45,3.3.33,8.25,7,8.14,10.67S374.66,865.45,371,866c-15.71,2.42-32,5.16-46.71-10.33"/><path class="cls-2" d="M404.56,717.61l120.24,113S572,890.4,592.18,849.84a24.89,24.89,0,0,0,1.87-4.73l31.54-101.89c.55-1.53.77-3.29,1.21-4.83,16.27-60.12-10-87.71-42.42-87.38l-143.11,31.1c-32.64.22-59.79,13.63-36.71,35.5"/><path class="cls-2" d="M253,703.33l-85.08,93.42s-32.42,48.47-50.45,18.58a33,33,0,0,1-1.75-3.52L85.15,735.53c-.44-1.21-.77-2.42-1.21-3.63-16.16-45.17,2.2-67.81,27-69.35l111.45,15.72c25.28-1.76,47,7,30.56,25.06"/><path class="cls-5" d="M445.23,732.56l81,76.17s31.77,40.23,45.4,13a16.41,16.41,0,0,0,1.32-3.18l21.32-68.59c.33-1.1.55-2.2.88-3.3,11-40.56-6.71-59.13-28.58-58.91L470.18,708.6c-22.32.22-40.67,9.23-24.95,24"/><path class="cls-5" d="M226.17,708.71l-57.27,63s-21.87,32.65-34,12.53a16.56,16.56,0,0,1-1.21-2.42l-20.55-51.44c-.33-.77-.55-1.64-.88-2.41-10.88-30.45,1.43-45.73,18.24-46.72l75.18,10.55c16.82-1.09,31.44,4.84,20.45,16.93"/><path class="cls-1" d="M585.7,868.2c.11-.88.77,21.65.88,20.88C601.08,764.44,508,658.7,378.51,652.88s-246.76,67-261.27,191.68c-.55,4.84-.88,9.57-1.21,14.29-22.86,27-37.7,58.26-41.65,91.89-13,111,97.71,229.83,246.42,236.54s279.84-77.82,292.81-188.84c4.62-38.58-6.26-98.59-27.91-130.24"/><path class="cls-6" d="M502.71,792.47c5.61-47.71-22.64-87.94-63-89.8-37.15-1.65-71.55,29.78-81.23,72-2-.22-4.06-.44-6.15-.55a91.48,91.48,0,0,0-14.51.55c.77-43.2-26.16-77.93-63.64-79.58-40.34-1.87-77.6,35.39-83.09,83.21-5.17,44,18.35,81.55,53.63,88.59A126.58,126.58,0,0,0,241.45,885c-4.51,38.36,14.07,62,43.85,70.46,41.44,11.87,93,13.85,131.79-19.57,11.54-9.89,17.47-26.71,19.23-42.2a137.37,137.37,0,0,0,.88-20c33.09-7.58,60.79-40.56,65.51-81.22"/><path class="cls-5" d="M341.25,678.05c-.77,6.7-12.42,11.76-26.05,11.1s-24-6.6-23.19-13.3,12.42-11.76,26.05-11.1,24,6.59,23.19,13.3"/><path class="cls-5" d="M434,682.33c-.77,6.71-12.42,11.76-26,11.1s-24-6.59-23.2-13.3,12.42-11.76,26.05-11.1,24,6.49,23.2,13.3"/><path class="cls-7" d="M323.55,845.33c6.05,18.58,22,34.74,42.65,34.52,20.22-.22,36.93-15.28,43.08-33.86,3.08-9.34-3.62-21-13.18-23.19-10.34-2.42-19.9,3.08-23.2,13.19-.33.88-.66,1.87-1,2.75.66-1.54,1.32-3,1.87-4.51a31.73,31.73,0,0,1-3.62,6.16c1-1.32,2-2.53,3-3.85a31.73,31.73,0,0,1-5.38,5.5c1.32-1,2.53-2,3.84-3a30.14,30.14,0,0,1-6.26,3.74c1.54-.66,3-1.32,4.51-1.87a30.27,30.27,0,0,1-6.16,1.76l5.06-.66a24.86,24.86,0,0,1-5.72,0l5.06.66a26.59,26.59,0,0,1-5.06-1.43c1.54.66,3,1.32,4.51,1.87a26.72,26.72,0,0,1-5.72-3.3c1.32,1,2.53,2,3.85,3a30.62,30.62,0,0,1-5.28-5.39c1,1.32,2,2.53,3,3.85a38.77,38.77,0,0,1-4.29-7.48c.66,1.54,1.32,3,1.87,4.51-.33-.88-.66-1.87-1-2.75a19.68,19.68,0,0,0-8.68-11.21c-4.07-2.42-10-3.41-14.51-1.87-9.34,2.64-16.49,12.75-13.19,22.86"/><path class="cls-2" d="M219.68,807.85c-3.29,4.84-6.37,9.79-9.23,14.95-19,34-53.75,23.08-63.64,1.54-6.37-13.85,1.32-36.38,8.35-49.46,15.06-27.7,40.56-43.42,66.17-51.88a224.14,224.14,0,0,1,39.24-8.79c9.34-1.32,22.75-3.52,31.11,1.21,4.94,2.74,6.92,7.91,5.82,14.61-3,17.59-31.87,29.68-43.08,39.13a195.88,195.88,0,0,0-34.74,38.69"/><path class="cls-2" d="M476.22,821.26c7.48,13.41,11.65,30.78,25.72,36.38,14.4,5.83,33.75-.33,44.52-15.16,9.56-13.08,7.14-36.06,3.18-49.68-6.48-22-20.77-38.47-37.92-49-17.47-10.88-35.61-16.26-55.72-22-13.52-3.85-31.11-9.78-41.44,5.06-4.95,7.14-5.17,16.37-3.3,24.29,2.2,10,7.7,16.16,15.06,21.32,4.07,2.75,8.24,5.28,12.2,8,14.29,9.68,26.6,23,36.16,38.58a8.63,8.63,0,0,1,1.54,2.2"/><path class="cls-7" d="M247.71,872.81a311.63,311.63,0,0,0-1.87,48.58c2.31-3.07,4.62-6,6.93-9.12-.88.22-.88.22,0,.11a5.33,5.33,0,0,1,1.87,0c1.21.55,1.43.66.88.33s-.33-.22.66.44c-1.32-1,.65.88.11,0-.33-.66-.22-.44.32.66-.21-.77-.21-.88-.11-.22.22,1.32.11-1,.11-1.21,0-2.42-.43,1.54.11-.88.44-1.65.88-3.41,1.43-5,1.54-4.73-1.75-10.56-6.59-11.65a9.65,9.65,0,0,0-11.65,6.59c-2.2,6.81-3.52,14-.22,20.66s11,10.56,18.13,8.36c3.85-1.21,7.15-4.84,6.93-9.13a312.15,312.15,0,0,1,1.87-48.58c.55-4.94-4.73-9.67-9.46-9.45-5.6.33-8.79,4.29-9.45,9.56"/><path class="cls-7" d="M248,868.75a103.31,103.31,0,0,0-15.61,55.83c.11,4.95,4.29,9.67,9.46,9.45a9.67,9.67,0,0,0,9.45-9.45,74.65,74.65,0,0,1,.77-13.08c-.33,2.09.22-1.43.33-1.87A22,22,0,0,1,253,907c.44-2.2,1-4.29,1.54-6.49s1.32-4.29,2-6.37a23,23,0,0,0,.88-2.53L258,890c-.33.88-.33.77.11-.22A100.65,100.65,0,0,1,264.42,878,9.47,9.47,0,0,0,261,865.12a10,10,0,0,0-13,3.63"/><path class="cls-8" d="M489.08,934.91c-8.79-1.1-15.06-4.28-18.24-15.6-4.95-17.59-12.2-34.41-23.52-49.36-21.88-28.79-56.06-45.61-93.54-48.58-75.29-6-130.36,23.85-157.95,108.38A121.53,121.53,0,0,0,177,922.38c-19.9-6.26-48.58-3.29-45.84,31.11,1.32,16.82,10.66,25.72,31.55,32.86-1.87,4.95-3.74,10.12-5.39,15.39-15.17,49.13,19.24,94.42,62.65,119,52.54,29.89,114.31,37.15,170.59,12.86,31.43-13.52,59.35-32.21,68.7-64.08,5.6-19,11-39.68,3-57.93,33.86,7.92,72.66-9.23,74.08-43.85.77-18.14-20.11-31.33-38.25-32.32a74.9,74.9,0,0,1-9-.55"/><path class="cls-2" d="M382.36,774c-1.1,9.12-14.07,16-28.91,15.28s-26.16-8.58-25.06-17.81,14.07-16.05,28.91-15.28,26.16,8.69,25.06,17.81"/><path class="cls-9" d="M311.24,734.87c-1.76,15.06-13.52,26.71-26.16,26.16s-21.54-13.19-19.78-28.25,13.52-26.71,26.16-26.16,21.54,13.19,19.78,28.25"/><path class="cls-9" d="M439.73,740.7c-1.76,15-13.52,26.71-26.16,26.16S392,753.67,393.79,738.61,407.31,711.9,420,712.45s21.54,13.19,19.78,28.25"/><text class="cls-10" transform="translate(76.27 314.41) rotate(-0.71)">❶<tspan class="cls-11" x="252.37" y="0">す</tspan><tspan class="cls-12" x="486.8" y="0">し</tspan><tspan class="cls-13" x="736.31" y="0">席</tspan></text><text class="cls-14" transform="translate(76.27 314.41) rotate(-0.71)">❶<tspan class="cls-11" x="252.37" y="0">す</tspan><tspan class="cls-12" x="486.8" y="0">し</tspan><tspan class="cls-13" x="736.31" y="0">席</tspan></text><text class="cls-10" transform="translate(76.27 314.41) rotate(-0.71)">❶<tspan class="cls-11" x="252.37" y="0">す</tspan><tspan class="cls-12" x="486.8" y="0">し</tspan><tspan class="cls-13" x="736.31" y="0">席</tspan></text><text class="cls-15" transform="translate(76.27 314.41) rotate(-0.71)">❶<tspan class="cls-11" x="252.37" y="0">す</tspan><tspan class="cls-12" x="486.8" y="0">し</tspan><tspan class="cls-13" x="736.31" y="0">席</tspan></text><ellipse class="cls-16" cx="284.63" cy="1041.62" rx="11.76" ry="23.3" transform="matrix(0.08, -1, 1, 0.08, -777.19, 1237.89)"/><ellipse class="cls-17" cx="213.13" cy="1005.33" rx="29.9" ry="21.76" transform="translate(-806.97 1129.91) rotate(-84.99)"/><ellipse class="cls-17" cx="364.09" cy="1019.29" rx="29.9" ry="21.76" transform="translate(-683.08 1293.04) rotate(-84.99)"/><path class="cls-17" d="M251.91,1080.94c13.37,6.58,29,11.52,45.09,9.57,2.73-.37,5.31-2,5.1-4.5a4.88,4.88,0,0,0-5.45-4.07c-1.89.25-3.79.32-5.69.4-.84,0-1.8,0-2.64,0-.53,0-.95,0-1.48,0s-1.06,0-.32,0a66.65,66.65,0,0,1-10.95-1.78c-.86-.22-1.71-.45-2.46-.67-.11,0-1.5-.46-.54-.15a7.14,7.14,0,0,0-1.28-.38c-1.71-.53-3.32-1.15-4.93-1.77-3.23-1.24-6.35-2.75-9.48-4.25-2.37-1.19-5.92-.19-7.11,1.84-1.28,2.2-.34,4.48,2.14,5.75Z"/><path class="cls-17" d="M249.53,1066.61c.05,1.37.11,2.83.06,4.2,0,.35-.07.7-.06,1,0,.08-.17,1.12-.08.52s-.09.52-.09.6c-.09.26-.08.61-.17.87a30.16,30.16,0,0,1-1.1,4.08,12.27,12.27,0,0,1-.67,1.83c-.09.35-.29.61-.38,1-.1.17-.09.35-.19.44.19-.44.29-.53.09-.27a34.89,34.89,0,0,1-4.27,6.53c-.41.45.6-.62,0,0-.21.27-.51.45-.72.72-.5.45-.91.9-1.42,1.35s-1,.81-1.53,1.26c-.72.55.62-.37.1-.09a6.45,6.45,0,0,0-.93.64c-2.26,1.38-3.32,4-1.66,5.91a6,6,0,0,0,7.24,1.25c12.07-7.28,17.12-20.63,16.22-32.27a5,5,0,0,0-5.45-4.07c-2.74.2-5.2,2.1-5,4.5Z"/><path class="cls-18" d="M259.2,1017.05c.91-15.44,16.14-22.22,36.68-20.31,8.39.75,21.64,9.89,20.73,25.33"/><ellipse class="cls-19" cx="213.04" cy="1005.24" rx="44.52" ry="47.59" transform="translate(-814.52 1010.87) rotate(-78.35)"/><ellipse class="cls-19" cx="364.11" cy="1019.22" rx="44.52" ry="47.59" transform="translate(-707.64 1170) rotate(-78.35)"/><line class="cls-20" x1="462.95" y1="944.6" x2="413.5" y2="1021.62"/><line class="cls-21" x1="192.98" y1="936.71" x2="166.36" y2="995.77"/><path class="cls-22" d="M457,858.74c-14-23.63-59.14-61-89.14-65.07-9.13-1.2-18.8-1.42-27.7,1.65-5.17,1.76-5.94-.66-11,4.07a41.32,41.32,0,0,0-14.07-11.87c-8.14-3.85-17.7-4.51-27-4.18-30.67,1.32-84.09,34.19-103.32,56.28-19.79,22.64-34,50.12-33.42,78.26.11,3,.33,6,1.87,8.57,2,3.19,5.61,4.95,9.24,6.49,33.3,14.06,89.47,30.33,126.4,22,5.6-1.21,8.46-8.25,5.49-13.08-4.39-7-9.12-13.85-8.46-22,.44-5.72,3.3-13.08,8.13-15.94,8.36-5.06,16.6-4.73,22.65,2.53a7.32,7.32,0,0,0,4.61,2.63c1.76-.11-3-.11-1.43-1.42,7.7-6.6,15.94-6.16,23-.33,4.07,3.29,5.28,10.88,4.4,16.48-1.32,8.14-7.47,14.51-13.52,21-4.07,4.5-2.86,11.65,2.42,13.41,34.51,11.65,85.07,5.93,121.23-5,4-1.21,8-2.64,10.67-5.61,2.08-2.3,3.07-5.38,3.84-8.35,7.15-27.81-.55-56.28-14.83-80.57"/></g></g></svg>