<svg xmlns="http://www.w3.org/2000/svg" viewBox="0 0 1222.01 1222.01"><defs><style>.cls-1{fill:#edaa5d;}.cls-2{fill:#a18877;}.cls-3{fill:#717171;}.cls-4{fill:#221714;}.cls-5{fill:#fff;}.cls-6{fill:#eee;}.cls-7{fill:#ad8046;}.cls-8{fill:#f6d6e4;}.cls-9{fill:#7e6656;}.cls-10,.cls-14,.cls-15{isolation:isolate;font-size:236.47px;font-family:HiraMaruProN-W4-83pv-RKSJ-H, Hiragino Maru Gothic ProN;}.cls-10{fill:#dca059;}.cls-11{letter-spacing:-0.03em;}.cls-12{letter-spacing:-0.1em;}.cls-13{letter-spacing:-0.04em;}.cls-14,.cls-15,.cls-18,.cls-19,.cls-20,.cls-21{fill:none;}.cls-14{stroke:#efefef;stroke-width:78px;}.cls-14,.cls-15{stroke-miterlimit:10;}.cls-15{stroke:#e69b49;stroke-width:4px;}.cls-16{fill:#cd98be;}.cls-17{fill:#988061;}.cls-18,.cls-19,.cls-20,.cls-21{stroke:#796956;}.cls-18{stroke-miterlimit:10;}.cls-18,.cls-20{stroke-width:7px;}.cls-19{stroke-miterlimit:10;stroke-width:7px;}.cls-20,.cls-21{stroke-linecap:round;stroke-linejoin:round;}.cls-21{stroke-width:5px;}.cls-22{fill:#e7db72;}</style></defs><title>资源 12</title><g id="图层_2" data-name="图层 2"><g id="图层_1-2" data-name="图层 1"><path class="cls-1" d="M943.49,685.71a187.43,187.43,0,0,0-28.5,24.5,271.39,271.39,0,0,0-32.8,42.2c-54.8,85.8-139.3,122.5-120.3,160.3s62.3,5.9,173.9-37.5c42.6-16.6,72.5-41.7,92.1-68.5a169.3,169.3,0,0,0,18.3-31.4c15.5-34.7,16.1-68,7-86.1-13.5-27-59.5-38.1-109.7-3.5"/><path class="cls-2" d="M1046.19,775.21c15.5-34.7,16.1-68,7-86.1-13.5-26.9-59.5-38-109.7-3.4"/><polygon class="cls-2" points="825.79 821.01 859.59 905.81 894.79 890.91 849.29 797.01 825.79 821.01"/><path class="cls-2" d="M873.89,764.81s-12.7,15.9-14.8,18.3l73.8,93s26.5-11.1,28-11.8Z"/><path class="cls-2" d="M912.29,713s-16.9,19.8-22.7,28.2l102.7,101.9s28-23.4,32.3-32.3Z"/><path class="cls-1" d="M771.29,1173.31c1.1,7.3,3.5,15.1,7.8,20.9,4,5.4,11.4,11.7,17,11.4s13.1-7.4,15.3-13.2c6.3-16.7,7.9-34.8,13.7-51.7,0-.1,0-.1.1-.2-18.6,14-37.5,20.3-59.7,22.1,3,1.4,4.9,4.7,5.8,10.7"/><path class="cls-2" d="M466.19,1199.51a30,30,0,0,0,2.1,6.4c3.6,9.7,9.9,16,20.9,16.1s16.9-7.2,18.5-16.4c1.5-8.4,4.9-12.9,9.9-14.9-20.6.1-39.9-4.5-61.1-5.6,5.3,2.3,8.7,6.6,9.7,14.4"/><path class="cls-1" d="M674.59,1187.11v2.5a5.64,5.64,0,0,0,1.2-.4c2.5-.9,8.9,4.4,11.4,8.2,5.5,8.6,11.4,15.4,22.6,12.6,10.5-2.7,14.1-11.1,13.5-20.6-.7-11.2,3.7-17.2,12.6-20.2l-4.9.1c-16.8,17.2-33.8,17.5-56.4,17.8"/><path class="cls-2" d="M307.19,1177.51h0c9.2.6,14.9,3.6,18.7,12.3,3.6,8.1,8,16.5,14.2,22.7,4,4,12.3,6.7,17.7,5.4,4.3-1,8.1-8.4,10-13.7,2-5.7,1.5-12.2,2.3-20.9-20,2.1-43.5-9.7-62.9-5.8"/><path class="cls-3" d="M886.79,937.21c-7.1-33.7-16.2-66.9-23.8-100.5a3.79,3.79,0,0,0,1.5,0c-12.5-20.1-13.8-46.9-19.8-69.7-4.6-17.7-7.5-34.1-16.6-50.4-4.8-8.6-9-17.5-13-26.5-3.7-8.3-8.7-15.7-13-23.6-8.9-16.2-16.7-33.1-25.7-49.3-20.4-36.9-43.6-72.2-71.6-103.8-38.4-43.2-84.6-75.2-141.3-84.3-67.4-10.8-130.5,6.7-187.3,45.6-55.1,37.7-91.6,90.1-120.7,148.8-11.4,23-28.1,42.9-37.9,66.2-8.2,19.5-12.5,40.3-22,59.3-7.5,15-14.8,31.6-19.9,47.9a139.41,139.41,0,0,0-4.1,18.1c-4.4,24.8-9.1,47.8-8.5,73,.6,26.1,1.2,52.2-.1,78.3-1.9,36.8-9,73.4-10.8,110.2-2.1,42.8,16.1,71.5,56.8,81.2,41.9,10,84.4,18.3,127.1,24.4,3.6.5,7,1.2,10.3,1.9,33.2,0,67,3.3,100.4,5.8,7-.2,14-.2,20.9,1.2.6.1,1.2.3,1.7.4h.6c82,4.9,167.8,9.4,248.1-10.7,25.3-6.3,50.7-12.7,76-19s54.3-13.2,76.3-27.7c17.3-11.4,36.9-32.6,38.4-54.4,3.3-49-12.1-95.3-22-142.4m-30.6-118.8,3.7,12a31.77,31.77,0,0,1-3.5-10.9,4.25,4.25,0,0,0-.2-1.1"/><path class="cls-4" d="M271.79,621.31c13.9-23.2,28.4-46.2,44.2-68.1,24.8-34.4,55.7-63.3,93.6-81.6,50.1-24.2,102.4-38.8,159.6-25.1,66.4,15.8,113.7,56,151,110.6,10.2,14.9,20.1,30.1,29.7,45.4,12.3,19.6,10.9,25.7-10.6,32.3a616.85,616.85,0,0,1-163,26.8c-12.2.4-17.9-4.6-22.1-16.2-13.1-36-25.8-72.3-42.3-106.7-9.6-19.9-25.6-37-40.3-54.1-3.2-3.8-12.6-2.2-20.7-3.3,16.3,20.5,30.8,36.8,43.1,54.7,8.2,11.9,14.4,25.6,19.5,39.2,7.7,20.5,13.6,41.8,20.2,62.7,6.2,19.5-1,31.2-21.5,29.5-14.1-1.2-29.9-5.3-41.3-13.3-53.1-37.2-110.3-36.7-169.6-22.2-4.3,1.1-8,4.4-12.3,5.6-6,1.6-12.3,2.2-18.5,3.2.4-6.8-1.6-14.6,1.3-19.4"/><rect class="cls-4" x="320.39" y="933.51" width="41.5" height="4.4"/><path class="cls-4" d="M622.09,1171.71c-1.9.8-4.4-.1-6.7-.2v.5c-4.5,0-9.5,1.3-13.3-.4s-6.4-6.1-9.5-9.3c4.5-3.2,8.6-8.1,13.6-9.3s10.9.8,15.9,2.8c4.8,1.9,8.8,5.7,13.1,8.7a127.94,127.94,0,0,1-13.1,7.2"/><path class="cls-5" d="M858,1064c-.4,1.1-.7,2.2-1,3.3a45.84,45.84,0,0,0-1.4,16.9c.5,4.8,3.2,9,2.9,13.9-.5,9.3-8.7,16.8-16.7,20.4-14.8,6.7-30.9,11-46.5,15.7-23.2,7-46.4,13.8-69.8,20-25.8,6.9-51.6,13.3-77.6,19.2-6.5,1.5-12.4-2.5-18.7-2.5-7.6,0-15.1-.2-22.7-.7-14.8-1.1-29.7-2.9-44.6-2.3-23.4,1-46.3,7.6-69.8,7.7-41,.2-82.2.1-122.9-4.2-45.6-4.8-90.8-13.8-135.9-22.1-19.8-3.7-39.2-9.6-58.5-15.7-13.2-4.2-20.4-15-20.6-28.7-.3-25.2.5-50.4.9-75.7,1.9-.6,3.8-1.1,5.6-1.7,7.4,6.5,15.9,12.2,22,19.8,11.2,13.9,25.1,20,42.6,21.7,35,3.3,69.8,9.7,104.9,11.4,54.2,2.6,100.5-15.2,134.6-59.7,9-11.8,19.3-16,36.4-13,25.1,4.4,50,1.8,75.2,3.3,22.8,1.4,45.4,3.3,68.2-1.7,60.7-13.3,124-24,183.1-45.8,13.7-5.1,25,1.8,27.4,16.8,4,24.6,11.8,54,4.6,78.6-.5,1.6-1.1,3.3-1.7,5.1"/><path class="cls-5" d="M442.09,457.51c40.2-15.1,82.2-21.8,127.1-11.1,66.4,15.8,113.7,56,151,110.6,10.2,14.9,20.1,30.1,29.7,45.4,12.3,19.6,10.9,25.7-10.6,32.3a610.67,610.67,0,0,1-103.6,22.2c-17.8,2.2-35.8,3.7-53.7,4.4-16.5.7-30.8,10.9-48.2,8.6-21.1-2.8-44.7-3.4-62.9-16.1-53.1-37.2-110.3-36.7-169.6-22.2-4.3,1.1-8,4.4-12.3,5.6-6,1.6-12.3,2.2-18.5,3.2.3-6.4-1.7-14.2,1.2-19.1,13.9-23.2,28.4-46.2,44.2-68.1,24.8-34.4,55.7-63.3,93.6-81.6,10.8-5.2,21.7-10,32.6-14.1"/><path class="cls-4" d="M302.19,785.61c13-15,28.6-11,43.2-9.5,3,.3,7.5,6.4,7.4,9.7s-4.8,8.7-8.1,9.2c-14.3,2.2-29.1,4.7-42.5-9.4"/><path class="cls-2" d="M375.19,660l109.4,102.8s42.9,54.4,61.3,17.5a22.63,22.63,0,0,0,1.7-4.3l28.7-92.7c.5-1.4.7-3,1.1-4.4,14.8-54.7-9.1-79.8-38.6-79.5l-130.2,28.3c-29.7.2-54.4,12.4-33.4,32.3"/><path class="cls-2" d="M237.29,647l-77.4,85s-29.5,44.1-45.9,16.9a31.82,31.82,0,0,1-1.6-3.2l-27.8-69.4c-.4-1.1-.7-2.2-1.1-3.3-14.7-41.1,2-61.7,24.6-63.1l101.4,14.3c23-1.6,42.8,6.4,27.8,22.8"/><path class="cls-5" d="M412.19,673.61l73.7,69.3s28.9,36.6,41.3,11.8a14.76,14.76,0,0,0,1.2-2.9l19.4-62.4c.3-1,.5-2,.8-3,10-36.9-6.1-53.8-26-53.6l-87.7,19c-20.3.2-37,8.4-22.7,21.8"/><path class="cls-5" d="M212.89,651.91l-52.1,57.3s-19.9,29.7-30.9,11.4a15.05,15.05,0,0,1-1.1-2.2l-18.7-46.8c-.3-.7-.5-1.5-.8-2.2-9.9-27.7,1.3-41.6,16.6-42.5l68.4,9.6c15.3-1,28.6,4.4,18.6,15.4"/><path class="cls-1" d="M540,797c.1-.8.7,19.7.8,19,13.2-113.4-71.5-209.6-189.3-214.9s-224.5,61-237.7,174.4c-.5,4.4-.8,8.7-1.1,13-20.8,24.6-34.3,53-37.9,83.6-11.8,101,88.9,209.1,224.2,215.2s254.6-70.8,266.4-171.8c4.2-35.1-5.7-89.7-25.4-118.5"/><path class="cls-6" d="M464.49,728.11c5.1-43.4-20.6-80-57.3-81.7-33.8-1.5-65.1,27.1-73.9,65.5-1.8-.2-3.7-.4-5.6-.5a83.28,83.28,0,0,0-13.2.5c.7-39.3-23.8-70.9-57.9-72.4-36.7-1.7-70.6,32.2-75.6,75.7-4.7,40,16.7,74.2,48.8,80.6a114.08,114.08,0,0,0-3,16.5c-4.1,34.9,12.8,56.4,39.9,64.1,37.7,10.8,84.6,12.6,119.9-17.8,10.5-9,15.9-24.3,17.5-38.4a125,125,0,0,0,.8-18.2c30.1-6.9,55.3-36.9,59.6-73.9"/><path class="cls-5" d="M317.59,624c-.7,6.1-11.3,10.7-23.7,10.1s-21.8-6-21.1-12.1,11.3-10.7,23.7-10.1,21.8,6,21.1,12.1"/><path class="cls-5" d="M402,627.91c-.7,6.1-11.3,10.7-23.7,10.1s-21.8-6-21.1-12.1,11.3-10.7,23.7-10.1,21.8,5.9,21.1,12.1"/><path class="cls-7" d="M301.49,776.21c5.5,16.9,20,31.6,38.8,31.4,18.4-.2,33.6-13.9,39.2-30.8,2.8-8.5-3.3-19.1-12-21.1-9.4-2.2-18.1,2.8-21.1,12-.3.8-.6,1.7-.9,2.5.6-1.4,1.2-2.7,1.7-4.1a28.43,28.43,0,0,1-3.3,5.6c.9-1.2,1.8-2.3,2.7-3.5a28.91,28.91,0,0,1-4.9,5c1.2-.9,2.3-1.8,3.5-2.7a27.7,27.7,0,0,1-5.7,3.4c1.4-.6,2.7-1.2,4.1-1.7a27.52,27.52,0,0,1-5.6,1.6l4.6-.6a22.6,22.6,0,0,1-5.2,0l4.6.6a24.17,24.17,0,0,1-4.6-1.3c1.4.6,2.7,1.2,4.1,1.7a24.29,24.29,0,0,1-5.2-3c1.2.9,2.3,1.8,3.5,2.7A27.83,27.83,0,0,1,335,769c.9,1.2,1.8,2.3,2.7,3.5a35.24,35.24,0,0,1-3.9-6.8c.6,1.4,1.2,2.7,1.7,4.1-.3-.8-.6-1.7-.9-2.5a17.93,17.93,0,0,0-7.9-10.2c-3.7-2.2-9.1-3.1-13.2-1.7-8.5,2.4-15,11.6-12,20.8"/><path class="cls-2" d="M207,742.11c-3,4.4-5.8,8.9-8.4,13.6-17.3,30.9-48.9,21-57.9,1.4-5.8-12.6,1.2-33.1,7.6-45,13.7-25.2,36.9-39.5,60.2-47.2a204.09,204.09,0,0,1,35.7-8c8.5-1.2,20.7-3.2,28.3,1.1,4.5,2.5,6.3,7.2,5.3,13.3-2.7,16-29,27-39.2,35.6a177.78,177.78,0,0,0-31.6,35.2"/><path class="cls-2" d="M440.39,754.31c6.8,12.2,10.6,28,23.4,33.1,13.1,5.3,30.7-.3,40.5-13.8,8.7-11.9,6.5-32.8,2.9-45.2a78.07,78.07,0,0,0-34.5-44.6c-15.9-9.9-32.4-14.8-50.7-20-12.3-3.5-28.3-8.9-37.7,4.6-4.5,6.5-4.7,14.9-3,22.1,2,9.1,7,14.7,13.7,19.4,3.7,2.5,7.5,4.8,11.1,7.3a114.2,114.2,0,0,1,32.9,35.1,7.84,7.84,0,0,1,1.4,2"/><path class="cls-7" d="M232.49,801.21a283.72,283.72,0,0,0-1.7,44.2c2.1-2.8,4.2-5.5,6.3-8.3-.8.2-.8.2,0,.1a4.84,4.84,0,0,1,1.7,0c1.1.5,1.3.6.8.3s-.3-.2.6.4c-1.2-.9.6.8.1,0l.3.6c-.2-.7-.2-.8-.1-.2.2,1.2.1-.9.1-1.1,0-2.2-.4,1.4.1-.8.4-1.5.8-3.1,1.3-4.6a8.66,8.66,0,0,0-6-10.6,8.79,8.79,0,0,0-10.6,6c-2,6.2-3.2,12.7-.2,18.8s10,9.6,16.5,7.6c3.5-1.1,6.5-4.4,6.3-8.3a284.2,284.2,0,0,1,1.7-44.2c.5-4.5-4.3-8.8-8.6-8.6-5.1.3-8,3.9-8.6,8.7"/><path class="cls-7" d="M232.79,797.51a94,94,0,0,0-14.2,50.8c.1,4.5,3.9,8.8,8.6,8.6a8.8,8.8,0,0,0,8.6-8.6,67.91,67.91,0,0,1,.7-11.9c-.3,1.9.2-1.3.3-1.7a20.48,20.48,0,0,1,.5-2.4c.4-2,.9-3.9,1.4-5.9s1.2-3.9,1.8-5.8a20.94,20.94,0,0,0,.8-2.3l.6-1.5c-.3.8-.3.7.1-.2a91.62,91.62,0,0,1,5.7-10.7,8.62,8.62,0,0,0-3.1-11.7,9.12,9.12,0,0,0-11.8,3.3"/><path class="cls-8" d="M452.09,857.71c-8-1-13.7-3.9-16.6-14.2-4.5-16-11.1-31.3-21.4-44.9-19.9-26.2-51-41.5-85.1-44.2-68.5-5.5-118.6,21.7-143.7,98.6a110.71,110.71,0,0,0-17.1-6.7c-18.1-5.7-44.2-3-41.7,28.3,1.2,15.3,9.7,23.4,28.7,29.9-1.7,4.5-3.4,9.2-4.9,14-13.8,44.7,17.5,85.9,57,108.3,47.8,27.2,104,33.8,155.2,11.7,28.6-12.3,54-29.3,62.5-58.3,5.1-17.3,10-36.1,2.7-52.7,30.8,7.2,66.1-8.4,67.4-39.9.7-16.5-18.3-28.5-34.8-29.4a68.13,68.13,0,0,1-8.2-.5"/><path class="cls-2" d="M355,711.31c-1,8.3-12.8,14.6-26.3,13.9s-23.8-7.8-22.8-16.2,12.8-14.6,26.3-13.9S356,703,355,711.31"/><path class="cls-9" d="M290.29,675.71c-1.6,13.7-12.3,24.3-23.8,23.8s-19.6-12-18-25.7,12.3-24.3,23.8-23.8,19.6,12,18,25.7"/><path class="cls-9" d="M407.19,681c-1.6,13.7-12.3,24.3-23.8,23.8s-19.6-12-18-25.7,12.3-24.3,23.8-23.8,19.6,12,18,25.7"/><text class="cls-10" transform="translate(76.51 293.17) rotate(-0.71)"><tspan class="cls-11">❶</tspan><tspan class="cls-12" x="229.61" y="0">す</tspan><tspan class="cls-13" x="442.91" y="0">し</tspan><tspan x="669.92" y="0">席</tspan></text><text class="cls-14" transform="translate(76.51 293.17) rotate(-0.71)"><tspan class="cls-11">❶</tspan><tspan class="cls-12" x="229.61" y="0">す</tspan><tspan class="cls-13" x="442.91" y="0">し</tspan><tspan x="669.92" y="0">席</tspan></text><text class="cls-10" transform="translate(76.51 293.17) rotate(-0.71)"><tspan class="cls-11">❶</tspan><tspan class="cls-12" x="229.61" y="0">す</tspan><tspan class="cls-13" x="442.91" y="0">し</tspan><tspan x="669.92" y="0">席</tspan></text><text class="cls-15" transform="translate(76.51 293.17) rotate(-0.71)"><tspan class="cls-11">❶</tspan><tspan class="cls-12" x="229.61" y="0">す</tspan><tspan class="cls-13" x="442.91" y="0">し</tspan><tspan x="669.92" y="0">席</tspan></text><ellipse class="cls-16" cx="266.08" cy="954.79" rx="10.7" ry="21.2" transform="translate(-707.66 1139.86) rotate(-85.19)"/><ellipse class="cls-17" cx="201.02" cy="921.78" rx="27.2" ry="19.8" transform="translate(-734.78 1041.59) rotate(-84.99)"/><ellipse class="cls-17" cx="338.37" cy="934.47" rx="27.2" ry="19.8" transform="translate(-622.06 1190) rotate(-84.99)"/><path class="cls-17" d="M236.31,990.56c12.17,6,26.39,10.48,41,8.71,2.49-.34,4.83-1.84,4.64-4.1a4.44,4.44,0,0,0-5-3.7c-1.72.23-3.44.3-5.17.37-.77,0-1.64,0-2.41,0-.48,0-.86,0-1.34,0s-1,0-.29,0a61.3,61.3,0,0,1-10-1.62c-.78-.21-1.55-.41-2.24-.61-.09,0-1.36-.42-.48-.14a6.45,6.45,0,0,0-1.17-.34c-1.56-.49-3-1-4.49-1.62-2.93-1.13-5.77-2.49-8.62-3.86-2.16-1.09-5.39-.17-6.47,1.67-1.16,2-.31,4.07,1.95,5.23Z"/><path class="cls-17" d="M234.14,977.53c.05,1.24.11,2.57.06,3.82,0,.31-.07.63-.06.94,0,.08-.15,1-.07.47s-.08.48-.08.55c-.08.24-.07.55-.16.79a25.52,25.52,0,0,1-1,3.71,12.41,12.41,0,0,1-.6,1.67c-.09.31-.27.56-.35.87-.09.16-.08.32-.18.4.18-.4.27-.48.09-.24a31.78,31.78,0,0,1-3.89,5.94c-.37.41.55-.57,0,0-.18.24-.47.41-.65.65-.46.41-.83.82-1.29,1.23s-.93.74-1.4,1.15c-.65.5.56-.34.09-.08a5.28,5.28,0,0,0-.84.58c-2.06,1.26-3,3.64-1.51,5.37a5.41,5.41,0,0,0,6.59,1.14c11-6.62,15.57-18.76,14.75-29.35a4.5,4.5,0,0,0-5-3.71c-2.49.18-4.72,1.92-4.54,4.1Z"/><path class="cls-18" d="M242.94,932.44c.83-14.05,14.69-20.22,33.37-18.48,7.64.68,19.69,9,18.86,23"/><ellipse class="cls-19" cx="200.94" cy="921.69" rx="40.5" ry="43.3" transform="translate(-742.34 932.35) rotate(-78.35)"/><ellipse class="cls-19" cx="338.39" cy="934.41" rx="40.5" ry="43.3" transform="translate(-645.11 1077.12) rotate(-78.35)"/><line class="cls-20" x1="428.31" y1="866.52" x2="383.33" y2="936.59"/><line class="cls-21" x1="182.7" y1="859.34" x2="158.48" y2="913.08"/><path class="cls-22" d="M422.86,788.41c-12.7-21.5-53.8-55.5-81.1-59.2-8.3-1.1-17.1-1.3-25.2,1.5-4.7,1.6-5.4-.6-10,3.7a37.54,37.54,0,0,0-12.8-10.8c-7.4-3.5-16.1-4.1-24.6-3.8-27.9,1.2-76.5,31.1-94,51.2-18,20.6-30.9,45.6-30.4,71.2.1,2.7.3,5.5,1.7,7.8,1.8,2.9,5.1,4.5,8.4,5.9,30.3,12.8,81.4,27.6,115,20,5.1-1.1,7.7-7.5,5-11.9-4-6.4-8.3-12.6-7.7-20,.4-5.2,3-11.9,7.4-14.5,7.6-4.6,15.1-4.3,20.6,2.3a6.71,6.71,0,0,0,4.2,2.4c1.6-.1-2.7-.1-1.3-1.3,7-6,14.5-5.6,20.9-.3,3.7,3,4.8,9.9,4,15-1.2,7.4-6.8,13.2-12.3,19.1-3.7,4.1-2.6,10.6,2.2,12.2,31.4,10.6,77.4,5.4,110.3-4.5,3.6-1.1,7.3-2.4,9.7-5.1,1.9-2.1,2.8-4.9,3.5-7.6,6.5-25.3-.5-51.2-13.5-73.3"/></g></g></svg>