<svg xmlns="http://www.w3.org/2000/svg" viewBox="0 0 1288.3 1288.3"><defs><style>.cls-1,.cls-7{font-size:173.44px;font-family:HiraMaruProN-W4-83pv-RKSJ-H, Hiragino Maru Gothic ProN;letter-spacing:-0.04em;}.cls-1,.cls-17,.cls-7{fill:#5780ba;}.cls-1{stroke:#efeeed;stroke-width:46px;}.cls-1,.cls-20,.cls-24,.cls-7{stroke-linecap:round;stroke-linejoin:round;}.cls-2{letter-spacing:-0.11em;}.cls-3{letter-spacing:-0.04em;}.cls-4{letter-spacing:-0.08em;}.cls-5{letter-spacing:-0.03em;}.cls-6{letter-spacing:0em;}.cls-7{stroke:#5780ba;stroke-width:5px;}.cls-8{fill:#b59c86;}.cls-9{fill:#3d3d3d;}.cls-10{fill:#4a86ce;}.cls-11{fill:#6697c9;}.cls-12{fill:#88c6bf;}.cls-13{fill:#eee;}.cls-14{fill:#fff;}.cls-15{fill:#f6d6e4;}.cls-16{fill:#87bab2;}.cls-18{fill:#539faf;}.cls-19{fill:#cd98be;}.cls-20,.cls-24{fill:none;stroke:#f1f1f1;}.cls-20{stroke-width:3px;}.cls-21{fill:#dfdfdf;}.cls-22{fill:#e48880;}.cls-23{fill:#a28a72;}.cls-24{stroke-width:8px;}</style></defs><title>资源 31</title><g id="图层_2" data-name="图层 2"><g id="图层_1-2" data-name="图层 1"><text class="cls-1" transform="translate(42.95 195.16)">❺<tspan class="cls-2" x="166.16" y="0">タ</tspan><tspan class="cls-3" x="320.52" y="0">ピ</tspan><tspan class="cls-4" x="487.02" y="0">オ</tspan><tspan class="cls-5" x="646.42" y="0">カ</tspan><tspan class="cls-6" x="814.13" y="0">席</tspan></text><text class="cls-7" transform="translate(42.95 195.16)">❺<tspan class="cls-2" x="166.16" y="0">タ</tspan><tspan class="cls-3" x="320.52" y="0">ピ</tspan><tspan class="cls-4" x="487.02" y="0">オ</tspan><tspan class="cls-5" x="646.42" y="0">カ</tspan><tspan class="cls-6" x="814.13" y="0">席</tspan></text></g><g id="图层_3" data-name="图层 3"><path d="M747.83,609.74a.14.14,0,0,0,.06-.07l-.06,0Z"/><path class="cls-8" d="M1046.43,747.3C1019.7,703.19,967.52,667.46,920.7,649c-54.65-21.54-115.59-23.54-173-35.39l.1-3.88c-.12,0-.24-.44-.34-1.86-62.26,84.17-110.66,179-137.09,278.35-13,48.69-20.51,98.89-19.55,149.12.83,43.88,26.16,95.63,9,136.93-5.91,14.23-16,26.55-24.27,39.71a178.18,178.18,0,0,0-21.83,50.59c0-.17,72.71-15,79.87-16.25,35.07-6,70.69-9,105.81-15.74l136.14-26c34.39-6.57,84.9-7.39,114-26.18,45.24-29.24,68.71-110.2,68.71-158.89,17.47-76.9,21.56-158.84,3.38-236A125.63,125.63,0,0,0,1046.43,747.3Z"/><path d="M747.83,609.74v0l.06,0c.24-.44.43-2.91.24-2.66l-.64.87C747.59,609.3,747.71,609.77,747.83,609.74Z"/><circle class="cls-9" cx="936.35" cy="1117.6" r="62.72"/><circle class="cls-9" cx="844.59" cy="948.85" r="62.72"/><circle class="cls-9" cx="999.08" cy="898.33" r="62.72"/><circle class="cls-9" cx="936.35" cy="739.44" r="62.72"/><path class="cls-10" d="M746.92,846.7c.14-1.22,1.09,30,1.22,28.74C767.49,703.13,643.39,556.83,470.8,548.65c-172.59-8-328.83,92.77-348.18,265.09-.68,6.67-1.22,13.21-1.49,19.75C90.61,870.81,70.86,914,65.55,960.58,48.25,1114.1,195.77,1278.52,394,1287.78s373-107.61,390.27-261.13c6-53.13-8.58-136.08-37.32-180"/><path class="cls-11" d="M483.61,617.31,643.94,773.69s62.93,82.68,89.9,26.56a41.4,41.4,0,0,0,2.45-6.54l42.1-140.85c.68-2.18,1.09-4.49,1.63-6.67,21.66-83.1-13.35-121.24-56.53-120.83L532.78,568.27c-43.86.27-80.1,18.93-49.17,49"/><path class="cls-12" d="M537.69,638l108,105.3s42.36,55.72,60.62,17.85a22.13,22.13,0,0,0,1.63-4.5l28.33-94.94c.41-1.5.68-3,1.09-4.5,14.58-56-9-81.73-38-81.46L570.92,604.64c-29.69.55-54.08,13.08-33.23,33.37"/><path class="cls-12" d="M725,825.72c.13-1.22,1.09,30,1.22,28.75,19.35-172.32-104.75-318.62-277.34-326.79S120,620.44,100.69,792.76c-.68,6.67-1.22,13.21-1.5,19.75C68.68,849.84,48.93,893,43.62,939.6,26.32,1093.12,173.84,1257.54,372,1266.8s373-107.61,390.27-261.13c6-53.13-8.58-136.08-37.32-179.95"/><path class="cls-13" d="M614.38,721c7.35-66.06-30.11-121.64-83.91-124.09C481,594.56,435,638,422.31,696.45c-2.73-.27-5.45-.54-8.18-.68a114.32,114.32,0,0,0-19.34.82c1-59.67-34.87-107.75-84.73-110.07-53.8-2.45-103.39,49-110.74,115.11-6.81,60.89,24.52,112.79,71.51,122.6a188.86,188.86,0,0,0-4.49,25.06c-6,53,18.66,85.82,58.43,97.53,55.17,16.35,123.83,19.07,175.59-27,15.39-13.62,23.29-36.91,25.61-58.3a190.3,190.3,0,0,0,1.09-27.65c44.14-11.17,81.05-56.81,87.32-112.93"/><path class="cls-14" d="M399,562.68c-1.09,9.27-16.61,16.21-34.6,15.4s-31.87-9.13-30.92-18.39,16.62-16.21,34.6-15.39c18.26.81,32,9.12,30.92,18.38"/><path class="cls-14" d="M522.7,568.54c-1.09,9.27-16.62,16.21-34.6,15.4s-31.87-9.13-30.92-18.39,16.62-16.21,34.6-15.4,32,9,30.92,18.39"/><path class="cls-11" d="M573.92,759.32c10,18.66,15.53,42.64,34.19,50.4,19.21,8,45-.41,59.39-21.11,12.67-18.12,9.54-49.86,4.23-68.79-8.58-30.52-27.65-53.13-50.54-67.84C597.9,637,573.79,629.5,547,621.6c-18-5.45-41.41-13.48-55.17,6.95-6.67,9.81-6.81,22.61-4.49,33.51,3,13.89,10.21,22.34,20.16,29.56,5.31,3.81,10.89,7.22,16.34,11,19.07,13.49,35.42,31.74,48.22,53.4a17.69,17.69,0,0,1,1.91,3.27"/><path class="cls-15" d="M596.12,918c-11.71-1.64-20.16-5.86-24.38-21.53-6.67-24.38-16.21-47.67-31.33-68.24-29.15-39.92-74.78-63.07-124.64-67.3-100.26-8.31-173.68,33.11-210.6,150a155.12,155.12,0,0,0-25.06-10.21c-26.43-8.59-64.7-4.64-61,43,1.77,23.16,14.31,35.55,42.1,45.36-2.59,7-4.91,13.9-7.22,21.39-20.16,68,25.74,130.5,83.5,164.69,70,41.41,152.43,51.49,227.35,17.84,41.82-18.8,79.14-44.54,91.54-88.54,7.35-26.29,14.71-54.9,3.95-80.1,45.09,10.9,96.85-12.67,98.76-60.61C660,938.65,632.22,920.4,608,919c-4.22-.41-8.17-.55-11.85-1.09"/><path class="cls-16" d="M374,1057.57c-1.5,13.35-20.57,23.29-42.5,22.34s-38.55-12.67-37.05-26,20.57-23.29,42.5-22.34,38.55,12.53,37.05,26"/><path class="cls-17" d="M459.36,1020.65c-3.54,31.74-19.62,56.94-36,56.13s-26.57-27.11-23-58.85,19.61-56.94,36-56.12,26.7,27.11,23,58.84"/><path class="cls-17" d="M289.36,1007.71c-3.54,31.74-19.62,56.94-36,56.13s-26.57-27.11-23-58.85,19.61-56.94,36-56.12,26.56,27.1,23,58.84"/><path class="cls-18" d="M445.74,694.68c-1.36,12.67-18.66,22.07-38.55,21.25s-34.87-12-33.51-24.52,18.66-22.06,38.55-21.11,35,11.71,33.51,24.38"/><path class="cls-17" d="M525.29,655.83c-2.31,24.35-18,43.29-34.87,42.34S461.68,676.84,464,652.49s18-43.29,34.88-42.33,28.74,21.32,26.42,45.67"/><path class="cls-11" d="M249.84,739.71a18.78,18.78,0,0,1,2.28-3c15.27-20,33.65-36.2,54.18-47.35,5.86-3.14,11.8-5.87,17.53-9,10.72-6,18.89-13.53,23.5-27,3.58-10.55,5-23.28-.52-33.8-11.25-21.92-35.46-16.7-54-13.4-27.58,4.68-52.41,9.28-77.3,21.42-24.46,11.91-46.06,32.12-58.18,61.41-7.51,18.18-14.36,49.32-3.91,68.81,11.9,22.26,36.47,33.68,56.49,28,19.45-5.51,27.82-28.66,39.89-46"/><path class="cls-17" d="M310.32,642.67c.57-24.45,14.61-43.3,31.63-42.25s30.21,21.7,29.64,46.15S356.85,689.86,340,688.82s-30.21-21.7-29.65-46.15"/><path class="cls-19" d="M405.42,1115.87c1.9,19.35-3,35.69-27.93,32.42a13.83,13.83,0,0,0-2.31-.13c-24.93.27-46.05-6.27-35.15-20.3a16.87,16.87,0,0,1,4-3.68c8.17-5.17,24.52-12.26,37-20.16C391.25,1097.75,404.33,1104.16,405.42,1115.87Z"/><path class="cls-11" d="M571.61,823.43c-44.51-51.08-123.93-99.94-189.5-64.4-40.19-39.15-102.6-12.16-150.86,16.24-35.71,21.31-62.6,55.49-67.15,94.66-19.61,63.61,189.55,62.75,215.61,66.79,72.67,6.71,142.78,10.94,212.1-11.52C615.31,899,586.59,842.17,571.61,823.43Z"/><path class="cls-20" d="M422.75,372.36c2.39,10.46-4.38,20.67-11.28,28.9A266.34,266.34,0,0,1,391,423.11l4.14-3.44"/><path class="cls-14" d="M703.33,622.94c5.64-2.15,10.2-3.54,14.42-5.57,7.51-3.61,11.79-1.51,16.22,5.24,23.56,35.86,34.62,75.88,42.78,116.58,20.23,100.94,24.61,202.1,2.72,303.53-10.87,50.37-32.76,96.13-63.13,138.21-18.76,37.51-69.86,58.23-104.86,74.91-4.64,2.21-9.61,4.47-14.71,3.81-7.17-.93-12.75-8.51-11.5-15.64,42.65-25.33,81.92-45.32,111-86.6,23.91-34,38-73.63,47.4-113.82C763.78,957.14,759.81,870,748.82,783c-6.7-53-19.14-104.8-43.45-153.47C704.58,627.94,704.3,626.13,703.33,622.94Z"/><path class="cls-21" d="M101.7,766C41.71,766.69-5.56,754.66.53,711.9c3.78-26.53,8.26-53,11.41-79.59,1.65-13.86,7.54-24.71,19.56-30.6,49-24,96.89-28.65,148.08-46.38,50.13-17.35,104-20.24,155.61-32.55,7.13-1.71,15.14-4.34,18.06-11.07,2.24-5.18.67-11.14-.92-16.57-6.18-21-7-54.47-17.24-73.29-7-12.82-32.16-35.7-45.25-40.64-16-7.11-32.12-14.09-48.33-20.76-11-4.54-15.48-12.73-14.88-24.15,1.75-33.32,15.81-60.84,39.69-83.64,6.86-6.55,13.93-6.48,22.53-2.17,20.46,10.23,41.18,20.06,62.34,28.74a40.45,40.45,0,0,0,23.28,1.86c10.45-2.49,16.11-.88,17.36,10.22.94,8.32,5.58,11.71,13.79,11.39,7.91-.31,11.95,4,11.08,11.79-2.92,26.34,5.48,50.92,12.67,75.81,7.48,25.94,8.09,51.07,14.59,76.42,3.29,12.84,11.76,25.12,24.31,29.38,12.82,4.34,26.74-.33,39.62-4.52a579.61,579.61,0,0,1,159.56-28.14c18.79-.64,36.14-2.05,53,6.52,16.6,8.42,24.79,31.8,42.92,35.38,24.81,4.89,42.19,16.22,49.77,42.73,6.78,23.76,18.4,46.11,27.6,69.2,7,17.47,5,25.37-10.64,36.16-26,18-45,38.57-77.35,41.09q-219.94,17.13-439,43.27C285.52,741.15,182.17,765,101.7,766Z"/><path class="cls-22" d="M351,515.21c10.16,1.68,20.26,3.72,30.36,5.66q4.71.92,9.44,1.78c4.13-.09,8.25-.38,12.36-.83A174.77,174.77,0,0,0,449,510.17a142.42,142.42,0,0,0,20.69-10.39c1.26-.78,2.51-1.59,3.74-2.41a32.53,32.53,0,0,1-5.15-1.27c-12.55-4.26-21-16.54-24.31-29.38-6.5-25.35-7.11-50.48-14.59-76.42-7.19-24.89-15.59-49.47-12.67-75.81.87-7.82-3.17-12.1-11.08-11.79-8.21.32-12.85-3.07-13.79-11.39-1.25-11.1-6.91-12.71-17.36-10.22a40.45,40.45,0,0,1-23.28-1.86c-21.16-8.68-41.88-18.51-62.34-28.74-8.6-4.31-15.67-4.38-22.53,2.17-23.88,22.8-37.94,50.32-39.69,83.64-.6,11.42,3.87,19.61,14.88,24.15,16.21,6.67,32.31,13.65,48.33,20.76,13.09,4.94,38.23,27.82,45.25,40.64,10.28,18.82,11.06,52.32,17.24,73.29,1.59,5.43,3.16,11.39.92,16.57A12.9,12.9,0,0,1,351,515.21Z"/><path class="cls-23" d="M668.87,661c4.72-.8,8-1.13,11.23-2,7-1.81,13.92-3.88,22.39-6.27-2.16-9-5-17.21-5.79-25.61-.39-4.33,2.95-9,4.6-13.52,3.62,3.08,8.9,5.44,10.6,9.35,17.39,40.1,16.88,40.9-25.32,51.88-30.09,7.83-30.1,7.83-38.78-21.26-1.39-4.66-3.82-9.45-3.53-14,.33-5.31,3.14-10.47,4.87-15.7,3.77,3.5,9,6.32,11,10.63C664,642.71,665.93,651.73,668.87,661Z"/><path class="cls-23" d="M566.22,683l36-6.82c-2.14-10.44-4.88-19.32-5.38-28.32-.23-4,4.08-8.21,6.32-12.32,3.14,3,7.88,5.45,9.18,9.11,14.94,42,13.22,44.62-29.89,52.77-31.93,6-28.75,7-35.26-24.22-1.1-5.24-3-10.7-2.41-15.79.54-4.36,4.19-8.34,6.47-12.49,3,3.1,7.41,5.72,8.61,9.4C562.65,663,563.92,672.15,566.22,683Z"/><path class="cls-23" d="M396.59,705.73c-1.1-8.4-3.21-16.09-2.71-23.61.34-5.2,4.27-10.16,6.6-15.23,3.33,3.89,8.66,7.32,9.68,11.74,9.63,41.59,8,44.13-33.94,47.93-33.53,3-30.33,8.73-33.91-27.84-.61-6.26-1.52-12.68-.69-18.8.38-2.78,4.7-5,7.23-7.5a80.2,80.2,0,0,1,6.47,6.84c.77,1,.48,2.81.72,4.25C361.28,714.76,362,715.18,396.59,705.73Z"/><path class="cls-23" d="M292.53,716.11c-.4-9.32-1.69-17.58-.72-25.58.52-4.38,4.84-8.3,7.45-12.43,3,3.68,6.07,7.34,9.06,11,.25.31.1,1,.12,1.44,1.92,45.58,10.11,42-37.47,44.41-30.15,1.5-30.36,1.74-31.91-28.47-.42-8.12-4.25-18.86,8-21.28,1.42-.28,7.42,12.69,7.84,19.72.66,10.85,4.09,15.08,15,13.19C277,716.92,284.26,716.81,292.53,716.11Z"/><path class="cls-23" d="M499.64,692.26c-.95-8.39-2.59-16.06-2.32-23.67.11-3.26,4.19-6.39,6.46-9.58,2.75,2.19,7.35,4,7.92,6.65a206.65,206.65,0,0,1,4.86,34.4c.13,3.18-5,8.84-8.46,9.53a368.2,368.2,0,0,1-47.52,6.5c-3.93.25-10.73-4.9-11.91-8.85a164.75,164.75,0,0,1-5.94-34.31c-.27-3.43,4.22-7.24,6.53-10.88,2.81,2.73,5.64,5.44,8.41,8.21.29.29.23.92.35,1.39C465.94,702.17,466.84,702.64,499.64,692.26Z"/><path class="cls-23" d="M188,721.54c.43-10.89-.08-19.23,1.37-27.21.91-5,4.77-9.44,7.31-14.13,2.88,4.26,5.82,8.48,8.59,12.81.46.72.23,1.91.24,2.88.51,48.05,6.54,41.85-39.26,42.43-29,.38-36.24-9.92-28-38.21.9-3.1,4.72-5.34,7.19-8,2.35,2.55,5.87,4.72,6.82,7.71,2.1,6.61,1.4,18.59,4.53,19.55C166.42,722.33,177.35,721.13,188,721.54Z"/><path class="cls-23" d="M49.13,711.78l37.53,5.75C88,710.75,88.3,705,90.29,699.82c1.34-3.48,5-6.06,7.6-9,2.18,3.2,6,6.28,6.23,9.63.56,7.66-.25,15.5-1.18,23.19-1,8.72-6.27,12.79-15.19,11.4-14.85-2.31-29.7-4.61-44.52-7.06-8.71-1.44-12.47-6.39-10.82-15.42,2.17-11.93,3.51-24,6.26-35.81.77-3.32,5.22-5.78,8-8.64,1.84,3.46,5.27,6.94,5.22,10.37C51.73,689,50.25,699.52,49.13,711.78Z"/><path class="cls-23" d="M767.45,632.11l21.34-9.25c-3.35-9.24-7.21-17.16-8.85-25.52-.8-4.08,2.53-9,4-13.48,3.63,2.47,7.26,4.91,10.86,7.43.34.23.39.87.61,1.3,18.71,37.18,13.93,47.68-27.29,57.27-4.3,1-11.92-1.74-14.32-5.26-5.11-7.49-8.61-16.41-11.09-25.21-1-3.54,2.42-8.31,3.83-12.52,3.78,2.06,8.72,3.26,11.08,6.4C761.57,618.53,763.89,625,767.45,632.11Z"/><path class="cls-24" d="M388.59,305.66c-5.15,33.24-28.38,63.11-59.32,76.29"/><path class="cls-24" d="M420.1,354.94a43.52,43.52,0,0,1-26,34.83"/><path class="cls-24" d="M425.68,401.58c2.95,8.38.49,17.94-4.52,25.28s-12.26,12.82-19.63,17.78"/></g></g></svg>