<svg xmlns="http://www.w3.org/2000/svg" viewBox="0 0 1347.17 1347.17"><defs><style>.cls-1,.cls-3,.cls-4,.cls-5{isolation:isolate;font-size:236.47px;font-family:HiraMaruProN-W4-83pv-RKSJ-H, Hiragino Maru Gothic ProN;}.cls-1{fill:#ebebec;}.cls-2{letter-spacing:-0.5em;}.cls-19,.cls-25,.cls-3,.cls-5{fill:none;}.cls-3{stroke:#e4e4e5;stroke-width:37px;}.cls-25,.cls-3{stroke-linecap:round;stroke-linejoin:round;}.cls-4{fill:#dca059;}.cls-5{stroke:#e69b49;stroke-miterlimit:10;stroke-width:2px;}.cls-6{fill:#b3b3b3;}.cls-7{fill:#e5a65e;}.cls-8{fill:#ebd0e1;}.cls-9{fill:#b95c89;}.cls-10{fill:#9f8877;}.cls-11{fill:#dc9b60;}.cls-12{fill:#8a2362;}.cls-13{fill:#a73073;}.cls-14{fill:#df9b52;}.cls-15{fill:#c293b3;}.cls-16{fill:#efeeed;}.cls-17{fill:#cf8ead;}.cls-18{fill:#a66593;}.cls-19{stroke:#d9cf71;stroke-miterlimit:10;stroke-width:3px;}.cls-20{fill:#d9cf71;}.cls-21{fill:#618bb5;}.cls-22{fill:#dda73c;}.cls-23{fill:#b084a2;}.cls-24{fill:#b2d9e2;}.cls-25{stroke:#6e438f;stroke-width:11px;}.cls-26{fill:#6e438f;}.cls-27{fill:#ae699a;}</style></defs><title>资源 22</title><g id="图层_2" data-name="图层 2"><g id="图层_1-2" data-name="图层 1"><text class="cls-1" transform="translate(25.64 239.4) rotate(-0.11)">予約済<tspan class="cls-2" x="709.4" y="0">．．．</tspan></text><text class="cls-3" transform="translate(25.64 239.4) rotate(-0.11)">予約済<tspan class="cls-2" x="709.4" y="0">．．．</tspan></text><text class="cls-4" transform="translate(25.64 239.4) rotate(-0.11)">予約済<tspan class="cls-2" x="709.4" y="0">．．．</tspan></text><text class="cls-5" transform="translate(25.64 239.4) rotate(-0.11)">予約済<tspan class="cls-2" x="709.4" y="0">．．．</tspan></text><ellipse class="cls-6" cx="696.63" cy="1240.05" rx="320.11" ry="89.13"/><path class="cls-7" d="M460.79,987.13c28.74-11.88,57.8-23.33,87.94-31.33a406.54,406.54,0,0,1,130.62-13c13.07.75,26.14,2.27,38.57,6.16,25.39,7.88,46.56,25.39,66.87,42.56,21.18,18.05,42.57,36.63,57.15,60.29,27.23,44.18,26.26,104.25-2.37,147.58-11,16.74-25.61,30.79-40.63,44.07-12.74,11.35-26,22.26-39.54,32.74-14.69,11.34-30.14,22.25-47.43,29-17.5,6.81-36.51,9.19-55.31,10.37-42.13,2.81-84.81,0-126-9.5-20.1-4.65-34.57-14.37-52.61-23.88A469.57,469.57,0,0,0,424,1257.66a41.68,41.68,0,0,0-8-2.38c-9.72-1.4-12.31.54-20.09-7.45-8.54-8.65-17.29-17.51-22.26-28.63-6.05-13.51-5.94-28.74-5.72-43.54.21-11.56,4.21-16.75,8.86-26.36,4.1-8.65,3.45-19.77,5.29-29.07,5.4-26.36,10.7-52.72,17-78.75C406.12,1012.09,434.75,997.94,460.79,987.13Z"/><path class="cls-8" d="M552.51,1084.47c-13.39-12.2-41.48,3.57-64.17,35.33-14.8-34.35-38.14-54.34-53.8-45.27-16.75,9.73-18.48,49-3.89,87.51s39.86,61.91,56.61,52.19c.43-.22.75-.54,1.19-.76,14.58-4.65,32.62-20.1,47.64-42.78,23.12-34.79,30.58-73.47,16.42-86.22"/><path class="cls-9" d="M467,488.54c-38.36-51.1-92.37-93.45-158.6-100.79-56.5-6.27-112.25,13.82-157.19,46.56C56.73,503.24-1.07,632.12,37.18,745.13c12.53,37.06,31.33,71.31,52.18,104.47,5.62,8.86,11.23,17.83,18.8,25.07,21.17,20.31,55.53,14.58,82,24.52,20.63,7.78,39.75,18.8,57.9,31,36.09,24.31,73,47.64,109,72.06,21.94,14.91,42.68,31.65,65.47,45.38,22.58,13.5,45.81,24.63,68,39,15.45,10,32.73,20.52,51.1,18.47,10.59-1.19,20.1-6.48,29.17-11.88,73.25-43.87,132.89-107.72,194.9-165.08,20.2-18.69,40.73-37.71,56-60.5,28.31-42.57,70.66-69.9,104.58-108.15,33.39-37.7,61.15-81.13,72.71-130.18,11.45-48.73,7.56-100.15-14.26-145.64C941.55,394,840.86,341.51,742.33,336.11c-52.72-2.92-106.09,7.67-153,31.76a283.92,283.92,0,0,0-67.84,48.94C514.59,423.83,460.68,480.22,467,488.54Z"/><path class="cls-7" d="M908.6,911.29c-25.06,47-52.83,132.24-102.63,140.56-33-17.72-137.75-24.74-102.1-66.77,27.88-36.52,59.1-70.66,91.08-103.5,30.46-31.44,60.82-63.42,95.18-90.64,10.58-8.43,37.7-27.87,53.91-24.09,32.41,7.56-9.94,89.56-16.1,103.39S915.3,897.68,908.6,911.29Z"/><path class="cls-10" d="M383.76,1267.16a197.76,197.76,0,0,1-29.82,1.3c-15.23-.43-30.68-1.84-44.62-7.89-23-10.15-40.08-35.43-20.63-56.71,8.42-9.19,19.55-16,28.95-23.88,10.26-8.64,23-14.69,36.52-15.34,41.92-2.16,67.95,50.13,62.55,86.32-.54,3.35-1.3,6.91-3.78,9.29-2.05,1.94-5,2.7-7.67,3.35C398.24,1265.11,391,1266.3,383.76,1267.16Z"/><path class="cls-11" d="M390.67,1007.55c-13.5-15-29.71-27.66-45.59-40.19-17.28-13.72-34.25-35.33-53.37-45.48a907.1,907.1,0,0,0-112.25-50.24c-4.21-1.51-8.64-2.92-13.18-2.92-5.51,0-10.8,1.95-15.66,4.33-4.33,2.16-8.54,4.64-11.78,8.21-6.81,7.45-6.48,15.12.43,22.14,30.9,31,64.39,59.32,99.07,85.89,24.31,18.69,48.51,37.71,75.52,52.4,23,12.53,44.19,18.91,70.11,20.64,5.19.32,10.92.54,14.91-2.7,12.21-9.94,11.35-25.72,3.25-37.49A121,121,0,0,0,390.67,1007.55Z"/><path class="cls-12" d="M293.12,616.35c22.36-63.09,74.65-115.82,113.76-174.59q26.25,43.28,52.4,86.65a1123,1123,0,0,1,181.28-98.1q-2.74,32.9-5.51,65.8c47-43.44,112.58-61.15,172.43-46.68a344.3,344.3,0,0,1-102.31,77.9,441.38,441.38,0,0,1,118.51,49.26c-21.49,14.37-42.89,28.63-64.39,43a850.51,850.51,0,0,0,105.45,14.69q-46.68,31.94-93.24,63.85c31.33-5.29,62.56-10.48,93.89-15.77-11.89,27-37.49,46-64.72,48q17.51,50.56,35.11,101.23c-27.54-4.43-55.09-8.75-82.64-13.18a319,319,0,0,0,39,67.2,168.15,168.15,0,0,1-89.78,27.22c3.46,24.74,6.81,49.38,10.26,74.12C698,972.22,683.56,957.53,669,942.84a171.28,171.28,0,0,1-20.75,59.64c-9.18-16.43-18.36-33-27.55-49.38-18.25,28.2-43,51.21-71.3,66.34-3-21.39-6.16-42.79-9.18-64.29A748.47,748.47,0,0,0,502.38,1030c-31.11-39.86-71-71.08-115.27-90.42C374,1008,275,897.57,237,903.08a641.77,641.77,0,0,1,99.4-33c-140.56-58.88-167.89-65.58-4.43-74.22-28.52-49.81-66.34-93.24-110.2-126.73C299.38,663.24,288.69,727,293.12,616.35Z"/><path class="cls-13" d="M289.23,601C311.59,537.92,363.88,485.19,403,426.42q26.25,43.27,52.4,86.65A1122.69,1122.69,0,0,1,636.67,415q-2.74,32.89-5.51,65.79c47-43.43,112.58-61.14,172.43-46.67A344.3,344.3,0,0,1,701.28,512,441.57,441.57,0,0,1,819.8,561.25c-21.5,14.37-42.9,28.63-64.39,43a850.09,850.09,0,0,0,105.44,14.69q-46.68,31.93-93.24,63.85c31.33-5.29,62.56-10.48,93.89-15.77-11.89,27-37.49,46-64.72,48q17.51,50.57,35.12,101.23c-27.55-4.43-55.1-8.75-82.65-13.18a319,319,0,0,0,39,67.2,168.15,168.15,0,0,1-89.78,27.22c3.46,24.74,6.81,49.38,10.26,74.12-14.58-14.7-29.06-29.39-43.64-44.08a171.16,171.16,0,0,1-20.75,59.63c-9.18-16.42-18.36-33-27.55-49.37-18.25,28.2-43,51.21-71.3,66.34-3-21.4-6.16-42.79-9.18-64.29a748.47,748.47,0,0,0-37.82,74.87c-31.11-39.86-71-71.09-115.27-90.42-13.07,68.38-112.14-42-150.06-36.52a641.3,641.3,0,0,1,99.39-33c-140.56-58.88-167.89-65.58-4.43-74.22-28.52-49.81-66.33-93.24-110.2-126.73C295.6,647.79,284.8,711.53,289.23,601Z"/><path class="cls-10" d="M793.65,1023.54c1.62,1,3.24,2,4.86,3l2.27,1.62c.22.21,1.73,1.29.54.43s.43.32.65.54a114.19,114.19,0,0,1,8.43,7.78c1.29,1.4,2.59,2.81,3.78,4.32.32.43.65.76,1,1.19.22.21,1.19,1.51.32.32s.22.33.44.54c.32.43.64.87,1,1.41a112.43,112.43,0,0,1,6.26,9.72c2.17,3.89,4.11,7.89,5.84,11.88-.33-.64-.54-1.29-.87-1.94,5.73,13.72,9,28.3,11,43-.1-.76-.21-1.41-.32-2.16,2.38,17.71,3.78,36,1.51,53.69.11-.76.22-1.4.33-2.16a93.64,93.64,0,0,1-6,23.12c.32-.65.54-1.3.86-1.94a79.33,79.33,0,0,1-7.89,14.26c-.21.21-.32.43-.54.65s-1.08,1.4-.1.21,0,0-.11.22-.33.43-.54.65a37,37,0,0,1-2.7,3c-1,1-2,2-2.92,2.81-.54.43-1.08,1-1.62,1.4s-2.49,1.95-.32.33c-1.73,1.29-3.14,2.59-3.68,4.86a8.11,8.11,0,0,0,5.73,9.94c1.94.43,4.54.43,6.26-.87a69.63,69.63,0,0,0,16-16.85,85.27,85.27,0,0,0,9.4-19.23c5.19-14.91,6.16-31.11,5.51-46.78a269.24,269.24,0,0,0-6-48.29c-3.35-14.48-8.53-28.74-16.31-41.49-8.32-13.5-19.45-25.39-33.28-33.49-3.67-2.16-9.07-1-11.12,2.92-2.49,4.21-1.41,9.07,2.48,11.34Z"/><path class="cls-10" d="M331.69,1055a136.19,136.19,0,0,0,49.58,15.45,121.27,121.27,0,0,0,14.05.86c4.21,0,8.32-3.78,8.1-8.1a8.22,8.22,0,0,0-8.1-8.1,118.09,118.09,0,0,1-16.42-1.19c.75.11,1.4.22,2.16.32a129.12,129.12,0,0,1-32.2-8.86c.65.33,1.3.54,1.95.87-3.68-1.62-7.35-3.35-10.91-5.3s-9-1.08-11.13,2.92c-2,3.78-1.08,9,2.92,11.13Z"/><path class="cls-10" d="M568.18,1239.51c-13.61,2.37-27,6.48-38.14,13.5s-19.88,17.07-22.69,28.63a51.22,51.22,0,0,0-1,14c.22,4.43.76,8.86,2.7,12.85,3.78,8.21,12.43,14.16,21.28,18.91,32.52,17.39,73.15,23.77,110.85,17.18,13-2.27,25.5-6,38-9.62,5.4-1.62,11-3.24,15.66-6.16,7.35-4.53,11.56-11.88,13.73-19.34,5.51-19.23-3.35-40.62-21-53.58-17.83-13.07-43.76-15.45-66.45-17.5C603.29,1236.81,585.9,1236.37,568.18,1239.51Z"/><path class="cls-14" d="M650.29,1131.58a131.66,131.66,0,0,0-38,2.16c-11.89,2.38-24.53,6.37-33.49,14.91-8.22,7.78-12.21,18.9-12.75,30-.65,11.67,3,23,8.1,33.28,5.94,12,13.83,22.9,21.17,33.92,3-4,6.05-7.89,9.19-11.88-8.43-2-17.07-1.84-25.61-1.3a230.6,230.6,0,0,0-25.93,3.35c-14.9,2.92-30.79,7.35-41.7,18.58a39.52,39.52,0,0,0-7.34,10,36.71,36.71,0,0,0-3.79,13.5c-.21,2,1.08,4.43,2.38,5.73a8.08,8.08,0,0,0,11.45,0,9.12,9.12,0,0,0,2.38-5.73c0-.43.11-.86.11-1.19-.11.76-.22,1.41-.33,2.17a29.89,29.89,0,0,1,1.84-6.7c-.32.65-.54,1.29-.86,1.94a37.12,37.12,0,0,1,3.45-6.05c.76-1.08-1,1.19-.32.43.22-.21.32-.43.54-.65.32-.43.76-.86,1.08-1.29a31.27,31.27,0,0,1,2.7-2.7c.43-.33.87-.76,1.3-1.08.21-.22,1.08-.87,0,0s-.11.11.21-.11c1.08-.76,2.16-1.51,3.24-2.16a68.12,68.12,0,0,1,7.35-3.68c-.65.33-1.3.55-1.94.87,10.58-4.43,22.14-6.48,33.38-8l-2.16.33c10.37-1.41,21.28-2.49,31.76-1.19-.75-.11-1.4-.22-2.16-.32,1.51.21,3,.54,4.54.86a8.09,8.09,0,0,0,8.53-2.92c1.84-2.48,2.38-6.26.65-9-4.32-6.49-8.64-13-12.85-19.45a132.42,132.42,0,0,1-10.59-19.23c.32.65.54,1.3.86,1.94a64.94,64.94,0,0,1-4.43-15.45c.11.76.22,1.41.33,2.17a53.23,53.23,0,0,1-.11-12.43c-.11.76-.22,1.41-.33,2.16a37.52,37.52,0,0,1,2.81-10.26c-.32.65-.54,1.29-.86,1.94a34.56,34.56,0,0,1,3-5.51,5.31,5.31,0,0,1,.87-1.29c-.22.32-.54.64-.76,1,.22-.22.33-.43.54-.65a24.4,24.4,0,0,1,2.16-2.38c.44-.43.87-.75,1.3-1.19s2.16-1.62.11-.1c.86-.65,1.73-1.19,2.59-1.84a45.07,45.07,0,0,1,6.48-3.35c-.65.32-1.29.54-1.94.86a103.75,103.75,0,0,1,26-6.69c-.75.1-1.4.21-2.16.32a126.86,126.86,0,0,1,27.88-.54c1.94.22,4.43-1.08,5.72-2.38a8.08,8.08,0,0,0,0-11.45,8.48,8.48,0,0,0-5.61-2.37Z"/><path class="cls-10" d="M182.05,865.16c-6.26-4.86-13.93-7.78-14.8-16.75-.43-4.21-.1-8.53-.1-12.74,0-5,1.51-13.19-2.6-17.07a7.42,7.42,0,0,0-7.78-1.52c-4.75,2.27-3.56,9.51-3.78,13.83-3.13-3.56-3.45-9.07-5.08-13.5-1.51-4.22-4.75-8.43-9.07-8.65a4.27,4.27,0,0,0-3,1,6.27,6.27,0,0,0-1.29,2.7c-1.51,5.94-2.27,12.75-4.65,18.26-2.27-3.57-3.89-7.57-7.45-10.38-9.29-7.13-15.56,1.73-13,10.92,1.08,3.78,2.7,7.56,2.7,11.45-3.24-2.81-6.69-5.51-10.69-6.59s-8.86.21-10.81,3.89c-1.62,3.13-.64,7,.87,10.26a33.49,33.49,0,0,0,10.91,13.29c-7.89-3.78-17.83,1.3-13.07,11,2.38,5,7.78,7.67,13,9.29,3.68,1.08,7.46,1.19,11.13,1.94,5.4,1.19,5.94,1.62,4,6.27a23.5,23.5,0,0,0-1.84,12.21c5.08,3.67,11.78.32,17.29-2.59l17.5-9.4c6.27-3.35,12.64-6.81,18.15-11.35,5.29-4.43,11.34-8.64,13.5-15.77"/><path class="cls-10" d="M963.81,790.18c-5-8.32-12.53-15.45-9-25.06a136,136,0,0,1,6.27-13.29c2.48-5.19,8.42-13,5.51-19.12a10.19,10.19,0,0,0-8.43-5.62c-6.7-.11-9.07,8.1-11.45,12.53-2-5.4.43-11.24.86-16.64.33-5.18-1.29-11.23-6.37-13.72a5.55,5.55,0,0,0-4.11-.54,7.15,7.15,0,0,0-2.91,2.16c-4.87,5.4-9.08,12.1-14.7,16.64-.86-5-.75-9.94-3.56-14.69-7.35-12.21-19.23-6.27-20.74,4.53-.65,4.54-.55,9.3-2.6,13.29-2.37-4.53-5.08-9.29-9.29-12.42s-10.59-4.43-14.58-1.62c-3.46,2.38-4.33,6.91-4.22,11.13a39,39,0,0,0,6.16,19.44c-7.45-8-21.71-8-21,4.65.43,6.37,5.3,12.1,10.59,16.42,3.78,3,8.21,5.08,12.1,7.89,5.73,4.1,6.27,4.75,1.51,8.64a26,26,0,0,0-8.32,11.77c4.11,6.49,13.72,6.49,21.61,6.27l25.28-.65c9.08-.21,18.37-.54,27.12-2.37,8.75-2.06,18.15-3.46,24.2-9.62"/><path class="cls-12" d="M89.9,615a126.35,126.35,0,0,1,29.28.32c-.76-.11-1.41-.22-2.16-.32a127.44,127.44,0,0,1,32.3,8.86c-.65-.33-1.3-.54-1.95-.87a130.56,130.56,0,0,1,20,10.59c1.51,1,3.13,2.05,4.65,3.13l2.27,1.62c1.29,1-1.52-1.19-.33-.21.43.32.76.64,1.19,1,2.92,2.38,5.83,5,8.53,7.56,3,2.92,8.43,3.24,11.46,0s3.24-8.32,0-11.45A133.31,133.31,0,0,0,114,598.31a119.73,119.73,0,0,0-24.09.21,8.84,8.84,0,0,0-5.73,2.38,8.1,8.1,0,0,0,0,11.45c1.52,1.52,3.68,2.81,5.73,2.6Z"/><path class="cls-12" d="M179.79,581.35a13,13,0,0,1,2.16.86c-.65-.32-1.3-.54-1.95-.86a30.64,30.64,0,0,1,5.84,3.24,5.58,5.58,0,0,0,1.29.86c-.11,0-1.51-1.19-.75-.54.21.22.54.43.75.65.87.76,1.62,1.51,2.49,2.27a22.32,22.32,0,0,1,2,2.38c.22.21,1,1.18.11.1s-.22-.32,0,0a9.4,9.4,0,0,1,.86,1.3,32.33,32.33,0,0,1,3.24,6c-.32-.65-.54-1.3-.86-1.94a34.4,34.4,0,0,1,2.38,8.64c-.11-.76-.22-1.4-.33-2.16v.43c.33,2.27.76,4.11,2.38,5.73a8.1,8.1,0,0,0,11.45,0c1.3-1.52,2.59-3.68,2.38-5.73a42.63,42.63,0,0,0-3.57-13.07,41.48,41.48,0,0,0-6.37-10.16A42.22,42.22,0,0,0,183.89,566c-4-1.41-9.07,1.62-9.94,5.61-.86,4.33,1.51,8.21,5.84,9.73Z"/><path class="cls-15" d="M305.11,750.32c1.83-6.59,3.78-13.08,5.72-19.56A1054.83,1054.83,0,0,1,350.7,621c8.86-20.53,20.09-38.14,30.79-56.94,9.72-17,22.36-33.71,37.81-42.35,19.45-10.8,45.16-10.26,65.37-9.83,14.69.21,28.73,2.81,42.89,5.4C541.71,519,556,520.85,570,525c19.45,5.73,44.08,12.75,59.32,28.95,12.1,12.75,19.12,32.52,23.12,51.65,4.53,21.17,9.94,41.27,12,63.52A1048,1048,0,0,1,669,785.64c-.11,6.81-.33,13.62-.54,20.42-.76,21.07-1.19,40.08-8.43,60-6.7,18.69-19.23,33.71-33.06,44.3C573.15,951.7,512.54,960,454.09,951.05s-102.63-33.28-141.42-88.7c-9.94-14.26-17.29-32.41-18-52.18C294.09,788.89,299.38,770.63,305.11,750.32Z"/><path class="cls-16" d="M461.44,868.08l21.6.32c1.09.11,1.84-2,1.73-4.65l.33-17.5c-.11-2.59-1.08-4.86-2.27-4.86L458,840.2c-1.08-.11-1.84,2.06-1.73,4.65l3,18.36C459.28,865.81,460.36,868.08,461.44,868.08Z"/><path class="cls-9" d="M457.44,853.82l29.49,1.08c9,.32,15.89-6.59,15.35-15.35L496,741.13c-.54-8.75-8.32-16.2-17.29-16.53l-29.49-1.08c-9-.32-15.88,6.59-15.34,15.34l6.26,98.43C440.69,846,448.47,853.49,457.44,853.82Z"/><ellipse class="cls-17" cx="480.65" cy="752.81" rx="10.8" ry="4.43" transform="translate(-398.49 910.48) rotate(-67.61)"/><ellipse class="cls-17" cx="451.19" cy="750.92" rx="4.11" ry="11.67" transform="translate(-279.27 267.32) rotate(-25.49)"/><path class="cls-18" d="M403.21,547.64c-11.56,27.12-48,32.19-66.88,9.72-11.56-13.72-23.23-27.66-30.14-44.18-9.72-23-7.78-50.24,13.18-66.23,11.23-8.54,25.28-15.13,39.32-13.29,48,6,59.64,76.17,44.84,113.12C403.53,547.1,403.31,547.32,403.21,547.64Z"/><path class="cls-18" d="M628.57,565.79c7.35,28.52,42.67,38.57,64.71,19,13.51-11.88,27.12-24.09,36.52-39.43,13.07-21.39,15.34-48.62-3.13-67.31-9.83-10-22.69-18.47-36.84-18.69-48.4-.75-70.44,67-61.37,105.56C628.46,565.14,628.57,565.47,628.57,565.79Z"/><path class="cls-19" d="M729.26,509.61c-4.65,4.43-7.56,11.45-6.37,18.26a20.25,20.25,0,1,0,16.42-23.12"/><path class="cls-15" d="M684.53,530a123.65,123.65,0,0,0,10.37-34.9,9.8,9.8,0,0,0-.43-5.29,7.83,7.83,0,0,0-3.35-3.89,9.25,9.25,0,0,0-4.1-1.08,7.64,7.64,0,0,0-5.73,2.38,64.09,64.09,0,0,0-6.7,10.15,105.66,105.66,0,0,0-5,11.13c-2.91,7.45-6.26,16.1-3.24,24.09,1.08,2.7,2.7,4.86,5.62,5.62a8.16,8.16,0,0,0,7.89-2l2.59-2.6c.22-.21.43-.32.65-.54s1.3-1,.11-.1-.22.21,0,0a3.39,3.39,0,0,1,.86-.54,37.21,37.21,0,0,1,6.48-3.57c-.64.33-1.29.54-1.94.87a36.17,36.17,0,0,1,9.51-2.6l-2.16.33a34.9,34.9,0,0,1,9,0l-2.16-.33c.54.11,1.08.11,1.62.22-1.94-2.59-4-5.19-5.94-7.78v.32c.11-.75.22-1.4.32-2.16,0,.11-.1.22-.1.33.32-.65.54-1.3.86-1.95,2.49-2.05,3-2.7,1.84-2.05.65-.32,1.29-.54,1.94-.86a50,50,0,0,1-12.42,3.13c.75-.11,1.4-.22,2.16-.32-3.24.43-6.59.54-9.62,1.51a17.15,17.15,0,0,0-5.83,3.24c-.22.21-.43.32-.65.54-1.08.86,1.3-.76.54-.43-.54.21-1.19.65-1.73.86.65-.32,1.3-.54,2-.86-2.06.86-4.22,1.4-6.27,2.27a9.17,9.17,0,0,0-4.86,3.67,9,9,0,0,0-.87,6.26c1.3,3.89,5.73,7.24,9.94,5.62,2.06-.75,4.22-1.4,6.27-2.27a18.15,18.15,0,0,0,4.11-2,23,23,0,0,0,2.59-2.05c-1.73,1.62-.65.54.11.22-.65.32-1.3.54-2,.86a20.78,20.78,0,0,1,4.43-1.08c-.75.11-1.4.22-2.16.32a103.33,103.33,0,0,0,12.86-2.16,48.54,48.54,0,0,0,5.29-1.62c3.89-1.51,7.78-4.75,7.35-9.4a8.58,8.58,0,0,0-1.73-4.86,7.71,7.71,0,0,0-4.21-2.92,44.51,44.51,0,0,0-21.94,1.41,45.52,45.52,0,0,0-18.47,11.67c4.54,1.18,9.07,2.37,13.5,3.56a19.34,19.34,0,0,1-.75-2.7c.11.76.21,1.4.32,2.16a14.15,14.15,0,0,1,0-4.21c-.11.75-.21,1.4-.32,2.16.75-5.3,3-10.48,5.08-15.45-.33.65-.54,1.29-.87,1.94a72.69,72.69,0,0,1,3.67-7.67c.65-1.19,1.3-2.27,2.06-3.46.43-.54.75-1.18,1.19-1.72s1.94-2.6.43-.65c-4.54-2.6-9.08-5.3-13.51-7.89a119.64,119.64,0,0,1-8.21,29.82c.33-.65.54-1.3.87-2-.44,1.09-1,2.17-1.41,3.25a9,9,0,0,0-.86,6.26,8.66,8.66,0,0,0,3.67,4.86c3.89,1.73,9.51,1.08,11.45-3Z"/><path class="cls-20" d="M533.93,588.48a31,31,0,0,1-26.47,15.77c-14.26.22-24.85-11.56-32.19-25.93-4.33,5.84-9.4,12.21-15.56,12.32-8.54.11-13.51-11.35-16.64-21.18-2.7,8.65-6.7,18.59-13.94,20.21-2.91.64-5.72-.22-8.42-1.41-20.53-9-17.61-22-24.42,4.32-5.18,20.1-56,48-64,16.86,8.75,7.78,16.32,17.93,19.77,29.28,8.43,28.62-14.91,68.17-40,61.47,7,2.81,12.21,10.15,16,18,28.31,58-56.5,77.57-73.36,21.39C248.6,719,258,694.68,276.69,683.33c-11.88-10.48-15.55-29-8.64-43.1s24-22.8,39.65-20.21c-13.07-15.88-13.94-40.29-2.05-57.15,8.64-12.2,23.55-19.55,38.46-20.09,11.88-.43,13.94,6.16,17.29-6.81,2.59-10.05,5-20.09,14.36-25.6s18.69-12,28.63-16.75c9-4.32,18.59-6.16,27.45-9.94,20.52-8.75,45.8-10.48,66.22-1,3.46,1.62,7.35,4.32,7.24,8.21,13.18-9.94,33.38-9.18,45.7,1.62a51.83,51.83,0,0,1,41.27,2.81,50.65,50.65,0,0,1,25.39,32.19c-3.35-13.07,31.87-9.83,36.41-8.85,18.15,4.21,30.25,16.09,41.16,31,4.86,6.59,9.51,13.51,11.78,21.39a35,35,0,0,1-1.3,22.26c22.36,5.18,38.14,8.21,50.88,29.28,8.43,14,15,30.14,13.18,46.56s-14,32.52-30.25,34c69.8,23.88,50.89,135.37-7,161.73-32,14.59-67.63,2.92-96.91-12.42-42-22.15-53.48-92.37-26.14-130.29A68.29,68.29,0,0,1,627,705.37c4.32-2.91,17-4.64,18.37-10.58,1.08-4.43-10.48-17.4-12.32-22.8-4.11-12.53-4.75-34.25,1.3-45.81-1.62,3.14-4.11,4.54-7.46,5.51-10.59,3-22.36,4.32-32.19-.54s-16.32-17.72-11-27.44c-6,10.8-20.21,16.1-31.77,12.1S532.09,600.69,533.93,588.48Z"/><path class="cls-21" d="M544.3,458.62a150.82,150.82,0,0,0-1.29-22c-.44-3.35-1-6.7-2.71-9.62a4.66,4.66,0,0,0-2-2,4,4,0,0,0-3.78.54c-2.05,1.4-3.13,4-3.89,6.37-2.27,7.24-3.78,14.91-2.7,22.37a3.78,3.78,0,0,0,.65,1.83,3.74,3.74,0,0,0,1.94,1,54.24,54.24,0,0,0,13.83,1.62"/><path class="cls-21" d="M536.74,453.22a165.45,165.45,0,0,1,108.14,55.63c4.43,5.08,8.65,10.7,9.4,17.4,1.08,9.07-4.53,18-12.1,23s-16.74,6.81-25.71,8c-65.36,8.32-130.18-14.15-191.12-39-9.4-3.89-19.88-8.86-23-18.69-2.59-8.21,1.08-17.39,7.13-23.44s14.15-9.51,22.15-12.43c37.81-13.39,65.79-17.61,105.12-10.47"/><path class="cls-22" d="M730.56,746.21c.65.76,1.29,1.62,1.94,2.38.22.21.33.43.54.65a5.82,5.82,0,0,0-.75-1,14.35,14.35,0,0,1,1.08,1.41c1.08,1.51,2.16,3.13,3.24,4.75A75.31,75.31,0,0,1,742,765c-.33-.65-.54-1.3-.87-2a80,80,0,0,1,5.51,20.1c-.1-.76-.21-1.4-.32-2.16a79.4,79.4,0,0,1,.11,20.2c.11-.75.21-1.4.32-2.16a69.56,69.56,0,0,1-5.18,18.69c.32-.65.54-1.29.86-1.94a86.11,86.11,0,0,1-4.43,8.86c-.86,1.4-1.73,2.81-2.7,4.21a20.08,20.08,0,0,1-1.4,1.94,6.49,6.49,0,0,1-.76,1c-.54.64.76-1,.65-.87s-.33.43-.54.65a62,62,0,0,1-6.81,7.35c-1.19,1.08-2.48,2.16-3.67,3.24-1.08.86,1.51-1.08.43-.33l-1,.65c-.65.54-1.41,1-2,1.41a66.45,66.45,0,0,1-9.84,5.29c.65-.32,1.3-.54,1.95-.86A53.55,53.55,0,0,1,698.79,852c.76-.11,1.41-.22,2.16-.32a62.32,62.32,0,0,1-15.44,0c.75.1,1.4.21,2.16.32a58.67,58.67,0,0,1-14.8-4c.64.33,1.29.54,1.94.87a57.66,57.66,0,0,1-8.1-4.22c-1.19-.75-2.38-1.62-3.57-2.48,2.38,1.73.22.11-.32-.33s-1.19-1-1.73-1.51a29.2,29.2,0,0,1-3.13-3.24c-.44-.54-1-1.08-1.41-1.62s-1.19-1.62.33.54c-.22-.32-.44-.54-.65-.86a47.78,47.78,0,0,1-4.65-8.21c.33.64.54,1.29.87,1.94a42.87,42.87,0,0,1-2.92-10.48c.11.76.22,1.4.32,2.16a35.22,35.22,0,0,1,0-9.51c-.1.76-.21,1.41-.32,2.16a27.06,27.06,0,0,1,2.05-7.56c-.32.65-.54,1.3-.86,2a21.74,21.74,0,0,1,2-3.89l.65-1c.75-1.08-1.08,1.3-.43.65s1-1.19,1.51-1.73l1.19-1.18c.54-.44,1.4-.87-.76.54.22-.11.43-.33.76-.54a16.88,16.88,0,0,1,3.13-1.62c-.65.32-1.3.54-1.94.86a18.55,18.55,0,0,1,5.4-1.4c-.76.1-1.41.21-2.16.32a29.76,29.76,0,0,1,6.26,0c-.75-.11-1.4-.22-2.16-.32a22.58,22.58,0,0,1,5.94,1.62c-.64-.33-1.29-.54-1.94-.87,1,.43,1.84.87,2.81,1.41.43.21.75.54,1.19.75-2.49-1.62-.87-.65-.22-.11l1,1c.11.21.33.32.44.54.86,1-1.3-1.84-.65-.76.54.86,1.08,1.73,1.51,2.59-.32-.65-.54-1.29-.86-1.94a22.73,22.73,0,0,1,1,3.56c-.11-.75-.22-1.4-.33-2.16v.33c.33,2.27.76,4.1,2.38,5.72a8.08,8.08,0,0,0,11.45,0c1.41-1.51,2.6-3.67,2.38-5.72a26,26,0,0,0-2.59-9,20.86,20.86,0,0,0-4.43-5.73,28.32,28.32,0,0,0-13.4-6.8c-10.48-2.05-21.93.86-28.74,9.5a34.74,34.74,0,0,0-7.24,16.53,46.15,46.15,0,0,0,1.08,18.8,50.82,50.82,0,0,0,18.26,27,62.86,62.86,0,0,0,29.6,12.86c10.92,1.62,22.37,1,32.74-3.13a69.26,69.26,0,0,0,28.09-20,83.09,83.09,0,0,0,16.53-30.68c6.91-23.77,2.27-50.67-11.78-71a92.55,92.55,0,0,0-6.37-8.32c-2.81-3.24-8.64-3-11.45,0a8.78,8.78,0,0,0,0,11.88Z"/><path class="cls-22" d="M302.08,713.69a31.27,31.27,0,0,1,3.89,6.92c-.32-.65-.54-1.3-.86-2a32.88,32.88,0,0,1,2.37,9.08c-.1-.76-.21-1.41-.32-2.16a41.93,41.93,0,0,1,0,9c.11-.75.22-1.4.32-2.16a33.68,33.68,0,0,1-2.16,8c.33-.65.54-1.3.87-2a39.68,39.68,0,0,1-2.7,5.19l-.65,1c-.43.54-1.62,1.84.11-.11-.65.65-1.19,1.41-1.84,2l-1.94,2a5.32,5.32,0,0,1-1.19,1c.32-.22.65-.54,1-.76-.22.11-.43.33-.65.44a29.14,29.14,0,0,1-5.08,2.81c.65-.33,1.3-.54,1.95-.87a23.21,23.21,0,0,1-6.16,1.62l2.16-.32a34.54,34.54,0,0,1-6.59,0l2.16.32a29.34,29.34,0,0,1-6.7-1.83c.65.32,1.3.54,1.95.86a27.52,27.52,0,0,1-3.57-1.84c-.65-.43-2.59-2-.43-.21-.54-.44-1-.87-1.51-1.3l-1.41-1.4c-.21-.22-.64-.65-.64-.87,0,.22,1.29,1.73.54.65a24.56,24.56,0,0,1-2.06-3.67c.33.64.54,1.29.87,1.94a21.75,21.75,0,0,1-1.19-4.32c.11.76.22,1.4.32,2.16a16.44,16.44,0,0,1,0-4.54c-.1.76-.21,1.41-.32,2.16a14.75,14.75,0,0,1,1-3.56c-.32.65-.54,1.29-.86,1.94a11.55,11.55,0,0,1,.86-1.62c.22-.32.87-1.19,0-.11s-.11.22.11,0l.54-.54c1-1-1.3.87-.76.54s.87-.54,1.41-.75c-.65.32-1.3.54-1.95.86a9.37,9.37,0,0,1,2.27-.65l-2.16.33a11.09,11.09,0,0,1,2.7,0l-2.16-.33a11.57,11.57,0,0,1,2.59.65c-.64-.32-1.29-.54-1.94-.86.43.21.76.32,1.19.54.21.11.43.32.65.43-.11,0-1.73-1.51-.87-.65l.43.43c.87.87-.54-.75-.64-.86.1.43.54.76.64,1.19-.32-.65-.54-1.3-.86-2a8.83,8.83,0,0,1,.43,1.62c-.11-.75-.21-1.4-.32-2.16v.54c.21,4.22,3.56,8.32,8.1,8.11,4.21-.22,8.32-3.57,8.1-8.11-.43-6.91-5-12.2-11.56-14.26a17.34,17.34,0,0,0-17.17,4.11,21.34,21.34,0,0,0-5.73,17.39,27.39,27.39,0,0,0,7.89,16.53,33.31,33.31,0,0,0,31.22,8.54c11.77-2.92,20.63-12.43,25.17-23.34,5.08-12.64,3-28.2-5-39.22a8.66,8.66,0,0,0-4.86-3.67,8,8,0,0,0-6.27.86c-3.13,2.38-5.4,7.68-2.7,11.24Z"/><path class="cls-23" d="M597.67,1036.72l-.21.87a5.24,5.24,0,0,0,.75.86C598,1037.91,597.89,1037.26,597.67,1036.72Z"/><path class="cls-24" d="M373.6,732.06,339.14,907c-.86,4.43,2.92,7.67,7.24,10.37,14,8.54,56.61,20.42,66.76,17.72,9.51-2.49.87-168.32-3.67-217.15-.65-6.7-11-.33-18.26,2.59l-11.34,4.64a9.55,9.55,0,0,0-6.27,6.92"/><path class="cls-24" d="M565,734.33l36,187.55c.87,4.75-3,8.21-7.56,11.13-14.69,9.18-59.1,21.93-69.79,19-9.94-2.7-1-180.53,3.78-233,.65-7.13,11.56-.33,19.12,2.8l11.88,5c3.57,1.63,5.95,4.33,6.59,7.57"/><polyline class="cls-25" points="348.97 665.83 429.35 699.54 348.97 739.95"/><polyline class="cls-25" points="583.74 670.04 506.81 699.86 583.74 735.62"/><path class="cls-26" d="M406.34,654.06c10.91.86,22.58,1.72,33-2.38s19-11.35,22.69-22.26c1.73-5-2-11.23-7-12.42a10.42,10.42,0,0,0-12.43,7,4.42,4.42,0,0,0-.43,1.3c0-.54.86-1.84.21-.65L441,626.94c-.76,1.19,0-.22.43-.43a11.48,11.48,0,0,0-1.08,1.18,16.06,16.06,0,0,1-1.94,1.84c-.22.22-1.41,1.19-.33.22s-.11,0-.32.21c-.76.54-1.52,1-2.27,1.41s-1.62.75-2.38,1.19c-1.19.54,1.84-.65.54-.22a9.33,9.33,0,0,1-1.62.54c-1.73.54-4.32,1.62-6.16,1.4.76.11,1.3-.1.11,0-.54,0-1.19.11-1.73.11-1.19.11-2.27.11-3.45.11a129.52,129.52,0,0,1-14.59-.76c-5.29-.43-10.26,5-10.05,10,.33,6.05,4.43,9.73,10.16,10.27"/><path class="cls-26" d="M551,641.2c-4.75.43-9.51.76-14.15.76-1.19,0-2.27-.11-3.46-.11-.54,0-1.19-.11-1.73-.11-.21,0-2-.22-.76-.11s-.54-.11-.75-.11c-.54-.11-1.08-.21-1.73-.32a28,28,0,0,1-3.13-.86c-.44-.11-.87-.33-1.3-.44-1.3-.43.11,0,.54.22a24,24,0,0,0-2.38-1.19,25.2,25.2,0,0,1-2.26-1.4,6.53,6.53,0,0,0-1.09-.76c.44.11,1.52,1.3.44.32-.65-.54-1.3-1.18-2-1.83-.43-.43-.75-.87-1.08-1.19-.86-1,1,1.51.33.43-.44-.76-1-1.4-1.41-2.27-.11-.32-.75-1.73-.21-.32.64,1.62-.11-.54-.22-.65-1.62-5-7-8.75-12.42-7-5,1.62-8.86,7-7,12.42,3.68,10.91,12.21,18.15,22.69,22.26s22,3.24,32.95,2.37c5.19-.43,10.37-4.32,10.05-10,0-5-4.32-10.48-9.94-10"/><path class="cls-27" d="M468.24,893.57a9.17,9.17,0,0,0,.76-1.08c-1.19,2-.54.76-.22.22.54-.65,1.19-1.3,1.73-2s1.3-1.18,1.95-1.83c.32-.33.65-.54,1-.87s.43-.32.65-.54c-1,.76-1.3,1-.76.65a44.58,44.58,0,0,1,9.4-5.29c-.65.32-1.3.54-1.94.86a69,69,0,0,1,16.74-4.21c-.75.11-1.4.22-2.16.32a52.45,52.45,0,0,1,14.26-.43c-.75-.11-1.4-.22-2.16-.32a25,25,0,0,1,5.62,1.51c-.65-.32-1.3-.54-2-.86a13.81,13.81,0,0,1,1.84.86c.65.32,2.49,1.73.32.11a8.6,8.6,0,0,0,5.73,2.37,8.3,8.3,0,0,0,5.73-2.37,8.11,8.11,0,0,0,2.37-5.73c-.1-1.94-.75-4.43-2.37-5.72a28.7,28.7,0,0,0-7.89-4.54,30.38,30.38,0,0,0-7.56-1.62,48.15,48.15,0,0,0-13.07.43c-10.27,1.3-20.64,3.78-29.39,9.61a49,49,0,0,0-12.64,12.32c-1.19,1.62-1.3,4.43-.87,6.27A8.71,8.71,0,0,0,457,896.6a8.56,8.56,0,0,0,11.23-3Z"/></g></g></svg>