<svg xmlns="http://www.w3.org/2000/svg" viewBox="0 0 1358.99 1358.99"><defs><style>.cls-1{fill:#b487a7;}.cls-2{fill:#c9cdd0;}.cls-3{fill:#eaebf0;}.cls-4{fill:#e3e1ea;}.cls-5{fill:#81a9ce;}.cls-6{fill:#bebcc2;}.cls-7{fill:#9b9ba1;}.cls-8{fill:#e5f1ee;}.cls-9{fill:#a6a4aa;}.cls-10{fill:#737378;}.cls-11,.cls-18,.cls-22,.cls-23,.cls-24{fill:none;}.cls-11{stroke:#5f5f63;stroke-width:0.25px;}.cls-11,.cls-22,.cls-24{stroke-linecap:round;}.cls-11,.cls-22{stroke-linejoin:round;}.cls-12{fill:#c896b9;}.cls-13{fill:#efeeed;}.cls-14{fill:#694188;}.cls-15{fill:#ae6899;}.cls-16{fill:#c35f90;}.cls-17{fill:#d692b2;}.cls-18{stroke:#e0d571;stroke-width:2px;}.cls-18,.cls-23,.cls-24,.cls-27{stroke-miterlimit:10;}.cls-19{fill:#e0d571;}.cls-20{fill:#6490bf;}.cls-21{fill:#e5ab39;}.cls-22,.cls-23,.cls-24{stroke:#81a9ce;}.cls-22{stroke-width:37px;}.cls-23,.cls-24{stroke-width:4px;}.cls-25{fill:#8bc1b8;}.cls-26{fill:#85bfb8;}.cls-27{fill:#f2f2f3;stroke:#e0e0e0;stroke-width:69px;}</style></defs><title>资源 26</title><g id="图层_2" data-name="图层 2"><g id="图层_1-2" data-name="图层 1"><path class="cls-1" d="M754.34,423.19a250.14,250.14,0,0,1,27.53-33.47c13-13.21,28.4-25.55,47.12-29.07,5.72-1.1,11.78-1.21,17.18.77,8.36,3.09,13.76,10.57,18.16,17.95,8.15,13.43,15,29.73,8.81,44-2.42,5.72-6.72,10.46-11,15.08-13.1,14.43-73,102.4-97.55,76.08-10.9-11.67-1.21-39.74-3.41-53.62C759.63,451.81,748.4,431.78,754.34,423.19Z"/><path class="cls-2" d="M728,320.24c-1.65,4.41-3.19,8.7-4.85,13.11-2.64,7-7.7,15.41-6.82,23,.77,7.37,5.94,7.7,12,9.69,3.19,1,6.38,2.09,9.58,3.08,8.36,2.64,16.73,5.17,25.21,7.71,23.23,6.93,46.46,13.65,69.69,20.36q43.44,12.56,86.87,24.78l93.81,26.42c30.16,8.48,60.22,16.85,90.39,25.21,25.54,7.16,51.19,14.21,76.74,21.25l52.74,14.54c6,1.65,12.22,3.74,18.38,5.06,0,0,12.44,2.64,17.4-7.93s7.48-32,7.48-32Z"/><path class="cls-3" d="M1250.34,492.44,736.73,350.08c-13.44-3.74-18.17-18.94-8.92-28.73l52.85-55.6c6.38-6.83,16.62-9.47,26-6.83l437.43,121.22a25.63,25.63,0,0,1,18.71,19.27l14.1,71.34C1279.52,484.84,1265.09,496.62,1250.34,492.44Z"/><path class="cls-4" d="M1250.89,378.27l-443.81-123c-8.26-2.32-12.88-10.35-10.46-17.95L870.83,10.2c2.42-7.59,11.23-11.89,19.49-9.57l443.81,123c8.25,2.31,12.88,10.35,10.46,17.94l-74.21,227.14C1267.85,376.18,1259.15,380.47,1250.89,378.27Z"/><path class="cls-5" d="M1225.79,343.26l-385-106.69c-5.06-1.43-7.93-6.28-6.39-10.9L895.6,38.28c1.32-4.07,6.06-6.5,10.57-5.18l386.56,107.13a8.41,8.41,0,0,1,6.16,10.57l-61,186.51C1236.36,341.93,1231,344.69,1225.79,343.26Z"/><path class="cls-6" d="M1060,435.63,923.57,397.75a5,5,0,0,1-3.64-6.27l9.14-27.86a4.45,4.45,0,0,1,5.51-2.75l138.06,38.32a4.78,4.78,0,0,1,3.52,5.94l-8.8,27A6.23,6.23,0,0,1,1060,435.63Z"/><path class="cls-7" d="M1236.36,439.7,783.74,314.19c-11.78-3.3-17.73-11.67-11-15.85L811,274.66c4.63-2.86,13-3.3,21.25-1l385.46,106.91c8.48,2.31,15.53,6.94,18.06,11.89l20.37,38.65C1260.25,438.71,1249.46,443.34,1236.36,439.7Z"/><polygon class="cls-8" points="876.77 95.97 971.35 51.05 991.17 56.56 868.74 120.41 876.77 95.97"/><polygon class="cls-8" points="1286.89 187.47 1013.3 284.35 1064.38 298.56 1276.77 218.51 1286.89 187.47"/><ellipse class="cls-9" cx="1107.43" cy="76.81" rx="7.93" ry="7.27"/><ellipse class="cls-10" cx="1107.43" cy="76.81" rx="3.52" ry="3.3"/><line class="cls-11" x1="812.69" y1="279.29" x2="1237.79" y2="397.09"/><line class="cls-11" x1="792.77" y1="291.4" x2="1250.01" y2="418.12"/><line class="cls-11" x1="857.4" y1="280.39" x2="810.27" y2="315.51"/><line class="cls-11" x1="886.46" y1="289.86" x2="839.34" y2="324.87"/><line class="cls-11" x1="922.35" y1="299.77" x2="875.12" y2="334.78"/><line class="cls-11" x1="955.05" y1="308.79" x2="907.82" y2="343.92"/><line class="cls-11" x1="987.75" y1="317.93" x2="940.63" y2="352.94"/><line class="cls-11" x1="1017.37" y1="327.07" x2="982.91" y2="364.61"/><line class="cls-11" x1="1071.76" y1="342.49" x2="1053.26" y2="384.1"/><line class="cls-11" x1="1096.64" y1="351.07" x2="1087.28" y2="392.91"/><line class="cls-11" x1="1118.11" y1="355.92" x2="1123.95" y2="405.13"/><line class="cls-11" x1="1042.36" y1="333.68" x2="1020.45" y2="374.41"/><line class="cls-11" x1="1176.57" y1="371.55" x2="1189.24" y2="423.19"/><line class="cls-11" x1="1144.65" y1="362.74" x2="1157.31" y2="414.38"/><line class="cls-11" x1="1205.64" y1="379.92" x2="1224.25" y2="433.21"/><path class="cls-12" d="M775.26,507.41c4-27,.88-53.94-2-85.1-.88-9.14-2.42-22.68-7.27-30.83-3.3-5.4-11.45-5.62-17.17-6.17-4.63-.55-5.29-.11-6.83-4.07-.33-.77-3.85-10-2.86-10.13a8.24,8.24,0,0,1-5.95-1.65,41.58,41.58,0,0,1-4.51-4.29c-2.53-2.65-6.28-4.63-7.16-7.93s.22-8.59.55-12c2.76-28.85,23.78-24.55,48.67-24.45a33.41,33.41,0,0,0,9.91-1c14.2-4.29,9.9-21,20-25.76,9.58-4.51,27.75,2.31,38.21,2.2,11.89-.11,22-16.51,31.16-22.46-5.29-15.3-10-29.06-15-43.27,11.67,2.65,23.56,7.16,31.93,15.75,2.31,2.42,6.39,11.56,10,10.9,6.39-1.21.22-12-1.54-14.65-3.52-5.17-8.37-9.24-13.21-13.32-13.43-11.34-42.17-17.06-59.68-20.37-22-4.18-44.48-3.3-65.73,3.75-5.39,1.76-12.11,1.65-18,1-40.19-4.3-70,10.79-77.51,46.46-10.9,52.74-12.22,106.69-21.36,159.53A1258.4,1258.4,0,0,1,596.79,593c-2.31,7.16-4.74,14.31-4.51,21.8.77,25.21,45.58,59.57,71.56,59.12,36.77-.66,59.89-48.66,73.33-74.53,7.37-14.21,14.64-28.41,22-42.5A156.27,156.27,0,0,0,775.26,507.41Z"/><path class="cls-12" d="M816.22,284.24c-3.53-27-19.93-46-45.14-62.53,39.19-17.07,86.21,25.87,81,59.45-.66,4.51-10.9,10.57-17.18,11S816.66,287.77,816.22,284.24Z"/><path class="cls-12" d="M716.91,402.27c-2.53,5.28-13.32,22.68-11,28.18,6.93,16.74,50.42.11,59.67-5.72a49.14,49.14,0,0,0,17.95-19.16c6.38-12.33,7.49-28.84-.55-41-19.38-29.28-46.9,5.95-58.13,23.13A151.9,151.9,0,0,0,716.91,402.27Z"/><path class="cls-12" d="M771.08,221.71c25.21,16.51,41.61,35.56,45.14,62.53.44,3.53,12.44,8.48,18.71,8s16.52-6.5,17.18-11C857.29,247.58,810.27,204.64,771.08,221.71Z"/><path class="cls-12" d="M657.23,592.19l73.55,29.62c5.07-29.07,4.62-29.29-25.1-31.16-15.31-1-30.5-3-45.69-4.51C659,588.12,658.11,590.1,657.23,592.19Z"/><path class="cls-12" d="M647.44,1325.79c24.77-7,46.24-23.46,50-49.77,1.32-9.36.33-18.83.11-28.3-.44-16.84,3.19-33.47,3.52-50.2.33-17.84-3.74-24.77-13.1-39.64-16.84-26.64-26.53-56.59-39-85.1-1.77-4-4.41-5.29-8.48-7.38-9-4.41-18.94-7.27-28.74-9.47-20.37-4.73-41.39-6.72-61.54-12-72.56-18.83-145.89-62.76-219.87-31.27-26,11-23.23,20.59-25,43.71-1.77,23.67-8,48-14.65,70.9-.77,2.76-2.31,6-5.28,6-3.86,7.71-7.71,15.63-9.25,24-4.29,23.89,69.8-10.13,77.84-15.52,7.71-5.07,15.52-10.13,23.45-14.65,15.63-8.91,21.69,13.66,27.31,23,15.41,25.54,27,41.72,50.64,60.88,18.61,15.08,38,32.7,41.07,55.71,2.31,17.18-6.72,24.66,8,35.78,12.66,9.58,26.75,17.84,42.49,22,25.44,6.72,52.3,6.94,78.73,5.07A112,112,0,0,0,647.44,1325.79Z"/><path class="cls-12" d="M749.72,934.27c.22-7.38.33-14.86.33-22.24a1080.68,1080.68,0,0,0-6.72-126.94c-2.75-24.23-9.25-46-14.64-69.15-5-20.81-13.32-42.27-27.53-56.15-17.94-17.5-46.57-25.1-69.14-31.27-16.4-4.4-32.92-6.27-49.32-8.14-16.41-2.76-32.7-5.4-49.77-5.62-23.45-.33-53.29-.88-75.75,11-17.83,9.36-32.37,27.64-43.38,46.24-12.22,20.59-25.1,39.75-35.12,62.21a1100.43,1100.43,0,0,0-45,119.68c-2.2,7.05-4.29,14.2-6.38,21.36-6.39,22.13-12.34,42.06-11.23,65,1.1,21.58,9.79,41.17,21.57,56.7,45.59,60.22,109.88,88.3,177.93,97.77s125.29-1.66,187.28-46.91c16-11.67,30.27-28.07,37.87-48.44C748.84,977.87,749.17,957.17,749.72,934.27Z"/><ellipse class="cls-13" cx="640.28" cy="836.35" rx="118.69" ry="82.57" transform="translate(-385.17 1076.99) rotate(-65.77)"/><ellipse class="cls-14" cx="630.95" cy="870.47" rx="60.67" ry="51.09" transform="translate(-439.84 774.4) rotate(-48.94)"/><ellipse class="cls-13" cx="636.49" cy="859.77" rx="22.24" ry="15.52" transform="translate(-408.75 1087.33) rotate(-65.77)"/><path class="cls-15" d="M652.94,861.71c2.09.45,4.18.67,6.17,1.22,13,3,25.1,4.84,34.68,8.47,17.5,6.61,13.21,4.74,21.91,8.7,6.82,3.08,14,6.28,22.46,4.08a17.33,17.33,0,0,0,10.9-8.7c-4.63,5.72-12.11,1.65-14.32-2.09-3.3-5.29-1.76-13.22-1.54-20.81,1.54-60.34-8.81-118.69-52.07-129.7C637,711.65,578.07,755.25,534.58,828.14c.66-1.11,11.45,2.64,12.33,3,6,2.2,11.89,4.4,18,6.6,12,4.3,24,8.48,36.22,12.23C617.6,855.11,635.43,858.41,652.94,861.71Z"/><path class="cls-13" d="M519.5,1040.41l-18.5-5c-1-.22-1.1-2.09-.22-4.18l4.3-14c.77-2.1,2.2-3.53,3.19-3.31l21.47,5.18c1,.22,1.1,2.09.22,4.18l-7.38,13.87C521.92,1039.09,520.49,1040.63,519.5,1040.41Z"/><path class="cls-16" d="M526.55,1030l-25.22-6.39c-7.7-2-11.67-9.14-8.92-16L523.46,931c2.76-6.83,11.34-10.9,19-8.92l25.21,6.39c7.71,2,11.67,9.13,8.92,16l-31,76.63C542.84,1027.86,534.25,1031.93,526.55,1030Z"/><ellipse class="cls-17" cx="533.31" cy="944.22" rx="3.96" ry="9.03" transform="translate(-91.92 58.19) rotate(-5.75)"/><ellipse class="cls-17" cx="558.35" cy="950.52" rx="10.02" ry="3.52" transform="translate(-508.31 672.16) rotate(-44.94)"/><ellipse class="cls-13" cx="507.12" cy="800.93" rx="119.57" ry="101.29" transform="translate(-428.75 951.96) rotate(-66.83)"/><ellipse class="cls-14" cx="495.79" cy="834.53" rx="59.45" ry="64.52" transform="translate(-390.34 1230.8) rotate(-83.38)"/><ellipse class="cls-13" cx="495.98" cy="823.07" rx="22.46" ry="19.05" transform="translate(-455.86 955.15) rotate(-66.83)"/><path class="cls-15" d="M477.88,816.24c-2.42-.66-4.95-1.32-7.38-1.87-15.85-3.52-30.05-7.59-42.6-8.92-23.12-2.42-17.29-2.09-29.18-2.75-9.36-.44-19.16-1.1-26.75-7A14.39,14.39,0,0,1,365.91,783c1.32,7.16,11.89,7,16.74,5,6.93-3.08,10.45-10.68,15.19-17.4,37.43-53.18,86.32-98.87,139.94-88.08,54.72,11,89.73,76.63,89.18,160.31,0-1.21-14-3.08-15.09-3.19-7.81-.89-15.63-1.77-23.45-2.76-15.63-1.87-31.27-4-46.79-6.38C520.16,827.14,498.91,821.64,477.88,816.24Z"/><path class="cls-15" d="M710.3,692.05c3.53,31.93,42.17,48.78,70.8,31.6,17.5-10.57,35.23-21.36,48.55-36.22,18.61-20.81,25.87-49.66,8-73-9.58-12.55-22.79-23.78-39.09-26.42-55.27-9.14-92.26,60-88.41,103.16A2.73,2.73,0,0,0,710.3,692.05Z"/><path class="cls-15" d="M454.1,638.65c-18,27.2-60.44,26.43-78.28-1-10.9-16.73-21.8-33.8-27-52.74-7.15-26.42-.33-55.37,26.54-69,14.42-7.26,31.49-11.89,47.34-7.59,53.95,14.75,55.27,92.15,31.93,129.36A9.91,9.91,0,0,0,454.1,638.65Z"/><path class="cls-18" d="M361.73,547.93c3.63,6.17,4.4,14.31.77,21-5.84,10.57-19.93,14.75-31.38,9.14s-16.19-18.72-10.35-29.29,19.93-14.75,31.38-9.14"/><path class="cls-12" d="M416.12,580.74a114.89,114.89,0,0,1,.66-35.89h-5.29c2.86,7,4.08,14.53,4.63,22.13.44,5.72,1.54,13.43-2.54,18.28,1.43.22,2.87.33,4.3.55-6.61-13.11-20.26-21.47-34.68-23.24a2.76,2.76,0,0,0-2.43,1.33c-1.87,4.4,3.09,6.82,6.28,8.58a74.18,74.18,0,0,0,10.68,5.29,26.85,26.85,0,0,1,4.73,2.31c1.54.88,2.21,2.09,3.42,3.41,2.31,2.76,5.83,4.41,8.69,6.61a2.72,2.72,0,0,0,3.75-1,2.81,2.81,0,0,0-1-3.74c-2.43-1.77-5.29-3.09-7.27-5.4a22,22,0,0,0-3-3.41,20.76,20.76,0,0,0-4.3-2.53c-3-1.44-6.05-2.54-9-4.08-1.55-.77-3.09-1.65-4.63-2.53-.77-.44-1.43-.88-2.09-1.32l-1-.66c-.66-.55-.22-.44-.22.22-.11.44-.22.88-.33,1.43,0-.11.11-.22.11-.33-.77.44-1.54.88-2.42,1.32,12.44,1.43,24.22,9.25,29.94,20.48a2.72,2.72,0,0,0,4.3.55c5.06-6,4.62-13.87,4.18-21.14-.55-8.37-1.76-16.85-4.95-24.55a2.76,2.76,0,0,0-5.29,0,127.85,127.85,0,0,0-.66,38.86,2.73,2.73,0,0,0,3.41,1.87,2.79,2.79,0,0,0,2-3.41Z"/><path class="cls-19" d="M551.21,692.6c3,12.77,12.88,21.47,23.89,24.88,15.74,4.85,31.49-4.07,44.59-16.51,2.75,7.49,6.17,15.74,13.1,17.73,9.47,2.86,18.83-7.49,25.77-16.74.11,9.91,1.1,21.47,8.47,25.43,3,1.66,6.5,1.66,9.91,1.33C702.82,726,704,711.43,702.6,741.05c-1.11,22.57,45.69,67.82,65.17,38-12.33,5.4-24.22,13.32-31.92,24.11-19.16,27.09-6.83,75.64,23.34,76.74-8.7.66-17,6.72-24,13.65-51.3,51.2,36.12,98.76,74,45.81,14-19.49,11.78-47.79-5.06-65.51,16.73-7.05,27.19-25.11,24.33-42.06s-18.83-31.38-37.1-33.69c19.92-12.33,29.28-37.44,21.8-58.68-5.4-15.42-19.38-27.86-35.79-33.26-13-4.29-17.61,1.88-17-12.66.55-11.34,1.32-22.46-7.16-31.15s-16.62-18.5-26-26.65c-8.37-7.38-18.5-12.33-27.09-19.16-19.7-15.74-47.23-25.65-73.21-22.24-4.41.55-9.58,2.21-10.79,6.17-11.23-14.53-33.91-20.26-51.31-13a63.86,63.86,0,0,0-46.68-10.35C502,580,487.46,589.33,479,602.43c8.15-12.55-32-20.48-37.32-20.81-21.58-1.43-39.09,7-56.37,19-7.6,5.28-15.2,11-20.37,18.5-5,7-6.72,15.19-6.17,23.56-26.64-1.76-45.14-3.75-66.5,14.09-14.2,11.89-27,26.53-30.6,44.15s4.51,38.2,22,45c-85.55,2.42-102.84,124.3-47.57,170.32,30.5,25.44,74,24.78,111.75,18.17,54.17-9.47,90.95-78.83,73.66-127a74.16,74.16,0,0,0-13.65-23.23c-3.86-4.52-17.18-10.24-16.74-16.85.33-5,17.62-14.64,21.47-19.82,8.92-11.67,17.07-34.13,14.32-48,.77,3.85,3.08,6.05,6.38,8,10.68,6.49,23.34,11.67,35.89,9.79s24.12-13.21,21.69-25c3.09,13.1,16.85,23.23,31,22.79S549.23,705.92,551.21,692.6Z"/><path class="cls-20" d="M584.24,554.32a163.31,163.31,0,0,1,9-22.46c1.65-3.31,3.41-6.61,6.27-9a5.55,5.55,0,0,1,3-1.54,4.67,4.67,0,0,1,4.08,1.87c1.87,2.2,2.09,5.17,2.09,7.93.11,8.25-.88,16.62-4.62,24.11a4.09,4.09,0,0,1-1.33,1.76,4.94,4.94,0,0,1-2.53.44,95.22,95.22,0,0,1-16-3.08"/><path class="cls-20" d="M594.48,551.12c-47.13-9.24-97.88-.77-139.06,23.13-6.6,3.85-13.21,8.36-16.4,15.08-4.3,9-1.1,20.15,5.61,27.85s16.19,12.44,25.76,16.52c69.7,29.51,149.3,27.08,225.38,20.81,11.78-1,25.1-2.87,31.93-12.11,5.61-7.71,4.73-18.39.11-26.65s-12.44-14.42-20.26-19.93c-37.32-26.09-67-39.41-113.07-44.7"/><path class="cls-21" d="M272.77,782.11c-21.8,12.77-38.65,34.79-43,59.9-4.3,24,2.64,49.65,19.48,67.38s42.28,24.88,65.95,20.48c11.56-2.09,22.9-7.38,31.38-15.64s14.76-20.81,13.54-33A27.63,27.63,0,0,0,353.36,865a28.45,28.45,0,0,0-12.44-7.82c-9-3-20.26-2.09-27.42,4.63a19.84,19.84,0,0,0-4.07,5.5,4.23,4.23,0,0,0,1.43,5.62c1.76,1.1,4.73.55,5.62-1.44.44-.88.88-1.65,1.43-2.53s-.55.66,0-.11c.11-.11.22-.33.33-.44a12.55,12.55,0,0,1,1.21-1.21c.22-.11.33-.33.55-.44.44-.44-.88.55-.11,0,.44-.22.77-.55,1.21-.77s.77-.44,1.21-.66c.22-.11.33-.11.55-.22.44-.22.33-.11-.22.11.22-.11.33-.11.55-.22a23.89,23.89,0,0,1,2.64-.77l1.44-.33c.22,0,1-.11-.11,0,.33,0,.55-.11.88-.11a26.81,26.81,0,0,1,3-.11,7.26,7.26,0,0,1,1.54.11c.33,0,2.2.33,1,.11a32.26,32.26,0,0,1,6.17,1.65c.22.11.88.33,0,0l.66.33a12,12,0,0,1,1.21.66,24.87,24.87,0,0,1,2.86,1.76c.11.11,1,.77.11.11.11.11.33.22.44.33.33.33.77.66,1.1,1a9.92,9.92,0,0,1,1,1.1c.11.22.33.33.44.55.66.77-.33-.44.22.22a15.51,15.51,0,0,1,1.66,2.87l.33.66c.55,1.1-.22-.77.22.44.22.66.44,1.21.66,1.87a22.59,22.59,0,0,1,.77,3.74c-.11-1,0,.33,0,.44v.77a16.33,16.33,0,0,1,0,2.32,10.06,10.06,0,0,1-.11,1.87c0,.33-.11.66-.11,1-.11.77.22-1,0,.22a25.73,25.73,0,0,1-1,4.18,30.8,30.8,0,0,1-2.87,6.83,49.81,49.81,0,0,1-4.4,6.61,42.11,42.11,0,0,1-5.95,5.83,3.34,3.34,0,0,1-.77.55c.55-.44-.11.11-.22.22-.55.33-1,.77-1.54,1.1-1.1.77-2.2,1.43-3.41,2.2s-2.2,1.22-3.41,1.88a12.83,12.83,0,0,1-1.77.77,3.29,3.29,0,0,0-.88.44c-.22.11-.22.11.11,0a5.36,5.36,0,0,1-.77.33,55.56,55.56,0,0,1-7.59,2.42c-1.22.33-2.43.55-3.64.77-.66.11-1.32.22-1.87.33s-.77.11-1.21.22c-1.32.22.88-.11-.44.11a69.44,69.44,0,0,1-8.26.55,64,64,0,0,1-7.93-.44c-.66-.11-1.32-.11-2-.22.88.11-.44-.11-.44-.11-.22,0-.55-.11-.77-.11-1.43-.22-2.86-.55-4.29-.88-2.64-.66-5.4-1.43-7.93-2.31-.66-.22-1.21-.44-1.87-.66a5.36,5.36,0,0,0-.77-.33c.11,0-1.1-.44-.55-.22s-.66-.33-.55-.22a3.29,3.29,0,0,1-.88-.44,15.1,15.1,0,0,0-2-.88,75.63,75.63,0,0,1-7-4.08,18.66,18.66,0,0,1-1.54-1.1c-.22-.11-.44-.33-.66-.44,0,0-1-.77-.44-.33-1.11-.88-2.21-1.76-3.31-2.75a74.41,74.41,0,0,1-5.83-6c-.44-.55-.88-1-1.32-1.54-.22-.33-.55-.66-.77-1-.11-.11-.44-.66-.11-.11-.89-1.21-1.77-2.42-2.54-3.63-1.54-2.32-2.86-4.63-4.18-7-.55-1.1-1.1-2.31-1.65-3.41-.11-.33-.33-.77-.44-1.1.22.66,0,0,0-.11-.33-.77-.55-1.43-.88-2.21a77.79,77.79,0,0,1-4-15.85c.11.88,0-.44,0-.44,0-.22-.11-.55-.11-.77-.11-.66-.11-1.32-.22-2-.11-1.43-.22-3-.22-4.41a53.15,53.15,0,0,1,.33-8.36,9.73,9.73,0,0,1,.22-1.77c0-.33.11-.66.11-1-.11.77,0-.11,0-.33.22-1.43.44-2.75.77-4.07a64.94,64.94,0,0,1,2.21-8.26,70,70,0,0,1,6.82-15c1.54-2.53,3.08-5,4.85-7.38.22-.22.33-.44.55-.66,0,0,.88-1.1.33-.55l1.32-1.65c1-1.1,1.87-2.31,2.86-3.41,2-2.21,4.07-4.19,6.17-6.17,1.1-1,2.09-1.87,3.19-2.75,1.32-1.1,1.76-1.43,3.19-2.53,2.31-1.66,4.74-3.2,7.27-4.74a4.11,4.11,0,0,0,1.43-5.61,3.18,3.18,0,0,0-5-1.77Z"/><path class="cls-21" d="M757.87,888.25c-9.69,6.83-16.41,17.5-17.4,29.4A35.16,35.16,0,0,0,752.58,947a33.27,33.27,0,0,0,30.72,6.17c10.35-3.08,20.48-13.21,17.61-24.88-1.43-5.73-6.16-9.25-11.89-9.91-5.28-.55-10.57,1.76-12.55,6.82a2.79,2.79,0,0,0,1.87,3.42,2.88,2.88,0,0,0,3.42-1.88,6.53,6.53,0,0,1,.88-1.21,2.4,2.4,0,0,1,.55-.44c-.11.11-.33.22.11-.11.11-.11.33-.22.44-.33s.77-.33.33-.22a7.93,7.93,0,0,1,4.51-.55,8.74,8.74,0,0,1,4.3,1.65,7.26,7.26,0,0,1,2.53,4.08c1.1,4.07-.66,8.69-3.41,11.78a22.59,22.59,0,0,1-10.68,6.6,27.84,27.84,0,0,1-24.67-4.62A30.13,30.13,0,0,1,745.75,920c0-10.68,6.06-20.92,14.76-27.09a2.84,2.84,0,0,0,1-3.74,2.72,2.72,0,0,0-3.63-.88Z"/><path class="cls-1" d="M287.19,1164.82c1.76-7.16,2.42-14.64,5.94-21.36,3.64-6.94,9.47-12.77,13.33-19.71,8.69-15.52,15.08-32.15,20.47-48.88a103.54,103.54,0,0,0,3.64-13.1c.11-.88.33-1.65.44-2.54a83.42,83.42,0,0,0,.44-15.74c-.44-13.32-1.65-26.75-6.39-39.31-4.62-12.11-8-21.13-8.25-34.13-.11-13.43,0-26.09,2.64-39.41,5.83-29,17.39-57.14,17.61-86.87.11-6.61-.55-13.43-3.41-19.38-4.73-9.69-15.08-16.07-25.76-19.6-22.9-7.59-48.67-4.62-70.91,4.52-17.39,7.16-33.36,18.17-44.15,32.92s-16.07,33.47-12.55,51.19c-27.52-9.57-56.92-15.74-86.1-13.1C37.81,885.39-21.75,935.7,7.87,992.85c12.55,24.22,41.06,40.18,69.47,38.86-1.76,21-3.3,43.49,7.71,61.77,7.7,12.88,20.91,22.35,27.3,35.89,5.51,11.78,5.29,25.32,10.57,37.21,9.8,22,36.22,33,61,37.55,25.21,4.51,60.44,5.17,81.69-10.35,7.71-5.73,15.3-12.66,19.16-21.36A36.19,36.19,0,0,0,287.19,1164.82Zm1.87-95.79c-1,10.13-1.76,18.94-3,31.16C272.11,1085,273.32,1076.19,289.06,1069Zm-184.31,29.4c-88.41-129.7,267.88-72.67,117.37,15.85C182.37,1125.51,140.32,1124.85,104.75,1098.43Zm23.46,38c87.85,2.65,93.47,1.54,136.85-25.54,18.83,17,20.37,34,5.39,51.53C234.23,1204.46,138.33,1199.17,128.21,1136.41Z"/><path class="cls-1" d="M327.16,1138.07l-.11,1a10.86,10.86,0,0,1-1.11.66A19.11,19.11,0,0,1,327.16,1138.07Z"/><path class="cls-12" d="M277.83,1057.25c21.47-35.56,31.71-70,16.74-108.34-8.15-20.8-5.51-42.38,9.79-61.65,4.85-6.17,8.37-13.21,11.56-20.26,13.88-30.39.78-51.64-35.23-57.25-53.4-8.37-99,37.32-81.69,83.23,3.41,8.92,13.21,16.41,21.36,23.23,5.83,4.85,13.87,7.38,23.56,12.34-15.3,8.47-26,3.74-36.22-1.43-27.86-13.88-55.38-28.41-88.3-30.39-34.68-2.09-66.17,3.3-89.29,29.94C13.59,945.72,11,966,21.85,987c11.12,21.36,30.94,33.58,57.69,31A471.64,471.64,0,0,0,152,1005C198.45,992.73,260.65,1017.18,277.83,1057.25Z"/><path class="cls-12" d="M188.54,1120.34c24.77-1.65,45.91-6.94,61.1-24.88,15.75-18.61,12.67-42-8-56.15-31.82-21.8-101.29-25.88-135.2-7.93-24.34,12.88-26.32,47.12-3.86,66.94C127,1120.12,158,1121.44,188.54,1120.34Z"/><path class="cls-12" d="M270.89,1101.07c-47.78,30.5-53.94,31.71-151,29.29,3.41,9.69,4.4,19.27,9.69,26.2,32.26,43.27,112.74,44.15,147.75,2C293.68,1139,291.81,1119.9,270.89,1101.07Z"/><path class="cls-12" d="M852.33,239.21c3.63,4.74,6.94,9.91,8.7,15.64,1.87,6,.66,12.33,2.53,18.27a15.46,15.46,0,0,0,7.6,9.47c3.19,1.54,6.93,1.54,10.57,1.54,2.2,0,4.4,0,6.27-1,5.84-3.08,9.8-4.95,10.79-11.89,1.32-9.91,2.42-20.7-3.41-29.07-3.41-5-8.81-8.25-14.09-11.56-6.94-4.29-14-8.58-21.91-10.68-8.26-2.2-19.38-2.64-14.76,8.7a22.69,22.69,0,0,0,4.19,6.17C849.91,236.24,851.12,237.67,852.33,239.21Z"/><path class="cls-1" d="M759,241.41a106.78,106.78,0,0,1,28.4,39.86,93.88,93.88,0,0,1,4.3,13.21c.66,2.53,4.62,1.43,4-1.1a109.08,109.08,0,0,0-23.45-44.48,116.11,116.11,0,0,0-10.35-10.46c-1.87-1.76-4.85,1.21-2.86,3Z"/><path class="cls-1" d="M820.29,228.42a95.3,95.3,0,0,1,29.51,48c.66,2.53,4.62,1.43,4-1.11A97.52,97.52,0,0,0,832.51,235a93,93,0,0,0-9.36-9.47c-1.87-1.87-4.84,1.1-2.86,2.86Z"/><path class="cls-1" d="M719,271.36c-4.51,16.3.22,34.13,11.67,46.46,2.42,2.65,6.28-1.32,3.85-3.85a43.91,43.91,0,0,1-10.24-41.07c.89-3.52-4.4-4.95-5.28-1.54Z"/><path class="cls-1" d="M704.25,430.9c-.66-8.7,2.86-16.63,7.48-23.79,5.18-8,11.45-15.19,17.4-22.68,3.3-4.07,6.61-8.14,9.8-12.22,2.64-3.3,5.39-6.71,8.37-9.91,5.06-5.28,11.78-10.46,19.59-9.47,8.48,1.1,14.32,8.92,18.39,15.75,1.87,3.08,6.61.22,4.73-2.75-4.4-7.27-10-14.54-18.27-17.4-8.7-3.08-17.4.44-24.11,6.17a63,63,0,0,0-8.81,9.24c-3.42,4.19-6.83,8.48-10.24,12.78-6.61,8.14-13.43,16.18-19.49,24.88s-11,18.72-10.24,29.5a2.87,2.87,0,0,0,2.75,2.76,3,3,0,0,0,2.65-2.86Z"/><path class="cls-1" d="M761,430.56a64.83,64.83,0,0,0,17.39-11.89,2.72,2.72,0,0,0-3.85-3.85,34.92,34.92,0,0,1-3.74,3.3c-.66.55-1.1.88-1.54,1.22-.67.55-1.44,1-2.1,1.54a62.42,62.42,0,0,1-8.8,4.95,2.71,2.71,0,0,0-1,3.74,2.56,2.56,0,0,0,3.64,1Z"/><path class="cls-22" d="M696.32,1181.22v100c0,28.52-24.66,51.86-54.72,51.86H551.87c-30.17,0-54.72-23.34-54.72-51.86v-50"/><path class="cls-23" d="M680.24,1144.56a50.35,50.35,0,0,1,16.08,36.66"/><path class="cls-24" d="M665.93,1134.76a55.83,55.83,0,0,1,14.31,9.8"/><ellipse class="cls-1" cx="287.96" cy="1082.13" rx="16.63" ry="19.05"/><path class="cls-25" d="M487.13,1216.24c4.84,28.73,15.52,51.41,25.87,73.21,8.15,17,16.74,34.68,28,40.85,5.72,3.19,11.89,3,17.83,2.64a354.78,354.78,0,0,0,94.47-18.61c13.43-4.51,28.41-12.33,35-36.55,2.86-10.46,3.64-22.68,4.41-34.57.77-12.88,1.65-25.65,2.42-38.53.33-4.74.55-10-.88-13.88-1.54-4.29-4.52-5.06-7.16-5.5-64.85-10-130.36-1.1-194.1,26.09"/><path class="cls-26" d="M484.49,1216.9c3.3,19.48,9.8,38.09,17.83,56.15,3.75,8.48,7.82,16.84,11.89,25.21,4.19,8.59,8.59,17.07,14.54,24.55a41,41,0,0,0,8.59,8.37,26.83,26.83,0,0,0,13.54,4.51c5.06.33,10.13-.22,15.08-.55q8.1-.66,16.19-1.65a375,375,0,0,0,64.07-14c6.94-2.2,14-4.4,20.37-8a47.6,47.6,0,0,0,15.31-13.54c11.67-15.85,12.33-37,13.54-55.93.66-11.12,1.43-22.24,2.09-33.36.55-8.15,2.75-21.69-6.94-25.43a23.23,23.23,0,0,0-5.5-1.1c-2.64-.44-5.4-.78-8-1.11-5.17-.66-10.35-1.21-15.63-1.54q-15.52-1.15-31-1a355.17,355.17,0,0,0-62.1,6.5,365.62,365.62,0,0,0-61.65,17.83c-5.07,2-10,4-15,6.06-1.32.55-1.65,2.64-1,3.74a2.85,2.85,0,0,0,3.75,1,385.61,385.61,0,0,1,59.23-19.81,342.23,342.23,0,0,1,59.78-9.25,336.3,336.3,0,0,1,60.45,1.54c4.51.55,9.25.88,13.76,1.87a4.65,4.65,0,0,1,3,1.76,10,10,0,0,1,1.66,5.4c.44,5-.11,10.13-.44,15.08-.33,5.4-.67,10.9-1,16.3-.66,10.57-1.1,21-2.2,31.59-.88,9.36-2.31,18.94-6.16,27.53A44.92,44.92,0,0,1,670,1302.44a51.33,51.33,0,0,1-14.65,8,273,273,0,0,1-28.07,8.59c-10.24,2.64-20.48,5-30.94,6.72-10.24,1.76-20.7,3-31.05,3.85-8.81.66-18.5,2.09-26.09-3.74-6.5-5-10.9-12.45-14.87-19.49-4.51-8.15-8.47-16.74-12.44-25.21-7.81-16.63-15-33.59-19.37-51.42-1.22-4.74-2.21-9.58-3-14.42a2.73,2.73,0,0,0-3.41-1.88,2.92,2.92,0,0,0-1.65,3.42Z"/><path class="cls-19" d="M336.4,1021.14a69.43,69.43,0,0,1,11.78,3.63c-1.1-.44-2.2-.88-3.3-1.43A62.09,62.09,0,0,1,359,1031.6c-.88-.77-1.87-1.43-2.75-2.2a73.43,73.43,0,0,1,13.87,14.2c-.77-.88-1.43-1.87-2.2-2.75,6.83,8.81,12,18.71,16.63,28.73,1.32,3,2.64,6,4,9-.44-1.1-.88-2.2-1.43-3.3,4.84,11.45,9.25,23.12,14.09,34.57,2.09,4.84,4.19,9.69,6.61,14.31,3.08,6.06,6.71,12,10.35,17.73a401.28,401.28,0,0,0,31.71,42.72c10.79,12.88,22.24,25.21,34,37.1s24.22,23.56,36.66,35l4.62,4.3a14.59,14.59,0,0,0,9.69,4.07,13.85,13.85,0,0,0,9.69-4.07,14.09,14.09,0,0,0,4.08-9.69,13.4,13.4,0,0,0-4.08-9.69c-23.89-21.8-47.34-44.15-68.59-68.48-5.95-6.83-11.67-13.77-17.29-20.92.77.88,1.44,1.87,2.21,2.75-6.72-8.7-13-17.62-18.94-26.75a215.72,215.72,0,0,1-12.55-21.91c-1.76-3.64-3.31-7.27-4.85-10.9.44,1.1.88,2.2,1.43,3.3-6.93-16.4-12.88-33.25-20.8-49.21a140.37,140.37,0,0,0-12.56-21.14,121.48,121.48,0,0,0-9.57-11.67,94.18,94.18,0,0,0-11.34-9.69,72.27,72.27,0,0,0-28.19-12.55,14.1,14.1,0,0,0-10.57,1.43,13.58,13.58,0,0,0-6.28,8.25c-.77,3.53-.66,7.49,1.44,10.57s4.84,5.73,8.36,6.39Z"/><path class="cls-19" d="M646.77,1081.25c-2.09,19.71-1.1,39.53.67,59.24s4.29,39.52,5.28,59.34a284.86,284.86,0,0,1-.22,33.58c-.22,3.41,1.76,7.38,4.07,9.69a14.08,14.08,0,0,0,9.69,4.07c3.53-.11,7.27-1.32,9.69-4.07a15.72,15.72,0,0,0,4.07-9.69c1.55-19.82.11-39.63-1.76-59.34s-4.29-39.53-5-59.35a263.46,263.46,0,0,1,1-33.58c.33-3.3-1.76-7.48-4.07-9.68a14.05,14.05,0,0,0-9.69-4.08c-3.53.11-7.27,1.32-9.69,4.08-.77.88-1.43,1.87-2.2,2.75a15,15,0,0,0-1.88,7Z"/><path class="cls-27" d="M899.07,1062.33a4.87,4.87,0,0,1-.44,6.83c-.77.77-1.76,1.65-3.31,3.08-10.9,9.91-20.36,17.4-37.43,29.07a5,5,0,0,0,0,8.26,37.71,37.71,0,0,0,3.19,2.2,4.85,4.85,0,0,0,3,1h16.18c9.36,0,15.86-.33,20.15-.77a4.71,4.71,0,0,1,4.18,1.54l12.33,12.88a5,5,0,0,1,.44,6.39c-.55.66-1.1,1.65-2.09,3-13.76,20.26-24.66,33.36-40,47.78a5,5,0,0,1-7.27-.44,79.59,79.59,0,0,0-14.42-13.54,5.06,5.06,0,0,1,0-8,114.92,114.92,0,0,0,14.09-12.22,5,5,0,0,0-3.52-8.47H846.33a4.93,4.93,0,0,0-5,5v53.62c0,11.78-3,17.83-10.13,21.36-5.73,3-15.86,4-36.89,4-1.65,0-4.29,0-8-.11a5,5,0,0,1-4.85-4.18,90.82,90.82,0,0,0-4.73-18.83,5,5,0,0,1,5.17-6.72,195.43,195.43,0,0,0,21.69,1c5.73,0,6.72-.78,6.72-5.29v-44.81a4.93,4.93,0,0,0-5-5H767.83c-10.46,0-17.73.22-24.11.77a5,5,0,0,1-5.4-5v-19.49a5,5,0,0,1,5.4-5c5.94.44,13.32.66,24.44.66h26.42a5,5,0,0,0,2.65-9.25c-4.74-3-9.14-5.61-14.21-8.48a5,5,0,0,1-.77-8.14l3.08-2.65a5,5,0,0,0-3.3-8.8h0c-11,0-16.62.11-21.91.55a5,5,0,0,1-5.39-5V1052a5,5,0,0,1,5.39-5c6,.44,12.22.55,22.46.55l84-.11c8.48,0,12.44-.11,16.62-.66a4.9,4.9,0,0,1,4.41,1.76Zm-80.71,22.57c1.55.89,3.31,2,5.51,3.2a5,5,0,0,0,5,0,65,65,0,0,0,5.62-3.42,5,5,0,0,0-2.75-9.13H820.9A5,5,0,0,0,818.36,1084.9Z"/><path class="cls-27" d="M965,1159.11c-.55,25.33-1.87,37.44-5.84,54.17a3,3,0,0,1-4.18,2l-15.64-7.48a2.93,2.93,0,0,1-1.54-3.53c3.86-13.65,5.73-28.07,6.06-47a2.9,2.9,0,0,1,3.3-2.86l15.2,1.87A2.8,2.8,0,0,1,965,1159.11Zm-25.44-33.36a3,3,0,0,1,3.2-3.19c2.31.22,4.84.33,8.81.33,1.43,0,2.42,0,4-.11a2.5,2.5,0,0,0,2.09-1.1c2.2-2.75,2.75-3.42,4.29-5.51a2.94,2.94,0,0,0,0-3.52c-8.36-11.67-11.78-15.52-22.24-26.2a3,3,0,0,1-.44-3.53l10.24-18.6a3,3,0,0,1,4.85-.55h0a3,3,0,0,0,4.84-.44,135.17,135.17,0,0,0,9.69-20.59,3.08,3.08,0,0,1,3.85-1.88l19,7.05a3,3,0,0,1,1.54,4.18c-.55,1-1.1,2.21-2,4a309.4,309.4,0,0,1-16.4,27.85,2.83,2.83,0,0,0,.22,3.53c.33.44.77.88,1.1,1.32a3.05,3.05,0,0,0,4.84-.33c7.16-11.23,12.55-20.37,15.42-26.1a3,3,0,0,1,4.07-1.32l17.62,9.58a2.91,2.91,0,0,1,1,4.3c-1.1,1.54-2.65,3.74-5.07,7.48-6.27,9.36-17.28,24.44-25.32,34.46a3,3,0,0,0,2.53,4.85c2.31-.11,4.19-.22,6.17-.33a3,3,0,0,0,2.64-4c-.66-1.87-1.32-3.52-2.31-6.05a3,3,0,0,1,1.65-3.86l12.55-4.84a3,3,0,0,0,1.32-1c12.66-16.74,23-39.53,26.65-58.35a3,3,0,0,1,3.3-2.43l23.34,3.31a2.94,2.94,0,0,1,2.42,3.85c-.55,1.54-1.32,4.07-3,9.47,0,.11,0,.11-.11.22a32.76,32.76,0,0,1-1.32,4.51,3,3,0,0,0,2.86,4h35.89c5.84,0,9.36-.11,12.44-.33a3,3,0,0,1,3.2,3.3c-.55,4.84-.55,9.58-.66,34.57,0,24.66-1.76,58.68-3.64,74.76-2.75,23.56-6.82,34.9-14.64,40.41-5.5,3.74-15.3,5.5-31.16,5.5-3.74,0-6.82,0-12.11-.22a3.16,3.16,0,0,1-2.86-2.64c-1-8.48-2.42-14.2-5.62-23.56a3,3,0,0,1,3.2-4c7.7.88,15.85,1.54,20.14,1.54,8.59,0,10.79-2.31,12.89-14.09,2.64-14.2,4.07-42.5,4.07-83.12a3,3,0,0,0-3-3h-32.48a3.18,3.18,0,0,0-2.64,1.55,124.65,124.65,0,0,1-15.31,23.56,3,3,0,0,1-4.73-.11,33.48,33.48,0,0,0-3.64-4.3,2.94,2.94,0,0,0-5,3c2.31,6.49,4.62,13.87,7.16,22.68a2.88,2.88,0,0,1-1.77,3.52l-14.42,5.72a3.05,3.05,0,0,1-4.07-2.31c-.11-.44-.11-.88-.22-1.32a3,3,0,0,0-3.2-2.42c-2.09.22-3.85.33-5.28.44a3,3,0,0,0-2.75,3v56.37c0,9.14.11,13.55.77,18.39a3,3,0,0,1-3,3.3H972.83a3,3,0,0,1-3-3.3c.55-4.73.66-9.14.66-18.39v-54a3,3,0,0,0-3.19-3c-5.18.33-9.47.44-12.55.66-5.84.33-8.26.55-10,.77a3,3,0,0,1-3.41-2.75Zm82.36,30.83a423.94,423.94,0,0,1,6.5,47.56,3,3,0,0,1-2.54,3.2l-17,2.31a3,3,0,0,1-3.42-2.75c-.88-18-2.2-32.26-3.85-46.58a3,3,0,0,1,2.42-3.3l14.43-2.86A3,3,0,0,1,1021.94,1156.58Zm28,16c-6.38-22.24-9.57-31-15.52-43.37a3,3,0,0,1,1.54-4.08l20.37-8.37a3.09,3.09,0,0,1,3.85,1.43c8.15,16.85,12.56,27.53,17.4,43.71a3,3,0,0,1-1.76,3.64l-21.91,8.92A2.81,2.81,0,0,1,1049.9,1172.54Z"/><path class="cls-27" d="M1256.12,1159.33c0,5,.11,8.92.55,13.65a3,3,0,0,1-3.19,3.2c-5-.33-11.23-.55-14.75-.55h-43.27a3,3,0,0,0-3,3v8.59a3,3,0,0,1-3,3H1165.4a3,3,0,0,1-3-3.3c.55-5.51.77-10.9.77-16.08V1109c0-6.17-.11-10.68-.55-15.42a2.85,2.85,0,0,1,3.19-3.19c4,.33,8.48.44,14.64.44H1238c6.17,0,11-.11,15.53-.44a3,3,0,0,1,3.19,3.19c-.33,3.75-.44,7.05-.44,13.54Zm-84-83.23c-8.37,0-15.86.33-24.23,1a3,3,0,0,1-3.19-3v-24a3,3,0,0,1,3.19-3c7.38.55,14.65.88,23.89.88l125.3-.11c8.81,0,16.4-.33,24.22-.88a3,3,0,0,1,3.19,3v24a3,3,0,0,1-3.19,3h-.22a15.74,15.74,0,0,0-16.85,15.74l.11,103.83c0,23.34-6.6,27.85-40.62,27.85-5.29,0-9.14-.11-16.3-.33a3,3,0,0,1-2.86-2.53,91.93,91.93,0,0,0-5.5-22.9,3,3,0,0,1,3.08-4.08c8.92.88,16.51,1.21,22.79,1.21,7.49,0,9-1.21,9-6.49l-.11-110.21a3,3,0,0,0-3-3Zm23,72.77h28.73a3,3,0,0,0,3-3v-25.21a3,3,0,0,0-3-3h-28.73a3,3,0,0,0-3,3v25.21A3.11,3.11,0,0,0,1195.13,1148.87Z"/><path class="cls-15" d="M899.07,1062.33a4.87,4.87,0,0,1-.44,6.83c-.77.77-1.76,1.65-3.31,3.08-10.9,9.91-20.36,17.4-37.43,29.07a5,5,0,0,0,0,8.26,37.71,37.71,0,0,0,3.19,2.2,4.85,4.85,0,0,0,3,1h16.18c9.36,0,15.86-.33,20.15-.77a4.71,4.71,0,0,1,4.18,1.54l12.33,12.88a5,5,0,0,1,.44,6.39c-.55.66-1.1,1.65-2.09,3-13.76,20.26-24.66,33.36-40,47.78a5,5,0,0,1-7.27-.44,79.59,79.59,0,0,0-14.42-13.54,5.06,5.06,0,0,1,0-8,114.92,114.92,0,0,0,14.09-12.22,5,5,0,0,0-3.52-8.47H846.33a4.93,4.93,0,0,0-5,5v53.62c0,11.78-3,17.83-10.13,21.36-5.73,3-15.86,4-36.89,4-1.65,0-4.29,0-8-.11a5,5,0,0,1-4.85-4.18,90.82,90.82,0,0,0-4.73-18.83,5,5,0,0,1,5.17-6.72,195.43,195.43,0,0,0,21.69,1c5.73,0,6.72-.78,6.72-5.29v-44.81a4.93,4.93,0,0,0-5-5H767.83c-10.46,0-17.73.22-24.11.77a5,5,0,0,1-5.4-5v-19.49a5,5,0,0,1,5.4-5c5.94.44,13.32.66,24.44.66h26.42a5,5,0,0,0,2.65-9.25c-4.74-3-9.14-5.61-14.21-8.48a5,5,0,0,1-.77-8.14l3.08-2.65a5,5,0,0,0-3.3-8.8h0c-11,0-16.62.11-21.91.55a5,5,0,0,1-5.39-5V1052a5,5,0,0,1,5.39-5c6,.44,12.22.55,22.46.55l84-.11c8.48,0,12.44-.11,16.62-.66a4.9,4.9,0,0,1,4.41,1.76Zm-80.71,22.57c1.55.89,3.31,2,5.51,3.2a5,5,0,0,0,5,0,65,65,0,0,0,5.62-3.42,5,5,0,0,0-2.75-9.13H820.9A5,5,0,0,0,818.36,1084.9Z"/><path class="cls-15" d="M965,1159.11c-.55,25.33-1.87,37.44-5.84,54.17a3,3,0,0,1-4.18,2l-15.64-7.48a2.93,2.93,0,0,1-1.54-3.53c3.86-13.65,5.73-28.07,6.06-47a2.9,2.9,0,0,1,3.3-2.86l15.2,1.87A2.8,2.8,0,0,1,965,1159.11Zm-25.44-33.36a3,3,0,0,1,3.2-3.19c2.31.22,4.84.33,8.81.33,1.43,0,2.42,0,4-.11a2.5,2.5,0,0,0,2.09-1.1c2.2-2.75,2.75-3.42,4.29-5.51a2.94,2.94,0,0,0,0-3.52c-8.36-11.67-11.78-15.52-22.24-26.2a3,3,0,0,1-.44-3.53l10.24-18.6a3,3,0,0,1,4.85-.55h0a3,3,0,0,0,4.84-.44,135.17,135.17,0,0,0,9.69-20.59,3.08,3.08,0,0,1,3.85-1.88l19,7.05a3,3,0,0,1,1.54,4.18c-.55,1-1.1,2.21-2,4a309.4,309.4,0,0,1-16.4,27.85,2.83,2.83,0,0,0,.22,3.53c.33.44.77.88,1.1,1.32a3.05,3.05,0,0,0,4.84-.33c7.16-11.23,12.55-20.37,15.42-26.1a3,3,0,0,1,4.07-1.32l17.62,9.58a2.91,2.91,0,0,1,1,4.3c-1.1,1.54-2.65,3.74-5.07,7.48-6.27,9.36-17.28,24.44-25.32,34.46a3,3,0,0,0,2.53,4.85c2.31-.11,4.19-.22,6.17-.33a3,3,0,0,0,2.64-4c-.66-1.87-1.32-3.52-2.31-6.05a3,3,0,0,1,1.65-3.86l12.55-4.84a3,3,0,0,0,1.32-1c12.66-16.74,23-39.53,26.65-58.35a3,3,0,0,1,3.3-2.43l23.34,3.31a2.94,2.94,0,0,1,2.42,3.85c-.55,1.54-1.32,4.07-3,9.47,0,.11,0,.11-.11.22a32.76,32.76,0,0,1-1.32,4.51,3,3,0,0,0,2.86,4h35.89c5.84,0,9.36-.11,12.44-.33a3,3,0,0,1,3.2,3.3c-.55,4.84-.55,9.58-.66,34.57,0,24.66-1.76,58.68-3.64,74.76-2.75,23.56-6.82,34.9-14.64,40.41-5.5,3.74-15.3,5.5-31.16,5.5-3.74,0-6.82,0-12.11-.22a3.16,3.16,0,0,1-2.86-2.64c-1-8.48-2.42-14.2-5.62-23.56a3,3,0,0,1,3.2-4c7.7.88,15.85,1.54,20.14,1.54,8.59,0,10.79-2.31,12.89-14.09,2.64-14.2,4.07-42.5,4.07-83.12a3,3,0,0,0-3-3h-32.48a3.18,3.18,0,0,0-2.64,1.55,124.65,124.65,0,0,1-15.31,23.56,3,3,0,0,1-4.73-.11,33.48,33.48,0,0,0-3.64-4.3,2.94,2.94,0,0,0-5,3c2.31,6.49,4.62,13.87,7.16,22.68a2.88,2.88,0,0,1-1.77,3.52l-14.42,5.72a3.05,3.05,0,0,1-4.07-2.31c-.11-.44-.11-.88-.22-1.32a3,3,0,0,0-3.2-2.42c-2.09.22-3.85.33-5.28.44a3,3,0,0,0-2.75,3v56.37c0,9.14.11,13.55.77,18.39a3,3,0,0,1-3,3.3H972.83a3,3,0,0,1-3-3.3c.55-4.73.66-9.14.66-18.39v-54a3,3,0,0,0-3.19-3c-5.18.33-9.47.44-12.55.66-5.84.33-8.26.55-10,.77a3,3,0,0,1-3.41-2.75Zm82.36,30.83a423.94,423.94,0,0,1,6.5,47.56,3,3,0,0,1-2.54,3.2l-17,2.31a3,3,0,0,1-3.42-2.75c-.88-18-2.2-32.26-3.85-46.58a3,3,0,0,1,2.42-3.3l14.43-2.86A3,3,0,0,1,1021.94,1156.58Zm28,16c-6.38-22.24-9.57-31-15.52-43.37a3,3,0,0,1,1.54-4.08l20.37-8.37a3.09,3.09,0,0,1,3.85,1.43c8.15,16.85,12.56,27.53,17.4,43.71a3,3,0,0,1-1.76,3.64l-21.91,8.92A2.81,2.81,0,0,1,1049.9,1172.54Z"/><path class="cls-15" d="M1256.12,1159.33c0,5,.11,8.92.55,13.65a3,3,0,0,1-3.19,3.2c-5-.33-11.23-.55-14.75-.55h-43.27a3,3,0,0,0-3,3v8.59a3,3,0,0,1-3,3H1165.4a3,3,0,0,1-3-3.3c.55-5.51.77-10.9.77-16.08V1109c0-6.17-.11-10.68-.55-15.42a2.85,2.85,0,0,1,3.19-3.19c4,.33,8.48.44,14.64.44H1238c6.17,0,11-.11,15.53-.44a3,3,0,0,1,3.19,3.19c-.33,3.75-.44,7.05-.44,13.54Zm-84-83.23c-8.37,0-15.86.33-24.23,1a3,3,0,0,1-3.19-3v-24a3,3,0,0,1,3.19-3c7.38.55,14.65.88,23.89.88l125.3-.11c8.81,0,16.4-.33,24.22-.88a3,3,0,0,1,3.19,3v24a3,3,0,0,1-3.19,3h-.22a15.74,15.74,0,0,0-16.85,15.74l.11,103.83c0,23.34-6.6,27.85-40.62,27.85-5.29,0-9.14-.11-16.3-.33a3,3,0,0,1-2.86-2.53,91.93,91.93,0,0,0-5.5-22.9,3,3,0,0,1,3.08-4.08c8.92.88,16.51,1.21,22.79,1.21,7.49,0,9-1.21,9-6.49l-.11-110.21a3,3,0,0,0-3-3Zm23,72.77h28.73a3,3,0,0,0,3-3v-25.21a3,3,0,0,0-3-3h-28.73a3,3,0,0,0-3,3v25.21A3.11,3.11,0,0,0,1195.13,1148.87Z"/></g></g></svg>