<svg xmlns="http://www.w3.org/2000/svg" viewBox="0 0 1284.26 1284.26"><defs><style>.cls-1,.cls-2{font-size:192.84px;font-family:KozGoPr6N-Regular-83pv-RKSJ-H, Kozuka Gothic Pr6N;}.cls-1,.cls-2,.cls-3{fill:#88c6bf;}.cls-1{stroke:#f2f3f4;stroke-width:62px;}.cls-1,.cls-19{stroke-linecap:round;stroke-linejoin:round;}.cls-2{stroke:#88c6bf;stroke-miterlimit:10;stroke-width:3px;}.cls-4{fill:#6697c9;}.cls-5{fill:#e3e5e8;}.cls-6{fill:#aad5a8;}.cls-7{fill:#e6db72;}.cls-8{fill:#819e69;}.cls-9{fill:#c39c61;}.cls-10{fill:#4a86ce;}.cls-11{fill:#eee;}.cls-12{fill:#fff;}.cls-13{fill:#ad8046;}.cls-14{fill:#f6d6e4;}.cls-15{fill:#87bab2;}.cls-16{fill:#5780ba;}.cls-17{fill:#539faf;}.cls-18{fill:#cd98be;}.cls-19{fill:none;stroke:#fff;stroke-width:20px;}</style></defs><title>资源 27</title><g id="图层_2" data-name="图层 2"><g id="图层_1-2" data-name="图层 1"><text class="cls-1" transform="translate(166.18 230.54)">❹ゆず席</text><text class="cls-2" transform="translate(166.18 230.54)">❹ゆず席</text></g><g id="图层_3" data-name="图层 3"><path class="cls-3" d="M1089,607.93a241.39,241.39,0,0,0-37.33,31.59,349.58,349.58,0,0,0-42.94,54.42C936.88,804.72,826,852.22,851,901s81.68,7.68,228.06-48.47c55.93-21.42,95.09-53.88,120.84-88.5a223.28,223.28,0,0,0,24-40.46c20.33-44.79,21.09-87.84,9.08-111.32-17.85-34.62-78.21-49-144-4.33"/><path class="cls-4" d="M1223.79,723.69c20.34-44.79,21.09-87.85,9.09-111.32-17.75-34.73-78.11-49.12-143.89-4.44"/><polygon class="cls-4" points="934.61 782.87 979.07 892.35 1025.16 873.2 965.55 751.82 934.61 782.87"/><path class="cls-4" d="M997.79,710.28S981,730.83,978.42,734l96.83,120.19s34.84-14.28,36.78-15.25Z"/><path class="cls-4" d="M1048.09,643.31s-22.17,25.53-29.75,36.46L1153,811.43s36.79-30.18,42.41-41.76Z"/><path class="cls-5" d="M702.14,546c7.94,4.31,14.89,7.81,21.56,11.76,14.29,8.45,28.84,16.55,42.55,25.88,113.18,77,193.56,199.61,190.45,339a281,281,0,0,1-22.48,103.77c-15.32,36.37-39,66.85-66.37,94.53-6.29,6.35-8.61,12.17-8.89,20.81-.4,12.71-2.64,25.4-4.56,38-1.74,11.35-3.72,22.7-6.3,33.89-3.45,14.94-7.63,29.72-11.4,44.59-2.26,8.91-8.87,12.58-17,14.19-5.08,1-13.75-4.45-16.62-9.82-8.15-15.22-11.25-31.9-14.27-48.64-1.85-10.22-4-20.4-6.11-31.36-10,4.85-19.71,9.27-29,14.44-2,1.08-3.19,4.86-3.36,7.49-1,15.51-1.49,31.06-2.33,46.58-.4,7.33-.8,15-7.9,19.45-9.42,5.88-20.24,6.57-26.15-3.1-4.88-8-8.09-17.06-11.67-25.79-2.49-6.08-4.46-12.38-6.47-18.64-1.09-3.42-2.88-3.75-6.22-3-20.45,4.66-41,9-61.45,13.52-24.72,5.51-49.88,7.41-75,9.15-12.75.89-25.6.61-38.4.41-4.63-.08-6.8,1.23-8.17,5.81a205.36,205.36,0,0,1-9.16,25.69c-6.32,14-30.53,11.63-35.77,0A247.55,247.55,0,0,1,451,1246c-1.36-4.42-3.58-6.21-7.83-7q-39.87-7.29-79.69-14.89c-6.15-1.17-6.81-.84-7.31,5.61-.69,8.92-1.7,17.83-2.16,26.76-.39,7.56-4.25,12.69-11,14.82-7.25,2.29-14.65.61-19.54-5.36A108.62,108.62,0,0,1,310,1245.39c-5.89-11.93-10.89-24.32-15.95-36.64-2.08-5-6.15-6.47-10.7-8.28-22.88-9.14-45.71-18.39-68.34-28.1-26.49-11.37-51.32-25.87-73.55-44.16-13.9-11.44-27.33-23.92-38.77-37.75-10.71-13-20.44-27.19-26-43.59-3.31-9.82-6.58-19.66-10.1-29.41-1.17-3.24-3.27-6.13-4.64-9.31-6.27-14.57-9.46-29.95-11-45.64-1.64-17.11-3-34.25-3.95-51.41-.53-9.64-.14-19.35.19-29C50,801,56,728,93.7,653.78c12.32-24.26,24.61-44.14,42.66-64.63,18.57-21.07,39.2-39.76,63.12-54.8,17.2-10.81,34.7-20.85,53.57-28.55,4.14-1.69,7.17-6.06,10.76-9.13,12.58-10.75,26.9-17.53,43.59-18.4,4.87-.25,5.6-3.77,7.33-6.91,1.83-3.33-.26-5-2.31-6.94-9.53-8.89-10.77-20.3-9.51-32.32,1.83-17.42,10.24-32.13,21.29-44.9,7.8-9,17.5-16.63,27.16-23.77,27.27-20.19,58.47-30.95,91.57-37.24A406.05,406.05,0,0,1,535.66,319c27.57,1.14,55,3.37,82.19,8.91,25.72,5.24,50.71,12.44,74.75,22.82,35.12,15.17,69.12,32.5,99.76,55.68,20,15.16,36.61,33.54,48.69,55.72,3.23,5.94,6.65,11.84,9.12,18.09,3.44,8.71,1.53,12.7-6.07,18.06-21.87,15.42-46.43,24.56-72.1,31-22,5.5-44.07,10.53-66.11,15.77C705.08,545.21,704.28,545.45,702.14,546Z"/><path class="cls-6" d="M702.45,547.3c-37.72,9.2-75.5,15.93-115.8,13.27a664.76,664.76,0,0,1-231.34-58.23c-28-12.75-56-36.31-52.4-70.26,1.83-17.41,10.25-32.12,21.29-44.88,7.8-9,17.5-16.63,27.16-23.77,27.27-20.19,58.47-30.95,91.57-37.24A406.05,406.05,0,0,1,535.66,319c27.57,1.14,55,3.37,82.19,8.91,25.72,5.24,50.71,12.44,74.75,22.82,35.12,15.17,69.12,32.5,99.76,55.68,20,15.16,36.61,33.54,48.69,55.72,3.23,5.94,6.65,11.84,9.12,18.09,3.44,8.71,1.53,12.7-6.07,18.06-21.87,15.42-46.43,24.56-72.1,31C748.46,535.14,725.46,541.68,702.45,547.3Z"/><path class="cls-7" d="M97.94,1037.89l-1.45,1.3c.67,1.68,1.24,3.42,2,5a180.32,180.32,0,0,0,31.14,44.3c22,23.34,48.06,41.07,76.07,56,39,20.85,80.4,35.55,122.33,48.94,47,15,94.91,25,144,28.43,87.81,6.21,173.47-3.86,255.89-36.86,48-19.21,91.54-45.63,128.53-82.49,43.95-43.78,71.26-96.47,78.63-158.76,6.28-53.09,0-105.09-18.19-155.38-26.44-73.29-73.09-131.1-133.11-178.51C750.42,583.57,714,562.3,675.65,544.4c-5.25-2.45-10.92-5.47-16.42-5.54-14.24-.19-28.5,1.7-42.75,1.72-26.88,0-53.85.63-80.61-1.37-27.47-2.05-54.75-6.77-82.08-10.57-22.48-3.13-44.54-9.66-64.54-20.5-18.16-9.84-30.87-25.76-53.36-23.15-12.2,1.42-23.58,6.65-34.72,11.81C262,514.94,222.3,528,188.51,555.77c-1.68,1.38-3.34,2.8-6.13,5.15,10.84-2.26,19.88-4.49,29-6a269.54,269.54,0,0,1,86.3-.42,236,236,0,0,1,79.46,27.41c39.44,22.22,70.43,53.61,94,92.42,18.55,30.58,29.32,64.13,34.68,99.68a327.68,327.68,0,0,1-3.3,115.34c-5.89,28.84-14.81,56.81-29.08,82.64-13.44,24.33-27.58,41-47.88,59.48-28.39,25.88-51.76,50.06-91.72,55.11-33.77,4.27-67.66,2-101.31-1.23-30.9-3-61.55-8.54-92.33-12.77-18.68-2.57-32-11.73-38.2-30.42C101.42,1040.47,99.32,1039.31,97.94,1037.89Z"/><path d="M841.81,1143.12c-2.21,1.14-2.87,1.39-3.45,1.79-11.87,8.15-23.82,16.21-35.52,24.61a7.93,7.93,0,0,0-2.81,6.13c1.65,14.13,3.29,28.3,5.84,42.28,1.93,10.55,5.06,20.89,8,31.23.49,1.72,2.81,2.91,4.28,4.35a37.7,37.7,0,0,0,4.08-4.61,11.9,11.9,0,0,0,1.18-4.19q8.72-44.58,17.35-89.17C841.47,1151.9,841.42,1148.12,841.81,1143.12Z"/><path d="M732.5,1204.11c-6.74,2.4-12.12,4.66-17.71,6.18-4.55,1.25-5.22,3.49-3.8,7.58,3.84,11,7.28,22.17,11.28,33.12.78,2.11,3.43,3.53,5.21,5.27,1.28-2.17,3.54-4.27,3.69-6.51.74-11.64,1-23.31,1.31-35C732.58,1211.57,732.5,1208.35,732.5,1204.11Z"/><path d="M312.3,1208.74c5.71,16.57,11.56,31,20.41,44.16a4.1,4.1,0,0,0,3.61,1.43,4.44,4.44,0,0,0,2.26-3.3c.85-10.2,1.56-20.41,2.05-30.63.06-1.25-1.2-3.36-2.29-3.73C330.28,1214,322.1,1211.67,312.3,1208.74Z"/><path class="cls-3" d="M841.81,1143.12c-.39,5-.34,8.78-1,12.42q-8.55,44.61-17.35,89.17a11.9,11.9,0,0,1-1.18,4.19,37.7,37.7,0,0,1-4.08,4.61c-1.47-1.44-3.79-2.63-4.28-4.35-3-10.34-6.08-20.68-8-31.23-2.55-14-4.19-28.15-5.84-42.28a7.93,7.93,0,0,1,2.81-6.13c11.7-8.4,23.65-16.46,35.52-24.61C838.94,1144.51,839.6,1144.26,841.81,1143.12Z"/><path class="cls-3" d="M732.5,1204.11c0,4.24.08,7.46,0,10.67-.35,11.66-.57,23.33-1.31,35-.15,2.24-2.41,4.34-3.69,6.51-1.78-1.74-4.43-3.16-5.21-5.27-4-11-7.44-22.11-11.28-33.12-1.42-4.09-.75-6.33,3.8-7.58C720.38,1208.77,725.76,1206.51,732.5,1204.11Z"/><path class="cls-3" d="M312.3,1208.74c9.8,2.93,18,5.26,26,7.93,1.09.37,2.35,2.48,2.29,3.73-.49,10.22-1.2,20.43-2.05,30.63a4.44,4.44,0,0,1-2.26,3.3,4.1,4.1,0,0,1-3.61-1.43C323.86,1239.79,318,1225.31,312.3,1208.74Z"/><path class="cls-8" d="M253.88,496.38c-20.82,1.35-20.32,20.89-15.85,33.93,5.95,17.39,50.69,10.48,61.84,4.79a393.52,393.52,0,0,0,37.39-21.76c5.31-3.5,11.88-7.76,14.92-13.57,4.2-8.06-2-11.46-6.59-18.29C311.32,418.89,294.55,488.3,253.88,496.38Z"/><path class="cls-8" d="M374,436.28c9.17-2.45,18.36-4.48,27.55-6.42s18.41-3.69,27.62-5.37q27.66-5,55.51-8.47t56-5.41c18.76-1.23,37.62-1.85,56.58-1.62a515.22,515.22,0,0,1,57,3.68A366.92,366.92,0,0,1,710.72,424c4.65,1.24,9.23,2.85,13.81,4.33,2.29.72,4.55,1.6,6.82,2.44l6.76,2.56c2.24.9,4.46,1.87,6.67,2.83s4.44,1.84,6.6,2.93l6.5,3.18,3.23,1.59,3.17,1.73,6.3,3.51c1,.56,2.07,1.21,3.1,1.83s2,1.26,3.06,1.9c2,1.3,4.06,2.52,6,3.87s3.92,2.74,5.87,4.12l2.91,2.07c1,.69,1.9,1.45,2.83,2.19l5.58,4.46c.92.74,1.83,1.5,2.71,2.31l2.65,2.38q2.64,2.4,5.21,4.85-3.34-1.29-6.6-2.62c-2.2-.86-4.29-1.86-6.52-2.62l-6.53-2.5c-1.09-.4-2.16-.85-3.25-1.24L784.37,469c-2.19-.76-4.37-1.51-6.52-2.3s-4.39-1.41-6.57-2.11-4.33-1.46-6.54-2.07l-6.59-1.87-3.26-1-3.31-.85L745,457.11c-4.41-1.06-8.84-2-13.23-3-8.87-1.77-17.71-3.44-26.64-4.73-35.63-5.3-71.79-6.89-108.33-7.38s-73.46.18-110.63-.11c-18.59-.12-37.24-.51-56-1.28-9.35-.43-18.71-.9-28.09-1.6S383.36,437.49,374,436.28Z"/><path class="cls-8" d="M441.31,441.49a39,39,0,0,1,12,3.67,44.6,44.6,0,0,1,9.24,6,48,48,0,0,1,16.8,36.2A45.18,45.18,0,0,1,478,498.31a38.87,38.87,0,0,1-5,11.55,43,43,0,0,1-5.72-3.22,57.36,57.36,0,0,1-4.72-3.35c-1.47-1.13-2.8-2.27-4-3.43a48.69,48.69,0,0,1-3.52-3.52A58.11,58.11,0,0,1,440,463.93a48.34,48.34,0,0,1-.41-4.95,52,52,0,0,1,0-5.3,57.55,57.55,0,0,1,.48-5.76A43.18,43.18,0,0,1,441.31,441.49Z"/><path class="cls-8" d="M431.14,409.48l-.15-.8-.12-.73c-.09-.48-.18-.95-.28-1.41-.17-.88-.35-1.68-.52-2.44s-.41-1.52-.63-2.23-.34-1.27-.59-1.93l-1.17-3.42-.52-1.56c-.14-.49-.29-.93-.42-1.45a22.53,22.53,0,0,1-.23-11.66,29.88,29.88,0,0,1,10.23-16.11,30.87,30.87,0,0,1,4.05-2.68,26.2,26.2,0,0,1,4.88-1.92,21,21,0,0,1,2.8-.51c.5,0,1-.08,1.48-.1l.73,0,.79,0,.34.74.29.69c.19.45.39.89.59,1.32l1,2.34,1.88,4.08c.56,1.27,1.13,2.46,1.53,3.53a30.9,30.9,0,0,1,1.15,3.27,24.18,24.18,0,0,1,.34,13,29.23,29.23,0,0,1-8,14,27.15,27.15,0,0,1-3.78,3.06,26.86,26.86,0,0,1-4.59,2.36,21.5,21.5,0,0,1-5.28,1.18A17.27,17.27,0,0,1,431.14,409.48Z"/><path class="cls-8" d="M531.61,406.53c.33-1.23.72-2.28,1.08-3.34s.73-2,1.12-3c.73-1.94,1.49-3.7,2.23-5.4a101.77,101.77,0,0,1,4.62-9.18,86.2,86.2,0,0,1,10.17-14.3,89.49,89.49,0,0,1,11.92-11.22c2.2-1.78,4.59-3.55,7.2-5.64.34-.26.69-.53,1-.81s.63-.56,1-.85c.74-.57,1.35-1.19,2.12-1.84.38-.33.71-.67,1.09-1l1.13-1.09c.8-.76,1.51-1.57,2.44-2.47a17.57,17.57,0,0,1,2.56,2.54,21.15,21.15,0,0,1,1.94,2.89,25.47,25.47,0,0,1,2.49,6.37,33.38,33.38,0,0,1,.42,13.18,40.94,40.94,0,0,1-3.87,11.9,46.61,46.61,0,0,1-25.83,22.87,40.93,40.93,0,0,1-11.8,2.31c-1.06,0-2.09.05-3.15,0s-2.13-.12-3.22-.28A27.73,27.73,0,0,1,531.61,406.53Z"/><path class="cls-8" d="M535.9,453a29.37,29.37,0,0,1,6.58-.64,39.87,39.87,0,0,1,6,.62,43.25,43.25,0,0,1,5.6,1.56,44.22,44.22,0,0,1,5.15,2.32,43.09,43.09,0,0,1,22.07,35.51,46,46,0,0,1-.2,5.62,43.78,43.78,0,0,1-1.07,5.69,42.13,42.13,0,0,1-2.09,5.7,30.11,30.11,0,0,1-3.46,5.66,50.29,50.29,0,0,1-5.47-3.46c-1.69-1.12-3.15-2.23-4.54-3.32s-2.72-2.14-3.91-3.2-2.4-2.09-3.43-3.15a64.6,64.6,0,0,1-10.31-12.76,66.86,66.86,0,0,1-6.77-14.9c-.46-1.4-.91-2.86-1.28-4.44s-.82-3.14-1.15-4.9-.74-3.5-1-5.5A53.57,53.57,0,0,1,535.9,453Z"/><path class="cls-8" d="M647.18,400a48.84,48.84,0,0,1,2-5.87c.67-1.8,1.39-3.37,2.1-4.89s1.44-2.95,2.18-4.26a42.46,42.46,0,0,1,2.25-3.76,49.23,49.23,0,0,1,10.2-11.5A48,48,0,0,1,679.25,362a41.93,41.93,0,0,1,4.15-1.43c1.45-.46,3-.88,4.64-1.24s3.35-.75,5.26-1a47.15,47.15,0,0,1,6.18-.67,32.75,32.75,0,0,1,1.16,11.91,36,36,0,0,1-2.39,10.17A38.87,38.87,0,0,1,669,403.4a35.62,35.62,0,0,1-10.48.23A32.16,32.16,0,0,1,647.18,400Z"/><path class="cls-8" d="M637.12,441.93l.64.53.58.5,1.13,1,2,1.75c1.36,1.12,2.49,2.11,3.57,3s2.14,1.79,3.06,2.62,1.84,1.66,2.63,2.47A30,30,0,0,1,657.87,465a33.62,33.62,0,0,1,1.77,15.69,35.47,35.47,0,0,1-.91,4.59A33.58,33.58,0,0,1,657,490a30.08,30.08,0,0,1-2.76,4.63,24.17,24.17,0,0,1-1.88,2.21l-1.11,1.06-.56.52-.63.5-.73-.41-.65-.4-1.29-.77c-.8-.5-1.57-1-2.26-1.44-1.51-.93-2.8-1.8-4-2.63s-2.39-1.66-3.41-2.47a32.64,32.64,0,0,1-2.92-2.49,29.92,29.92,0,0,1-7.95-12.08,32.88,32.88,0,0,1-1.43-16.91,34,34,0,0,1,1.28-4.77,31.35,31.35,0,0,1,2.24-4.68,28.05,28.05,0,0,1,3.37-4.34,24.28,24.28,0,0,1,2.22-1.92l1.26-.87.64-.41Z"/><path class="cls-9" d="M77.48,896.48c-3.57,8.29-6.19,14.38-8.82,20.36-1.15-.1-2.3-.1-3.46-.21-.42-6.82-.94-13.75-1.47-22,5,.74,8.71,1.16,13.75,1.89"/><path class="cls-9" d="M47.78,579.05c1.57-8.09,4.4-15.85,5.14-23.94.31-3.57-2.73-7.55-4.31-11.33-3.67,2.73-9.55,4.83-10.7,8.39C29.09,577.68,22.27,603.93,26.78,631c2.42,14.59,8.92,28.45,12.7,42.83,1.37,5.35.42,11.44.42,17.11L56,660.4c-13-27.29-13.43-54.06-8.18-81.35"/><path class="cls-10" d="M357,619.25,480.57,739.76s48.5,63.72,69.28,20.47a32.28,32.28,0,0,0,1.89-5l32.44-108.54c.52-1.68.84-3.47,1.26-5.14,16.69-64-10.29-93.43-43.57-93.11l-147,33.06c-33.8.21-61.72,14.59-37.89,37.79"/><path class="cls-9" d="M201.35,604,114,703.65s-33.27,51.64-51.75,19.73a24.61,24.61,0,0,1-1.78-3.78L29.09,638.25c-.52-1.26-.84-2.62-1.26-3.88-16.69-48.18,2.21-72.22,27.71-74l114.53,16.8c25.82-1.68,48.07,7.66,31.28,26.87"/><path class="cls-9" d="M398.69,635.21l83.25,81.14s32.64,42.93,46.6,13.75a16.27,16.27,0,0,0,1.26-3.46l21.84-73.17c.31-1.15.52-2.31.84-3.46,11.23-43.15-6.93-63-29.4-62.77l-99,22.25c-22.68.42-41.47,10.08-25.41,25.72"/><path class="cls-9" d="M173.74,609.91,114.85,677S92.39,711.84,80,690.32a25.57,25.57,0,0,1-1.15-2.52L57.75,633c-.32-.84-.53-1.78-.84-2.62-11.23-32.44,1.47-48.71,18.68-49.86l77.16,11.33c17.32-1.26,32.33,5,21,18.06"/><path class="cls-10" d="M543,779.86c.1-1,.84,23.09.94,22.15,14.91-132.79-80.72-245.53-213.72-251.83S76.85,621.67,62,754.45c-.53,5.15-1,10.19-1.16,15.23-23.51,28.76-38.73,62-42.83,97.93-13.33,118.31,100.36,245,253.09,252.14s287.41-82.92,300.74-201.23c4.62-40.93-6.61-104.86-28.76-138.66"/><path class="cls-9" d="M457.79,699.13c5.67-50.91-23.2-93.73-64.66-95.62-38.1-1.79-73.58,31.7-83.35,76.73-2.1-.21-4.2-.42-6.3-.53a88.05,88.05,0,0,0-14.9.63c.73-46-26.87-83-65.29-84.81-41.47-1.89-79.68,37.79-85.34,88.7-5.25,46.92,18.89,86.91,55.11,94.47A145.56,145.56,0,0,0,189.59,798c-4.62,40.83,14.38,66.13,45,75.16,42.52,12.59,95.42,14.69,135.31-20.79,11.86-10.49,17.95-28.44,19.74-44.93a146.29,146.29,0,0,0,.84-21.3c34-8.51,62.45-43.78,67.28-87"/><path class="cls-9" d="M291.94,577.26c-.84,7.14-12.81,12.49-26.66,11.86s-24.57-7-23.83-14.17,12.8-12.49,26.66-11.86,24.56,6.93,23.83,14.17"/><path class="cls-9" d="M387.15,581.67c-.84,7.14-12.81,12.49-26.67,11.86s-24.56-7-23.82-14.17,12.8-12.49,26.66-11.86,24.67,7,23.83,14.17"/><path class="cls-9" d="M292.46,750.05c3.68,12.17,13,21.41,23.94,22s22.88-8.29,26.76-21.31"/><path class="cls-9" d="M167.13,715.51c-3.36,5.14-6.51,10.5-9.56,16-19.52,36.21-55.21,24.66-65.39,1.57-6.51-14.8,1.26-38.73,8.61-52.7,15.43-29.6,41.67-46.29,68-55.32a218,218,0,0,1,40.31-9.44c9.55-1.37,23.4-3.68,32,1.26,5,2.94,7.14,8.5,6,15.64-3,18.68-32.75,31.59-44.29,41.67a202.79,202.79,0,0,0-35.69,41.36"/><path class="cls-9" d="M430.5,729.79c7.66,14.38,12,32.85,26.35,38.84,14.8,6.19,34.64-.32,45.77-16.28,9.76-14,7.34-38.41,3.25-53a90.83,90.83,0,0,0-38.94-52.27c-17.95-11.55-36.53-17.32-57.21-23.41-13.86-4.2-31.92-10.39-42.52,5.35-5.14,7.56-5.25,17.43-3.46,25.83,2.31,10.7,7.87,17.21,15.53,22.78,4.1,2.93,8.4,5.56,12.6,8.5,14.7,10.39,27.29,24.46,37.16,41.15a13.8,13.8,0,0,1,1.47,2.52"/><path class="cls-9" d="M205.65,784.79a355.47,355.47,0,0,0-1.89,51.75c-3.67,1.47-7.45-2-8.19-6s.53-8.4,1.79-12.49"/><path class="cls-9" d="M204.6,785.53A103.29,103.29,0,0,0,189.8,840"/><path class="cls-9" d="M443.73,850.92c-9-1.26-15.54-4.51-18.79-16.58-5.15-18.79-12.49-36.74-24.15-52.59-22.46-30.76-57.63-48.61-96.05-51.86-77.25-6.4-133.83,25.51-162.28,115.57a120.4,120.4,0,0,0-19.32-7.87c-20.36-6.61-49.86-3.57-47,33.17,1.36,17.85,11,27.4,32.43,35-2,5.35-3.78,10.7-5.56,16.48-15.54,52.38,19.84,100.56,64.35,126.91,53.95,31.91,117.46,39.68,175.19,13.75,32.23-14.49,61-34.33,70.54-68.23,5.67-20.26,11.34-42.31,3.05-61.72,34.74,8.39,74.63-9.77,76.1-46.72.74-19.31-20.68-33.38-39.36-34.43-3.26-.31-6.3-.42-9.13-.84"/><path class="cls-9" d="M272.52,958.52c-1.16,10.29-15.85,18-32.75,17.21s-29.71-9.76-28.55-20.05,15.85-17.95,32.75-17.21,29.7,9.76,28.55,20"/><path class="cls-9" d="M338.34,930.18c-2.73,24.45-15.12,43.87-27.72,43.24s-20.47-20.89-17.74-45.34S308,884.2,320.6,884.83s20.57,20.78,17.74,45.35"/><path class="cls-9" d="M207.33,920.1c-2.73,24.46-15.11,43.88-27.71,43.25S159.15,942.46,161.88,918s15.11-43.88,27.71-43.25,20.47,20.89,17.74,45.35"/><path class="cls-9" d="M424.2,769.78c-14.27-25.19-60.78-65.08-91.53-69.39-9.45-1.36-19.32-1.47-28.45,1.79-5.25,1.89-6.09-.74-11.23,4.3a44,44,0,0,0-14.49-12.7c-8.29-4.09-18.16-4.83-27.82-4.41-31.49,1.37-86.39,36.43-106.12,59.94-20.26,24.14-34.85,53.43-34.33,83.45.11,3.15.32,6.51,1.89,9.24,2,3.36,5.78,5.25,9.45,6.93,34.22,15,92,32.22,129.74,23.41,5.78-1.37,8.72-8.82,5.67-13.86-4.51-7.45-9.34-14.8-8.71-23.51.42-6.09,3.46-13.86,8.4-17,8.5-5.35,17-5,23.3,2.63a7.69,7.69,0,0,0,4.83,2.83c1.89-.1-3-.1-1.47-1.47,8-7,16.38-6.51,23.62-.42,4.2,3.57,5.35,11.55,4.51,17.64-1.26,8.6-7.76,15.43-13.85,22.36-4.2,4.72-2.94,12.38,2.52,14.27,35.48,12.39,87.33,6.3,124.49-5.35,4-1.26,8.19-2.84,10.92-5.88,2.2-2.52,3.15-5.77,4-8.92,7.14-29.71-.74-60-15.33-85.87"/><path class="cls-9" d="M209.12,1010.69c6.08,4.93,12.7,9.55,20.15,12.6a49.3,49.3,0,0,0,24.35,3.88"/><path class="cls-9" d="M211.32,994.42c-.94,17.21-9.13,34.64-19.84,42.2"/><path class="cls-9" d="M334.14,679.4c-1.05,9.76-14.38,17-29.71,16.38s-26.87-9.24-25.82-18.9,14.38-17,29.7-16.27,27,9.13,25.83,18.79"/><path class="cls-9" d="M261.08,637.73c-1.79,16.06-13.86,28.55-26.88,27.92s-22.15-14.07-20.36-30.13S227.7,607,240.71,607.6s22.15,14.07,20.37,30.13"/><path class="cls-9" d="M393,643.92c-1.79,16.06-13.86,28.55-26.88,27.92S344,657.78,345.79,641.72s13.85-28.56,26.87-27.93,22.15,14.07,20.37,30.13"/><path class="cls-4" d="M340.12,603.09l123.55,120.5s48.5,63.72,69.28,20.47a32.28,32.28,0,0,0,1.89-5l32.44-108.54c.52-1.68.84-3.46,1.26-5.14,16.69-64-10.29-93.42-43.57-93.11L378,565.3c-33.8.21-61.72,14.59-37.89,37.79"/><path class="cls-4" d="M184.45,587.87,97.11,687.48s-33.27,51.65-51.75,19.74a25.06,25.06,0,0,1-1.78-3.78L12.19,622.09c-.52-1.26-.84-2.63-1.26-3.89C-5.76,570,13.24,546,38.64,544.2L153.17,561c25.82-1.68,48.07,7.67,31.28,26.88"/><path class="cls-3" d="M381.79,619,465,700.18s32.64,42.94,46.71,13.76a17.53,17.53,0,0,0,1.26-3.47l21.83-73.16c.32-1.16.53-2.31.84-3.47,11.23-43.14-6.93-63-29.29-62.77l-99,22.25c-22.89.42-41.68,10.08-25.62,25.72"/><path class="cls-3" d="M156.84,593.74,98,660.82S75.49,695.67,63.1,674.15A25.57,25.57,0,0,1,62,671.63l-21.1-54.79c-.32-.84-.53-1.79-.84-2.63-11.23-32.43,1.47-48.7,18.68-49.86l77.16,11.34c17.32-1.26,32.33,5,21,18"/><path class="cls-3" d="M526.13,763.69c.1-.94.84,23.1.94,22.15C542,653.05,446.35,540.31,313.35,534S60,605.5,45.05,738.29c-.53,5.14-.95,10.18-1.16,15.22-23.51,28.76-38.73,62-42.83,97.94-13.33,118.3,100.35,245,253.09,252.14s287.41-82.93,300.74-201.23c4.62-40.94-6.61-104.87-28.76-138.67"/><path class="cls-11" d="M440.89,683c5.67-50.91-23.2-93.74-64.66-95.63-38.1-1.78-73.59,31.7-83.35,76.73-2.1-.21-4.2-.42-6.3-.52a88.05,88.05,0,0,0-14.9.63c.73-46-26.87-83-65.29-84.82-41.47-1.89-79.68,37.79-85.34,88.7C115.8,715,139.94,755,176.15,762.54a147.33,147.33,0,0,0-3.46,19.31c-4.62,40.84,14.38,66.13,45,75.16,42.52,12.6,95.42,14.7,135.31-20.78,11.86-10.5,18-28.45,19.74-44.93a146.37,146.37,0,0,0,.84-21.31c34-8.61,62.45-43.77,67.28-87"/><path class="cls-12" d="M274.93,561c-.84,7.14-12.8,12.49-26.66,11.86s-24.56-7-23.83-14.17,12.81-12.49,26.66-11.86c14.07.63,24.67,7,23.83,14.17"/><path class="cls-12" d="M370.25,565.51c-.84,7.13-12.81,12.49-26.67,11.86s-24.56-7-23.82-14.17,12.8-12.49,26.66-11.86,24.67,6.92,23.83,14.17"/><path class="cls-4" d="M150.23,699.34c-3.36,5.15-6.51,10.5-9.56,16-19.52,36.21-55.21,24.67-65.39,1.57-6.51-14.8,1.26-38.73,8.61-52.69,15.43-29.6,41.67-46.29,68-55.32a218.07,218.07,0,0,1,40.31-9.45c9.55-1.36,23.4-3.67,32,1.26,5,2.94,7.14,8.5,6,15.64-3,18.69-32.75,31.6-44.29,41.68a202.47,202.47,0,0,0-35.69,41.35"/><path class="cls-4" d="M413.6,713.62c7.66,14.38,12,32.86,26.35,38.84,14.8,6.19,34.64-.32,45.76-16.27,9.77-14,7.35-38.42,3.26-53a90.82,90.82,0,0,0-39-52.28c-17.95-11.54-36.53-17.32-57.2-23.41C379,603.3,360.9,597.1,350.3,612.85c-5.14,7.56-5.25,17.42-3.46,25.82,2.31,10.71,7.87,17.22,15.53,22.78,4.1,2.94,8.4,5.56,12.6,8.5,14.7,10.39,27.29,24.46,37.16,41.15a15.18,15.18,0,0,1,1.47,2.52"/><path class="cls-13" d="M177.73,768.52a354.91,354.91,0,0,0-1.89,51.75c2.62-3.46,5.35-7,8-10.5-.95.32-.95.32.1.11a4.31,4.31,0,0,1,2.31,0c.42.21,1,.31,1.37.52,1.15,1,1.36,1.16.84.53-.95-.84,1.15,1.78.21.1.52,1.37.63,1.58.42.74s-.11-.53.1.73c-.31-.42,0-1.78,0-2.2,0-1.26-.42,1.78.11-.21.42-1.79.94-3.57,1.47-5.35,1.68-5.46-2-12.18-7.67-13.44A11.13,11.13,0,0,0,169.65,799c-2.31,7.45-3.57,15.12-.21,22.36,3.46,7.45,12.07,12.07,20.15,9.55,4.52-1.36,8.19-5.67,8-10.49a354.86,354.86,0,0,1,1.89-51.75c.63-5.67-5.46-11.13-10.92-10.92-6.3.21-10.08,4.72-10.81,10.81"/><path class="cls-13" d="M178.25,763.8A114,114,0,0,0,162,823.74c.11,5.66,4.94,11.23,10.92,10.91s11-4.83,10.92-10.91a106.93,106.93,0,0,1,.73-14.18c-.31,2.63.11-.52.11-.84.21-1.26.42-2.51.73-3.77a65.07,65.07,0,0,1,1.58-6.51,104.77,104.77,0,0,1,4.3-12.7c-.94,2.3.63-1.37.84-1.79.42-.84.84-1.68,1.26-2.62,1.15-2.31,2.41-4.52,3.67-6.72,2.94-4.93,1.26-12.18-3.88-14.91a11.31,11.31,0,0,0-14.91,4.1"/><path class="cls-14" d="M426.83,834.76c-9-1.26-15.54-4.52-18.79-16.59-5.15-18.79-12.5-36.74-24.15-52.59-22.46-30.76-57.63-48.6-96.05-51.85C210.59,707.32,154,739.23,125.56,829.3a118.58,118.58,0,0,0-19.32-7.87c-20.36-6.62-49.86-3.57-47,33.17,1.36,17.84,11,27.39,32.43,34.95-2,5.36-3.78,10.71-5.56,16.48-15.54,52.38,19.84,100.57,64.35,126.91,53.95,31.91,117.46,39.68,175.19,13.75,32.23-14.48,61-34.32,70.54-68.23,5.67-20.26,11.34-42.3,3.05-61.72,34.74,8.4,74.63-9.76,76.1-46.71.74-19.32-20.68-33.38-39.36-34.43-3.26-.32-6.3-.42-9.13-.84"/><path class="cls-15" d="M255.62,942.35c-1.16,10.29-15.85,17.95-32.75,17.22s-29.71-9.76-28.56-20.05,15.86-17.95,32.76-17.22,29.7,9.66,28.55,20.05"/><path class="cls-16" d="M321.43,913.91c-2.72,24.45-15.11,43.87-27.71,43.24S273.25,936.26,276,911.81s15.12-43.88,27.71-43.25,20.58,20.89,17.74,45.35"/><path class="cls-16" d="M190.43,903.93c-2.73,24.46-15.11,43.88-27.71,43.25S142.25,926.29,145,901.83s15.11-43.87,27.71-43.24,20.47,20.88,17.74,45.34"/><path class="cls-17" d="M317.24,663.23c-1.05,9.77-14.38,17-29.71,16.38s-26.87-9.24-25.82-18.89,14.38-17,29.7-16.28,27,9,25.83,18.79"/><path class="cls-16" d="M244.18,626.64c-1.79,18.76-13.86,33.35-26.88,32.62s-22.15-16.44-20.36-35.2,13.86-33.36,26.87-32.62,22.15,16.43,20.37,35.2"/><path class="cls-16" d="M376.12,633.87c-1.78,18.77-13.85,33.36-26.87,32.62s-22.15-16.43-20.36-35.19,13.85-33.36,26.87-32.63,22.15,16.44,20.36,35.2"/><path class="cls-18" d="M279.87,987.28c1.47,14.91-2.31,27.5-21.52,25a10.75,10.75,0,0,0-1.79-.1c-19.21.21-35.48-4.83-27.08-15.64a13,13,0,0,1,3-2.84c6.3-4,18.9-9.44,28.56-15.53A12.28,12.28,0,0,1,279.87,987.28Z"/><path class="cls-19" d="M677.8,637.72a35.46,35.46,0,0,0,1.12,17.08"/><path class="cls-19" d="M867.33,746.23a35.5,35.5,0,0,0,1.12,17.09"/><path class="cls-19" d="M623.44,711.25c-2.66,4.91,3.93,11.51,8.84,8.86"/><path class="cls-19" d="M709.37,729.26C703.2,740.67,718.53,756,730,749.87"/><path class="cls-19" d="M383.07,527.5c-2.65,4.9,3.94,11.5,8.85,8.85"/><path class="cls-19" d="M610.64,858.22c-4.39,7.34,2,18.4,10.54,18.26"/><path class="cls-19" d="M594.82,955.59c-1.17,8.56,6.44,17.24,15.08,17.19"/><path class="cls-19" d="M538.7,1042.22c-2.18,6.82,3.84,14.88,11,14.75"/><path class="cls-19" d="M467,1106.2c-3.3,1-.48,6,2.67,7.38a47.15,47.15,0,0,0,23.56,3.76"/><path class="cls-19" d="M561,1143.7h47"/><path class="cls-19" d="M642.3,1088.09a35.17,35.17,0,0,0,18.35-32.8"/><path class="cls-19" d="M709.59,987.57V950"/><path class="cls-19" d="M762,1033.15a15.91,15.91,0,0,0,11.48,1.31"/><path class="cls-19" d="M801.4,940.51l4.44-43.2"/><path class="cls-19" d="M846.91,823.92V799.46"/><path class="cls-19" d="M912.75,935V910.52"/><path class="cls-19" d="M794.24,788.17H775.43"/><path class="cls-19" d="M678.6,808.23H659.79"/><path class="cls-19" d="M756.62,844.61V865.3"/><path class="cls-19" d="M867.61,906.68V933"/><path class="cls-19" d="M867.61,1010.15v5.64"/><path class="cls-19" d="M824.28,1081.38l-7.5,2"/><path class="cls-19" d="M767.88,1125.07a47.58,47.58,0,0,0-37.36,9.52"/><path class="cls-19" d="M679.62,1149.69a60.7,60.7,0,0,1-28.33,3.31"/><path class="cls-19" d="M564.75,1192.61H544.06"/><path class="cls-19" d="M429.31,1162.51H401.09"/><path class="cls-19" d="M307,1155H293.87"/><path class="cls-19" d="M726.84,585.62a35.46,35.46,0,0,1,25.82,27.65"/><path class="cls-19" d="M653.16,607.59v13.17"/><path class="cls-19" d="M808.23,677a73.71,73.71,0,0,1,.92,22.72"/><path class="cls-4" d="M407.93,761.93c-34.29-39.37-95.5-77-146-49.64-31-30.17-79.07-9.37-116.26,12.52-27.51,16.42-48.23,42.76-51.74,72.94-15.12,49,146.06,48.36,166.14,51.48,56,5.17,110,8.43,163.45-8.89C441.61,820.15,419.48,776.37,407.93,761.93Z"/><path class="cls-3" d="M464.24,1251.29c7.77,0,14.29-.13,20.79.15,1,0,2.79,2.24,2.5,3.08a68,68,0,0,1-5.57,12.75,8.42,8.42,0,0,1-6,3.33c-2,0-5.13-1.87-5.87-3.44C467.72,1262.07,466.18,1256.74,464.24,1251.29Z"/></g></g></svg>